<?xml version="1.0" standalone="no"?>
<!DOCTYPE svg PUBLIC "-//W3C//DTD SVG 1.1//EN" "http://www.w3.org/Graphics/SVG/1.1/DTD/svg11.dtd" >
<svg>
<metadata>
Created by FontForge 20090914 at Thu Jul  9 17:19:52 2015
 By www-data
&#194;&#169; 2011 Klim Type Foundry. All rights reserved.
</metadata>
<defs>
<font id="CalibreRegular" horiz-adv-x="500" >
  <font-face 
    font-family="Calibre Regular"
    font-weight="400"
    font-stretch="normal"
    units-per-em="1000"
    panose-1="2 11 5 3 3 2 2 6 2 3"
    ascent="650"
    descent="-350"
    x-height="444"
    cap-height="614"
    bbox="-120 -201 908 894"
    underline-thickness="30"
    underline-position="-40"
    unicode-range="U+0020-U+FB02"
  />
<missing-glyph horiz-adv-x="608" 
 />
    <glyph glyph-name="f_f" unicode="ff" horiz-adv-x="550" 
d="M550 649l0.000976562 -67.998c-13.333 8 -29.333 12 -48 12c-22 0 -39.5 -7 -52.5 -21s-19.5 -34 -19.5 -60v-68h100v-64h-100v-380h-75v380h-186v-380h-74v380h-75v64h75v68c0 43.333 12.667 77.666 38 102.999s58 38 98 38c22.667 0 42 -3.33301 58 -10v-68
c-12.667 8 -28.334 12 -47.001 12c-22.667 0 -40.5 -7 -53.5 -21s-19.5 -34 -19.5 -60v-62h186v74c0 43.333 12.667 77.666 38 102.999s58 38 98 38c23.333 0 43 -3.33301 59 -10z" />
    <glyph glyph-name=".notdef" horiz-adv-x="608" 
 />
    <glyph glyph-name="space" unicode=" " horiz-adv-x="221" 
 />
    <glyph glyph-name="exclam" unicode="!" horiz-adv-x="203" 
d="M48 49c0 15.333 5.16699 28.333 15.5 39s22.833 16 37.5 16c15.333 0 28.166 -5.33301 38.499 -16s15.5 -23.667 15.5 -39s-5.16699 -28.166 -15.5 -38.499s-23.166 -15.5 -38.499 -15.5c-14.667 0 -27.167 5.16699 -37.5 15.5s-15.5 23.166 -15.5 38.499zM74 193
l-17 421h89l-18 -421h-54z" />
    <glyph glyph-name="quotedbl" unicode="&#x22;" horiz-adv-x="265" 
d="M40 395v219h66v-219h-66zM159 395v219h66v-219h-66z" />
    <glyph glyph-name="numbersign" unicode="#" horiz-adv-x="576" 
d="M511 235l-12 -59h-104l-42 -176h-68l42 176h-141l-42 -176h-67l42 176h-96l13 59h97l34 144h-102l12 59h104l42 176h68l-43 -176h141l43 176h67l-42 -176h95l-12 -59h-97l-34 -144h102zM234 379l-34 -144h141l34 144h-141z" />
    <glyph glyph-name="dollar" unicode="$" horiz-adv-x="477" 
d="M210 -89l-0.00292969 99c-48 5.33301 -88.167 21.5 -120.5 48.5s-53.166 62.833 -62.499 107.5h76c21.333 -61.333 69 -92 143 -92c38 0 68.667 8.83301 92 26.5s35 41.834 35 72.501c0 45.333 -30.333 75.666 -91 90.999l-102 27c-92.667 23.333 -139 74 -139 152
c0 45.333 15.667 82.833 47 112.5s72 46.167 122 49.5v90h69v-93c86 -14.667 139.333 -64.334 160 -149.001h-74c-19.333 58.667 -64.666 88 -135.999 88c-34.667 0 -62.667 -8.33301 -84 -25s-32 -39.667 -32 -69c0 -24 7.5 -42.667 22.5 -56s38.167 -24.333 69.5 -33
l97 -25c94.667 -24.667 142 -77 142 -157c0 -46.667 -15.167 -84.667 -45.5 -114s-70.166 -46.666 -119.499 -51.999v-99h-69z" />
    <glyph glyph-name="percent" unicode="%" horiz-adv-x="642" 
d="M99 0l383 614h62l-383 -614h-62zM92 490c0 -20.667 7.16699 -38.167 21.5 -52.5s31.833 -21.5 52.5 -21.5s38.334 7.16699 53.001 21.5s22 31.833 22 52.5s-7.33301 38.334 -22 53.001s-32.334 22 -53.001 22s-38.167 -7.33301 -52.5 -22s-21.5 -32.334 -21.5 -53.001z
M609 124c0 -37.333 -12.833 -68.833 -38.5 -94.5s-57.167 -38.5 -94.5 -38.5s-68.833 12.833 -94.5 38.5s-38.5 57.167 -38.5 94.5s12.833 68.833 38.5 94.5s57.167 38.5 94.5 38.5s68.833 -12.833 94.5 -38.5s38.5 -57.167 38.5 -94.5zM299 490
c0 -37.333 -12.833 -68.833 -38.5 -94.5s-57.167 -38.5 -94.5 -38.5s-68.833 12.833 -94.5 38.5s-38.5 57.167 -38.5 94.5s12.833 68.833 38.5 94.5s57.167 38.5 94.5 38.5s68.833 -12.833 94.5 -38.5s38.5 -57.167 38.5 -94.5zM550 124
c0 20.667 -7.16699 38.167 -21.5 52.5s-31.833 21.5 -52.5 21.5s-38.334 -7.16699 -53.001 -21.5s-22 -31.833 -22 -52.5s7.33301 -38.334 22 -53.001s32.334 -22 53.001 -22s38.167 7.33301 52.5 22s21.5 32.334 21.5 53.001z" />
    <glyph glyph-name="ampersand" unicode="&#x26;" horiz-adv-x="585" 
d="M434 474h-74.999c-1.33301 26 -9.83301 47.167 -25.5 63.5s-36.834 24.5 -63.501 24.5c-27.333 0 -50 -8.33301 -68 -25s-27 -39 -27 -67c0 -14 3.66699 -28.333 11 -43s14.333 -26 21 -34s18 -20.667 34 -38l172 -183c17.333 40 27 85.333 29 136h70
c-2 -69.333 -19.667 -131.333 -53 -186l115 -122h-99l-61 64c-48.667 -48.667 -107.334 -73 -176.001 -73c-58 0 -105.667 17.667 -143 53s-56 80.333 -56 135c0 36 10.333 69 31 99s47.667 53 81 69c-32.667 40 -49 80.333 -49 121c0 47.333 15.833 85 47.5 113
s71.834 42 120.501 42c50 0 89.333 -14 118 -42s44 -63.667 46 -107zM238.001 54c54.667 0 99.333 18.333 134 55l-179 191c-24 -9.33301 -43.667 -25 -59 -47s-23 -46.667 -23 -74c0 -36.667 11.833 -66.667 35.5 -90s54.167 -35 91.5 -35z" />
    <glyph glyph-name="quotesingle" unicode="'" horiz-adv-x="148" 
d="M40 395v219h68v-219h-68z" />
    <glyph glyph-name="parenleft" unicode="(" horiz-adv-x="321" 
d="M30 283c0 91.333 24.167 170 72.5 236s113.5 109.667 195.5 131v-80c-56 -14 -102.167 -46.667 -138.5 -98s-54.5 -114.333 -54.5 -189s18.167 -137.667 54.5 -189s82.5 -84 138.5 -98v-80c-82 21.333 -147.167 65 -195.5 131s-72.5 144.667 -72.5 236z" />
    <glyph glyph-name="parenright" unicode=")" horiz-adv-x="321" 
d="M291 283c0 -91.333 -24.167 -170 -72.5 -236s-113.5 -109.667 -195.5 -131v80c56 14 102.167 46.667 138.5 98s54.5 114.333 54.5 189s-18.167 137.667 -54.5 189s-82.5 84 -138.5 98v80c82 -21.333 147.167 -65 195.5 -131s72.5 -144.667 72.5 -236z" />
    <glyph glyph-name="asterisk" unicode="*" horiz-adv-x="332" 
d="M121 506l-90 53l22 38l91 -52v104h44v-104l91 52l22 -38l-91 -53l91 -52l-22 -38l-91 52v-105h-44v105l-91 -52l-22 38z" />
    <glyph glyph-name="plus" unicode="+" horiz-adv-x="540" 
d="M239 494h62v-166h166v-62h-166v-166h-62v166h-166v62h166v166z" />
    <glyph glyph-name="comma" unicode="," horiz-adv-x="171" 
d="M13 -107l63.001 105.999c-29.333 4.66699 -44 21.334 -44 50.001c0 15.333 5.16699 28 15.5 38s23.166 15 38.499 15s28 -5.16699 38 -15.5s15 -24.5 15 -42.5c0 -18.667 -7.33301 -39.667 -22 -63l-53 -88h-51z" />
    <glyph glyph-name="hyphen" unicode="-" horiz-adv-x="321" 
d="M40 226v70h241v-70h-241z" />
    <glyph glyph-name="period" unicode="." horiz-adv-x="171" 
d="M32 49c0 15.333 5.16699 28.333 15.5 39s23.166 16 38.499 16c14.667 0 27.167 -5.33301 37.5 -16s15.5 -23.667 15.5 -39s-5.16699 -28.166 -15.5 -38.499s-22.833 -15.5 -37.5 -15.5c-15.333 0 -28.166 5.16699 -38.499 15.5s-15.5 23.166 -15.5 38.499z" />
    <glyph glyph-name="slash" unicode="/" horiz-adv-x="333" 
d="M5 -84l248 734h75l-248 -734h-75z" />
    <glyph glyph-name="zero" unicode="0" horiz-adv-x="538" 
d="M269 -9c-68 0 -123.167 29.167 -165.5 87.5s-63.5 134.5 -63.5 228.5s21.167 170.167 63.5 228.5s97.5 87.5 165.5 87.5s123.167 -29.167 165.5 -87.5s63.5 -134.5 63.5 -228.5s-21.167 -170.167 -63.5 -228.5s-97.5 -87.5 -165.5 -87.5zM269 552
c-48.667 0 -86.167 -22.333 -112.5 -67s-39.5 -104 -39.5 -178s13.167 -133.333 39.5 -178s63.833 -67 112.5 -67c48 0 85.333 22.5 112 67.5s40 104.167 40 177.5s-13.333 132.5 -40 177.5s-64 67.5 -112 67.5z" />
    <glyph glyph-name="one" unicode="1" horiz-adv-x="329" 
d="M254 615v-615h-77v520l-152 -78v80l182 93h47z" />
    <glyph glyph-name="two" unicode="2" horiz-adv-x="457" 
d="M341 449c0 31.333 -10.0049 56.499 -30.0049 75.499s-47 28.5 -81 28.5c-36 0 -64.167 -11.167 -84.5 -33.5s-32.166 -52.166 -35.499 -89.499h-81c6 58 27 104.667 63 140s82 53 138 53c58 0 103.667 -15.667 137 -47s50 -73.333 50 -126
c0 -9.33301 -1.16699 -19 -3.5 -29s-4.66602 -18.667 -6.99902 -26s-6.66602 -16.5 -12.999 -27.5s-11.166 -19.167 -14.499 -24.5s-10 -14 -20 -26l-20 -24c-3.33301 -4 -11.166 -12.833 -23.499 -26.5s-19.833 -22.167 -22.5 -25.5l-156 -171h293v-70h-401v52l198 218
l61 68c10.667 12 22.167 29 34.5 51s18.5 42 18.5 60z" />
    <glyph glyph-name="three" unicode="3" horiz-adv-x="460" 
d="M184 281l0.000976562 67.001h41c33.333 0 60.833 9.16699 82.5 27.5s32.5 43.5 32.5 75.5c0 30 -10.167 54.833 -30.5 74.5s-47.5 29.5 -81.5 29.5s-61.667 -10 -83 -30s-34.333 -46.333 -39 -79h-77c7.33301 52.667 29 95.334 65 128.001s80.667 49 134 49
c57.333 0 102.833 -15.5 136.5 -46.5s50.5 -71.5 50.5 -121.5c0 -33.333 -8.83301 -62.833 -26.5 -88.5s-40.834 -42.834 -69.501 -51.501c33.333 -9.33301 59.666 -26.833 78.999 -52.5s29 -55.834 29 -90.501c0 -52 -17.833 -95.167 -53.5 -129.5
s-83.5 -51.5 -143.5 -51.5s-109.167 16.667 -147.5 50s-60.166 78 -65.499 134h77c5.33301 -36 19.666 -64.333 42.999 -85s54 -31 92 -31c36.667 0 66.334 10.167 89.001 30.5s34 47.5 34 81.5c0 33.333 -11.833 60 -35.5 80s-53.5 30 -89.5 30h-43z" />
    <glyph glyph-name="four" unicode="4" horiz-adv-x="509" 
d="M338 614l-229 -409h196v148h73v-148h108v-66h-108v-139h-73v139h-283v56l236 419h80z" />
    <glyph glyph-name="five" unicode="5" horiz-adv-x="469" 
d="M237 330c-43.333 0 -79.6689 -17.6689 -109.002 -53.002h-62v337h336v-70h-270v-185c28.667 26 66 39 112 39c56.667 0 103 -19.167 139 -57.5s54 -87.166 54 -146.499c0 -58 -18.667 -106.333 -56 -145s-85 -58 -143 -58c-58.667 0 -106.667 16.333 -144 49
s-59.666 77.667 -66.999 135h77c14 -77.333 58.667 -116 134 -116c36.667 0 66.667 12.833 90 38.5s35 57.834 35 96.501s-11.667 71 -35 97s-53.666 39 -90.999 39z" />
    <glyph glyph-name="six" unicode="6" 
d="M127 196c0 -40 12.333 -73.001 37 -99.001s56.667 -39 96 -39c38.667 0 70.334 12.833 95.001 38.5s37 58.834 37 99.501s-12.333 74.167 -37 100.5s-56.334 39.5 -95.001 39.5c-39.333 0 -71.333 -13 -96 -39s-37 -59.667 -37 -101zM456 470.999h-78
c-18.667 58 -56.334 87 -113.001 87c-44.667 0 -81.667 -22.5 -111 -67.5s-44 -100.833 -44 -167.5c0 -2 0.166992 -6.5 0.5 -13.5s0.5 -11.5 0.5 -13.5c10 31.333 29.333 56.666 58 75.999s61 29 97 29c58 0 105.667 -19.833 143 -59.5s56 -87.834 56 -144.501
c0 -58 -19 -106.833 -57 -146.5s-87.667 -59.5 -149 -59.5c-83.333 0 -144.333 39 -183 117c-24 50.667 -36 113.334 -36 188.001c0 98.667 20.833 177.834 62.5 237.501s95.834 89.5 162.501 89.5c101.333 0 165 -50.667 191 -152z" />
    <glyph glyph-name="seven" unicode="7" horiz-adv-x="440" 
d="M415 553l-219 -553h-79l217 544h-316v70h397v-61z" />
    <glyph glyph-name="eight" unicode="8" horiz-adv-x="487" 
d="M243 55c39.333 0 71.5 11 96.5 33s37.5 50.333 37.5 85s-12.5 62.834 -37.5 84.501s-57.167 32.5 -96.5 32.5c-38.667 0 -70.5 -10.833 -95.5 -32.5s-37.5 -49.834 -37.5 -84.501s12.5 -63 37.5 -85s56.833 -33 95.5 -33zM243 356c32.667 0 59.667 9.33301 81 28
s32 43 32 73s-10.667 54.5 -32 73.5s-48.333 28.5 -81 28.5c-32 0 -58.667 -9.5 -80 -28.5s-32 -43.5 -32 -73.5c0 -29.333 10.667 -53.5 32 -72.5s48 -28.5 80 -28.5zM243 -9c-60 0 -109.832 16.332 -149.499 48.999s-59.5 75 -59.5 127c0 38.667 11.167 72 33.5 100
s51.166 46.667 86.499 56c-29.333 10 -53 27.333 -71 52s-27 53.334 -27 86.001c0 48.667 17.833 87.834 53.5 117.501s80.167 44.5 133.5 44.5c54 0 98.833 -14.833 134.5 -44.5s53.5 -68.834 53.5 -117.501c0 -32.667 -9.16699 -61.167 -27.5 -85.5
s-41.833 -41.833 -70.5 -52.5c34.667 -9.33301 63.334 -28 86.001 -56s34 -61.333 34 -100c0 -52 -19.833 -94.333 -59.5 -127s-89.834 -49 -150.501 -49z" />
    <glyph glyph-name="nine" unicode="9" 
d="M373 418c0 40 -12.333 73.001 -37 99.001s-56.667 39 -96 39c-38.667 0 -70.334 -12.833 -95.001 -38.5s-37 -58.834 -37 -99.501s12.333 -74.167 37 -100.5s56.334 -39.5 95.001 -39.5c39.333 0 71.333 13 96 39s37 59.667 37 101zM44 143.001h78
c18.667 -58 56.334 -87 113.001 -87c44.667 0 81.667 22.5 111 67.5s44 100.833 44 167.5c0 2 -0.166992 6.5 -0.5 13.5s-0.5 11.5 -0.5 13.5c-10 -31.333 -29.333 -56.666 -58 -75.999s-61 -29 -97 -29c-58 0 -105.667 19.833 -143 59.5s-56 87.834 -56 144.501
c0 58 19 106.833 57 146.5s87.667 59.5 149 59.5c83.333 0 144.333 -39 183 -117c24 -50.667 36 -113.334 36 -188.001c0 -98.667 -20.833 -177.834 -62.5 -237.501s-95.834 -89.5 -162.501 -89.5c-101.333 0 -165 50.667 -191 152z" />
    <glyph glyph-name="colon" unicode=":" horiz-adv-x="171" 
d="M32 49c0 15.333 5.16699 28.333 15.5 39s23.166 16 38.499 16c14.667 0 27.167 -5.33301 37.5 -16s15.5 -23.667 15.5 -39s-5.16699 -28.166 -15.5 -38.499s-22.833 -15.5 -37.5 -15.5c-15.333 0 -28.166 5.16699 -38.499 15.5s-15.5 23.166 -15.5 38.499zM32 363
c0 15.333 5.16699 28.333 15.5 39s23.166 16 38.499 16c14.667 0 27.167 -5.33301 37.5 -16s15.5 -23.667 15.5 -39s-5.16699 -28.166 -15.5 -38.499s-22.833 -15.5 -37.5 -15.5c-15.333 0 -28.166 5.16699 -38.499 15.5s-15.5 23.166 -15.5 38.499z" />
    <glyph glyph-name="semicolon" unicode=";" horiz-adv-x="171" 
d="M13 -107l63.001 105.999c-29.333 4.66699 -44 21.334 -44 50.001c0 15.333 5.16699 28 15.5 38s23.166 15 38.499 15s28 -5.16699 38 -15.5s15 -24.5 15 -42.5c0 -18.667 -7.33301 -39.667 -22 -63l-53 -88h-51zM32.001 362.999c0 15.333 5.16699 28.333 15.5 39
s23.166 16 38.499 16c14.667 0 27.167 -5.33301 37.5 -16s15.5 -23.667 15.5 -39s-5.16699 -28.166 -15.5 -38.499s-22.833 -15.5 -37.5 -15.5c-15.333 0 -28.166 5.16699 -38.499 15.5s-15.5 23.166 -15.5 38.499z" />
    <glyph glyph-name="less" unicode="&#x3c;" horiz-adv-x="423" 
d="M62 256v78l296 151v-71l-238 -119l238 -119v-71z" />
    <glyph glyph-name="equal" unicode="=" horiz-adv-x="551" 
d="M79 199v58h394v-58h-394zM79 337v60h394v-60h-394z" />
    <glyph glyph-name="greater" unicode="&#x3e;" horiz-adv-x="423" 
d="M362 334v-78l-297 -151v71l238 119l-238 119v71z" />
    <glyph glyph-name="question" unicode="?" horiz-adv-x="432" 
d="M170 49c0 15.333 5.16699 28.333 15.5 39s22.833 16 37.5 16c15.333 0 28.166 -5.33301 38.499 -16s15.5 -23.667 15.5 -39s-5.16699 -28.166 -15.5 -38.499s-23.166 -15.5 -38.499 -15.5c-14.667 0 -27.167 5.16699 -37.5 15.5s-15.5 23.166 -15.5 38.499zM408 451
c0 -8 -0.49707 -15.8359 -1.49707 -23.5029s-3.16699 -15.5 -6.5 -23.5s-5.83301 -14.667 -7.5 -20s-5.66699 -12.333 -12 -21s-10.333 -14.667 -12 -18s-6.83398 -9.83301 -15.501 -19.5s-13.5 -15.167 -14.5 -16.5s-6.5 -7.33301 -16.5 -18l-16 -16
c-27.333 -29.333 -41.666 -56.666 -42.999 -81.999h-74c1.33301 24 6.16602 44.333 14.499 61s22.833 36.334 43.5 59.001c3.33301 4 12.166 13.5 26.499 28.5s24.5 26.333 30.5 34s12.167 18.5 18.5 32.5s9.5 28 9.5 42c0 31.333 -10 56.333 -30 75s-47 28 -81 28
c-35.333 0 -63.333 -11.167 -84 -33.5s-32.667 -52.166 -36 -89.499h-81c6 58 27.167 104.667 63.5 140s82.166 53 137.499 53c58 0 103.667 -15.5 137 -46.5s50 -72.833 50 -125.5z" />
    <glyph glyph-name="at" unicode="@" horiz-adv-x="774" 
d="M560 381l-43.002 -242.998c-6 -36 7.33301 -54 40 -54c36.667 0 66.667 16.667 90 50s35 79 35 137c0 72 -25.333 129.833 -76 173.5s-115.667 65.5 -195 65.5c-93.333 0 -169.5 -30.333 -228.5 -91s-88.5 -137.667 -88.5 -231c0 -50.667 9.33301 -95.334 28 -134.001
s43.834 -68.5 75.501 -89.5s65.334 -36.667 101.001 -47s73.5 -15.5 113.5 -15.5c77.333 0 149.666 15.333 216.999 46v-57c-62.667 -30 -135 -45 -217 -45c-40 0 -78.167 4.16699 -114.5 12.5s-70.666 21.333 -102.999 39s-60.5 39.667 -84.5 66s-43 58.666 -57 96.999
s-21 80.833 -21 127.5c0 106.667 35.333 196.334 106 269.001s161.667 109 273 109c97.333 0 176.833 -28 238.5 -84s92.5 -126.333 92.5 -211c0 -76.667 -19.167 -136 -57.5 -178s-84.166 -63 -137.499 -63c-24 0 -45 5.16699 -63 15.5s-30.333 24.5 -37 42.5
c-10 -16.667 -24.5 -30.334 -43.5 -41.001s-38.5 -16 -58.5 -16c-40.667 0 -72.834 14 -96.501 42s-35.5 63.333 -35.5 106c0 56.667 17.167 106 51.5 148s77.833 63 130.5 63c42 0 72.333 -15.333 91 -46l7 37h67zM449.998 151.002l23.002 124c-6 15.333 -15.5 28 -28.5 38
s-28.167 15 -45.5 15c-34.667 0 -62.834 -14.833 -84.501 -44.5s-32.5 -63.5 -32.5 -101.5c0 -26.667 6.83301 -48.167 20.5 -64.5s32.5 -24.5 56.5 -24.5c35.333 0 65.666 19.333 90.999 58z" />
    <glyph glyph-name="A" unicode="A" horiz-adv-x="596" 
d="M261 614h74l240 -614h-80l-71 185h-253l-70 -185h-80zM297 516l-100 -262h200z" />
    <glyph glyph-name="B" unicode="B" horiz-adv-x="538" 
d="M388 318c32.667 -8.66699 59.333 -26.332 80 -52.999s31 -57.334 31 -92.001c0 -55.333 -18 -98 -54 -128s-86 -45 -150 -45h-222v614h202c64 0 113.833 -14 149.5 -42s53.5 -68.333 53.5 -121c0 -34.667 -8.5 -63.5 -25.5 -86.5s-38.5 -38.5 -64.5 -46.5z
M149.999 347.002h125c84.667 0 127 33.333 127 100c0 65.333 -42.333 98 -127 98h-125v-198zM149.999 281.002v-212h145c40.667 0 72 9.5 94 28.5s33 44.833 33 77.5c0 33.333 -11 59.333 -33 78s-53.333 28 -94 28h-145z" />
    <glyph glyph-name="C" unicode="C" horiz-adv-x="586" 
d="M37 307c0 94 26.167 170.167 78.5 228.5s117.833 87.5 196.5 87.5c63.333 0 115.833 -17 157.5 -51s68.834 -80 81.501 -138h-78c-28 78.667 -81.667 118 -161 118c-58.667 0 -106 -22.5 -142 -67.5s-54 -104.167 -54 -177.5c0 -72.667 18 -131.667 54 -177
s83.333 -68 142 -68c80 0 133.667 39.667 161 119h78c-12.667 -58.667 -39.834 -105 -81.501 -139s-94.167 -51 -157.5 -51c-78.667 0 -144.167 29.167 -196.5 87.5s-78.5 134.5 -78.5 228.5z" />
    <glyph glyph-name="D" unicode="D" horiz-adv-x="605" 
d="M152 71l117 -0.000976562c69.333 0 123.5 21.167 162.5 63.5s58.5 99.833 58.5 172.5s-19.667 130.334 -59 173.001s-93.333 64 -162 64h-117v-473zM73 -0.000976562v614h197c90 0 162.167 -27.833 216.5 -83.5s81.5 -130.167 81.5 -223.5s-27.167 -167.833 -81.5 -223.5
s-126.5 -83.5 -216.5 -83.5h-197z" />
    <glyph glyph-name="E" unicode="E" horiz-adv-x="515" 
d="M73 614h391v-70h-313v-194h284v-70h-284v-209h313v-71h-391v614z" />
    <glyph glyph-name="F" unicode="F" horiz-adv-x="485" 
d="M152 0h-79v614h375v-70h-296v-207h278v-70h-278v-267z" />
    <glyph glyph-name="G" unicode="G" horiz-adv-x="610" 
d="M498 235l-147.001 -0.00195312v68h222v-42c0 -81.333 -23.5 -146.666 -70.5 -195.999s-108.167 -74 -183.5 -74c-81.333 0 -148.666 29 -201.999 87s-80 134.333 -80 229c0 94 26.667 170.167 80 228.5s120 87.5 200 87.5c64 0 117.167 -17 159.5 -51
s69.833 -80 82.5 -138h-79c-28.667 78.667 -83 118 -163 118c-60 0 -108.5 -22.5 -145.5 -67.5s-55.5 -104.167 -55.5 -177.5s18.667 -132.666 56 -177.999s86.333 -68 147 -68c52.667 0 94.5 15.5 125.5 46.5s48.833 73.5 53.5 127.5z" />
    <glyph glyph-name="H" unicode="H" horiz-adv-x="651" 
d="M499 614h79v-614h-79v280h-347v-280h-79v614h79v-263h347v263z" />
    <glyph glyph-name="I" unicode="I" horiz-adv-x="225" 
d="M152 614v-614h-79v614h79z" />
    <glyph glyph-name="J" unicode="J" horiz-adv-x="479" 
d="M17 174l80.999 0.000976562c4 -34.667 16.333 -61.834 37 -81.501s48 -29.5 82 -29.5c81.333 0 122 47 122 141v410h79v-410c0 -69.333 -18.167 -122.166 -54.5 -158.499s-84.833 -54.5 -145.5 -54.5c-59.333 0 -106.666 16.667 -141.999 50s-55 77.666 -59 132.999z" />
    <glyph glyph-name="K" unicode="K" horiz-adv-x="564" 
d="M152 614v-307l286 307h100l-263 -280l272 -334h-98l-231 280l-66 -71v-209h-79v614h79z" />
    <glyph glyph-name="L" unicode="L" horiz-adv-x="504" 
d="M73 0v614h79v-543h313v-71h-392z" />
    <glyph glyph-name="M" unicode="M" horiz-adv-x="736" 
d="M396 0h-54l-194 468v-468h-75v614h89l208 -504l207 504h86v-614h-75v468z" />
    <glyph glyph-name="N" unicode="N" horiz-adv-x="623" 
d="M550 614v-614h-58l-343 488v-488h-76v614h75l327 -467v467h75z" />
    <glyph glyph-name="O" unicode="O" horiz-adv-x="629" 
d="M592 307c0 -92.667 -26 -168.5 -78 -227.5s-118.667 -88.5 -200 -88.5c-80.667 0 -147 29.5 -199 88.5s-78 134.833 -78 227.5s26 168.5 78 227.5s118.333 88.5 199 88.5c81.333 0 148 -29.5 200 -88.5s78 -134.833 78 -227.5zM513 307c0 72 -18.333 130.833 -55 176.5
s-84.667 68.5 -144 68.5c-58.667 0 -106.334 -22.833 -143.001 -68.5s-55 -104.5 -55 -176.5s18.333 -130.833 55 -176.5s84.334 -68.5 143.001 -68.5c59.333 0 107.333 22.833 144 68.5s55 104.5 55 176.5z" />
    <glyph glyph-name="P" unicode="P" horiz-adv-x="537" 
d="M303 246h-151v-246h-79v614h230c63.333 0 112.833 -15.833 148.5 -47.5s53.5 -77.167 53.5 -136.5s-18 -104.833 -54 -136.5s-85.333 -47.5 -148 -47.5zM427 430c0 36 -10.833 64.168 -32.5 84.501s-52.834 30.5 -93.501 30.5h-149v-229h149
c40.667 0 71.834 10.167 93.501 30.5s32.5 48.166 32.5 83.499z" />
    <glyph glyph-name="Q" unicode="Q" horiz-adv-x="628" 
d="M500 -36l-50 63c-42 -24 -87.333 -36 -136 -36c-80.667 0 -147 29.5 -199 88.5s-78 134.833 -78 227.5s26 168.5 78 227.5s118.333 88.5 199 88.5c81.333 0 148 -29.5 200 -88.5s78 -134.833 78 -227.5c0 -98 -29.667 -177.333 -89 -238l51 -64zM513 307
c0 72 -18.333 130.833 -55 176.5s-84.667 68.5 -144 68.5c-58.667 0 -106.334 -22.833 -143.001 -68.5s-55 -104.5 -55 -176.5s18.333 -130.833 55 -176.5s84.334 -68.5 143.001 -68.5c35.333 0 66 7 92 21l-52 66l54 40l50 -64c36.667 44 55 104.667 55 182z" />
    <glyph glyph-name="R" unicode="R" horiz-adv-x="552" 
d="M261 260h-109.002v-260h-79v614h228c62.667 0 111.834 -15.333 147.501 -46s53.5 -74.667 53.5 -132c0 -50 -13.667 -89.667 -41 -119s-65.666 -47.333 -114.999 -54l181 -263h-90zM151.998 545v-218h147c40 0 70.833 9.66699 92.5 29s32.5 46 32.5 80
s-10.833 60.667 -32.5 80s-52.5 29 -92.5 29h-147z" />
    <glyph glyph-name="S" unicode="S" horiz-adv-x="509" 
d="M23 160l80 -0.00195312c23.333 -68 75.333 -102 156 -102c40.667 0 73.5 9.5 98.5 28.5s37.5 45.167 37.5 78.5c0 24.667 -7.66699 44.834 -23 60.501s-40.333 27.834 -75 36.501l-110 29c-98 25.333 -147 78 -147 158c0 51.333 19 93.166 57 125.499
s86.333 48.5 145 48.5c62 0 112 -14.5 150 -43.5s63 -68.5 75 -118.5h-79c-22 63.333 -70.667 95 -146 95c-37.333 0 -67.833 -9.16699 -91.5 -27.5s-35.5 -42.833 -35.5 -73.5c0 -25.333 8 -45.166 24 -59.499s40.667 -25.833 74 -34.5l105 -27c102 -26 153 -81 153 -165
c0 -54.667 -19.833 -98 -59.5 -130s-90.5 -48 -152.5 -48s-114 14.833 -156 44.5s-68.667 71.167 -80 124.5z" />
    <glyph glyph-name="T" unicode="T" horiz-adv-x="567" 
d="M30 544v70h507v-70h-214v-544h-79v544h-214z" />
    <glyph glyph-name="U" unicode="U" horiz-adv-x="607" 
d="M303 -9c-72 0 -130.002 21.666 -174.002 64.999s-66 106 -66 188v370h78v-361c0 -64 14.333 -112 43 -144s68.334 -48 119.001 -48s90.334 16 119.001 48s43 80 43 144v361h79v-371c0 -81.333 -22 -143.666 -66 -186.999s-102.333 -65 -175 -65z" />
    <glyph glyph-name="V" unicode="V" horiz-adv-x="590" 
d="M332 0h-74l-237 614h83l192 -510l193 510h80z" />
    <glyph glyph-name="W" unicode="W" horiz-adv-x="767" 
d="M353 614h63l130 -488l126 488h76l-163 -614h-72l-129 479l-131 -479h-71l-163 614h78l126 -488z" />
    <glyph glyph-name="X" unicode="X" horiz-adv-x="557" 
d="M532 614l-209 -300l218 -314h-90l-174 250l-173 -250h-87l217 312l-209 302h90l164 -239l166 239h87z" />
    <glyph glyph-name="Y" unicode="Y" horiz-adv-x="557" 
d="M280 324l177 290h84l-224 -361v-253h-78v253l-222 361h86z" />
    <glyph glyph-name="Z" unicode="Z" horiz-adv-x="534" 
d="M492 71v-71h-451v57l349 487h-344v70h442v-56l-348 -487h352z" />
    <glyph glyph-name="bracketleft" unicode="[" horiz-adv-x="313" 
d="M145 582v-598h145v-68h-217v734h217v-68h-145z" />
    <glyph glyph-name="backslash" unicode="\" horiz-adv-x="333" 
d="M80 650l248 -734h-75l-248 734h75z" />
    <glyph glyph-name="bracketright" unicode="]" horiz-adv-x="313" 
d="M168 -16v598h-145v68h217v-734h-217v68h145z" />
    <glyph glyph-name="asciicircum" unicode="^" horiz-adv-x="357" 
d="M142 614h74l124 -194h-78l-83 128l-83 -128h-79z" />
    <glyph glyph-name="underscore" unicode="_" horiz-adv-x="367" 
d="M20 -110v68h327v-68h-327z" />
    <glyph glyph-name="grave" unicode="`" 
d="M329 516h-69l-89 134h78z" />
    <glyph glyph-name="a" unicode="a" horiz-adv-x="450" 
d="M389 0h-71.998v33c-9.33301 -10 -25 -19.333 -47 -28s-45.333 -13 -70 -13c-46.667 0 -85.834 13 -117.501 39s-47.5 60.333 -47.5 103c0 40.667 16.333 74 49 100s73 39 121 39c22 0 43.667 -3.66699 65 -11s37 -15.666 47 -24.999v56c0 28.667 -8.5 51.667 -25.5 69
s-41.167 26 -72.5 26c-46.667 0 -77 -20.333 -91 -61h-74c7.33301 37.333 26.166 67.666 56.499 90.999s66.833 35 109.5 35c52.667 0 94 -14 124 -42s45 -66.333 45 -115v-296zM317.002 110v46c-6.66699 16 -19.834 29.167 -39.501 39.5s-41.167 15.5 -64.5 15.5
c-29.333 0 -54.333 -6.66699 -75 -20s-31 -32.333 -31 -57c0 -25.333 10.333 -44.833 31 -58.5s45.667 -20.5 75 -20.5c23.333 0 44.833 5.16699 64.5 15.5s32.834 23.5 39.501 39.5z" />
    <glyph glyph-name="b" unicode="b" horiz-adv-x="502" 
d="M142 52v-52.001h-76v650h76v-258c12 17.333 29.333 31.833 52 43.5s47 17.5 73 17.5c62.667 0 111.667 -22.167 147 -66.5s53 -99.166 53 -164.499c0 -66 -17.667 -121 -53 -165s-84.333 -66 -147 -66c-26 0 -50.333 5.83301 -73 17.5s-40 26.167 -52 43.5zM142 311.999
v-180c11.333 -22.667 27.166 -40.5 47.499 -53.5s42.5 -19.5 66.5 -19.5c41.333 0 74.166 15.167 98.499 45.5s36.5 69.5 36.5 117.5s-12.167 87.167 -36.5 117.5s-57.166 45.5 -98.499 45.5c-24 0 -46.167 -6.5 -66.5 -19.5s-36.166 -30.833 -47.499 -53.5z" />
    <glyph glyph-name="c" unicode="c" horiz-adv-x="446" 
d="M35 222c0 68.667 18.667 124.334 56 167.001s86 64 146 64c48.667 0 88.5 -13 119.5 -39s50.5 -60.667 58.5 -104h-77c-5.33301 24 -16.833 42.833 -34.5 56.5s-39.834 20.5 -66.501 20.5c-38 0 -68.5 -15.333 -91.5 -46s-34.5 -70.334 -34.5 -119.001
s11.5 -88.334 34.5 -119.001s53.5 -46 91.5 -46c26.667 0 48.834 6.83301 66.501 20.5s29.167 32.5 34.5 56.5h77c-8 -43.333 -27.5 -78 -58.5 -104s-70.833 -39 -119.5 -39c-60 0 -108.667 21.333 -146 64s-56 98.334 -56 167.001z" />
    <glyph glyph-name="d" unicode="d" horiz-adv-x="502" 
d="M360 0v52.001c-12 -17.333 -29.333 -31.833 -52 -43.5s-47 -17.5 -73 -17.5c-62.667 0 -111.667 22 -147 66s-53 99 -53 165c0 65.333 17.667 120.166 53 164.499s84.333 66.5 147 66.5c26 0 50.333 -5.83301 73 -17.5s40 -26.167 52 -43.5v258h76v-650h-76zM360 132.001
v180c-11.333 22.667 -27.166 40.5 -47.499 53.5s-42.5 19.5 -66.5 19.5c-41.333 0 -74.166 -15.167 -98.499 -45.5s-36.5 -69.5 -36.5 -117.5s12.167 -87.167 36.5 -117.5s57.166 -45.5 98.499 -45.5c24 0 46.167 6.5 66.5 19.5s36.166 30.833 47.499 53.5z" />
    <glyph glyph-name="e" unicode="e" horiz-adv-x="457" 
d="M347 133h71c-8 -43.333 -27.667 -77.833 -59 -103.5s-71.333 -38.5 -120 -38.5c-60.667 0 -109.834 21.167 -147.501 63.5s-56.5 97.833 -56.5 166.5c0 67.333 18.667 122.833 56 166.5s86 65.5 146 65.5c59.333 0 105.333 -19.833 138 -59.5s49 -92.5 49 -158.5v-27
h-314c0.666992 -46.667 12.834 -83.834 36.501 -111.501s54.5 -41.5 92.5 -41.5c28 0 51.5 6.83301 70.5 20.5s31.5 32.834 37.5 57.501zM238 389c-33.333 0 -61.332 -11 -83.999 -33s-36.667 -52.333 -42 -91h236c-0.666992 35.333 -10.334 64.833 -29.001 88.5
s-45.667 35.5 -81 35.5z" />
    <glyph glyph-name="f" unicode="f" horiz-adv-x="289" 
d="M289 649l0.000976562 -67.999c-12.667 8 -28.334 12 -47.001 12c-22.667 0 -40.5 -7 -53.5 -21s-19.5 -34 -19.5 -60v-68h100v-64h-100v-380h-74v380h-75v64h75v74c0 43.333 12.667 77.666 38 102.999s58 38 98 38c22.667 0 42 -3.33301 58 -10z" />
    <glyph glyph-name="g" unicode="g" horiz-adv-x="501" 
d="M358 30l-0.00195312 33c-12 -16.667 -29.167 -30.834 -51.5 -42.501s-46.5 -17.5 -72.5 -17.5c-62 0 -110.667 22 -146 66s-53 97 -53 159c0 62.667 17.667 115.834 53 159.501s84 65.5 146 65.5c26 0 50.167 -5.66699 72.5 -17s39.5 -25.333 51.5 -42v50h76v-409
c0 -70.667 -18.167 -124.167 -54.5 -160.5s-84.166 -54.5 -143.499 -54.5c-53.333 0 -96.5 13 -129.5 39s-53.167 62 -60.5 108h74c12.667 -55.333 51.334 -83 116.001 -83c81.333 0 122 48.667 122 146zM357.998 140v177c-25.333 46 -63 69 -113 69
c-41.333 0 -73.833 -14.667 -97.5 -44s-35.5 -67.333 -35.5 -114s11.833 -84.5 35.5 -113.5s56.167 -43.5 97.5 -43.5c50 0 87.667 23 113 69z" />
    <glyph glyph-name="h" unicode="h" horiz-adv-x="489" 
d="M67 0l0.000976562 649.999h75v-262c14 18.667 32.5 34.167 55.5 46.5s48.167 18.5 75.5 18.5c49.333 0 87.666 -14.667 114.999 -44s41 -68.666 41 -117.999v-291h-76v279c0 32 -8.16699 57.5 -24.5 76.5s-40.833 28.5 -73.5 28.5c-26 0 -49.333 -7.83301 -70 -23.5
s-35 -35.5 -43 -59.5v-301h-75z" />
    <glyph glyph-name="i" unicode="i" horiz-adv-x="209" 
d="M142 444v-444h-75v444h75zM153 578c0 -13.333 -4.83301 -24.666 -14.5 -33.999s-21.167 -14 -34.5 -14s-24.666 4.66699 -33.999 14s-14 20.666 -14 33.999s4.66699 24.666 14 33.999s20.666 14 33.999 14s24.833 -4.66699 34.5 -14s14.5 -20.666 14.5 -33.999z" />
    <glyph glyph-name="j" unicode="j" horiz-adv-x="207" 
d="M142 444l-0.000976562 -495c0 -41.333 -11.167 -73 -33.5 -95s-54.166 -33 -95.499 -33c-14 0 -24.667 1.33301 -32 4v64c12 -2 20.667 -3 26 -3c40 0 60 22.667 60 68v490h75zM152.999 578c0 -13.333 -4.83301 -24.666 -14.5 -33.999s-21.167 -14 -34.5 -14
s-24.666 4.66699 -33.999 14s-14 20.666 -14 33.999s4.66699 24.666 14 33.999s20.666 14 33.999 14s24.833 -4.66699 34.5 -14s14.5 -20.666 14.5 -33.999z" />
    <glyph glyph-name="k" unicode="k" horiz-adv-x="464" 
d="M359 0l-169 205l-48 -46v-159h-75v650h75v-403l203 197h99l-200 -192l207 -252h-92z" />
    <glyph glyph-name="l" unicode="l" horiz-adv-x="209" 
d="M142 650v-650h-75v650h75z" />
    <glyph glyph-name="m" unicode="m" horiz-adv-x="717" 
d="M382 382c33.333 47.333 78.333 71.001 135 71.001c44.667 0 79.167 -14.333 103.5 -43s36.5 -67.334 36.5 -116.001v-294h-76v282c0 32 -7 57.167 -21 75.5s-35 27.5 -63 27.5c-22.667 0 -43 -7.16699 -61 -21.5s-30.333 -33.5 -37 -57.5v-306h-75v282
c0 32 -7 57.167 -21 75.5s-35 27.5 -63 27.5c-22.667 0 -43 -7.16699 -61 -21.5s-30.333 -33.5 -37 -57.5v-306h-75v444h75v-52c25.333 40.667 65.333 61 120 61c56 0 96 -23.667 120 -71z" />
    <glyph glyph-name="n" unicode="n" horiz-adv-x="489" 
d="M67 0l0.000976562 443.999h75v-56c14 18.667 32.5 34.167 55.5 46.5s48.167 18.5 75.5 18.5c49.333 0 87.666 -14.667 114.999 -44s41 -68.666 41 -117.999v-291h-76v279c0 32 -8.16699 57.5 -24.5 76.5s-40.833 28.5 -73.5 28.5c-26 0 -49.333 -7.83301 -70 -23.5
s-35 -35.5 -43 -59.5v-301h-75z" />
    <glyph glyph-name="o" unicode="o" horiz-adv-x="478" 
d="M443 222c0 -68 -18.833 -123.5 -56.5 -166.5s-86.834 -64.5 -147.501 -64.5s-109.834 21.5 -147.501 64.5s-56.5 98.5 -56.5 166.5s18.833 123.5 56.5 166.5s86.834 64.5 147.501 64.5s109.834 -21.5 147.501 -64.5s56.5 -98.5 56.5 -166.5zM367 222
c0 49.333 -11.5 89.166 -34.5 119.499s-54.167 45.5 -93.5 45.5s-70.5 -15.167 -93.5 -45.5s-34.5 -70.166 -34.5 -119.499s11.5 -89.166 34.5 -119.499s54.167 -45.5 93.5 -45.5s70.5 15.167 93.5 45.5s34.5 70.166 34.5 119.499z" />
    <glyph glyph-name="p" unicode="p" horiz-adv-x="502" 
d="M142 52v-222.002h-75v614h75v-52c12.667 17.333 30.167 31.833 52.5 43.5s46.5 17.5 72.5 17.5c62.667 0 111.667 -22.167 147 -66.5s53 -99.166 53 -164.499s-17.667 -120.166 -53 -164.499s-84.333 -66.5 -147 -66.5c-26 0 -50.167 5.83301 -72.5 17.5
s-39.833 26.167 -52.5 43.5zM142 311.998v-180c11.333 -22.667 27.166 -40.5 47.499 -53.5s42.5 -19.5 66.5 -19.5c41.333 0 74.166 15.167 98.499 45.5s36.5 69.5 36.5 117.5s-12.167 87.167 -36.5 117.5s-57.166 45.5 -98.499 45.5c-24 0 -46.167 -6.5 -66.5 -19.5
s-36.166 -30.833 -47.499 -53.5z" />
    <glyph glyph-name="q" unicode="q" horiz-adv-x="502" 
d="M360 -170v222.002c-12.667 -17.333 -30.167 -31.833 -52.5 -43.5s-46.5 -17.5 -72.5 -17.5c-62.667 0 -111.667 22.167 -147 66.5s-53 99.166 -53 164.499s17.667 120.166 53 164.499s84.333 66.5 147 66.5c26 0 50.167 -5.83301 72.5 -17.5s39.833 -26.167 52.5 -43.5
v52h75v-614h-75zM360 132.002v180c-11.333 22.667 -27.166 40.5 -47.499 53.5s-42.5 19.5 -66.5 19.5c-41.333 0 -74.166 -15.167 -98.499 -45.5s-36.5 -69.5 -36.5 -117.5s12.167 -87.167 36.5 -117.5s57.166 -45.5 98.499 -45.5c24 0 46.167 6.5 66.5 19.5
s36.166 30.833 47.499 53.5z" />
    <glyph glyph-name="r" unicode="r" horiz-adv-x="321" 
d="M295 446l0.000976562 -77c-12 8 -28.667 12 -50 12c-24 0 -45.333 -7.33301 -64 -22s-31.667 -35 -39 -61v-298h-75v444h75v-58c10 19.333 24.833 35.333 44.5 48s41.5 19 65.5 19c19.333 0 33.666 -2.33301 42.999 -7z" />
    <glyph glyph-name="s" unicode="s" horiz-adv-x="414" 
d="M30 122h78.001c14 -45.333 49 -68 105 -68c27.333 0 49.333 5.5 66 16.5s25 27.5 25 49.5c0 30 -22 50.667 -66 62l-88 23c-71.333 18 -107 57 -107 117c0 38.667 15 70.167 45 94.5s68 36.5 114 36.5c48 0 86.667 -11 116 -33s48 -53 56 -93h-75
c-13.333 42 -46 63 -98 63c-23.333 0 -43.333 -5.5 -60 -16.5s-25 -26.833 -25 -47.5c0 -14.667 4.83301 -26.167 14.5 -34.5s25.5 -15.5 47.5 -21.5l86 -21c75.333 -20 113 -61.333 113 -124c0 -41.333 -15.333 -74 -46 -98s-70.334 -36 -119.001 -36
s-89.5 11.667 -122.5 35s-52.833 55.333 -59.5 96z" />
    <glyph glyph-name="t" unicode="t" horiz-adv-x="317" 
d="M88 112v268h-72v64h72v117h75v-117h107v-64h-107v-260c0 -41.333 19.667 -62 59 -62c20.667 0 40 6 58 18v-70c-18.667 -10 -42 -15 -70 -15c-37.333 0 -67 10.167 -89 30.5s-33 50.5 -33 90.5z" />
    <glyph glyph-name="u" unicode="u" horiz-adv-x="487" 
d="M421 444l0.000976562 -443.998h-76v56c-13.333 -18.667 -31.333 -34.167 -54 -46.5s-47.667 -18.5 -75 -18.5c-49.333 0 -87.5 14.667 -114.5 44s-40.5 68.666 -40.5 117.999v291h76v-279c0 -32.667 8 -58.334 24 -77.001s40.333 -28 73 -28
c25.333 0 48.166 7.66699 68.499 23s34.5 35.333 42.5 60v301h76z" />
    <glyph glyph-name="v" unicode="v" horiz-adv-x="455" 
d="M264 0h-74l-172 444h81l130 -349l129 349h79z" />
    <glyph glyph-name="w" unicode="w" horiz-adv-x="629" 
d="M349 444l91 -339l98 339h73l-131 -444h-73l-92 337l-93 -337h-73l-131 444h75l98 -339l91 339h67z" />
    <glyph glyph-name="x" unicode="x" horiz-adv-x="449" 
d="M422 444l-156 -214l165 -230h-85l-123 173l-124 -173h-81l164 227l-155 217h86l112 -159l115 159h82z" />
    <glyph glyph-name="y" unicode="y" horiz-adv-x="455" 
d="M198 -170h-74l67 167l-173 447h81l131 -350l129 350h78z" />
    <glyph glyph-name="z" unicode="z" horiz-adv-x="434" 
d="M390 64v-64h-349v49l249 331h-241v64h337v-49l-247 -331h251z" />
    <glyph glyph-name="braceleft" unicode="{" horiz-adv-x="339" 
d="M175 206v-185c0 -24.667 12 -37 36 -37h105v-68h-104c-32.667 0 -59.334 10.5 -80.001 31.5s-31 47.833 -31 80.5v183c0 24.667 -11.667 37 -35 37h-46v70h46c23.333 0 35 12.333 35 37v183c0 32.667 10.333 59.5 31 80.5s47.334 31.5 80.001 31.5h104v-68h-105
c-24 0 -36 -12.333 -36 -37v-185c0 -34 -14.333 -59.667 -43 -77c28.667 -17.333 43 -43 43 -77z" />
    <glyph glyph-name="bar" unicode="|" horiz-adv-x="219" 
d="M73 -84v734h73v-734h-73z" />
    <glyph glyph-name="braceright" unicode="}" horiz-adv-x="339" 
d="M164 21v185c0 34 14.333 59.667 43 77c-28.667 17.333 -43 43 -43 77v185c0 24.667 -12 37 -36 37h-105v68h104c32.667 0 59.334 -10.5 80.001 -31.5s31 -47.833 31 -80.5v-183c0 -24.667 11.667 -37 35 -37h46v-70h-46c-23.333 0 -35 -12.333 -35 -37v-183
c0 -32.667 -10.333 -59.5 -31 -80.5s-47.334 -31.5 -80.001 -31.5h-104v68h105c24 0 36 12.333 36 37z" />
    <glyph glyph-name="asciitilde" unicode="~" horiz-adv-x="418" 
d="M315 335l62.999 0.000976562c0 -40.667 -8.5 -72.334 -25.5 -95.001s-40.833 -34 -71.5 -34c-17.333 0 -34.333 5.5 -51 16.5s-32 22 -46 33s-26.667 16.5 -38 16.5c-28.667 0 -43 -20.667 -43 -62h-63c0 40 8.5 71.333 25.5 94s40.833 34 71.5 34
c22 0 46.833 -11 74.5 -33s47.834 -33 60.501 -33c28.667 0 43 21 43 63z" />
    <glyph glyph-name="uni00A0" unicode="&#xa0;" horiz-adv-x="221" 
 />
    <glyph glyph-name="exclamdown" unicode="&#xa1;" horiz-adv-x="209" 
d="M48 469c0 15.333 5.16699 28.166 15.5 38.499s22.833 15.5 37.5 15.5c15.333 0 28.166 -5.16699 38.499 -15.5s15.5 -23.166 15.5 -38.499s-5.16699 -28.333 -15.5 -39s-23.166 -16 -38.499 -16c-14.667 0 -27.167 5.33301 -37.5 16s-15.5 23.667 -15.5 39zM57 -96
l17 421h54l18 -421h-89z" />
    <glyph glyph-name="cent" unicode="&#xa2;" horiz-adv-x="446" 
d="M35 232c0 62.667 15.666 114.675 46.999 156.008s73 65.666 125 72.999v87h69v-88c38.667 -6.66699 69.834 -22.834 93.501 -48.501s38.5 -57.834 44.5 -96.501h-75c-4.66699 25.333 -16 45.333 -34 60s-40.667 22 -68 22c-38 0 -68.5 -15.333 -91.5 -46
s-34.5 -70.334 -34.5 -119.001s11.5 -88.334 34.5 -119.001s53.5 -46 91.5 -46c27.333 0 50 7.33301 68 22s29.333 34.667 34 60h75c-5.33301 -38.667 -20 -70.834 -44 -96.501s-55.333 -41.834 -94 -48.501v-91h-69v90c-52 7.33301 -93.667 31.666 -125 72.999
s-47 93.333 -47 156z" />
    <glyph glyph-name="sterling" unicode="&#xa3;" horiz-adv-x="488" 
d="M187 425l0.000976562 -90.999h154v-62h-154v-116c0 -40 -7.66699 -70.333 -23 -91h296v-65h-429v65h61c14.667 26 22 56.333 22 91v116h-83v62h83v91c0 58 16.5 105.5 49.5 142.5s76.167 55.5 129.5 55.5c47.333 0 85.666 -13.167 114.999 -39.5s47.333 -61.5 54 -105.5
h-73c-9.33301 52.667 -41.333 79 -96 79c-33.333 0 -59.333 -11.833 -78 -35.5s-28 -55.834 -28 -96.501z" />
    <glyph glyph-name="yen" unicode="&#xa5;" horiz-adv-x="535" 
d="M71 264v59h127l-173 291h84l160 -275l159 275h81l-173 -291h127v-59h-157v-70h157v-60h-157v-134h-78v134h-157v60h157v70h-157z" />
    <glyph glyph-name="section" unicode="&#xa7;" horiz-adv-x="455" 
d="M363 88c10.667 -18 16.001 -38.332 16.001 -60.999c0 -39.333 -14.333 -70.5 -43 -93.5s-66 -34.5 -112 -34.5c-49.333 0 -88.833 12 -118.5 36s-47.834 56.667 -54.501 98h73c12 -48 45.333 -72 100 -72c24 0 43.667 5.5 59 16.5s23 26.5 23 46.5
c0 16 -4.16699 29 -12.5 39s-22.5 21.333 -42.5 34l-127 85c-33.333 21.333 -58.5 42.333 -75.5 63s-25.5 45.667 -25.5 75c0 24 6 46 18 66s28.667 35.667 50 47c-10.667 17.333 -16 38 -16 62c0 39.333 14.5 70.5 43.5 93.5s66.5 34.5 112.5 34.5c48.667 0 88 -12 118 -36
s48.333 -56.667 55 -98h-74c-12 48 -45 72 -99 72c-24 0 -43.833 -5.5 -59.5 -16.5s-23.5 -26.5 -23.5 -46.5c0 -16 4 -28.667 12 -38s22.667 -21 44 -35l126 -84c32.667 -21.333 57.667 -42.5 75 -63.5s26 -46.167 26 -75.5c0 -24 -6.16699 -46.333 -18.5 -67
s-28.833 -36.334 -49.5 -47.001zM159.001 242.001l155.999 -105c30.667 9.33301 46 30.333 46 63c0 11.333 -3.66699 22.166 -11 32.499s-14.666 18.333 -21.999 24s-18.333 13.5 -33 23.5l-156 106c-30 -10 -45 -31.333 -45 -64c0 -11.333 3.5 -22.166 10.5 -32.499
s14.333 -18.5 22 -24.5s18.5 -13.667 32.5 -23z" />
    <glyph glyph-name="dieresis" unicode="&#xa8;" 
d="M133 571c0 13.333 4.5 24.5 13.5 33.5s20.167 13.5 33.5 13.5c12.667 0 23.5 -4.5 32.5 -13.5s13.5 -20.167 13.5 -33.5c0 -12.667 -4.5 -23.5 -13.5 -32.5s-19.833 -13.5 -32.5 -13.5s-23.667 4.5 -33 13.5s-14 19.833 -14 32.5zM274 571c0 13.333 4.33301 24.5 13 33.5
s19.334 13.5 32.001 13.5c13.333 0 24.5 -4.5 33.5 -13.5s13.5 -20.167 13.5 -33.5c0 -12.667 -4.66699 -23.5 -14 -32.5s-20.333 -13.5 -33 -13.5s-23.334 4.5 -32.001 13.5s-13 19.833 -13 32.5z" />
    <glyph glyph-name="copyright" unicode="&#xa9;" horiz-adv-x="706" 
d="M669 307c0 -90.667 -30.667 -166 -92 -226s-136 -90 -224 -90s-162.667 30 -224 90s-92 135.333 -92 226s30.667 166 92 226s136 90 224 90s162.667 -30 224 -90s92 -135.333 92 -226zM630 307c0 79.333 -26.833 145.333 -80.5 198s-119.167 79 -196.5 79
s-142.833 -26.333 -196.5 -79s-80.5 -118.667 -80.5 -198s26.833 -145.333 80.5 -198s119.167 -79 196.5 -79s142.833 26.333 196.5 79s80.5 118.667 80.5 198zM176 309c0 59.333 17 107.333 51 144s77.333 55 130 55c43.333 0 78.5 -11.5 105.5 -34.5
s44.5 -53.833 52.5 -92.5h-74c-13.333 39.333 -41.333 59 -84 59c-32 0 -57.833 -12 -77.5 -36s-29.5 -55.667 -29.5 -95s9.83301 -71 29.5 -95s45.5 -36 77.5 -36c42.667 0 70.667 19.667 84 59h74c-8 -38.667 -25.667 -69.5 -53 -92.5s-62.333 -34.5 -105 -34.5
c-52.667 0 -96 18.333 -130 55s-51 84.667 -51 144z" />
    <glyph glyph-name="ordfeminine" unicode="&#xaa;" horiz-adv-x="292" 
d="M264 321l-64.998 0.000976562v21c-16 -17.333 -41.333 -26 -76 -26c-31.333 0 -57.5 8.33301 -78.5 25s-31.5 39.667 -31.5 69c0 27.333 10.833 49.833 32.5 67.5s48.5 26.5 80.5 26.5c28.667 0 53 -7.66699 73 -23v33c0 16 -4.83301 29 -14.5 39s-23.5 15 -41.5 15
c-28 0 -45.667 -11.667 -53 -35h-64c5.33301 27.333 18.666 49.333 39.999 66s47.666 25 78.999 25c37.333 0 66.5 -9.83301 87.5 -29.5s31.5 -46.834 31.5 -81.501v-192zM199.002 397.001v27.001c-4 8.66699 -11.833 16 -23.5 22s-24.167 9 -37.5 9
c-16.667 0 -30.834 -3.83301 -42.501 -11.5s-17.5 -18.5 -17.5 -32.5c0 -14.667 5.83301 -25.834 17.5 -33.501s25.834 -11.5 42.501 -11.5c13.333 0 25.833 3 37.5 9s19.5 13.333 23.5 22z" />
    <glyph glyph-name="guillemotleft" unicode="&#xab;" horiz-adv-x="357" 
d="M187 74h-70l-92 148l92 148h70l-92 -148zM332 74h-70l-92 148l92 148h70l-92 -148z" />
    <glyph glyph-name="registered" unicode="&#xae;" horiz-adv-x="412" 
d="M387 440c0 -52 -17.667 -95.5 -53 -130.5s-78 -52.5 -128 -52.5s-92.667 17.5 -128 52.5s-53 78.5 -53 130.5s17.667 95.5 53 130.5s78 52.5 128 52.5s92.667 -17.5 128 -52.5s53 -78.5 53 -130.5zM356 440c0 44.667 -14.5 81.5 -43.5 110.5s-64.5 43.5 -106.5 43.5
s-77.667 -14.5 -107 -43.5s-44 -65.833 -44 -110.5c0 -44 14.667 -80.5 44 -109.5s65 -43.5 107 -43.5s77.5 14.5 106.5 43.5s43.5 65.5 43.5 109.5zM202 414h-25v-68h-42v192h84c21.333 0 38 -5.5 50 -16.5s18 -26.5 18 -46.5c0 -30.667 -14 -49.667 -42 -57l49 -72h-47z
M247 475c0 8 -2.66699 14.5 -8 19.5s-12.666 7.5 -21.999 7.5h-40v-53h40c9.33301 0 16.666 2.5 21.999 7.5s8 11.167 8 18.5z" />
    <glyph glyph-name="macron" unicode="&#xaf;" 
d="M143 530v61h213v-61h-213z" />
    <glyph glyph-name="degree" unicode="&#xb0;" horiz-adv-x="336" 
d="M100 499c0 -18.667 6.66699 -34.667 20 -48s29.333 -20 48 -20s34.667 6.66699 48 20s20 29.333 20 48s-6.66699 34.834 -20 48.501s-29.333 20.5 -48 20.5s-34.667 -6.83301 -48 -20.5s-20 -29.834 -20 -48.501zM291 499c0 -34.667 -12 -64 -36 -88s-53 -36 -87 -36
s-63 12 -87 36s-36 53.333 -36 88s12 64 36 88s53 36 87 36s63 -12 87 -36s36 -53.333 36 -88z" />
    <glyph glyph-name="plusminus" unicode="&#xb1;" horiz-adv-x="544" 
d="M241 518h62v-129h164v-62h-164v-129h-62v129h-163v62h163v129zM78 88v62h389v-62h-389z" />
    <glyph glyph-name="twosuperior" unicode="&#xb2;" horiz-adv-x="276" 
d="M184 519c0 13.333 -4.33203 23.999 -12.999 31.999s-19.667 12 -33 12c-14.667 0 -26.334 -5 -35.001 -15s-13.667 -22.333 -15 -37h-66c3.33301 32 15.5 58 36.5 78s47.5 30 79.5 30c33.333 0 59.666 -8.83301 78.999 -26.5s29 -41.5 29 -71.5
c0 -13.333 -3.66699 -27 -11 -41s-14.166 -24.667 -20.499 -32l-32.5 -36l-74 -76h141v-54h-226v43l112 117c18 18.667 30.667 33.334 38 44.001s11 21.667 11 33z" />
    <glyph glyph-name="threesuperior" unicode="&#xb3;" horiz-adv-x="281" 
d="M114 427l-0.000976562 48.001h24c15.333 0 27.666 4 36.999 12s14 19.333 14 34c0 13.333 -4.5 24.166 -13.5 32.499s-20.833 12.5 -35.5 12.5c-14 0 -25.833 -4.66699 -35.5 -14s-15.167 -21 -16.5 -35h-63c4 30 16 54.5 36 73.5s45.667 28.5 77 28.5
c34 0 60.833 -8.83301 80.5 -26.5s29.5 -40.834 29.5 -69.501c0 -16.667 -4.16699 -31.5 -12.5 -44.5s-19.166 -22.167 -32.499 -27.5c33.333 -12 50 -36.333 50 -73c0 -29.333 -10.167 -53.5 -30.5 -72.5s-47.833 -28.5 -82.5 -28.5c-35.333 0 -63.333 9.33301 -84 28
s-32.667 44.334 -36 77.001h65c4.66699 -34 23.334 -51 56.001 -51c16 0 28.833 4.33301 38.5 13s14.5 20.667 14.5 36c0 14.667 -5 26.167 -15 34.5s-23 12.5 -39 12.5h-26z" />
    <glyph glyph-name="acute" unicode="&#xb4;" 
d="M240 516h-69l80 134h78z" />
    <glyph glyph-name="paragraph" unicode="&#xb6;" horiz-adv-x="489" 
d="M353 -90v704h63v-704h-63zM220 -90v391.001c-54.667 0 -102.5 13.333 -143.5 40s-61.5 65.667 -61.5 117s20.5 90.166 61.5 116.499s88.833 39.5 143.5 39.5h63v-704h-63z" />
    <glyph glyph-name="periodcentered" unicode="&#xb7;" horiz-adv-x="176" 
d="M34 262c0 15.333 5.16699 28.333 15.5 39s23.166 16 38.499 16c14.667 0 27.167 -5.33301 37.5 -16s15.5 -23.667 15.5 -39s-5.16699 -28.166 -15.5 -38.499s-22.833 -15.5 -37.5 -15.5c-15.333 0 -28.166 5.16699 -38.499 15.5s-15.5 23.166 -15.5 38.499z" />
    <glyph glyph-name="cedilla" unicode="&#xb8;" 
d="M250 -183h-71l66 132h74z" />
    <glyph glyph-name="onesuperior" unicode="&#xb9;" horiz-adv-x="221" 
d="M170 615v-333h-63v259l-88 -44v64l109 54h42z" />
    <glyph glyph-name="ordmasculine" unicode="&#xba;" horiz-adv-x="310" 
d="M296 469c0 -45.333 -13 -82.5 -39 -111.5s-60 -43.5 -102 -43.5s-76.167 14.5 -102.5 43.5s-39.5 66.167 -39.5 111.5s13.167 82.5 39.5 111.5s60.5 43.5 102.5 43.5s76 -14.5 102 -43.5s39 -66.167 39 -111.5zM228 469c0 28.667 -6.66699 52 -20 70s-31 27 -53 27
s-39.667 -9 -53 -27s-20 -41.333 -20 -70s6.66699 -51.834 20 -69.501s31 -26.5 53 -26.5s39.667 8.83301 53 26.5s20 40.834 20 69.501z" />
    <glyph glyph-name="guillemotright" unicode="&#xbb;" horiz-adv-x="357" 
d="M240 74h-70l92 148l-92 148h70l92 -148zM95 74h-70l92 148l-92 148h70l92 -148z" />
    <glyph glyph-name="onequarter" unicode="&#xbc;" horiz-adv-x="667" 
d="M569 614l-429 -614h-67l429 614h67zM191 615v-333h-62v259l-88 -44v64l108 54h42zM536 333l-107 -211h81v67h56v-67h52v-53h-52v-69h-56v69h-150v47l114 217h62z" />
    <glyph glyph-name="onehalf" unicode="&#xbd;" horiz-adv-x="682" 
d="M569 614l-429 -614h-67l429 614h67zM191 615v-333h-62v259l-88 -44v64l108 54h42zM560 237c0 13.333 -4.16895 24 -12.502 32s-19.166 12 -32.499 12c-14.667 0 -26.5 -5 -35.5 -15s-14.167 -22.333 -15.5 -37h-65c3.33301 32 15.333 58.167 36 78.5s47 30.5 79 30.5
c33.333 0 59.833 -9 79.5 -27s29.5 -42 29.5 -72c0 -13.333 -3.66699 -27 -11 -41s-14.166 -24.667 -20.499 -32l-32.5 -36l-74 -76h141v-54h-226v43l111 117c17.333 18 29.833 32.5 37.5 43.5s11.5 22.167 11.5 33.5z" />
    <glyph glyph-name="threequarters" unicode="&#xbe;" horiz-adv-x="706" 
d="M608 614l-429 -614h-67l429 614h67zM140 426l-0.00292969 49.001h24c14.667 0 26.834 4 36.501 12s14.5 19 14.5 33c0 13.333 -4.5 24.166 -13.5 32.499s-20.833 12.5 -35.5 12.5c-14 0 -25.833 -4.66699 -35.5 -14s-15.167 -21 -16.5 -35h-63c4 30 16 54.667 36 74
s45.667 29 77 29c34 0 60.833 -8.83301 80.5 -26.5s29.5 -40.834 29.5 -69.501c0 -16.667 -4.16699 -31.667 -12.5 -45s-19.166 -22.666 -32.499 -27.999c15.333 -4.66699 27.5 -13.667 36.5 -27s13.5 -28.333 13.5 -45c0 -30 -10.167 -54.5 -30.5 -73.5
s-47.833 -28.5 -82.5 -28.5s-62.5 9.5 -83.5 28.5s-33.167 44.833 -36.5 77.5h65c4.66699 -34.667 23.334 -52 56.001 -52c16 0 28.833 4.5 38.5 13.5s14.5 20.833 14.5 35.5s-5 26.167 -15 34.5s-23 12.5 -39 12.5h-26zM574.997 333.001l-107 -211h81v67h56v-67h52v-53h-52
v-69h-56v69h-150v47l114 217h62z" />
    <glyph glyph-name="questiondown" unicode="&#xbf;" horiz-adv-x="432" 
d="M262 469c0 -15.333 -5.16699 -28.333 -15.5 -39s-22.833 -16 -37.5 -16c-15.333 0 -28.166 5.33301 -38.499 16s-15.5 23.667 -15.5 39s5.16699 28.166 15.5 38.499s23.166 15.5 38.499 15.5c14.667 0 27.167 -5.16699 37.5 -15.5s15.5 -23.166 15.5 -38.499zM24 67
c0 8 0.49707 15.8359 1.49707 23.5029s3.16699 15.5 6.5 23.5s5.83301 14.667 7.5 20s5.66699 12.333 12 21s10.333 14.667 12 18s6.83398 9.83301 15.501 19.5s13.5 15.167 14.5 16.5s6.5 7.33301 16.5 18l16 16c27.333 29.333 41.666 56.666 42.999 81.999h74
c-1.33301 -24 -6.16602 -44.333 -14.499 -61s-22.833 -36.334 -43.5 -59.001c-3.33301 -4 -12.166 -13.5 -26.499 -28.5s-24.5 -26.333 -30.5 -34s-12.167 -18.5 -18.5 -32.5s-9.5 -28 -9.5 -42c0 -31.333 10 -56.333 30 -75s47 -28 81 -28c35.333 0 63.333 11.167 84 33.5
s32.667 52.166 36 89.499h81c-6 -58 -27.167 -104.667 -63.5 -140s-82.166 -53 -137.499 -53c-58 0 -103.667 15.5 -137 46.5s-50 72.833 -50 125.5z" />
    <glyph glyph-name="Agrave" unicode="&#xc0;" horiz-adv-x="596" 
d="M261 614h74l240 -614h-80l-71 185h-253l-70 -185h-80zM297 516l-100 -262h200zM337 668h-75l-92 117h87z" />
    <glyph glyph-name="Aacute" unicode="&#xc1;" horiz-adv-x="596" 
d="M261 614h74l240 -614h-80l-71 185h-253l-70 -185h-80zM297 516l-100 -262h200zM333 668h-76l80 117h87z" />
    <glyph glyph-name="Acircumflex" unicode="&#xc2;" horiz-adv-x="596" 
d="M261 614h74l240 -614h-80l-71 185h-253l-70 -185h-80zM297 516l-100 -262h200zM333 791l92 -122h-68l-59 71l-59 -71h-68l92 122h70z" />
    <glyph glyph-name="Atilde" unicode="&#xc3;" horiz-adv-x="596" 
d="M261 614h74l240 -614h-80l-71 185h-253l-70 -185h-80zM297 516l-100 -262h200zM384 784h48.0029c0 -36.667 -6.5 -65.667 -19.5 -87s-31.833 -32 -56.5 -32c-17.333 0 -37.333 9.33301 -60 28s-39.334 28 -50.001 28c-22.667 0 -34 -17.667 -34 -53h-49
c0 36.667 6.5 65.667 19.5 87s31.833 32 56.5 32c18 0 38.167 -9.33301 60.5 -28s39.166 -28 50.499 -28c21.333 0 32.666 17.667 33.999 53z" />
    <glyph glyph-name="Adieresis" unicode="&#xc4;" horiz-adv-x="596" 
d="M261 614h74l240 -614h-80l-71 185h-253l-70 -185h-80zM297 516l-100 -262h200zM182 722c0 12.667 4.5 23.5 13.5 32.5s20.167 13.5 33.5 13.5c12.667 0 23.5 -4.5 32.5 -13.5s13.5 -19.833 13.5 -32.5s-4.5 -23.5 -13.5 -32.5s-19.833 -13.5 -32.5 -13.5
c-13.333 0 -24.5 4.5 -33.5 13.5s-13.5 19.833 -13.5 32.5zM323 722c0 12.667 4.33301 23.5 13 32.5s19.334 13.5 32.001 13.5c13.333 0 24.5 -4.5 33.5 -13.5s13.5 -19.833 13.5 -32.5s-4.5 -23.5 -13.5 -32.5s-20.167 -13.5 -33.5 -13.5
c-12.667 0 -23.334 4.5 -32.001 13.5s-13 19.833 -13 32.5z" />
    <glyph glyph-name="Aring" unicode="&#xc5;" horiz-adv-x="596" 
d="M261 614h74l240 -614h-80l-71 185h-253l-70 -185h-80zM297 516l-100 -262h200zM385 734c0 -24 -8.33301 -44.333 -25 -61s-37.334 -25 -62.001 -25s-45.334 8.33301 -62.001 25s-25 37 -25 61c0 24.667 8.33301 45.334 25 62.001s37.334 25 62.001 25
s45.334 -8.33301 62.001 -25s25 -37.334 25 -62.001zM343 734c0 12.667 -4.33301 23.5 -13 32.5s-19.334 13.5 -32.001 13.5s-23.334 -4.5 -32.001 -13.5s-13 -19.833 -13 -32.5s4.33301 -23.334 13 -32.001s19.334 -13 32.001 -13s23.334 4.33301 32.001 13
s13 19.334 13 32.001z" />
    <glyph glyph-name="AE" unicode="&#xc6;" horiz-adv-x="862" 
d="M390 614h421v-70h-297v-194h268v-70h-268v-209h297v-71h-374v185h-222l-112 -185h-82zM437 550l-180 -296h180v296z" />
    <glyph glyph-name="Ccedilla" unicode="&#xc7;" horiz-adv-x="586" 
d="M37 307c0 94 26.167 170.167 78.5 228.5s117.833 87.5 196.5 87.5c63.333 0 115.833 -17 157.5 -51s68.834 -80 81.501 -138h-78c-28 78.667 -81.667 118 -161 118c-58.667 0 -106 -22.5 -142 -67.5s-54 -104.167 -54 -177.5c0 -72.667 18 -131.667 54 -177
s83.333 -68 142 -68c80 0 133.667 39.667 161 119h78c-12.667 -58.667 -39.834 -105 -81.501 -139s-94.167 -51 -157.5 -51c-78.667 0 -144.167 29.167 -196.5 87.5s-78.5 134.5 -78.5 228.5zM287 -183h-71l66 132h74z" />
    <glyph glyph-name="Egrave" unicode="&#xc8;" horiz-adv-x="515" 
d="M313 668h-75l-92 117h87zM73 614h391v-70h-313v-194h284v-70h-284v-209h313v-71h-391v614z" />
    <glyph glyph-name="Eacute" unicode="&#xc9;" horiz-adv-x="515" 
d="M305 668h-76l80 117h87zM73 614h391v-70h-313v-194h284v-70h-284v-209h313v-71h-391v614z" />
    <glyph glyph-name="Ecircumflex" unicode="&#xca;" horiz-adv-x="515" 
d="M73 614h391v-70h-313v-194h284v-70h-284v-209h313v-71h-391v614zM308 791l92 -122h-68l-59 71l-59 -71h-68l92 122h70z" />
    <glyph glyph-name="Edieresis" unicode="&#xcb;" horiz-adv-x="515" 
d="M157 722c0 12.667 4.5 23.5 13.5 32.5s20.167 13.5 33.5 13.5c12.667 0 23.5 -4.5 32.5 -13.5s13.5 -19.833 13.5 -32.5s-4.5 -23.5 -13.5 -32.5s-19.833 -13.5 -32.5 -13.5c-13.333 0 -24.5 4.5 -33.5 13.5s-13.5 19.833 -13.5 32.5zM298 722
c0 12.667 4.33301 23.5 13 32.5s19.334 13.5 32.001 13.5c13.333 0 24.5 -4.5 33.5 -13.5s13.5 -19.833 13.5 -32.5s-4.5 -23.5 -13.5 -32.5s-20.167 -13.5 -33.5 -13.5c-12.667 0 -23.334 4.5 -32.001 13.5s-13 19.833 -13 32.5zM73 614h391v-70h-313v-194h284v-70h-284
v-209h313v-71h-391v614z" />
    <glyph glyph-name="Igrave" unicode="&#xcc;" horiz-adv-x="225" 
d="M152 614v-614h-79v614h79zM153 668h-75l-92 117h87z" />
    <glyph glyph-name="Iacute" unicode="&#xcd;" horiz-adv-x="225" 
d="M152 614v-614h-79v614h79zM144 668h-76l80 117h87z" />
    <glyph glyph-name="Icircumflex" unicode="&#xce;" horiz-adv-x="225" 
d="M152 614v-614h-79v614h79zM147 791l92 -122h-68l-59 71l-59 -71h-68l92 122h70z" />
    <glyph glyph-name="Idieresis" unicode="&#xcf;" horiz-adv-x="225" 
d="M152 614v-614h-79v614h79zM-4 722c0 12.667 4.5 23.5 13.5 32.5s20.167 13.5 33.5 13.5c12.667 0 23.5 -4.5 32.5 -13.5s13.5 -19.833 13.5 -32.5s-4.5 -23.5 -13.5 -32.5s-19.833 -13.5 -32.5 -13.5c-13.333 0 -24.5 4.5 -33.5 13.5s-13.5 19.833 -13.5 32.5zM137 722
c0 12.667 4.33301 23.5 13 32.5s19.334 13.5 32.001 13.5c13.333 0 24.5 -4.5 33.5 -13.5s13.5 -19.833 13.5 -32.5s-4.5 -23.5 -13.5 -32.5s-20.167 -13.5 -33.5 -13.5c-12.667 0 -23.334 4.5 -32.001 13.5s-13 19.833 -13 32.5z" />
    <glyph glyph-name="Eth" unicode="&#xd0;" horiz-adv-x="620" 
d="M32 284v67h56v263h197c90 0 162.167 -27.833 216.5 -83.5s81.5 -130.167 81.5 -223.5s-27.167 -167.833 -81.5 -223.5s-126.5 -83.5 -216.5 -83.5h-197v284h-56zM167 71l117 -0.000976562c69.333 0 123.5 21.167 162.5 63.5s58.5 99.833 58.5 172.5
s-19.667 130.334 -59 173.001s-93.333 64 -162 64h-117v-193h123v-67h-123v-213z" />
    <glyph glyph-name="Ntilde" unicode="&#xd1;" horiz-adv-x="623" 
d="M398 784h48.0029c0 -36.667 -6.5 -65.667 -19.5 -87s-31.833 -32 -56.5 -32c-17.333 0 -37.333 9.33301 -60 28s-39.334 28 -50.001 28c-22.667 0 -34 -17.667 -34 -53h-49c0 36.667 6.5 65.667 19.5 87s31.833 32 56.5 32c18 0 38.167 -9.33301 60.5 -28
s39.166 -28 50.499 -28c21.333 0 32.666 17.667 33.999 53zM550.003 614v-614h-58l-343 488v-488h-76v614h75l327 -467v467h75z" />
    <glyph glyph-name="Ograve" unicode="&#xd2;" horiz-adv-x="629" 
d="M355 668h-75l-92 117h87zM592 307c0 -92.667 -26 -168.5 -78 -227.5s-118.667 -88.5 -200 -88.5c-80.667 0 -147 29.5 -199 88.5s-78 134.833 -78 227.5s26 168.5 78 227.5s118.333 88.5 199 88.5c81.333 0 148 -29.5 200 -88.5s78 -134.833 78 -227.5zM513 307
c0 72 -18.333 130.833 -55 176.5s-84.667 68.5 -144 68.5c-58.667 0 -106.334 -22.833 -143.001 -68.5s-55 -104.5 -55 -176.5s18.333 -130.833 55 -176.5s84.334 -68.5 143.001 -68.5c59.333 0 107.333 22.833 144 68.5s55 104.5 55 176.5z" />
    <glyph glyph-name="Oacute" unicode="&#xd3;" horiz-adv-x="629" 
d="M346 668h-76l80 117h87zM592 307c0 -92.667 -26 -168.5 -78 -227.5s-118.667 -88.5 -200 -88.5c-80.667 0 -147 29.5 -199 88.5s-78 134.833 -78 227.5s26 168.5 78 227.5s118.333 88.5 199 88.5c81.333 0 148 -29.5 200 -88.5s78 -134.833 78 -227.5zM513 307
c0 72 -18.333 130.833 -55 176.5s-84.667 68.5 -144 68.5c-58.667 0 -106.334 -22.833 -143.001 -68.5s-55 -104.5 -55 -176.5s18.333 -130.833 55 -176.5s84.334 -68.5 143.001 -68.5c59.333 0 107.333 22.833 144 68.5s55 104.5 55 176.5z" />
    <glyph glyph-name="Ocircumflex" unicode="&#xd4;" horiz-adv-x="629" 
d="M592 307c0 -92.667 -26 -168.5 -78 -227.5s-118.667 -88.5 -200 -88.5c-80.667 0 -147 29.5 -199 88.5s-78 134.833 -78 227.5s26 168.5 78 227.5s118.333 88.5 199 88.5c81.333 0 148 -29.5 200 -88.5s78 -134.833 78 -227.5zM513 307c0 72 -18.333 130.833 -55 176.5
s-84.667 68.5 -144 68.5c-58.667 0 -106.334 -22.833 -143.001 -68.5s-55 -104.5 -55 -176.5s18.333 -130.833 55 -176.5s84.334 -68.5 143.001 -68.5c59.333 0 107.333 22.833 144 68.5s55 104.5 55 176.5zM349 791l92 -122h-68l-59 71l-59 -71h-68l92 122h70z" />
    <glyph glyph-name="Otilde" unicode="&#xd5;" horiz-adv-x="629" 
d="M401 784h48.0029c0 -36.667 -6.5 -65.667 -19.5 -87s-31.833 -32 -56.5 -32c-17.333 0 -37.333 9.33301 -60 28s-39.334 28 -50.001 28c-22.667 0 -34 -17.667 -34 -53h-49c0 36.667 6.5 65.667 19.5 87s31.833 32 56.5 32c18 0 38.167 -9.33301 60.5 -28
s39.166 -28 50.499 -28c21.333 0 32.666 17.667 33.999 53zM592.003 307c0 -92.667 -26 -168.5 -78 -227.5s-118.667 -88.5 -200 -88.5c-80.667 0 -147 29.5 -199 88.5s-78 134.833 -78 227.5s26 168.5 78 227.5s118.333 88.5 199 88.5c81.333 0 148 -29.5 200 -88.5
s78 -134.833 78 -227.5zM513.003 307c0 72 -18.333 130.833 -55 176.5s-84.667 68.5 -144 68.5c-58.667 0 -106.334 -22.833 -143.001 -68.5s-55 -104.5 -55 -176.5s18.333 -130.833 55 -176.5s84.334 -68.5 143.001 -68.5c59.333 0 107.333 22.833 144 68.5
s55 104.5 55 176.5z" />
    <glyph glyph-name="Odieresis" unicode="&#xd6;" horiz-adv-x="629" 
d="M198 722c0 12.667 4.5 23.5 13.5 32.5s20.167 13.5 33.5 13.5c12.667 0 23.5 -4.5 32.5 -13.5s13.5 -19.833 13.5 -32.5s-4.5 -23.5 -13.5 -32.5s-19.833 -13.5 -32.5 -13.5c-13.333 0 -24.5 4.5 -33.5 13.5s-13.5 19.833 -13.5 32.5zM339 722
c0 12.667 4.33301 23.5 13 32.5s19.334 13.5 32.001 13.5c13.333 0 24.5 -4.5 33.5 -13.5s13.5 -19.833 13.5 -32.5s-4.5 -23.5 -13.5 -32.5s-20.167 -13.5 -33.5 -13.5c-12.667 0 -23.334 4.5 -32.001 13.5s-13 19.833 -13 32.5zM592 307c0 -92.667 -26 -168.5 -78 -227.5
s-118.667 -88.5 -200 -88.5c-80.667 0 -147 29.5 -199 88.5s-78 134.833 -78 227.5s26 168.5 78 227.5s118.333 88.5 199 88.5c81.333 0 148 -29.5 200 -88.5s78 -134.833 78 -227.5zM513 307c0 72 -18.333 130.833 -55 176.5s-84.667 68.5 -144 68.5
c-58.667 0 -106.334 -22.833 -143.001 -68.5s-55 -104.5 -55 -176.5s18.333 -130.833 55 -176.5s84.334 -68.5 143.001 -68.5c59.333 0 107.333 22.833 144 68.5s55 104.5 55 176.5z" />
    <glyph glyph-name="multiply" unicode="&#xd7;" horiz-adv-x="470" 
d="M193 295l-122 121l43 42l120 -122l122 122l43 -42l-122 -121l122 -122l-43 -43l-122 122l-120 -122l-43 43z" />
    <glyph glyph-name="Oslash" unicode="&#xd8;" horiz-adv-x="639" 
d="M56 18l55.999 70.999c-46.667 58.667 -70 131.334 -70 218.001c0 92.667 26 168.5 78 227.5s118.333 88.5 199 88.5c64.667 0 121.334 -20 170.001 -60l47 60l46 -33l-54 -67c46 -57.333 69 -129.333 69 -216c0 -92.667 -26 -168.5 -78 -227.5s-118.667 -88.5 -200 -88.5
c-64.667 0 -120 19 -166 57l-50 -63zM120.999 306.999c0 -64.667 13.001 -117.333 39.001 -158l284 357c-34 30.667 -75.667 46 -125 46c-58.667 0 -106.334 -22.833 -143.001 -68.5s-55 -104.5 -55 -176.5zM518 307c0 62 -12.667 113.667 -38 155l-282 -357
c32 -28.667 72.333 -43 121 -43c59.333 0 107.333 22.833 144 68.5s55 104.5 55 176.5z" />
    <glyph glyph-name="Ugrave" unicode="&#xd9;" horiz-adv-x="607" 
d="M344 668h-75l-92 117h87zM303 -9c-72 0 -130.002 21.666 -174.002 64.999s-66 106 -66 188v370h78v-361c0 -64 14.333 -112 43 -144s68.334 -48 119.001 -48s90.334 16 119.001 48s43 80 43 144v361h79v-371c0 -81.333 -22 -143.666 -66 -186.999s-102.333 -65 -175 -65z
" />
    <glyph glyph-name="Uacute" unicode="&#xda;" horiz-adv-x="607" 
d="M335 668h-76l80 117h87zM303 -9c-72 0 -130.002 21.666 -174.002 64.999s-66 106 -66 188v370h78v-361c0 -64 14.333 -112 43 -144s68.334 -48 119.001 -48s90.334 16 119.001 48s43 80 43 144v361h79v-371c0 -81.333 -22 -143.666 -66 -186.999s-102.333 -65 -175 -65z
" />
    <glyph glyph-name="Ucircumflex" unicode="&#xdb;" horiz-adv-x="607" 
d="M303 -9c-72 0 -130.002 21.666 -174.002 64.999s-66 106 -66 188v370h78v-361c0 -64 14.333 -112 43 -144s68.334 -48 119.001 -48s90.334 16 119.001 48s43 80 43 144v361h79v-371c0 -81.333 -22 -143.666 -66 -186.999s-102.333 -65 -175 -65zM337.998 790.999l92 -122
h-68l-59 71l-59 -71h-68l92 122h70z" />
    <glyph glyph-name="Udieresis" unicode="&#xdc;" horiz-adv-x="607" 
d="M187 722c0 12.667 4.5 23.5 13.5 32.5s20.167 13.5 33.5 13.5c12.667 0 23.5 -4.5 32.5 -13.5s13.5 -19.833 13.5 -32.5s-4.5 -23.5 -13.5 -32.5s-19.833 -13.5 -32.5 -13.5c-13.333 0 -24.5 4.5 -33.5 13.5s-13.5 19.833 -13.5 32.5zM328 722
c0 12.667 4.33301 23.5 13 32.5s19.334 13.5 32.001 13.5c13.333 0 24.5 -4.5 33.5 -13.5s13.5 -19.833 13.5 -32.5s-4.5 -23.5 -13.5 -32.5s-20.167 -13.5 -33.5 -13.5c-12.667 0 -23.334 4.5 -32.001 13.5s-13 19.833 -13 32.5zM303 -9
c-72 0 -130.002 21.666 -174.002 64.999s-66 106 -66 188v370h78v-361c0 -64 14.333 -112 43 -144s68.334 -48 119.001 -48s90.334 16 119.001 48s43 80 43 144v361h79v-371c0 -81.333 -22 -143.666 -66 -186.999s-102.333 -65 -175 -65z" />
    <glyph glyph-name="Yacute" unicode="&#xdd;" horiz-adv-x="557" 
d="M280 324l177 290h84l-224 -361v-253h-78v253l-222 361h86zM311 668h-76l80 117h87z" />
    <glyph glyph-name="Thorn" unicode="&#xde;" horiz-adv-x="537" 
d="M303 131h-151v-131h-79v614h79v-115h151c63.333 0 112.833 -15.833 148.5 -47.5s53.5 -77.167 53.5 -136.5s-18 -104.833 -54 -136.5s-85.333 -47.5 -148 -47.5zM427 315c0 36 -10.833 64.167 -32.5 84.5s-52.834 30.5 -93.501 30.5h-149v-230h149
c40.667 0 71.834 10.333 93.501 31s32.5 48.667 32.5 84z" />
    <glyph glyph-name="germandbls" unicode="&#xdf;" horiz-adv-x="510" 
d="M342 367c37.333 -8.66699 68.6689 -29.002 94.002 -61.002s38 -71.333 38 -118c0 -60.667 -17.667 -108.167 -53 -142.5s-81.666 -51.5 -138.999 -51.5c-32.667 0 -61.334 5.66699 -86.001 17v69c19.333 -12 46 -18 80 -18c39.333 0 70.166 11.667 92.499 35
s33.5 56 33.5 98s-13.833 75 -41.5 99s-65.167 36 -112.5 36h-42v66h42c32 0 57.667 9.16699 77 27.5s29 42.833 29 73.5c0 28.667 -9.16699 52 -27.5 70s-42.833 27 -73.5 27c-36.667 0 -64.5 -12 -83.5 -36s-28.5 -55.667 -28.5 -95v-463h-74v463
c0 58.667 16.5 106 49.5 142s78.167 54 135.5 54c54 0 96.5 -14.833 127.5 -44.5s46.5 -67.5 46.5 -113.5c0 -33.333 -7.83301 -61.666 -23.5 -84.999s-35.834 -39.666 -60.501 -48.999z" />
    <glyph glyph-name="agrave" unicode="&#xe0;" horiz-adv-x="450" 
d="M389 0h-71.998v33c-9.33301 -10 -25 -19.333 -47 -28s-45.333 -13 -70 -13c-46.667 0 -85.834 13 -117.501 39s-47.5 60.333 -47.5 103c0 40.667 16.333 74 49 100s73 39 121 39c22 0 43.667 -3.66699 65 -11s37 -15.666 47 -24.999v56c0 28.667 -8.5 51.667 -25.5 69
s-41.167 26 -72.5 26c-46.667 0 -77 -20.333 -91 -61h-74c7.33301 37.333 26.166 67.666 56.499 90.999s66.833 35 109.5 35c52.667 0 94 -14 124 -42s45 -66.333 45 -115v-296zM317.002 110v46c-6.66699 16 -19.834 29.167 -39.501 39.5s-41.167 15.5 -64.5 15.5
c-29.333 0 -54.333 -6.66699 -75 -20s-31 -32.333 -31 -57c0 -25.333 10.333 -44.833 31 -58.5s45.667 -20.5 75 -20.5c23.333 0 44.833 5.16699 64.5 15.5s32.834 23.5 39.501 39.5zM271.002 516h-69l-89 134h78z" />
    <glyph glyph-name="aacute" unicode="&#xe1;" horiz-adv-x="450" 
d="M389 0h-71.998v33c-9.33301 -10 -25 -19.333 -47 -28s-45.333 -13 -70 -13c-46.667 0 -85.834 13 -117.501 39s-47.5 60.333 -47.5 103c0 40.667 16.333 74 49 100s73 39 121 39c22 0 43.667 -3.66699 65 -11s37 -15.666 47 -24.999v56c0 28.667 -8.5 51.667 -25.5 69
s-41.167 26 -72.5 26c-46.667 0 -77 -20.333 -91 -61h-74c7.33301 37.333 26.166 67.666 56.499 90.999s66.833 35 109.5 35c52.667 0 94 -14 124 -42s45 -66.333 45 -115v-296zM317.002 110v46c-6.66699 16 -19.834 29.167 -39.501 39.5s-41.167 15.5 -64.5 15.5
c-29.333 0 -54.333 -6.66699 -75 -20s-31 -32.333 -31 -57c0 -25.333 10.333 -44.833 31 -58.5s45.667 -20.5 75 -20.5c23.333 0 44.833 5.16699 64.5 15.5s32.834 23.5 39.501 39.5zM260.002 516h-69l80 134h78z" />
    <glyph glyph-name="acircumflex" unicode="&#xe2;" horiz-adv-x="450" 
d="M264 645l92 -136h-65l-62 88l-62 -88h-65l92 136h70zM389 0h-71.998v33c-9.33301 -10 -25 -19.333 -47 -28s-45.333 -13 -70 -13c-46.667 0 -85.834 13 -117.501 39s-47.5 60.333 -47.5 103c0 40.667 16.333 74 49 100s73 39 121 39c22 0 43.667 -3.66699 65 -11
s37 -15.666 47 -24.999v56c0 28.667 -8.5 51.667 -25.5 69s-41.167 26 -72.5 26c-46.667 0 -77 -20.333 -91 -61h-74c7.33301 37.333 26.166 67.666 56.499 90.999s66.833 35 109.5 35c52.667 0 94 -14 124 -42s45 -66.333 45 -115v-296zM317.002 110v46
c-6.66699 16 -19.834 29.167 -39.501 39.5s-41.167 15.5 -64.5 15.5c-29.333 0 -54.333 -6.66699 -75 -20s-31 -32.333 -31 -57c0 -25.333 10.333 -44.833 31 -58.5s45.667 -20.5 75 -20.5c23.333 0 44.833 5.16699 64.5 15.5s32.834 23.5 39.501 39.5z" />
    <glyph glyph-name="atilde" unicode="&#xe3;" horiz-adv-x="450" 
d="M389 0h-71.998v33c-9.33301 -10 -25 -19.333 -47 -28s-45.333 -13 -70 -13c-46.667 0 -85.834 13 -117.501 39s-47.5 60.333 -47.5 103c0 40.667 16.333 74 49 100s73 39 121 39c22 0 43.667 -3.66699 65 -11s37 -15.666 47 -24.999v56c0 28.667 -8.5 51.667 -25.5 69
s-41.167 26 -72.5 26c-46.667 0 -77 -20.333 -91 -61h-74c7.33301 37.333 26.166 67.666 56.499 90.999s66.833 35 109.5 35c52.667 0 94 -14 124 -42s45 -66.333 45 -115v-296zM317.002 110v46c-6.66699 16 -19.834 29.167 -39.501 39.5s-41.167 15.5 -64.5 15.5
c-29.333 0 -54.333 -6.66699 -75 -20s-31 -32.333 -31 -57c0 -25.333 10.333 -44.833 31 -58.5s45.667 -20.5 75 -20.5c23.333 0 44.833 5.16699 64.5 15.5s32.834 23.5 39.501 39.5zM312.002 633h48.001c0 -36 -6.5 -64.667 -19.5 -86s-31.833 -32 -56.5 -32
c-16.667 0 -35.834 9.66699 -57.501 29s-37.167 29 -46.5 29c-22.667 0 -34 -18.333 -34 -55h-48c0 36 6.5 64.667 19.5 86s31.833 32 56.5 32c16.667 0 35.834 -9.66699 57.501 -29s37.167 -29 46.5 -29c21.333 0 32.666 18.333 33.999 55z" />
    <glyph glyph-name="adieresis" unicode="&#xe4;" horiz-adv-x="450" 
d="M113 571c0 13.333 4.5 24.5 13.5 33.5s20.167 13.5 33.5 13.5c12.667 0 23.5 -4.5 32.5 -13.5s13.5 -20.167 13.5 -33.5c0 -12.667 -4.5 -23.5 -13.5 -32.5s-19.833 -13.5 -32.5 -13.5s-23.667 4.5 -33 13.5s-14 19.833 -14 32.5zM254 571c0 13.333 4.33301 24.5 13 33.5
s19.334 13.5 32.001 13.5c13.333 0 24.5 -4.5 33.5 -13.5s13.5 -20.167 13.5 -33.5c0 -12.667 -4.66699 -23.5 -14 -32.5s-20.333 -13.5 -33 -13.5s-23.334 4.5 -32.001 13.5s-13 19.833 -13 32.5zM389 0h-71.998v33c-9.33301 -10 -25 -19.333 -47 -28s-45.333 -13 -70 -13
c-46.667 0 -85.834 13 -117.501 39s-47.5 60.333 -47.5 103c0 40.667 16.333 74 49 100s73 39 121 39c22 0 43.667 -3.66699 65 -11s37 -15.666 47 -24.999v56c0 28.667 -8.5 51.667 -25.5 69s-41.167 26 -72.5 26c-46.667 0 -77 -20.333 -91 -61h-74
c7.33301 37.333 26.166 67.666 56.499 90.999s66.833 35 109.5 35c52.667 0 94 -14 124 -42s45 -66.333 45 -115v-296zM317.002 110v46c-6.66699 16 -19.834 29.167 -39.501 39.5s-41.167 15.5 -64.5 15.5c-29.333 0 -54.333 -6.66699 -75 -20s-31 -32.333 -31 -57
c0 -25.333 10.333 -44.833 31 -58.5s45.667 -20.5 75 -20.5c23.333 0 44.833 5.16699 64.5 15.5s32.834 23.5 39.501 39.5z" />
    <glyph glyph-name="aring" unicode="&#xe5;" horiz-adv-x="450" 
d="M389 0h-71.998v33c-9.33301 -10 -25 -19.333 -47 -28s-45.333 -13 -70 -13c-46.667 0 -85.834 13 -117.501 39s-47.5 60.333 -47.5 103c0 40.667 16.333 74 49 100s73 39 121 39c22 0 43.667 -3.66699 65 -11s37 -15.666 47 -24.999v56c0 28.667 -8.5 51.667 -25.5 69
s-41.167 26 -72.5 26c-46.667 0 -77 -20.333 -91 -61h-74c7.33301 37.333 26.166 67.666 56.499 90.999s66.833 35 109.5 35c52.667 0 94 -14 124 -42s45 -66.333 45 -115v-296zM317.002 110v46c-6.66699 16 -19.834 29.167 -39.501 39.5s-41.167 15.5 -64.5 15.5
c-29.333 0 -54.333 -6.66699 -75 -20s-31 -32.333 -31 -57c0 -25.333 10.333 -44.833 31 -58.5s45.667 -20.5 75 -20.5c23.333 0 44.833 5.16699 64.5 15.5s32.834 23.5 39.501 39.5zM314.002 580c0 -24.667 -8.33301 -45.167 -25 -61.5s-37.334 -24.5 -62.001 -24.5
s-45.334 8.16699 -62.001 24.5s-25 36.833 -25 61.5s8.33301 45.167 25 61.5s37.334 24.5 62.001 24.5s45.334 -8.16699 62.001 -24.5s25 -36.833 25 -61.5zM272.002 580c0 12.667 -4.33301 23.334 -13 32.001s-19.334 13 -32.001 13s-23.334 -4.33301 -32.001 -13
s-13 -19.334 -13 -32.001s4.33301 -23.334 13 -32.001s19.334 -13 32.001 -13s23.334 4.33301 32.001 13s13 19.334 13 32.001z" />
    <glyph glyph-name="ae" unicode="&#xe6;" horiz-adv-x="731" 
d="M199 55c28 0 52.166 7.33301 72.499 22s34.833 34.334 43.5 59.001v71h-105c-29.333 0 -54.166 -6.33301 -74.499 -19s-30.5 -31.334 -30.5 -56.001s9 -43.667 27 -57s40.333 -20 67 -20zM620.999 133l71.0039 -0.000976562c-8 -43.333 -27.833 -77.833 -59.5 -103.5
s-71.834 -38.5 -120.501 -38.5c-70.667 0 -124.334 28 -161.001 84c-40.667 -55.333 -93.334 -83 -158.001 -83c-45.333 0 -83.166 12.5 -113.499 37.5s-45.5 57.833 -45.5 98.5c0 42 16.167 75.5 48.5 100.5s73.166 37.5 122.499 37.5h110v27
c0 28.667 -8.33301 51.667 -25 69s-40.667 26 -72 26c-48 0 -79 -20.333 -93 -61h-72c7.33301 37.333 26.166 67.666 56.499 90.999s66.833 35 109.5 35c72 0 120 -27 144 -81c37.333 54 86.333 81 147 81c60 0 106.333 -19.833 139 -59.5s49 -92.5 49 -158.5v-27h-315
c0.666992 -47.333 13 -84.666 37 -111.999s54.667 -41 92 -41c28 0 51.667 6.83301 71 20.5s32 32.834 38 57.501zM511.003 388.999c-33.333 0 -61.333 -11 -84 -33s-36.667 -52.333 -42 -91h237c-1.33301 35.333 -11.333 64.833 -30 88.5s-45.667 35.5 -81 35.5z" />
    <glyph glyph-name="ccedilla" unicode="&#xe7;" horiz-adv-x="446" 
d="M35 222c0 68.667 18.667 124.334 56 167.001s86 64 146 64c48.667 0 88.5 -13 119.5 -39s50.5 -60.667 58.5 -104h-77c-5.33301 24 -16.833 42.833 -34.5 56.5s-39.834 20.5 -66.501 20.5c-38 0 -68.5 -15.333 -91.5 -46s-34.5 -70.334 -34.5 -119.001
s11.5 -88.334 34.5 -119.001s53.5 -46 91.5 -46c26.667 0 48.834 6.83301 66.501 20.5s29.167 32.5 34.5 56.5h77c-8 -43.333 -27.5 -78 -58.5 -104s-70.833 -39 -119.5 -39c-60 0 -108.667 21.333 -146 64s-56 98.334 -56 167.001zM212 -183h-71l66 132h74z" />
    <glyph glyph-name="egrave" unicode="&#xe8;" horiz-adv-x="457" 
d="M347 133h71c-8 -43.333 -27.667 -77.833 -59 -103.5s-71.333 -38.5 -120 -38.5c-60.667 0 -109.834 21.167 -147.501 63.5s-56.5 97.833 -56.5 166.5c0 67.333 18.667 122.833 56 166.5s86 65.5 146 65.5c59.333 0 105.333 -19.833 138 -59.5s49 -92.5 49 -158.5v-27
h-314c0.666992 -46.667 12.834 -83.834 36.501 -111.501s54.5 -41.5 92.5 -41.5c28 0 51.5 6.83301 70.5 20.5s31.5 32.834 37.5 57.501zM238 389c-33.333 0 -61.332 -11 -83.999 -33s-36.667 -52.333 -42 -91h236c-0.666992 35.333 -10.334 64.833 -29.001 88.5
s-45.667 35.5 -81 35.5zM279.001 516h-69l-89 134h78z" />
    <glyph glyph-name="eacute" unicode="&#xe9;" horiz-adv-x="457" 
d="M270 516h-69l80 134h78zM347 133h71c-8 -43.333 -27.667 -77.833 -59 -103.5s-71.333 -38.5 -120 -38.5c-60.667 0 -109.834 21.167 -147.501 63.5s-56.5 97.833 -56.5 166.5c0 67.333 18.667 122.833 56 166.5s86 65.5 146 65.5c59.333 0 105.333 -19.833 138 -59.5
s49 -92.5 49 -158.5v-27h-314c0.666992 -46.667 12.834 -83.834 36.501 -111.501s54.5 -41.5 92.5 -41.5c28 0 51.5 6.83301 70.5 20.5s31.5 32.834 37.5 57.501zM238 389c-33.333 0 -61.332 -11 -83.999 -33s-36.667 -52.333 -42 -91h236
c-0.666992 35.333 -10.334 64.833 -29.001 88.5s-45.667 35.5 -81 35.5z" />
    <glyph glyph-name="ecircumflex" unicode="&#xea;" horiz-adv-x="457" 
d="M275 645l92 -136h-65l-62 88l-62 -88h-65l92 136h70zM347 133h71c-8 -43.333 -27.667 -77.833 -59 -103.5s-71.333 -38.5 -120 -38.5c-60.667 0 -109.834 21.167 -147.501 63.5s-56.5 97.833 -56.5 166.5c0 67.333 18.667 122.833 56 166.5s86 65.5 146 65.5
c59.333 0 105.333 -19.833 138 -59.5s49 -92.5 49 -158.5v-27h-314c0.666992 -46.667 12.834 -83.834 36.501 -111.501s54.5 -41.5 92.5 -41.5c28 0 51.5 6.83301 70.5 20.5s31.5 32.834 37.5 57.501zM238 389c-33.333 0 -61.332 -11 -83.999 -33s-36.667 -52.333 -42 -91
h236c-0.666992 35.333 -10.334 64.833 -29.001 88.5s-45.667 35.5 -81 35.5z" />
    <glyph glyph-name="edieresis" unicode="&#xeb;" horiz-adv-x="457" 
d="M125 571c0 13.333 4.5 24.5 13.5 33.5s20.167 13.5 33.5 13.5c12.667 0 23.5 -4.5 32.5 -13.5s13.5 -20.167 13.5 -33.5c0 -12.667 -4.5 -23.5 -13.5 -32.5s-19.833 -13.5 -32.5 -13.5s-23.667 4.5 -33 13.5s-14 19.833 -14 32.5zM266 571c0 13.333 4.33301 24.5 13 33.5
s19.334 13.5 32.001 13.5c13.333 0 24.5 -4.5 33.5 -13.5s13.5 -20.167 13.5 -33.5c0 -12.667 -4.66699 -23.5 -14 -32.5s-20.333 -13.5 -33 -13.5s-23.334 4.5 -32.001 13.5s-13 19.833 -13 32.5zM347 133h71c-8 -43.333 -27.667 -77.833 -59 -103.5
s-71.333 -38.5 -120 -38.5c-60.667 0 -109.834 21.167 -147.501 63.5s-56.5 97.833 -56.5 166.5c0 67.333 18.667 122.833 56 166.5s86 65.5 146 65.5c59.333 0 105.333 -19.833 138 -59.5s49 -92.5 49 -158.5v-27h-314c0.666992 -46.667 12.834 -83.834 36.501 -111.501
s54.5 -41.5 92.5 -41.5c28 0 51.5 6.83301 70.5 20.5s31.5 32.834 37.5 57.501zM238 389c-33.333 0 -61.332 -11 -83.999 -33s-36.667 -52.333 -42 -91h236c-0.666992 35.333 -10.334 64.833 -29.001 88.5s-45.667 35.5 -81 35.5z" />
    <glyph glyph-name="igrave" unicode="&#xec;" horiz-adv-x="209" 
d="M142 444v-444h-75v444h75zM143 516h-69l-89 134h78z" />
    <glyph glyph-name="iacute" unicode="&#xed;" horiz-adv-x="209" 
d="M134 516h-69l80 134h78zM142 444v-444h-75v444h75z" />
    <glyph glyph-name="icircumflex" unicode="&#xee;" horiz-adv-x="209" 
d="M139 645l74 -136h-64l-45 85l-45 -85h-63l74 136h69zM142 444v-444h-75v444h75z" />
    <glyph glyph-name="idieresis" unicode="&#xef;" horiz-adv-x="209" 
d="M-3 571c0 13.333 4.33301 24.5 13 33.5s19.667 13.5 33 13.5c12.667 0 23.5 -4.5 32.5 -13.5s13.5 -20.167 13.5 -33.5c0 -12.667 -4.5 -23.5 -13.5 -32.5s-19.833 -13.5 -32.5 -13.5s-23.5 4.5 -32.5 13.5s-13.5 19.833 -13.5 32.5zM121 571
c0 13.333 4.33301 24.5 13 33.5s19.334 13.5 32.001 13.5c13.333 0 24.5 -4.5 33.5 -13.5s13.5 -20.167 13.5 -33.5c0 -12.667 -4.66699 -23.5 -14 -32.5s-20.333 -13.5 -33 -13.5s-23.334 4.5 -32.001 13.5s-13 19.833 -13 32.5zM142 444v-444h-75v444h75z" />
    <glyph glyph-name="eth" unicode="&#xf0;" horiz-adv-x="478" 
d="M139 494l-17.998 47.001l80 26c-32 28 -65.333 54.333 -100 79v4h98c30 -20.667 54.667 -40.334 74 -59.001l85 29l17 -47l-63 -21c87.333 -98 131 -206.667 131 -326c0 -70 -18.833 -126.667 -56.5 -170s-86.834 -65 -147.501 -65s-109.834 21.167 -147.501 63.5
s-56.5 97.5 -56.5 165.5s18.333 123.333 55 166s83.667 64 141 64c42 0 76.333 -14.667 103 -44h3c-14.667 33.333 -46 74 -94 122zM367.002 220.001c0 49.333 -11.5 89 -34.5 119s-54.167 45 -93.5 45s-70.5 -15 -93.5 -45s-34.5 -69.667 -34.5 -119
s11.5 -88.833 34.5 -118.5s54.167 -44.5 93.5 -44.5s70.5 14.833 93.5 44.5s34.5 69.167 34.5 118.5z" />
    <glyph glyph-name="ntilde" unicode="&#xf1;" horiz-adv-x="489" 
d="M67 0l0.000976562 443.999h75v-56c14 18.667 32.5 34.167 55.5 46.5s48.167 18.5 75.5 18.5c49.333 0 87.666 -14.667 114.999 -44s41 -68.666 41 -117.999v-291h-76v279c0 32 -8.16699 57.5 -24.5 76.5s-40.833 28.5 -73.5 28.5c-26 0 -49.333 -7.83301 -70 -23.5
s-35 -35.5 -43 -59.5v-301h-75zM331.001 632.999h48.001c0 -36 -6.5 -64.667 -19.5 -86s-31.833 -32 -56.5 -32c-16.667 0 -35.834 9.66699 -57.501 29s-37.167 29 -46.5 29c-22.667 0 -34 -18.333 -34 -55h-48c0 36 6.5 64.667 19.5 86s31.833 32 56.5 32
c16.667 0 35.834 -9.66699 57.501 -29s37.167 -29 46.5 -29c21.333 0 32.666 18.333 33.999 55z" />
    <glyph glyph-name="ograve" unicode="&#xf2;" horiz-adv-x="478" 
d="M443 222c0 -68 -18.833 -123.5 -56.5 -166.5s-86.834 -64.5 -147.501 -64.5s-109.834 21.5 -147.501 64.5s-56.5 98.5 -56.5 166.5s18.833 123.5 56.5 166.5s86.834 64.5 147.501 64.5s109.834 -21.5 147.501 -64.5s56.5 -98.5 56.5 -166.5zM367 222
c0 49.333 -11.5 89.166 -34.5 119.499s-54.167 45.5 -93.5 45.5s-70.5 -15.167 -93.5 -45.5s-34.5 -70.166 -34.5 -119.499s11.5 -89.166 34.5 -119.499s54.167 -45.5 93.5 -45.5s70.5 15.167 93.5 45.5s34.5 70.166 34.5 119.499zM277 516h-69l-89 134h78z" />
    <glyph glyph-name="oacute" unicode="&#xf3;" horiz-adv-x="478" 
d="M268 516h-69l80 134h78zM443 222c0 -68 -18.833 -123.5 -56.5 -166.5s-86.834 -64.5 -147.501 -64.5s-109.834 21.5 -147.501 64.5s-56.5 98.5 -56.5 166.5s18.833 123.5 56.5 166.5s86.834 64.5 147.501 64.5s109.834 -21.5 147.501 -64.5s56.5 -98.5 56.5 -166.5z
M367 222c0 49.333 -11.5 89.166 -34.5 119.499s-54.167 45.5 -93.5 45.5s-70.5 -15.167 -93.5 -45.5s-34.5 -70.166 -34.5 -119.499s11.5 -89.166 34.5 -119.499s54.167 -45.5 93.5 -45.5s70.5 15.167 93.5 45.5s34.5 70.166 34.5 119.499z" />
    <glyph glyph-name="ocircumflex" unicode="&#xf4;" horiz-adv-x="478" 
d="M274 645l92 -136h-65l-62 88l-62 -88h-65l92 136h70zM443 222c0 -68 -18.833 -123.5 -56.5 -166.5s-86.834 -64.5 -147.501 -64.5s-109.834 21.5 -147.501 64.5s-56.5 98.5 -56.5 166.5s18.833 123.5 56.5 166.5s86.834 64.5 147.501 64.5s109.834 -21.5 147.501 -64.5
s56.5 -98.5 56.5 -166.5zM367 222c0 49.333 -11.5 89.166 -34.5 119.499s-54.167 45.5 -93.5 45.5s-70.5 -15.167 -93.5 -45.5s-34.5 -70.166 -34.5 -119.499s11.5 -89.166 34.5 -119.499s54.167 -45.5 93.5 -45.5s70.5 15.167 93.5 45.5s34.5 70.166 34.5 119.499z" />
    <glyph glyph-name="otilde" unicode="&#xf5;" horiz-adv-x="478" 
d="M443 222c0 -68 -18.833 -123.5 -56.5 -166.5s-86.834 -64.5 -147.501 -64.5s-109.834 21.5 -147.501 64.5s-56.5 98.5 -56.5 166.5s18.833 123.5 56.5 166.5s86.834 64.5 147.501 64.5s109.834 -21.5 147.501 -64.5s56.5 -98.5 56.5 -166.5zM367 222
c0 49.333 -11.5 89.166 -34.5 119.499s-54.167 45.5 -93.5 45.5s-70.5 -15.167 -93.5 -45.5s-34.5 -70.166 -34.5 -119.499s11.5 -89.166 34.5 -119.499s54.167 -45.5 93.5 -45.5s70.5 15.167 93.5 45.5s34.5 70.166 34.5 119.499zM322 633h48.001
c0 -36 -6.5 -64.667 -19.5 -86s-31.833 -32 -56.5 -32c-16.667 0 -35.834 9.66699 -57.501 29s-37.167 29 -46.5 29c-22.667 0 -34 -18.333 -34 -55h-48c0 36 6.5 64.667 19.5 86s31.833 32 56.5 32c16.667 0 35.834 -9.66699 57.501 -29s37.167 -29 46.5 -29
c21.333 0 32.666 18.333 33.999 55z" />
    <glyph glyph-name="odieresis" unicode="&#xf6;" horiz-adv-x="478" 
d="M123 571c0 13.333 4.5 24.5 13.5 33.5s20.167 13.5 33.5 13.5c12.667 0 23.5 -4.5 32.5 -13.5s13.5 -20.167 13.5 -33.5c0 -12.667 -4.5 -23.5 -13.5 -32.5s-19.833 -13.5 -32.5 -13.5s-23.667 4.5 -33 13.5s-14 19.833 -14 32.5zM264 571c0 13.333 4.33301 24.5 13 33.5
s19.334 13.5 32.001 13.5c13.333 0 24.5 -4.5 33.5 -13.5s13.5 -20.167 13.5 -33.5c0 -12.667 -4.66699 -23.5 -14 -32.5s-20.333 -13.5 -33 -13.5s-23.334 4.5 -32.001 13.5s-13 19.833 -13 32.5zM443 222c0 -68 -18.833 -123.5 -56.5 -166.5s-86.834 -64.5 -147.501 -64.5
s-109.834 21.5 -147.501 64.5s-56.5 98.5 -56.5 166.5s18.833 123.5 56.5 166.5s86.834 64.5 147.501 64.5s109.834 -21.5 147.501 -64.5s56.5 -98.5 56.5 -166.5zM367 222c0 49.333 -11.5 89.166 -34.5 119.499s-54.167 45.5 -93.5 45.5s-70.5 -15.167 -93.5 -45.5
s-34.5 -70.166 -34.5 -119.499s11.5 -89.166 34.5 -119.499s54.167 -45.5 93.5 -45.5s70.5 15.167 93.5 45.5s34.5 70.166 34.5 119.499z" />
    <glyph glyph-name="divide" unicode="&#xf7;" horiz-adv-x="540" 
d="M73 266v62h394v-62h-394zM220 458c0 14 4.83301 26 14.5 36s21.5 15 35.5 15s26 -5 36 -15s15 -22 15 -36s-5 -26 -15 -36s-22 -15 -36 -15s-25.833 5 -35.5 15s-14.5 22 -14.5 36zM220 136c0 14 4.83301 26 14.5 36s21.5 15 35.5 15s26 -5 36 -15s15 -22 15 -36
s-5 -26 -15 -36s-22 -15 -36 -15s-25.833 5 -35.5 15s-14.5 22 -14.5 36z" />
    <glyph glyph-name="oslash" unicode="&#xf8;" horiz-adv-x="488" 
d="M40 1l49.001 62.999c-32.667 40.667 -49 93.334 -49 158.001c0 68 18.833 123.5 56.5 166.5s86.834 64.5 147.501 64.5c45.333 0 84.333 -12.333 117 -37l42 53l41 -29l-46 -60c33.333 -43.333 50 -96 50 -158c0 -68 -18.833 -123.5 -56.5 -166.5
s-86.834 -64.5 -147.501 -64.5c-46.667 0 -86.334 12.667 -119.001 38l-44 -57zM373.001 221.999c0 38 -7.33301 71.001 -22 99.001l-184 -238c20.667 -17.333 46.334 -26 77.001 -26c39.333 0 70.666 15.167 93.999 45.5s35 70.166 35 119.499zM115.001 222
c0 -38.667 6.66602 -71.334 19.999 -98.001l184 237c-20.667 17.333 -45.667 26 -75 26c-39.333 0 -70.666 -15.167 -93.999 -45.5s-35 -70.166 -35 -119.499z" />
    <glyph glyph-name="ugrave" unicode="&#xf9;" horiz-adv-x="487" 
d="M421 444l0.000976562 -443.998h-76v56c-13.333 -18.667 -31.333 -34.167 -54 -46.5s-47.667 -18.5 -75 -18.5c-49.333 0 -87.5 14.667 -114.5 44s-40.5 68.666 -40.5 117.999v291h76v-279c0 -32.667 8 -58.334 24 -77.001s40.333 -28 73 -28
c25.333 0 48.166 7.66699 68.499 23s34.5 35.333 42.5 60v301h76zM281.001 516.002h-69l-89 134h78z" />
    <glyph glyph-name="uacute" unicode="&#xfa;" horiz-adv-x="487" 
d="M272 516h-69l80 134h78zM421 444l0.000976562 -443.998h-76v56c-13.333 -18.667 -31.333 -34.167 -54 -46.5s-47.667 -18.5 -75 -18.5c-49.333 0 -87.5 14.667 -114.5 44s-40.5 68.666 -40.5 117.999v291h76v-279c0 -32.667 8 -58.334 24 -77.001s40.333 -28 73 -28
c25.333 0 48.166 7.66699 68.499 23s34.5 35.333 42.5 60v301h76z" />
    <glyph glyph-name="ucircumflex" unicode="&#xfb;" horiz-adv-x="487" 
d="M278 645l92 -136h-65l-62 88l-62 -88h-65l92 136h70zM421 444l0.000976562 -443.998h-76v56c-13.333 -18.667 -31.333 -34.167 -54 -46.5s-47.667 -18.5 -75 -18.5c-49.333 0 -87.5 14.667 -114.5 44s-40.5 68.666 -40.5 117.999v291h76v-279
c0 -32.667 8 -58.334 24 -77.001s40.333 -28 73 -28c25.333 0 48.166 7.66699 68.499 23s34.5 35.333 42.5 60v301h76z" />
    <glyph glyph-name="udieresis" unicode="&#xfc;" horiz-adv-x="487" 
d="M127 571c0 13.333 4.5 24.5 13.5 33.5s20.167 13.5 33.5 13.5c12.667 0 23.5 -4.5 32.5 -13.5s13.5 -20.167 13.5 -33.5c0 -12.667 -4.5 -23.5 -13.5 -32.5s-19.833 -13.5 -32.5 -13.5s-23.667 4.5 -33 13.5s-14 19.833 -14 32.5zM268 571c0 13.333 4.33301 24.5 13 33.5
s19.334 13.5 32.001 13.5c13.333 0 24.5 -4.5 33.5 -13.5s13.5 -20.167 13.5 -33.5c0 -12.667 -4.66699 -23.5 -14 -32.5s-20.333 -13.5 -33 -13.5s-23.334 4.5 -32.001 13.5s-13 19.833 -13 32.5zM421 444l0.000976562 -443.998h-76v56
c-13.333 -18.667 -31.333 -34.167 -54 -46.5s-47.667 -18.5 -75 -18.5c-49.333 0 -87.5 14.667 -114.5 44s-40.5 68.666 -40.5 117.999v291h76v-279c0 -32.667 8 -58.334 24 -77.001s40.333 -28 73 -28c25.333 0 48.166 7.66699 68.499 23s34.5 35.333 42.5 60v301h76z" />
    <glyph glyph-name="yacute" unicode="&#xfd;" horiz-adv-x="455" 
d="M198 -170h-74l67 167l-173 447h81l131 -350l129 350h78zM257 516h-69l80 134h78z" />
    <glyph glyph-name="thorn" unicode="&#xfe;" horiz-adv-x="502" 
d="M142 52v-222.002h-75v820h75v-258c12.667 17.333 30.167 31.833 52.5 43.5s46.5 17.5 72.5 17.5c62.667 0 111.667 -22.167 147 -66.5s53 -99.166 53 -164.499s-17.667 -120.166 -53 -164.499s-84.333 -66.5 -147 -66.5c-26 0 -50.167 5.83301 -72.5 17.5
s-39.833 26.167 -52.5 43.5zM142 311.998v-180c11.333 -22.667 27.166 -40.5 47.499 -53.5s42.5 -19.5 66.5 -19.5c41.333 0 74.166 15.167 98.499 45.5s36.5 69.5 36.5 117.5s-12.167 87.167 -36.5 117.5s-57.166 45.5 -98.499 45.5c-24 0 -46.167 -6.5 -66.5 -19.5
s-36.166 -30.833 -47.499 -53.5z" />
    <glyph glyph-name="ydieresis" unicode="&#xff;" horiz-adv-x="455" 
d="M198 -170h-74l67 167l-173 447h81l131 -350l129 350h78zM111 571c0 13.333 4.5 24.5 13.5 33.5s20.167 13.5 33.5 13.5c12.667 0 23.5 -4.5 32.5 -13.5s13.5 -20.167 13.5 -33.5c0 -12.667 -4.5 -23.5 -13.5 -32.5s-19.833 -13.5 -32.5 -13.5s-23.667 4.5 -33 13.5
s-14 19.833 -14 32.5zM252 571c0 13.333 4.33301 24.5 13 33.5s19.334 13.5 32.001 13.5c13.333 0 24.5 -4.5 33.5 -13.5s13.5 -20.167 13.5 -33.5c0 -12.667 -4.66699 -23.5 -14 -32.5s-20.333 -13.5 -33 -13.5s-23.334 4.5 -32.001 13.5s-13 19.833 -13 32.5z" />
    <glyph glyph-name="Amacron" unicode="&#x100;" horiz-adv-x="596" 
d="M261 614h74l240 -614h-80l-71 185h-253l-70 -185h-80zM297 516l-100 -262h200zM192 671v61h213v-61h-213z" />
    <glyph glyph-name="amacron" unicode="&#x101;" horiz-adv-x="450" 
d="M389 0h-71.998v33c-9.33301 -10 -25 -19.333 -47 -28s-45.333 -13 -70 -13c-46.667 0 -85.834 13 -117.501 39s-47.5 60.333 -47.5 103c0 40.667 16.333 74 49 100s73 39 121 39c22 0 43.667 -3.66699 65 -11s37 -15.666 47 -24.999v56c0 28.667 -8.5 51.667 -25.5 69
s-41.167 26 -72.5 26c-46.667 0 -77 -20.333 -91 -61h-74c7.33301 37.333 26.166 67.666 56.499 90.999s66.833 35 109.5 35c52.667 0 94 -14 124 -42s45 -66.333 45 -115v-296zM317.002 110v46c-6.66699 16 -19.834 29.167 -39.501 39.5s-41.167 15.5 -64.5 15.5
c-29.333 0 -54.333 -6.66699 -75 -20s-31 -32.333 -31 -57c0 -25.333 10.333 -44.833 31 -58.5s45.667 -20.5 75 -20.5c23.333 0 44.833 5.16699 64.5 15.5s32.834 23.5 39.501 39.5zM123.002 530v61h213v-61h-213z" />
    <glyph glyph-name="Abreve" unicode="&#x102;" horiz-adv-x="596" 
d="M261 614h74l240 -614h-80l-71 185h-253l-70 -185h-80zM297 516l-100 -262h200zM298 666c-34.667 0 -62.5 10.501 -83.5 31.501s-31.5 50.5 -31.5 88.5h57c0 -20.667 5.33301 -36.5 16 -47.5s24.667 -16.5 42 -16.5c18 0 32.333 5.5 43 16.5s16 26.833 16 47.5h57
c0 -38.667 -10.333 -68.334 -31 -89.001s-49 -31 -85 -31z" />
    <glyph glyph-name="abreve" unicode="&#x103;" horiz-adv-x="450" 
d="M389 0h-71.998v33c-9.33301 -10 -25 -19.333 -47 -28s-45.333 -13 -70 -13c-46.667 0 -85.834 13 -117.501 39s-47.5 60.333 -47.5 103c0 40.667 16.333 74 49 100s73 39 121 39c22 0 43.667 -3.66699 65 -11s37 -15.666 47 -24.999v56c0 28.667 -8.5 51.667 -25.5 69
s-41.167 26 -72.5 26c-46.667 0 -77 -20.333 -91 -61h-74c7.33301 37.333 26.166 67.666 56.499 90.999s66.833 35 109.5 35c52.667 0 94 -14 124 -42s45 -66.333 45 -115v-296zM317.002 110v46c-6.66699 16 -19.834 29.167 -39.501 39.5s-41.167 15.5 -64.5 15.5
c-29.333 0 -54.333 -6.66699 -75 -20s-31 -32.333 -31 -57c0 -25.333 10.333 -44.833 31 -58.5s45.667 -20.5 75 -20.5c23.333 0 44.833 5.16699 64.5 15.5s32.834 23.5 39.501 39.5zM227.002 500c-34.667 0 -62.332 11.167 -82.999 33.5s-31 53.833 -31 94.5h57
c0 -22.667 5 -40.5 15 -53.5s24 -19.5 42 -19.5s32 6.5 42 19.5s15 30.833 15 53.5h57c0 -40.667 -10.333 -72.167 -31 -94.5s-48.334 -33.5 -83.001 -33.5z" />
    <glyph glyph-name="Aogonek" unicode="&#x104;" horiz-adv-x="596" 
d="M261 614h74.001l240 -614c-22 -36 -35.833 -59.833 -41.5 -71.5s-8.5 -23.167 -8.5 -34.5c0 -17.333 7.66699 -26 23 -26c9.33301 0 21.666 5 36.999 15v-50c-17.333 -12.667 -34.666 -19 -51.999 -19c-21.333 0 -37.833 6 -49.5 18s-17.5 28 -17.5 48
c0 12 2.66699 24.833 8 38.5s10.666 25 15.999 34l29 47.5h-24l-71 185h-253l-70 -185h-80zM297.001 516l-100 -262h201z" />
    <glyph glyph-name="aogonek" unicode="&#x105;" horiz-adv-x="450" 
d="M316 110v46c-6 16 -18.833 29.167 -38.5 39.5s-41.167 15.5 -64.5 15.5c-29.333 0 -54.333 -6.66699 -75 -20s-31 -32.333 -31 -57c0 -25.333 10.333 -44.833 31 -58.5s45.667 -20.5 75 -20.5c23.333 0 44.833 5.16699 64.5 15.5s32.5 23.5 38.5 39.5zM333 0
l-16.998 -0.000976562v33c-10 -10 -25.667 -19.333 -47 -28s-44.333 -13 -69 -13c-46.667 0 -85.834 13 -117.501 39s-47.5 60.333 -47.5 103c0 40.667 16.333 74 49 100s73 39 121 39c21.333 0 42.5 -3.66699 63.5 -11s36.833 -15.666 47.5 -24.999v56
c0 28.667 -8.33301 51.667 -25 69s-40.667 26 -72 26c-48.667 0 -79.334 -20.333 -92.001 -61h-73c7.33301 37.333 26.166 67.666 56.499 90.999s66.833 35 109.5 35c52.667 0 94 -14 124 -42s45 -66.333 45 -115v-296c-21.333 -35.333 -34.833 -59 -40.5 -71
s-8.5 -23.667 -8.5 -35c0 -17.333 7.33301 -26 22 -26c10.667 0 23 5 37 15v-50c-16 -12.667 -33.333 -19 -52 -19c-21.333 0 -37.666 5.83301 -48.999 17.5s-17 27.834 -17 48.501c0 12 2.5 24.833 7.5 38.5s10.333 25.167 16 34.5z" />
    <glyph glyph-name="Cacute" unicode="&#x106;" horiz-adv-x="586" 
d="M37 307c0 94 26.167 170.167 78.5 228.5s117.833 87.5 196.5 87.5c63.333 0 115.833 -17 157.5 -51s68.834 -80 81.501 -138h-78c-28 78.667 -81.667 118 -161 118c-58.667 0 -106 -22.5 -142 -67.5s-54 -104.167 -54 -177.5c0 -72.667 18 -131.667 54 -177
s83.333 -68 142 -68c80 0 133.667 39.667 161 119h78c-12.667 -58.667 -39.834 -105 -81.501 -139s-94.167 -51 -157.5 -51c-78.667 0 -144.167 29.167 -196.5 87.5s-78.5 134.5 -78.5 228.5zM349 668h-76l80 117h87z" />
    <glyph glyph-name="cacute" unicode="&#x107;" horiz-adv-x="446" 
d="M270 516h-69l80 134h78zM35 222c0 68.667 18.667 124.334 56 167.001s86 64 146 64c48.667 0 88.5 -13 119.5 -39s50.5 -60.667 58.5 -104h-77c-5.33301 24 -16.833 42.833 -34.5 56.5s-39.834 20.5 -66.501 20.5c-38 0 -68.5 -15.333 -91.5 -46
s-34.5 -70.334 -34.5 -119.001s11.5 -88.334 34.5 -119.001s53.5 -46 91.5 -46c26.667 0 48.834 6.83301 66.501 20.5s29.167 32.5 34.5 56.5h77c-8 -43.333 -27.5 -78 -58.5 -104s-70.833 -39 -119.5 -39c-60 0 -108.667 21.333 -146 64s-56 98.334 -56 167.001z" />
    <glyph glyph-name="Ccircumflex" unicode="&#x108;" horiz-adv-x="586" 
d="M37 307c0 94 26.167 170.167 78.5 228.5s117.833 87.5 196.5 87.5c63.333 0 115.833 -17 157.5 -51s68.834 -80 81.501 -138h-78c-28 78.667 -81.667 118 -161 118c-58.667 0 -106 -22.5 -142 -67.5s-54 -104.167 -54 -177.5c0 -72.667 18 -131.667 54 -177
s83.333 -68 142 -68c80 0 133.667 39.667 161 119h78c-12.667 -58.667 -39.834 -105 -81.501 -139s-94.167 -51 -157.5 -51c-78.667 0 -144.167 29.167 -196.5 87.5s-78.5 134.5 -78.5 228.5zM353 791l92 -122h-68l-59 71l-59 -71h-68l92 122h70z" />
    <glyph glyph-name="ccircumflex" unicode="&#x109;" horiz-adv-x="446" 
d="M276 645l92 -136h-65l-62 88l-62 -88h-65l92 136h70zM35 222c0 68.667 18.667 124.334 56 167.001s86 64 146 64c48.667 0 88.5 -13 119.5 -39s50.5 -60.667 58.5 -104h-77c-5.33301 24 -16.833 42.833 -34.5 56.5s-39.834 20.5 -66.501 20.5
c-38 0 -68.5 -15.333 -91.5 -46s-34.5 -70.334 -34.5 -119.001s11.5 -88.334 34.5 -119.001s53.5 -46 91.5 -46c26.667 0 48.834 6.83301 66.501 20.5s29.167 32.5 34.5 56.5h77c-8 -43.333 -27.5 -78 -58.5 -104s-70.833 -39 -119.5 -39c-60 0 -108.667 21.333 -146 64
s-56 98.334 -56 167.001z" />
    <glyph glyph-name="Cdotaccent" unicode="&#x10a;" horiz-adv-x="586" 
d="M363 721c0 -12.667 -4.8291 -23.834 -14.4961 -33.501s-20.834 -14.5 -33.501 -14.5s-23.834 4.83301 -33.501 14.5s-14.5 20.834 -14.5 33.501c0 13.333 4.66699 24.833 14 34.5s20.666 14.5 33.999 14.5s24.666 -4.83301 33.999 -14.5s14 -21.167 14 -34.5z
M37.0039 307c0 94 26.167 170.167 78.5 228.5s117.833 87.5 196.5 87.5c63.333 0 115.833 -17 157.5 -51s68.834 -80 81.501 -138h-78c-28 78.667 -81.667 118 -161 118c-58.667 0 -106 -22.5 -142 -67.5s-54 -104.167 -54 -177.5c0 -72.667 18 -131.667 54 -177
s83.333 -68 142 -68c80 0 133.667 39.667 161 119h78c-12.667 -58.667 -39.834 -105 -81.501 -139s-94.167 -51 -157.5 -51c-78.667 0 -144.167 29.167 -196.5 87.5s-78.5 134.5 -78.5 228.5z" />
    <glyph glyph-name="cdotaccent" unicode="&#x10b;" horiz-adv-x="446" 
d="M35 222c0 68.667 18.667 124.334 56 167.001s86 64 146 64c48.667 0 88.5 -13 119.5 -39s50.5 -60.667 58.5 -104h-77c-5.33301 24 -16.833 42.833 -34.5 56.5s-39.834 20.5 -66.501 20.5c-38 0 -68.5 -15.333 -91.5 -46s-34.5 -70.334 -34.5 -119.001
s11.5 -88.334 34.5 -119.001s53.5 -46 91.5 -46c26.667 0 48.834 6.83301 66.501 20.5s29.167 32.5 34.5 56.5h77c-8 -43.333 -27.5 -78 -58.5 -104s-70.833 -39 -119.5 -39c-60 0 -108.667 21.333 -146 64s-56 98.334 -56 167.001zM289 578
c0 -13.333 -4.8291 -24.666 -14.4961 -33.999s-20.834 -14 -33.501 -14s-23.834 4.66699 -33.501 14s-14.5 20.666 -14.5 33.999s4.66699 24.666 14 33.999s20.666 14 33.999 14s24.666 -4.66699 33.999 -14s14 -20.666 14 -33.999z" />
    <glyph glyph-name="Ccaron" unicode="&#x10c;" horiz-adv-x="586" 
d="M280 666l-92 121h68l59 -71l59 71h68l-92 -121h-70zM37 307c0 94 26.167 170.167 78.5 228.5s117.833 87.5 196.5 87.5c63.333 0 115.833 -17 157.5 -51s68.834 -80 81.501 -138h-78c-28 78.667 -81.667 118 -161 118c-58.667 0 -106 -22.5 -142 -67.5
s-54 -104.167 -54 -177.5c0 -72.667 18 -131.667 54 -177s83.333 -68 142 -68c80 0 133.667 39.667 161 119h78c-12.667 -58.667 -39.834 -105 -81.501 -139s-94.167 -51 -157.5 -51c-78.667 0 -144.167 29.167 -196.5 87.5s-78.5 134.5 -78.5 228.5z" />
    <glyph glyph-name="ccaron" unicode="&#x10d;" horiz-adv-x="446" 
d="M368 646l-92 -136h-70l-92 136h65l62 -87l62 87h65zM35 222c0 68.667 18.667 124.334 56 167.001s86 64 146 64c48.667 0 88.5 -13 119.5 -39s50.5 -60.667 58.5 -104h-77c-5.33301 24 -16.833 42.833 -34.5 56.5s-39.834 20.5 -66.501 20.5
c-38 0 -68.5 -15.333 -91.5 -46s-34.5 -70.334 -34.5 -119.001s11.5 -88.334 34.5 -119.001s53.5 -46 91.5 -46c26.667 0 48.834 6.83301 66.501 20.5s29.167 32.5 34.5 56.5h77c-8 -43.333 -27.5 -78 -58.5 -104s-70.833 -39 -119.5 -39c-60 0 -108.667 21.333 -146 64
s-56 98.334 -56 167.001z" />
    <glyph glyph-name="Dcaron" unicode="&#x10e;" horiz-adv-x="605" 
d="M245 666l-92 121h68l59 -71l59 71h68l-92 -121h-70zM152 71l117 -0.000976562c69.333 0 123.5 21.167 162.5 63.5s58.5 99.833 58.5 172.5s-19.667 130.334 -59 173.001s-93.333 64 -162 64h-117v-473zM73 -0.000976562v614h197c90 0 162.167 -27.833 216.5 -83.5
s81.5 -130.167 81.5 -223.5s-27.167 -167.833 -81.5 -223.5s-126.5 -83.5 -216.5 -83.5h-197z" />
    <glyph glyph-name="dcaron" unicode="&#x10f;" horiz-adv-x="502" 
d="M549 486h-60l33 164h60zM360 0v52.001c-12 -17.333 -29.333 -31.833 -52 -43.5s-47 -17.5 -73 -17.5c-62.667 0 -111.667 22 -147 66s-53 99 -53 165c0 65.333 17.667 120.166 53 164.499s84.333 66.5 147 66.5c26 0 50.333 -5.83301 73 -17.5s40 -26.167 52 -43.5v258
h76v-650h-76zM360 132.001v180c-11.333 22.667 -27.166 40.5 -47.499 53.5s-42.5 19.5 -66.5 19.5c-41.333 0 -74.166 -15.167 -98.499 -45.5s-36.5 -69.5 -36.5 -117.5s12.167 -87.167 36.5 -117.5s57.166 -45.5 98.499 -45.5c24 0 46.167 6.5 66.5 19.5
s36.166 30.833 47.499 53.5z" />
    <glyph glyph-name="Dcroat" unicode="&#x110;" horiz-adv-x="620" 
d="M32 284v67h56v263h197c90 0 162.167 -27.833 216.5 -83.5s81.5 -130.167 81.5 -223.5s-27.167 -167.833 -81.5 -223.5s-126.5 -83.5 -216.5 -83.5h-197v284h-56zM167 71l117 -0.000976562c69.333 0 123.5 21.167 162.5 63.5s58.5 99.833 58.5 172.5
s-19.667 130.334 -59 173.001s-93.333 64 -162 64h-117v-193h123v-67h-123v-213z" />
    <glyph glyph-name="dcroat" unicode="&#x111;" horiz-adv-x="502" 
d="M252 511v54.001h108v85h76v-85h56v-54h-56v-511h-76v52c-12 -17.333 -29.333 -31.833 -52 -43.5s-47 -17.5 -73 -17.5c-62.667 0 -111.667 22 -147 66s-53 99 -53 165c0 65.333 17.667 120.166 53 164.499s84.333 66.5 147 66.5c26 0 50.333 -5.83301 73 -17.5
s40 -26.167 52 -43.5v119h-108zM360 132.001v180c-11.333 22.667 -27.166 40.5 -47.499 53.5s-42.5 19.5 -66.5 19.5c-41.333 0 -74.166 -15.167 -98.499 -45.5s-36.5 -69.5 -36.5 -117.5s12.167 -87.167 36.5 -117.5s57.166 -45.5 98.499 -45.5c24 0 46.167 6.5 66.5 19.5
s36.166 30.833 47.499 53.5z" />
    <glyph glyph-name="Emacron" unicode="&#x112;" horiz-adv-x="515" 
d="M167 671v61h213v-61h-213zM73 614h391v-70h-313v-194h284v-70h-284v-209h313v-71h-391v614z" />
    <glyph glyph-name="emacron" unicode="&#x113;" horiz-adv-x="457" 
d="M135 530v61h213v-61h-213zM347 133h71c-8 -43.333 -27.667 -77.833 -59 -103.5s-71.333 -38.5 -120 -38.5c-60.667 0 -109.834 21.167 -147.501 63.5s-56.5 97.833 -56.5 166.5c0 67.333 18.667 122.833 56 166.5s86 65.5 146 65.5c59.333 0 105.333 -19.833 138 -59.5
s49 -92.5 49 -158.5v-27h-314c0.666992 -46.667 12.834 -83.834 36.501 -111.501s54.5 -41.5 92.5 -41.5c28 0 51.5 6.83301 70.5 20.5s31.5 32.834 37.5 57.501zM238 389c-33.333 0 -61.332 -11 -83.999 -33s-36.667 -52.333 -42 -91h236
c-0.666992 35.333 -10.334 64.833 -29.001 88.5s-45.667 35.5 -81 35.5z" />
    <glyph glyph-name="Ebreve" unicode="&#x114;" horiz-adv-x="515" 
d="M273 666c-34.667 0 -62.5 10.501 -83.5 31.501s-31.5 50.5 -31.5 88.5h57c0 -20.667 5.33301 -36.5 16 -47.5s24.667 -16.5 42 -16.5c18 0 32.333 5.5 43 16.5s16 26.833 16 47.5h57c0 -38.667 -10.5 -68.334 -31.5 -89.001s-49.167 -31 -84.5 -31zM73 614.001h391v-70
h-313v-194h284v-70h-284v-209h313v-71h-391v614z" />
    <glyph glyph-name="ebreve" unicode="&#x115;" horiz-adv-x="457" 
d="M347 133h71c-8 -43.333 -27.667 -77.833 -59 -103.5s-71.333 -38.5 -120 -38.5c-60.667 0 -109.834 21.167 -147.501 63.5s-56.5 97.833 -56.5 166.5c0 67.333 18.667 122.833 56 166.5s86 65.5 146 65.5c59.333 0 105.333 -19.833 138 -59.5s49 -92.5 49 -158.5v-27
h-314c0.666992 -46.667 12.834 -83.834 36.501 -111.501s54.5 -41.5 92.5 -41.5c28 0 51.5 6.83301 70.5 20.5s31.5 32.834 37.5 57.501zM238 389c-33.333 0 -61.332 -11 -83.999 -33s-36.667 -52.333 -42 -91h236c-0.666992 35.333 -10.334 64.833 -29.001 88.5
s-45.667 35.5 -81 35.5zM241.001 500c-34.667 0 -62.332 11.167 -82.999 33.5s-31 53.833 -31 94.5h57c0 -22.667 5 -40.5 15 -53.5s24 -19.5 42 -19.5s32 6.5 42 19.5s15 30.833 15 53.5h57c0 -40.667 -10.333 -72.167 -31 -94.5s-48.334 -33.5 -83.001 -33.5z" />
    <glyph glyph-name="Edotaccent" unicode="&#x116;" horiz-adv-x="515" 
d="M321 721c0 -12.667 -4.8291 -23.834 -14.4961 -33.501s-20.834 -14.5 -33.501 -14.5s-23.834 4.83301 -33.501 14.5s-14.5 20.834 -14.5 33.501c0 13.333 4.66699 24.833 14 34.5s20.666 14.5 33.999 14.5s24.666 -4.83301 33.999 -14.5s14 -21.167 14 -34.5z
M73.0039 614h391v-70h-313v-194h284v-70h-284v-209h313v-71h-391v614z" />
    <glyph glyph-name="edotaccent" unicode="&#x117;" horiz-adv-x="457" 
d="M347 133h71c-8 -43.333 -27.667 -77.833 -59 -103.5s-71.333 -38.5 -120 -38.5c-60.667 0 -109.834 21.167 -147.501 63.5s-56.5 97.833 -56.5 166.5c0 67.333 18.667 122.833 56 166.5s86 65.5 146 65.5c59.333 0 105.333 -19.833 138 -59.5s49 -92.5 49 -158.5v-27
h-314c0.666992 -46.667 12.834 -83.834 36.501 -111.501s54.5 -41.5 92.5 -41.5c28 0 51.5 6.83301 70.5 20.5s31.5 32.834 37.5 57.501zM238 389c-33.333 0 -61.332 -11 -83.999 -33s-36.667 -52.333 -42 -91h236c-0.666992 35.333 -10.334 64.833 -29.001 88.5
s-45.667 35.5 -81 35.5zM289.001 578c0 -13.333 -4.8291 -24.666 -14.4961 -33.999s-20.834 -14 -33.501 -14s-23.834 4.66699 -33.501 14s-14.5 20.666 -14.5 33.999s4.66699 24.666 14 33.999s20.666 14 33.999 14s24.666 -4.66699 33.999 -14s14 -20.666 14 -33.999z" />
    <glyph glyph-name="Eogonek" unicode="&#x118;" horiz-adv-x="515" 
d="M73 614l390.999 -0.00195312v-70h-313v-194h284v-70h-284v-209h313v-71h-33c-20 -32.667 -33.167 -55.667 -39.5 -69s-9.5 -25.666 -9.5 -36.999c0 -17.333 7.33301 -26 22 -26c10.667 0 23 5 37 15v-50c-16 -12.667 -33.333 -19 -52 -19
c-21.333 0 -37.666 5.83301 -48.999 17.5s-17 27.834 -17 48.501c0 12 2.5 24.833 7.5 38.5s10.333 25.167 16 34.5l28.5 47h-302v614z" />
    <glyph glyph-name="eogonek" unicode="&#x119;" horiz-adv-x="457" 
d="M238 389c-33.333 0 -61.332 -11 -83.999 -33s-36.667 -52.333 -42 -91h236c-0.666992 35.333 -10.334 64.833 -29.001 88.5s-45.667 35.5 -81 35.5zM280.001 -3c-13.333 -4 -26.999 -6 -40.999 -6c-60.667 0 -109.834 21.167 -147.501 63.5s-56.5 97.833 -56.5 166.5
c0 67.333 18.667 122.833 56 166.5s86 65.5 146 65.5c59.333 0 105.333 -19.833 138 -59.5s49 -92.5 49 -158.5v-27h-314c0.666992 -46.667 12.834 -83.834 36.501 -111.501s54.5 -41.5 92.5 -41.5c27.333 0 50.666 6.83301 69.999 20.5s32 32.834 38 57.501h71
c-6.66699 -37.333 -26.667 -73.333 -60 -108c-50 -51.333 -75 -94 -75 -128c0 -19.333 8 -29 24 -29c10.667 0 23 5 37 15v-50c-16 -12.667 -33.333 -19 -52 -19c-21.333 0 -38 6.16699 -50 18.5s-18 28.833 -18 49.5c0 32.667 18.667 71 56 115z" />
    <glyph glyph-name="Ecaron" unicode="&#x11a;" horiz-adv-x="515" 
d="M242 666l-92 121h68l59 -71l59 71h68l-92 -121h-70zM73 614h391v-70h-313v-194h284v-70h-284v-209h313v-71h-391v614z" />
    <glyph glyph-name="ecaron" unicode="&#x11b;" horiz-adv-x="457" 
d="M368 646l-92 -136h-70l-92 136h65l62 -87l62 87h65zM347 133h71c-8 -43.333 -27.667 -77.833 -59 -103.5s-71.333 -38.5 -120 -38.5c-60.667 0 -109.834 21.167 -147.501 63.5s-56.5 97.833 -56.5 166.5c0 67.333 18.667 122.833 56 166.5s86 65.5 146 65.5
c59.333 0 105.333 -19.833 138 -59.5s49 -92.5 49 -158.5v-27h-314c0.666992 -46.667 12.834 -83.834 36.501 -111.501s54.5 -41.5 92.5 -41.5c28 0 51.5 6.83301 70.5 20.5s31.5 32.834 37.5 57.501zM238 389c-33.333 0 -61.332 -11 -83.999 -33s-36.667 -52.333 -42 -91
h236c-0.666992 35.333 -10.334 64.833 -29.001 88.5s-45.667 35.5 -81 35.5z" />
    <glyph glyph-name="Gcircumflex" unicode="&#x11c;" horiz-adv-x="610" 
d="M353 791l92 -122h-68l-59 71l-59 -71h-68l92 122h70zM498 235l-147.001 -0.00195312v68h222v-42c0 -81.333 -23.5 -146.666 -70.5 -195.999s-108.167 -74 -183.5 -74c-81.333 0 -148.666 29 -201.999 87s-80 134.333 -80 229c0 94 26.667 170.167 80 228.5
s120 87.5 200 87.5c64 0 117.167 -17 159.5 -51s69.833 -80 82.5 -138h-79c-28.667 78.667 -83 118 -163 118c-60 0 -108.5 -22.5 -145.5 -67.5s-55.5 -104.167 -55.5 -177.5s18.667 -132.666 56 -177.999s86.333 -68 147 -68c52.667 0 94.5 15.5 125.5 46.5
s48.833 73.5 53.5 127.5z" />
    <glyph glyph-name="gcircumflex" unicode="&#x11d;" horiz-adv-x="501" 
d="M294 645l92 -136h-65l-62 88l-62 -88h-65l92 136h70zM358 30l-0.00195312 33c-12 -16.667 -29.167 -30.834 -51.5 -42.501s-46.5 -17.5 -72.5 -17.5c-62 0 -110.667 22 -146 66s-53 97 -53 159c0 62.667 17.667 115.834 53 159.501s84 65.5 146 65.5
c26 0 50.167 -5.66699 72.5 -17s39.5 -25.333 51.5 -42v50h76v-409c0 -70.667 -18.167 -124.167 -54.5 -160.5s-84.166 -54.5 -143.499 -54.5c-53.333 0 -96.5 13 -129.5 39s-53.167 62 -60.5 108h74c12.667 -55.333 51.334 -83 116.001 -83c81.333 0 122 48.667 122 146z
M357.998 140v177c-25.333 46 -63 69 -113 69c-41.333 0 -73.833 -14.667 -97.5 -44s-35.5 -67.333 -35.5 -114s11.833 -84.5 35.5 -113.5s56.167 -43.5 97.5 -43.5c50 0 87.667 23 113 69z" />
    <glyph glyph-name="Gbreve" unicode="&#x11e;" horiz-adv-x="610" 
d="M319 666c-34.667 0 -62.5 10.501 -83.5 31.501s-31.5 50.5 -31.5 88.5h57c0 -20.667 5.33301 -36.5 16 -47.5s24.667 -16.5 42 -16.5c18 0 32.333 5.5 43 16.5s16 26.833 16 47.5h57c0 -38.667 -10.5 -68.334 -31.5 -89.001s-49.167 -31 -84.5 -31zM498 235.001
l-147.001 -0.00195312v68h222v-42c0 -81.333 -23.5 -146.666 -70.5 -195.999s-108.167 -74 -183.5 -74c-81.333 0 -148.666 29 -201.999 87s-80 134.333 -80 229c0 94 26.667 170.167 80 228.5s120 87.5 200 87.5c64 0 117.167 -17 159.5 -51s69.833 -80 82.5 -138h-79
c-28.667 78.667 -83 118 -163 118c-60 0 -108.5 -22.5 -145.5 -67.5s-55.5 -104.167 -55.5 -177.5s18.667 -132.666 56 -177.999s86.333 -68 147 -68c52.667 0 94.5 15.5 125.5 46.5s48.833 73.5 53.5 127.5z" />
    <glyph glyph-name="gbreve" unicode="&#x11f;" horiz-adv-x="501" 
d="M358 30l-0.00195312 33c-12 -16.667 -29.167 -30.834 -51.5 -42.501s-46.5 -17.5 -72.5 -17.5c-62 0 -110.667 22 -146 66s-53 97 -53 159c0 62.667 17.667 115.834 53 159.501s84 65.5 146 65.5c26 0 50.167 -5.66699 72.5 -17s39.5 -25.333 51.5 -42v50h76v-409
c0 -70.667 -18.167 -124.167 -54.5 -160.5s-84.166 -54.5 -143.499 -54.5c-53.333 0 -96.5 13 -129.5 39s-53.167 62 -60.5 108h74c12.667 -55.333 51.334 -83 116.001 -83c81.333 0 122 48.667 122 146zM357.998 140v177c-25.333 46 -63 69 -113 69
c-41.333 0 -73.833 -14.667 -97.5 -44s-35.5 -67.333 -35.5 -114s11.833 -84.5 35.5 -113.5s56.167 -43.5 97.5 -43.5c50 0 87.667 23 113 69zM258.998 500c-34.667 0 -62.332 11.167 -82.999 33.5s-31 53.833 -31 94.5h57c0 -22.667 5 -40.5 15 -53.5s24 -19.5 42 -19.5
s32 6.5 42 19.5s15 30.833 15 53.5h57c0 -40.667 -10.333 -72.167 -31 -94.5s-48.334 -33.5 -83.001 -33.5z" />
    <glyph glyph-name="Gdotaccent" unicode="&#x120;" horiz-adv-x="610" 
d="M368 721c0 -12.667 -4.66699 -23.834 -14 -33.501s-20.666 -14.5 -33.999 -14.5s-24.666 4.83301 -33.999 14.5s-14 20.834 -14 33.501c0 13.333 4.66699 24.833 14 34.5s20.666 14.5 33.999 14.5s24.666 -4.83301 33.999 -14.5s14 -21.167 14 -34.5zM498 235
l-147.001 -0.00195312v68h222v-42c0 -81.333 -23.5 -146.666 -70.5 -195.999s-108.167 -74 -183.5 -74c-81.333 0 -148.666 29 -201.999 87s-80 134.333 -80 229c0 94 26.667 170.167 80 228.5s120 87.5 200 87.5c64 0 117.167 -17 159.5 -51s69.833 -80 82.5 -138h-79
c-28.667 78.667 -83 118 -163 118c-60 0 -108.5 -22.5 -145.5 -67.5s-55.5 -104.167 -55.5 -177.5s18.667 -132.666 56 -177.999s86.333 -68 147 -68c52.667 0 94.5 15.5 125.5 46.5s48.833 73.5 53.5 127.5z" />
    <glyph glyph-name="gdotaccent" unicode="&#x121;" horiz-adv-x="501" 
d="M307 578c0 -13.333 -4.8291 -24.666 -14.4961 -33.999s-20.834 -14 -33.501 -14s-23.834 4.66699 -33.501 14s-14.5 20.666 -14.5 33.999s4.66699 24.666 14 33.999s20.666 14 33.999 14s24.666 -4.66699 33.999 -14s14 -20.666 14 -33.999zM358.004 30l-0.00195312 33
c-12 -16.667 -29.167 -30.834 -51.5 -42.501s-46.5 -17.5 -72.5 -17.5c-62 0 -110.667 22 -146 66s-53 97 -53 159c0 62.667 17.667 115.834 53 159.501s84 65.5 146 65.5c26 0 50.167 -5.66699 72.5 -17s39.5 -25.333 51.5 -42v50h76v-409
c0 -70.667 -18.167 -124.167 -54.5 -160.5s-84.166 -54.5 -143.499 -54.5c-53.333 0 -96.5 13 -129.5 39s-53.167 62 -60.5 108h74c12.667 -55.333 51.334 -83 116.001 -83c81.333 0 122 48.667 122 146zM358.002 140v177c-25.333 46 -63 69 -113 69
c-41.333 0 -73.833 -14.667 -97.5 -44s-35.5 -67.333 -35.5 -114s11.833 -84.5 35.5 -113.5s56.167 -43.5 97.5 -43.5c50 0 87.667 23 113 69z" />
    <glyph glyph-name="Gcommaaccent" unicode="&#x122;" horiz-adv-x="610" 
d="M271 -201l39 64c-12 1.33301 -21.667 6 -29 14s-11 18 -11 30c0 14 4.83301 25.5 14.5 34.5s21.5 13.5 35.5 13.5s25.667 -4.66699 35 -14s14 -21.333 14 -36c0 -15.333 -7.33301 -34.333 -22 -57l-29 -49h-47zM498 235l-147.001 -0.00195312v68h222v-42
c0 -81.333 -23.5 -146.666 -70.5 -195.999s-108.167 -74 -183.5 -74c-81.333 0 -148.666 29 -201.999 87s-80 134.333 -80 229c0 94 26.667 170.167 80 228.5s120 87.5 200 87.5c64 0 117.167 -17 159.5 -51s69.833 -80 82.5 -138h-79c-28.667 78.667 -83 118 -163 118
c-60 0 -108.5 -22.5 -145.5 -67.5s-55.5 -104.167 -55.5 -177.5s18.667 -132.666 56 -177.999s86.333 -68 147 -68c52.667 0 94.5 15.5 125.5 46.5s48.833 73.5 53.5 127.5z" />
    <glyph glyph-name="gcommaaccent" unicode="&#x123;" horiz-adv-x="501" 
d="M307 680l-39.999 -65c12 -1.33301 21.833 -6.16602 29.5 -14.499s11.5 -18.833 11.5 -31.5c0 -14 -4.83301 -25.5 -14.5 -34.5s-21.834 -13.5 -36.501 -13.5c-14 0 -25.833 4.66699 -35.5 14s-14.5 21.666 -14.5 36.999c0 17.333 7.33301 37 22 59l29 49h49zM358.001 30
l-0.00195312 33c-12 -16.667 -29.167 -30.834 -51.5 -42.501s-46.5 -17.5 -72.5 -17.5c-62 0 -110.667 22 -146 66s-53 97 -53 159c0 62.667 17.667 115.834 53 159.501s84 65.5 146 65.5c26 0 50.167 -5.66699 72.5 -17s39.5 -25.333 51.5 -42v50h76v-409
c0 -70.667 -18.167 -124.167 -54.5 -160.5s-84.166 -54.5 -143.499 -54.5c-53.333 0 -96.5 13 -129.5 39s-53.167 62 -60.5 108h74c12.667 -55.333 51.334 -83 116.001 -83c81.333 0 122 48.667 122 146zM357.999 140v177c-25.333 46 -63 69 -113 69
c-41.333 0 -73.833 -14.667 -97.5 -44s-35.5 -67.333 -35.5 -114s11.833 -84.5 35.5 -113.5s56.167 -43.5 97.5 -43.5c50 0 87.667 23 113 69z" />
    <glyph glyph-name="Hcircumflex" unicode="&#x124;" horiz-adv-x="651" 
d="M499 614h79v-614h-79v280h-347v-280h-79v614h79v-263h347v263zM360 791l92 -122h-68l-59 71l-59 -71h-68l92 122h70z" />
    <glyph glyph-name="hcircumflex" unicode="&#x125;" horiz-adv-x="489" 
d="M67 0l0.000976562 649.999h75v-262c14 18.667 32.5 34.167 55.5 46.5s48.167 18.5 75.5 18.5c49.333 0 87.666 -14.667 114.999 -44s41 -68.666 41 -117.999v-291h-76v279c0 32 -8.16699 57.5 -24.5 76.5s-40.833 28.5 -73.5 28.5c-26 0 -49.333 -7.83301 -70 -23.5
s-35 -35.5 -43 -59.5v-301h-75zM282.001 803.999l92 -122h-68l-59 71l-59 -71h-68l92 122h70z" />
    <glyph glyph-name="Hbar" unicode="&#x126;" horiz-adv-x="679" 
d="M32 430v66h55v118h79v-118h347v118h79v-118h55v-66h-55v-430h-79v244h-347v-244h-79v430h-55zM166 310h347v120h-347v-120z" />
    <glyph glyph-name="hbar" unicode="&#x127;" horiz-adv-x="489" 
d="M10 511l0.000976562 53.999h57v85h75v-85h108v-54h-108v-123c14 18.667 32.5 34.167 55.5 46.5s48.167 18.5 75.5 18.5c49.333 0 87.666 -14.667 114.999 -44s41 -68.666 41 -117.999v-291h-76v279c0 32 -8.16699 57.5 -24.5 76.5s-40.833 28.5 -73.5 28.5
c-26 0 -49.333 -7.83301 -70 -23.5s-35 -35.5 -43 -59.5v-301h-75v511h-57z" />
    <glyph glyph-name="Itilde" unicode="&#x128;" horiz-adv-x="225" 
d="M152 614v-614h-79v614h79zM199 784h48.0029c0 -36.667 -6.5 -65.667 -19.5 -87s-31.833 -32 -56.5 -32c-17.333 0 -37.333 9.33301 -60 28s-39.334 28 -50.001 28c-22.667 0 -34 -17.667 -34 -53h-49c0 36.667 6.5 65.667 19.5 87s31.833 32 56.5 32
c18 0 38.167 -9.33301 60.5 -28s39.166 -28 50.499 -28c21.333 0 32.666 17.667 33.999 53z" />
    <glyph glyph-name="itilde" unicode="&#x129;" horiz-adv-x="209" 
d="M168 633h46.001c0 -36 -5.66699 -64.667 -17 -86s-27 -32 -47 -32c-14 0 -29.833 9.33301 -47.5 28s-29.834 28 -36.501 28c-16.667 0 -25.667 -17.667 -27 -53h-46c0 36 5.66699 64.667 17 86s27 32 47 32c14 0 30 -9.33301 48 -28s30.333 -28 37 -28
c16 0 24.667 17.667 26 53zM142.001 444v-444h-75v444h75z" />
    <glyph glyph-name="Imacron" unicode="&#x12a;" horiz-adv-x="225" 
d="M152 614v-614h-79v614h79zM6 671v61h213v-61h-213z" />
    <glyph glyph-name="imacron" unicode="&#x12b;" horiz-adv-x="209" 
d="M142 444v-444h-75v444h75zM16 530v61h177v-61h-177z" />
    <glyph glyph-name="Ibreve" unicode="&#x12c;" horiz-adv-x="225" 
d="M152 614v-614h-79v614h79zM112 666c-34.667 0 -62.5 10.501 -83.5 31.501s-31.5 50.5 -31.5 88.5h57c0 -20.667 5.33301 -36.5 16 -47.5s24.667 -16.5 42 -16.5c18 0 32.333 5.5 43 16.5s16 26.833 16 47.5h57c0 -38.667 -10.333 -68.334 -31 -89.001s-49 -31 -85 -31z
" />
    <glyph glyph-name="ibreve" unicode="&#x12d;" horiz-adv-x="209" 
d="M105 500c-30.667 0 -55.333 11.167 -74 33.5s-28 53.833 -28 94.5h55c0 -48.667 15.667 -73 47 -73c30.667 0 46 24.333 46 73h55c0 -40.667 -9.16699 -72.167 -27.5 -94.5s-42.833 -33.5 -73.5 -33.5zM142.001 444v-444h-75v444h75z" />
    <glyph glyph-name="Iogonek" unicode="&#x12e;" horiz-adv-x="225" 
d="M152 614l-0.000976562 -614.002c-21.333 -34.667 -35 -58.167 -41 -70.5s-9 -24.166 -9 -35.499c0 -17.333 7.66699 -26 23 -26c10.667 0 23 5 37 15v-50c-16 -12.667 -33.333 -19 -52 -19c-21.333 0 -37.666 5.83301 -48.999 17.5s-17 27.834 -17 48.501
c0 12 2.5 24.833 7.5 38.5s10.333 25.167 16 34.5l28.5 47h-23v614h79z" />
    <glyph glyph-name="iogonek" unicode="&#x12f;" horiz-adv-x="209" 
d="M142 444v-444.001c-21.333 -35.333 -34.833 -59 -40.5 -71s-8.5 -23.667 -8.5 -35c0 -17.333 7.66699 -26 23 -26c9.33301 0 21.666 5 36.999 15v-50c-17.333 -12.667 -34.666 -19 -51.999 -19c-21.333 0 -37.833 5.83301 -49.5 17.5s-17.5 27.834 -17.5 48.501
c0 12 2.5 24.833 7.5 38.5s10.333 25.167 16 34.5l28.5 47h-19v444h75zM153 577.999c0 -13.333 -4.83301 -24.666 -14.5 -33.999s-21.167 -14 -34.5 -14s-24.666 4.66699 -33.999 14s-14 20.666 -14 33.999s4.66699 24.666 14 33.999s20.666 14 33.999 14
s24.833 -4.66699 34.5 -14s14.5 -20.666 14.5 -33.999z" />
    <glyph glyph-name="Idotaccent" unicode="&#x130;" horiz-adv-x="225" 
d="M152 614v-614h-79v614h79zM160 721c0 -12.667 -4.66699 -23.834 -14 -33.501s-20.666 -14.5 -33.999 -14.5s-24.666 4.83301 -33.999 14.5s-14 20.834 -14 33.501c0 13.333 4.66699 24.833 14 34.5s20.666 14.5 33.999 14.5s24.666 -4.83301 33.999 -14.5
s14 -21.167 14 -34.5z" />
    <glyph glyph-name="dotlessi" unicode="&#x131;" horiz-adv-x="209" 
d="M142 444v-444h-75v444h75z" />
    <glyph glyph-name="IJ" unicode="&#x132;" horiz-adv-x="668" 
d="M206 174l81.999 0.000976562c4 -34.667 16.167 -61.834 36.5 -81.501s47.5 -29.5 81.5 -29.5c81.333 0 122 47 122 141v410h79v-410c0 -69.333 -18 -122.166 -54 -158.499s-84.333 -54.5 -145 -54.5c-59.333 0 -106.666 16.667 -141.999 50s-55.333 77.666 -60 132.999z
M151.999 614.001v-614h-79v614h79z" />
    <glyph glyph-name="ij" unicode="&#x133;" horiz-adv-x="416" 
d="M142 444v-444h-75v444h75zM153 578c0 -13.333 -4.83301 -24.666 -14.5 -33.999s-21.167 -14 -34.5 -14s-24.666 4.66699 -33.999 14s-14 20.666 -14 33.999s4.66699 24.666 14 33.999s20.666 14 33.999 14s24.833 -4.66699 34.5 -14s14.5 -20.666 14.5 -33.999zM351 444
l-0.000976562 -495c0 -41.333 -11.167 -73 -33.5 -95s-54.166 -33 -95.499 -33c-14 0 -24.667 1.33301 -32 4v64c12 -2 20.667 -3 26 -3c40 0 60 22.667 60 68v490h75zM361.999 578c0 -13.333 -4.83105 -24.666 -14.498 -33.999s-21.167 -14 -34.5 -14
c-12.667 0 -23.834 4.66699 -33.501 14s-14.5 20.666 -14.5 33.999s4.66699 24.666 14 33.999s20.666 14 33.999 14s24.833 -4.66699 34.5 -14s14.5 -20.666 14.5 -33.999z" />
    <glyph glyph-name="Jcircumflex" unicode="&#x134;" horiz-adv-x="479" 
d="M17 174l80.999 0.000976562c4 -34.667 16.333 -61.834 37 -81.501s48 -29.5 82 -29.5c81.333 0 122 47 122 141v410h79v-410c0 -69.333 -18.167 -122.166 -54.5 -158.499s-84.833 -54.5 -145.5 -54.5c-59.333 0 -106.666 16.667 -141.999 50s-55 77.666 -59 132.999z
M413.999 791.001l92 -122h-68l-59 71l-59 -71h-68l92 122h70z" />
    <glyph glyph-name="jcircumflex" unicode="&#x135;" horiz-adv-x="207" 
d="M139 645l74 -136h-64l-45 85l-45 -85h-63l74 136h69zM142 444l-0.000976562 -495c0 -41.333 -11.167 -73 -33.5 -95s-54.166 -33 -95.499 -33c-14 0 -24.667 1.33301 -32 4v64c12 -2 20.667 -3 26 -3c40 0 60 22.667 60 68v490h75z" />
    <glyph glyph-name="Kcommaaccent" unicode="&#x136;" horiz-adv-x="564" 
d="M216 -201l39 64c-12 1.33301 -21.667 6 -29 14s-11 18 -11 30c0 14 4.83301 25.5 14.5 34.5s21.5 13.5 35.5 13.5s25.667 -4.66699 35 -14s14 -21.333 14 -36c0 -15.333 -7.33301 -34.333 -22 -57l-29 -49h-47zM152 614v-307l286 307h100l-263 -280l272 -334h-98
l-231 280l-66 -71v-209h-79v614h79z" />
    <glyph glyph-name="kcommaaccent" unicode="&#x137;" horiz-adv-x="464" 
d="M179 -201l39 64c-12 1.33301 -21.667 6 -29 14s-11 18 -11 30c0 14 4.83301 25.5 14.5 34.5s21.5 13.5 35.5 13.5s25.667 -4.66699 35 -14s14 -21.333 14 -36c0 -15.333 -7.33301 -34.333 -22 -57l-29 -49h-47zM359 0l-169 205l-48 -46v-159h-75v650h75v-403l203 197h99
l-200 -192l207 -252h-92z" />
    <glyph glyph-name="kgreenlandic" unicode="&#x138;" horiz-adv-x="464" 
d="M359 0l-169 205l-48 -46v-159h-75v444h75v-197l203 197h99l-200 -192l207 -252h-92z" />
    <glyph glyph-name="Lacute" unicode="&#x139;" horiz-adv-x="504" 
d="M156 668h-76l80 117h87zM73 0v614h79v-543h313v-71h-392z" />
    <glyph glyph-name="lacute" unicode="&#x13a;" horiz-adv-x="209" 
d="M142 695h-76l80 117h87zM142 650v-650h-75v650h75z" />
    <glyph glyph-name="Lcommaaccent" unicode="&#x13b;" horiz-adv-x="504" 
d="M231 -201l39 64c-12 1.33301 -21.667 6 -29 14s-11 18 -11 30c0 14 4.83301 25.5 14.5 34.5s21.5 13.5 35.5 13.5s25.667 -4.66699 35 -14s14 -21.333 14 -36c0 -15.333 -7.33301 -34.333 -22 -57l-29 -49h-47zM73 0v614h79v-543h313v-71h-392z" />
    <glyph glyph-name="lcommaaccent" unicode="&#x13c;" horiz-adv-x="209" 
d="M56 -201l39 64c-12 1.33301 -21.667 6 -29 14s-11 18 -11 30c0 14 4.83301 25.5 14.5 34.5s21.5 13.5 35.5 13.5s25.667 -4.66699 35 -14s14 -21.333 14 -36c0 -15.333 -7.33301 -34.333 -22 -57l-29 -49h-47zM142 650v-650h-75v650h75z" />
    <glyph glyph-name="Lcaron" unicode="&#x13d;" horiz-adv-x="504" 
d="M321 450h-60l33 164h60zM73 0v614h79v-543h313v-71h-392z" />
    <glyph glyph-name="lcaron" unicode="&#x13e;" horiz-adv-x="209" 
d="M256 486h-60l33 164h60zM142 650v-650h-75v650h75z" />
    <glyph glyph-name="Ldot" unicode="&#x13f;" horiz-adv-x="504" 
d="M73 0v614h79v-543h313v-71h-392zM412 307c0 -12.667 -4.66699 -23.834 -14 -33.501s-20.666 -14.5 -33.999 -14.5s-24.666 4.83301 -33.999 14.5s-14 20.834 -14 33.501c0 13.333 4.66699 24.666 14 33.999s20.666 14 33.999 14s24.666 -4.66699 33.999 -14
s14 -20.666 14 -33.999z" />
    <glyph glyph-name="ldot" unicode="&#x140;" horiz-adv-x="332" 
d="M142 650v-650h-75v650h75zM317 325c0 -12.667 -4.8291 -23.834 -14.4961 -33.501s-20.834 -14.5 -33.501 -14.5s-23.834 4.83301 -33.501 14.5s-14.5 20.834 -14.5 33.501c0 13.333 4.66699 24.666 14 33.999s20.666 14 33.999 14s24.666 -4.66699 33.999 -14
s14 -20.666 14 -33.999z" />
    <glyph glyph-name="Lslash" unicode="&#x141;" horiz-adv-x="523" 
d="M30 226v73l62 25v290h79v-260l154 62v-72l-154 -63v-210h313v-71h-392v251z" />
    <glyph glyph-name="lslash" unicode="&#x142;" horiz-adv-x="246" 
d="M161 650v-236l60 39v-68l-60 -39v-346h-75v310l-56 -35v67l56 36v272h75z" />
    <glyph glyph-name="Nacute" unicode="&#x143;" horiz-adv-x="623" 
d="M343 668h-76l80 117h87zM550 614v-614h-58l-343 488v-488h-76v614h75l327 -467v467h75z" />
    <glyph glyph-name="nacute" unicode="&#x144;" horiz-adv-x="489" 
d="M280 516h-69l80 134h78zM67 0l0.000976562 443.999h75v-56c14 18.667 32.5 34.167 55.5 46.5s48.167 18.5 75.5 18.5c49.333 0 87.666 -14.667 114.999 -44s41 -68.666 41 -117.999v-291h-76v279c0 32 -8.16699 57.5 -24.5 76.5s-40.833 28.5 -73.5 28.5
c-26 0 -49.333 -7.83301 -70 -23.5s-35 -35.5 -43 -59.5v-301h-75z" />
    <glyph glyph-name="Ncommaaccent" unicode="&#x145;" horiz-adv-x="623" 
d="M266 -201l39 64c-12 1.33301 -21.667 6 -29 14s-11 18 -11 30c0 14 4.83301 25.5 14.5 34.5s21.5 13.5 35.5 13.5s25.667 -4.66699 35 -14s14 -21.333 14 -36c0 -15.333 -7.33301 -34.333 -22 -57l-29 -49h-47zM550 614v-614h-58l-343 488v-488h-76v614h75l327 -467v467
h75z" />
    <glyph glyph-name="ncommaaccent" unicode="&#x146;" horiz-adv-x="489" 
d="M205 -201l39 64c-12 1.33301 -21.667 6 -29 14s-11 18 -11 30c0 14 4.83301 25.5 14.5 34.5s21.5 13.5 35.5 13.5s25.667 -4.66699 35 -14s14 -21.333 14 -36c0 -15.333 -7.33301 -34.333 -22 -57l-29 -49h-47zM67 0l0.000976562 443.999h75v-56
c14 18.667 32.5 34.167 55.5 46.5s48.167 18.5 75.5 18.5c49.333 0 87.666 -14.667 114.999 -44s41 -68.666 41 -117.999v-291h-76v279c0 32 -8.16699 57.5 -24.5 76.5s-40.833 28.5 -73.5 28.5c-26 0 -49.333 -7.83301 -70 -23.5s-35 -35.5 -43 -59.5v-301h-75z" />
    <glyph glyph-name="Ncaron" unicode="&#x147;" horiz-adv-x="623" 
d="M277 666l-92 121h68l59 -71l59 71h68l-92 -121h-70zM550 614v-614h-58l-343 488v-488h-76v614h75l327 -467v467h75z" />
    <glyph glyph-name="ncaron" unicode="&#x148;" horiz-adv-x="489" 
d="M378 646l-92 -136h-70l-92 136h65l62 -87l62 87h65zM67 0l0.000976562 443.999h75v-56c14 18.667 32.5 34.167 55.5 46.5s48.167 18.5 75.5 18.5c49.333 0 87.666 -14.667 114.999 -44s41 -68.666 41 -117.999v-291h-76v279c0 32 -8.16699 57.5 -24.5 76.5
s-40.833 28.5 -73.5 28.5c-26 0 -49.333 -7.83301 -70 -23.5s-35 -35.5 -43 -59.5v-301h-75z" />
    <glyph glyph-name="Eng" unicode="&#x14a;" horiz-adv-x="623" 
d="M266 -159v78c33.333 -22 67.333 -33 102 -33c36.667 0 63.5 10.667 80.5 32s25.833 57 26.5 107l-326 463v-488h-76v614h75l327 -467v467h75v-587c0 -142.667 -59.333 -214 -178 -214c-36 0 -71.333 9.33301 -106 28z" />
    <glyph glyph-name="eng" unicode="&#x14b;" horiz-adv-x="489" 
d="M353 -46v324.999c0 32 -8.16699 57.5 -24.5 76.5s-40.833 28.5 -73.5 28.5c-26 0 -49.333 -7.83301 -70 -23.5s-35 -35.5 -43 -59.5v-301h-75v444h75v-56c14 18.667 32.5 34.167 55.5 46.5s48.167 18.5 75.5 18.5c49.333 0 87.666 -14.667 114.999 -44
s41 -68.666 41 -117.999v-342c0 -41.333 -11.167 -73 -33.5 -95s-54.166 -33 -95.499 -33c-15.333 0 -26 1.33301 -32 4v64c12 -2 20.333 -3 25 -3c40 0 60 22.667 60 68z" />
    <glyph glyph-name="Omacron" unicode="&#x14c;" horiz-adv-x="629" 
d="M208 671v61h213v-61h-213zM592 307c0 -92.667 -26 -168.5 -78 -227.5s-118.667 -88.5 -200 -88.5c-80.667 0 -147 29.5 -199 88.5s-78 134.833 -78 227.5s26 168.5 78 227.5s118.333 88.5 199 88.5c81.333 0 148 -29.5 200 -88.5s78 -134.833 78 -227.5zM513 307
c0 72 -18.333 130.833 -55 176.5s-84.667 68.5 -144 68.5c-58.667 0 -106.334 -22.833 -143.001 -68.5s-55 -104.5 -55 -176.5s18.333 -130.833 55 -176.5s84.334 -68.5 143.001 -68.5c59.333 0 107.333 22.833 144 68.5s55 104.5 55 176.5z" />
    <glyph glyph-name="omacron" unicode="&#x14d;" horiz-adv-x="478" 
d="M133 530v61h213v-61h-213zM443 222c0 -68 -18.833 -123.5 -56.5 -166.5s-86.834 -64.5 -147.501 -64.5s-109.834 21.5 -147.501 64.5s-56.5 98.5 -56.5 166.5s18.833 123.5 56.5 166.5s86.834 64.5 147.501 64.5s109.834 -21.5 147.501 -64.5s56.5 -98.5 56.5 -166.5z
M367 222c0 49.333 -11.5 89.166 -34.5 119.499s-54.167 45.5 -93.5 45.5s-70.5 -15.167 -93.5 -45.5s-34.5 -70.166 -34.5 -119.499s11.5 -89.166 34.5 -119.499s54.167 -45.5 93.5 -45.5s70.5 15.167 93.5 45.5s34.5 70.166 34.5 119.499z" />
    <glyph glyph-name="Obreve" unicode="&#x14e;" horiz-adv-x="629" 
d="M314 666c-34.667 0 -62.5 10.501 -83.5 31.501s-31.5 50.5 -31.5 88.5h57c0 -20.667 5.33301 -36.5 16 -47.5s24.667 -16.5 42 -16.5c18 0 32.333 5.5 43 16.5s16 26.833 16 47.5h57c0 -38.667 -10.333 -68.334 -31 -89.001s-49 -31 -85 -31zM592 307.001
c0 -92.667 -26 -168.5 -78 -227.5s-118.667 -88.5 -200 -88.5c-80.667 0 -147 29.5 -199 88.5s-78 134.833 -78 227.5s26 168.5 78 227.5s118.333 88.5 199 88.5c81.333 0 148 -29.5 200 -88.5s78 -134.833 78 -227.5zM513 307.001c0 72 -18.333 130.833 -55 176.5
s-84.667 68.5 -144 68.5c-58.667 0 -106.334 -22.833 -143.001 -68.5s-55 -104.5 -55 -176.5s18.333 -130.833 55 -176.5s84.334 -68.5 143.001 -68.5c59.333 0 107.333 22.833 144 68.5s55 104.5 55 176.5z" />
    <glyph glyph-name="obreve" unicode="&#x14f;" horiz-adv-x="478" 
d="M443 222c0 -68 -18.833 -123.5 -56.5 -166.5s-86.834 -64.5 -147.501 -64.5s-109.834 21.5 -147.501 64.5s-56.5 98.5 -56.5 166.5s18.833 123.5 56.5 166.5s86.834 64.5 147.501 64.5s109.834 -21.5 147.501 -64.5s56.5 -98.5 56.5 -166.5zM367 222
c0 49.333 -11.5 89.166 -34.5 119.499s-54.167 45.5 -93.5 45.5s-70.5 -15.167 -93.5 -45.5s-34.5 -70.166 -34.5 -119.499s11.5 -89.166 34.5 -119.499s54.167 -45.5 93.5 -45.5s70.5 15.167 93.5 45.5s34.5 70.166 34.5 119.499zM239 500
c-34.667 0 -62.332 11.167 -82.999 33.5s-31 53.833 -31 94.5h57c0 -22.667 5 -40.5 15 -53.5s24 -19.5 42 -19.5s32 6.5 42 19.5s15 30.833 15 53.5h57c0 -40.667 -10.333 -72.167 -31 -94.5s-48.334 -33.5 -83.001 -33.5z" />
    <glyph glyph-name="Ohungarumlaut" unicode="&#x150;" horiz-adv-x="629" 
d="M592 307c0 -92.667 -26 -168.5 -78 -227.5s-118.667 -88.5 -200 -88.5c-80.667 0 -147 29.5 -199 88.5s-78 134.833 -78 227.5s26 168.5 78 227.5s118.333 88.5 199 88.5c81.333 0 148 -29.5 200 -88.5s78 -134.833 78 -227.5zM513 307c0 72 -18.333 130.833 -55 176.5
s-84.667 68.5 -144 68.5c-58.667 0 -106.334 -22.833 -143.001 -68.5s-55 -104.5 -55 -176.5s18.333 -130.833 55 -176.5s84.334 -68.5 143.001 -68.5c59.333 0 107.333 22.833 144 68.5s55 104.5 55 176.5zM290 668h-65l67 117h66zM413 668h-65l66 117h67z" />
    <glyph glyph-name="ohungarumlaut" unicode="&#x151;" horiz-adv-x="478" 
d="M207 516h-63l66 134h65zM326 516h-63l67 134h64zM443 222c0 -68 -18.833 -123.5 -56.5 -166.5s-86.834 -64.5 -147.501 -64.5s-109.834 21.5 -147.501 64.5s-56.5 98.5 -56.5 166.5s18.833 123.5 56.5 166.5s86.834 64.5 147.501 64.5s109.834 -21.5 147.501 -64.5
s56.5 -98.5 56.5 -166.5zM367 222c0 49.333 -11.5 89.166 -34.5 119.499s-54.167 45.5 -93.5 45.5s-70.5 -15.167 -93.5 -45.5s-34.5 -70.166 -34.5 -119.499s11.5 -89.166 34.5 -119.499s54.167 -45.5 93.5 -45.5s70.5 15.167 93.5 45.5s34.5 70.166 34.5 119.499z" />
    <glyph glyph-name="OE" unicode="&#x152;" horiz-adv-x="830" 
d="M780 614v-70h-298v-194h268v-70h-268v-209h298v-71h-445c-90 -0 -162.167 27.833 -216.5 83.5s-81.5 130.167 -81.5 223.5s27.167 167.833 81.5 223.5s126.5 83.5 216.5 83.5h445zM337 71l68 0.000976562v473h-68c-69.333 0 -123.5 -21.333 -162.5 -64
s-58.5 -100.334 -58.5 -173.001s19.5 -130.167 58.5 -172.5s93.167 -63.5 162.5 -63.5z" />
    <glyph glyph-name="oe" unicode="&#x153;" horiz-adv-x="787" 
d="M568 -9c-73.333 0 -128.668 30.333 -166.001 91c-36 -60.667 -90.333 -91 -163 -91c-60.667 0 -109.834 21.5 -147.501 64.5s-56.5 98.5 -56.5 166.5s18.833 123.5 56.5 166.5s86.834 64.5 147.501 64.5c72.667 0 127 -31 163 -93c38 62 93 93 165 93
c59.333 0 105.333 -19.833 138 -59.5s49 -92.5 49 -158.5v-27h-315c0.666992 -46.667 13 -83.834 37 -111.501s54.667 -41.5 92 -41.5c28 0 51.667 6.83301 71 20.5s32 32.834 38 57.501h71c-8 -43.333 -27.667 -77.833 -59 -103.5s-71.666 -38.5 -120.999 -38.5z
M366.998 222c0 49.333 -11.5 89.166 -34.5 119.499s-54.167 45.5 -93.5 45.5s-70.5 -15.167 -93.5 -45.5s-34.5 -70.166 -34.5 -119.499s11.5 -89.166 34.5 -119.499s54.167 -45.5 93.5 -45.5s70.5 15.167 93.5 45.5s34.5 70.166 34.5 119.499zM566.998 389
c-33.333 0 -61.168 -11 -83.501 -33s-36.166 -52.333 -41.499 -91h236c-1.33301 35.333 -11.333 64.833 -30 88.5s-45.667 35.5 -81 35.5z" />
    <glyph glyph-name="Racute" unicode="&#x154;" horiz-adv-x="552" 
d="M261 260h-109.002v-260h-79v614h228c62.667 0 111.834 -15.333 147.501 -46s53.5 -74.667 53.5 -132c0 -50 -13.667 -89.667 -41 -119s-65.666 -47.333 -114.999 -54l181 -263h-90zM151.998 545v-218h147c40 0 70.833 9.66699 92.5 29s32.5 46 32.5 80
s-10.833 60.667 -32.5 80s-52.5 29 -92.5 29h-147zM302.998 668h-76l80 117h87z" />
    <glyph glyph-name="racute" unicode="&#x155;" horiz-adv-x="321" 
d="M210 516h-69l80 134h78zM295 446l0.000976562 -77c-12 8 -28.667 12 -50 12c-24 0 -45.333 -7.33301 -64 -22s-31.667 -35 -39 -61v-298h-75v444h75v-58c10 19.333 24.833 35.333 44.5 48s41.5 19 65.5 19c19.333 0 33.666 -2.33301 42.999 -7z" />
    <glyph glyph-name="Rcommaaccent" unicode="&#x156;" horiz-adv-x="552" 
d="M261 260h-109.002v-260h-79v614h228c62.667 0 111.834 -15.333 147.501 -46s53.5 -74.667 53.5 -132c0 -50 -13.667 -89.667 -41 -119s-65.666 -47.333 -114.999 -54l181 -263h-90zM151.998 545v-218h147c40 0 70.833 9.66699 92.5 29s32.5 46 32.5 80
s-10.833 60.667 -32.5 80s-52.5 29 -92.5 29h-147zM224.998 -201l39 64c-12 1.33301 -21.667 6 -29 14s-11 18 -11 30c0 14 4.83301 25.5 14.5 34.5s21.5 13.5 35.5 13.5s25.667 -4.66699 35 -14s14 -21.333 14 -36c0 -15.333 -7.33301 -34.333 -22 -57l-29 -49h-47z" />
    <glyph glyph-name="rcommaaccent" unicode="&#x157;" horiz-adv-x="321" 
d="M54 -201l39 64c-12 1.33301 -21.667 6 -29 14s-11 18 -11 30c0 14 4.83301 25.5 14.5 34.5s21.5 13.5 35.5 13.5s25.667 -4.66699 35 -14s14 -21.333 14 -36c0 -15.333 -7.33301 -34.333 -22 -57l-29 -49h-47zM295 446l0.000976562 -77c-12 8 -28.667 12 -50 12
c-24 0 -45.333 -7.33301 -64 -22s-31.667 -35 -39 -61v-298h-75v444h75v-58c10 19.333 24.833 35.333 44.5 48s41.5 19 65.5 19c19.333 0 33.666 -2.33301 42.999 -7z" />
    <glyph glyph-name="Rcaron" unicode="&#x158;" horiz-adv-x="552" 
d="M261 260h-109.002v-260h-79v614h228c62.667 0 111.834 -15.333 147.501 -46s53.5 -74.667 53.5 -132c0 -50 -13.667 -89.667 -41 -119s-65.666 -47.333 -114.999 -54l181 -263h-90zM151.998 545v-218h147c40 0 70.833 9.66699 92.5 29s32.5 46 32.5 80
s-10.833 60.667 -32.5 80s-52.5 29 -92.5 29h-147zM235.998 666l-92 121h68l59 -71l59 71h68l-92 -121h-70z" />
    <glyph glyph-name="rcaron" unicode="&#x159;" horiz-adv-x="321" 
d="M308 646l-92 -136h-70l-92 136h65l62 -87l62 87h65zM295 446l0.000976562 -77c-12 8 -28.667 12 -50 12c-24 0 -45.333 -7.33301 -64 -22s-31.667 -35 -39 -61v-298h-75v444h75v-58c10 19.333 24.833 35.333 44.5 48s41.5 19 65.5 19c19.333 0 33.666 -2.33301 42.999 -7
z" />
    <glyph glyph-name="Sacute" unicode="&#x15a;" horiz-adv-x="509" 
d="M23 160l80 -0.00195312c23.333 -68 75.333 -102 156 -102c40.667 0 73.5 9.5 98.5 28.5s37.5 45.167 37.5 78.5c0 24.667 -7.66699 44.834 -23 60.501s-40.333 27.834 -75 36.501l-110 29c-98 25.333 -147 78 -147 158c0 51.333 19 93.166 57 125.499
s86.333 48.5 145 48.5c62 0 112 -14.5 150 -43.5s63 -68.5 75 -118.5h-79c-22 63.333 -70.667 95 -146 95c-37.333 0 -67.833 -9.16699 -91.5 -27.5s-35.5 -42.833 -35.5 -73.5c0 -25.333 8 -45.166 24 -59.499s40.667 -25.833 74 -34.5l105 -27c102 -26 153 -81 153 -165
c0 -54.667 -19.833 -98 -59.5 -130s-90.5 -48 -152.5 -48s-114 14.833 -156 44.5s-68.667 71.167 -80 124.5zM279 667.998h-76l80 117h87z" />
    <glyph glyph-name="sacute" unicode="&#x15b;" horiz-adv-x="414" 
d="M236 516h-69l80 134h78zM30 122h78.001c14 -45.333 49 -68 105 -68c27.333 0 49.333 5.5 66 16.5s25 27.5 25 49.5c0 30 -22 50.667 -66 62l-88 23c-71.333 18 -107 57 -107 117c0 38.667 15 70.167 45 94.5s68 36.5 114 36.5c48 0 86.667 -11 116 -33s48 -53 56 -93h-75
c-13.333 42 -46 63 -98 63c-23.333 0 -43.333 -5.5 -60 -16.5s-25 -26.833 -25 -47.5c0 -14.667 4.83301 -26.167 14.5 -34.5s25.5 -15.5 47.5 -21.5l86 -21c75.333 -20 113 -61.333 113 -124c0 -41.333 -15.333 -74 -46 -98s-70.334 -36 -119.001 -36
s-89.5 11.667 -122.5 35s-52.833 55.333 -59.5 96z" />
    <glyph glyph-name="Scircumflex" unicode="&#x15c;" horiz-adv-x="509" 
d="M23 160l80 -0.00195312c23.333 -68 75.333 -102 156 -102c40.667 0 73.5 9.5 98.5 28.5s37.5 45.167 37.5 78.5c0 24.667 -7.66699 44.834 -23 60.501s-40.333 27.834 -75 36.501l-110 29c-98 25.333 -147 78 -147 158c0 51.333 19 93.166 57 125.499
s86.333 48.5 145 48.5c62 0 112 -14.5 150 -43.5s63 -68.5 75 -118.5h-79c-22 63.333 -70.667 95 -146 95c-37.333 0 -67.833 -9.16699 -91.5 -27.5s-35.5 -42.833 -35.5 -73.5c0 -25.333 8 -45.166 24 -59.499s40.667 -25.833 74 -34.5l105 -27c102 -26 153 -81 153 -165
c0 -54.667 -19.833 -98 -59.5 -130s-90.5 -48 -152.5 -48s-114 14.833 -156 44.5s-68.667 71.167 -80 124.5zM286 790.998l92 -122h-68l-59 71l-59 -71h-68l92 122h70z" />
    <glyph glyph-name="scircumflex" unicode="&#x15d;" horiz-adv-x="414" 
d="M242 645l92 -136h-65l-62 88l-62 -88h-65l92 136h70zM30 122h78.001c14 -45.333 49 -68 105 -68c27.333 0 49.333 5.5 66 16.5s25 27.5 25 49.5c0 30 -22 50.667 -66 62l-88 23c-71.333 18 -107 57 -107 117c0 38.667 15 70.167 45 94.5s68 36.5 114 36.5
c48 0 86.667 -11 116 -33s48 -53 56 -93h-75c-13.333 42 -46 63 -98 63c-23.333 0 -43.333 -5.5 -60 -16.5s-25 -26.833 -25 -47.5c0 -14.667 4.83301 -26.167 14.5 -34.5s25.5 -15.5 47.5 -21.5l86 -21c75.333 -20 113 -61.333 113 -124c0 -41.333 -15.333 -74 -46 -98
s-70.334 -36 -119.001 -36s-89.5 11.667 -122.5 35s-52.833 55.333 -59.5 96z" />
    <glyph glyph-name="Scedilla" unicode="&#x15e;" horiz-adv-x="509" 
d="M23 160l80 -0.00195312c23.333 -68 75.333 -102 156 -102c40.667 0 73.5 9.5 98.5 28.5s37.5 45.167 37.5 78.5c0 24.667 -7.66699 44.834 -23 60.501s-40.333 27.834 -75 36.501l-110 29c-98 25.333 -147 78 -147 158c0 51.333 19 93.166 57 125.499
s86.333 48.5 145 48.5c62 0 112 -14.5 150 -43.5s63 -68.5 75 -118.5h-79c-22 63.333 -70.667 95 -146 95c-37.333 0 -67.833 -9.16699 -91.5 -27.5s-35.5 -42.833 -35.5 -73.5c0 -25.333 8 -45.166 24 -59.499s40.667 -25.833 74 -34.5l105 -27c102 -26 153 -81 153 -165
c0 -54.667 -19.833 -98 -59.5 -130s-90.5 -48 -152.5 -48s-114 14.833 -156 44.5s-68.667 71.167 -80 124.5zM219 -183.002h-71l66 132h74z" />
    <glyph glyph-name="scedilla" unicode="&#x15f;" horiz-adv-x="414" 
d="M30 122h78.001c14 -45.333 49 -68 105 -68c27.333 0 49.333 5.5 66 16.5s25 27.5 25 49.5c0 30 -22 50.667 -66 62l-88 23c-71.333 18 -107 57 -107 117c0 38.667 15 70.167 45 94.5s68 36.5 114 36.5c48 0 86.667 -11 116 -33s48 -53 56 -93h-75
c-13.333 42 -46 63 -98 63c-23.333 0 -43.333 -5.5 -60 -16.5s-25 -26.833 -25 -47.5c0 -14.667 4.83301 -26.167 14.5 -34.5s25.5 -15.5 47.5 -21.5l86 -21c75.333 -20 113 -61.333 113 -124c0 -41.333 -15.333 -74 -46 -98s-70.334 -36 -119.001 -36
s-89.5 11.667 -122.5 35s-52.833 55.333 -59.5 96zM179.001 -183h-71l66 132h74z" />
    <glyph glyph-name="Scaron" unicode="&#x160;" horiz-adv-x="509" 
d="M216 666l-92 121h68l59 -71l59 71h68l-92 -121h-70zM23 160l80 -0.00195312c23.333 -68 75.333 -102 156 -102c40.667 0 73.5 9.5 98.5 28.5s37.5 45.167 37.5 78.5c0 24.667 -7.66699 44.834 -23 60.501s-40.333 27.834 -75 36.501l-110 29c-98 25.333 -147 78 -147 158
c0 51.333 19 93.166 57 125.499s86.333 48.5 145 48.5c62 0 112 -14.5 150 -43.5s63 -68.5 75 -118.5h-79c-22 63.333 -70.667 95 -146 95c-37.333 0 -67.833 -9.16699 -91.5 -27.5s-35.5 -42.833 -35.5 -73.5c0 -25.333 8 -45.166 24 -59.499s40.667 -25.833 74 -34.5
l105 -27c102 -26 153 -81 153 -165c0 -54.667 -19.833 -98 -59.5 -130s-90.5 -48 -152.5 -48s-114 14.833 -156 44.5s-68.667 71.167 -80 124.5z" />
    <glyph glyph-name="scaron" unicode="&#x161;" horiz-adv-x="414" 
d="M334 646l-92 -136h-70l-92 136h65l62 -87l62 87h65zM30 122h78.001c14 -45.333 49 -68 105 -68c27.333 0 49.333 5.5 66 16.5s25 27.5 25 49.5c0 30 -22 50.667 -66 62l-88 23c-71.333 18 -107 57 -107 117c0 38.667 15 70.167 45 94.5s68 36.5 114 36.5
c48 0 86.667 -11 116 -33s48 -53 56 -93h-75c-13.333 42 -46 63 -98 63c-23.333 0 -43.333 -5.5 -60 -16.5s-25 -26.833 -25 -47.5c0 -14.667 4.83301 -26.167 14.5 -34.5s25.5 -15.5 47.5 -21.5l86 -21c75.333 -20 113 -61.333 113 -124c0 -41.333 -15.333 -74 -46 -98
s-70.334 -36 -119.001 -36s-89.5 11.667 -122.5 35s-52.833 55.333 -59.5 96z" />
    <glyph glyph-name="Tcedilla" unicode="&#x162;" horiz-adv-x="567" 
d="M238 -201l39 64c-12 1.33301 -21.667 6 -29 14s-11 18 -11 30c0 14 4.83301 25.5 14.5 34.5s21.5 13.5 35.5 13.5s25.667 -4.66699 35 -14s14 -21.333 14 -36c0 -15.333 -7.33301 -34.333 -22 -57l-29 -49h-47zM30 544v70h507v-70h-214v-544h-79v544h-214z" />
    <glyph glyph-name="tcedilla" unicode="&#x163;" horiz-adv-x="317" 
d="M88 112v268h-72v64h72v117h75v-117h107v-64h-107v-260c0 -41.333 19.667 -62 59 -62c20.667 0 40 6 58 18v-70c-18.667 -10 -42 -15 -70 -15c-37.333 0 -67 10.167 -89 30.5s-33 50.5 -33 90.5zM139 -201l39 64c-12 1.33301 -21.667 6 -29 14s-11 18 -11 30
c0 14 4.83301 25.5 14.5 34.5s21.5 13.5 35.5 13.5s25.667 -4.66699 35 -14s14 -21.333 14 -36c0 -15.333 -7.33301 -34.333 -22 -57l-29 -49h-47z" />
    <glyph glyph-name="Tcaron" unicode="&#x164;" horiz-adv-x="567" 
d="M249 666l-92 121h68l59 -71l59 71h68l-92 -121h-70zM30 544v70h507v-70h-214v-544h-79v544h-214z" />
    <glyph glyph-name="tcaron" unicode="&#x165;" horiz-adv-x="317" 
d="M88 112v268h-72v64h72v117h75v-117h107v-64h-107v-260c0 -41.333 19.667 -62 59 -62c20.667 0 40 6 58 18v-70c-18.667 -10 -42 -15 -70 -15c-37.333 0 -67 10.167 -89 30.5s-33 50.5 -33 90.5zM276 496h-60l33 164h60z" />
    <glyph glyph-name="Tbar" unicode="&#x166;" horiz-adv-x="567" 
d="M30 544v70h507v-70h-214v-193h113v-67h-113v-284h-79v284h-113v67h113v193h-214z" />
    <glyph glyph-name="tbar" unicode="&#x167;" horiz-adv-x="321" 
d="M29 219v61h63v100h-72v64h72v117h75v-117h107v-64h-107v-100h91v-61h-91v-99c0 -41.333 19.667 -62 59 -62c20.667 0 40 6 58 18v-70c-18.667 -10 -42 -15 -70 -15c-38 0 -67.833 10.167 -89.5 30.5s-32.5 50.5 -32.5 90.5v107h-63z" />
    <glyph glyph-name="Utilde" unicode="&#x168;" horiz-adv-x="607" 
d="M390 784h48.0029c0 -36.667 -6.5 -65.667 -19.5 -87s-31.833 -32 -56.5 -32c-17.333 0 -37.333 9.33301 -60 28s-39.334 28 -50.001 28c-22.667 0 -34 -17.667 -34 -53h-49c0 36.667 6.5 65.667 19.5 87s31.833 32 56.5 32c18 0 38.167 -9.33301 60.5 -28
s39.166 -28 50.499 -28c21.333 0 32.666 17.667 33.999 53zM303.003 -9c-72 0 -130.002 21.666 -174.002 64.999s-66 106 -66 188v370h78v-361c0 -64 14.333 -112 43 -144s68.334 -48 119.001 -48s90.334 16 119.001 48s43 80 43 144v361h79v-371
c0 -81.333 -22 -143.666 -66 -186.999s-102.333 -65 -175 -65z" />
    <glyph glyph-name="utilde" unicode="&#x169;" horiz-adv-x="487" 
d="M421 444l0.000976562 -443.998h-76v56c-13.333 -18.667 -31.333 -34.167 -54 -46.5s-47.667 -18.5 -75 -18.5c-49.333 0 -87.5 14.667 -114.5 44s-40.5 68.666 -40.5 117.999v291h76v-279c0 -32.667 8 -58.334 24 -77.001s40.333 -28 73 -28
c25.333 0 48.166 7.66699 68.499 23s34.5 35.333 42.5 60v301h76zM327.001 633.002h48.001c0 -36 -6.5 -64.667 -19.5 -86s-31.833 -32 -56.5 -32c-16.667 0 -35.834 9.66699 -57.501 29s-37.167 29 -46.5 29c-22.667 0 -34 -18.333 -34 -55h-48c0 36 6.5 64.667 19.5 86
s31.833 32 56.5 32c16.667 0 35.834 -9.66699 57.501 -29s37.167 -29 46.5 -29c21.333 0 32.666 18.333 33.999 55z" />
    <glyph glyph-name="Umacron" unicode="&#x16a;" horiz-adv-x="607" 
d="M197 671v61h213v-61h-213zM303 -9c-72 0 -130.002 21.666 -174.002 64.999s-66 106 -66 188v370h78v-361c0 -64 14.333 -112 43 -144s68.334 -48 119.001 -48s90.334 16 119.001 48s43 80 43 144v361h79v-371c0 -81.333 -22 -143.666 -66 -186.999s-102.333 -65 -175 -65
z" />
    <glyph glyph-name="umacron" unicode="&#x16b;" horiz-adv-x="487" 
d="M421 444l0.000976562 -443.998h-76v56c-13.333 -18.667 -31.333 -34.167 -54 -46.5s-47.667 -18.5 -75 -18.5c-49.333 0 -87.5 14.667 -114.5 44s-40.5 68.666 -40.5 117.999v291h76v-279c0 -32.667 8 -58.334 24 -77.001s40.333 -28 73 -28
c25.333 0 48.166 7.66699 68.499 23s34.5 35.333 42.5 60v301h76zM137.001 530.002v61h213v-61h-213z" />
    <glyph glyph-name="Ubreve" unicode="&#x16c;" horiz-adv-x="607" 
d="M303 666c-34.667 0 -62.5 10.501 -83.5 31.501s-31.5 50.5 -31.5 88.5h57c0 -20.667 5.33301 -36.5 16 -47.5s24.667 -16.5 42 -16.5c18 0 32.333 5.5 43 16.5s16 26.833 16 47.5h57c0 -38.667 -10.5 -68.334 -31.5 -89.001s-49.167 -31 -84.5 -31zM303 -8.99902
c-72 0 -130.002 21.666 -174.002 64.999s-66 106 -66 188v370h78v-361c0 -64 14.333 -112 43 -144s68.334 -48 119.001 -48s90.334 16 119.001 48s43 80 43 144v361h79v-371c0 -81.333 -22 -143.666 -66 -186.999s-102.333 -65 -175 -65z" />
    <glyph glyph-name="ubreve" unicode="&#x16d;" horiz-adv-x="487" 
d="M421 444l0.000976562 -443.998h-76v56c-13.333 -18.667 -31.333 -34.167 -54 -46.5s-47.667 -18.5 -75 -18.5c-49.333 0 -87.5 14.667 -114.5 44s-40.5 68.666 -40.5 117.999v291h76v-279c0 -32.667 8 -58.334 24 -77.001s40.333 -28 73 -28
c25.333 0 48.166 7.66699 68.499 23s34.5 35.333 42.5 60v301h76zM243.001 500.002c-34.667 0 -62.332 11.167 -82.999 33.5s-31 53.833 -31 94.5h57c0 -22.667 5 -40.5 15 -53.5s24 -19.5 42 -19.5s32 6.5 42 19.5s15 30.833 15 53.5h57
c0 -40.667 -10.333 -72.167 -31 -94.5s-48.334 -33.5 -83.001 -33.5z" />
    <glyph glyph-name="Uring" unicode="&#x16e;" horiz-adv-x="607" 
d="M303 -9c-72 0 -130.002 21.666 -174.002 64.999s-66 106 -66 188v370h78v-361c0 -64 14.333 -112 43 -144s68.334 -48 119.001 -48s90.334 16 119.001 48s43 80 43 144v361h79v-371c0 -81.333 -22 -143.666 -66 -186.999s-102.333 -65 -175 -65zM389.998 733.999
c0 -24 -8.33301 -44.333 -25 -61s-37.334 -25 -62.001 -25s-45.334 8.33301 -62.001 25s-25 37 -25 61c0 24.667 8.33301 45.334 25 62.001s37.334 25 62.001 25s45.334 -8.33301 62.001 -25s25 -37.334 25 -62.001zM347.998 733.999c0 12.667 -4.33301 23.5 -13 32.5
s-19.334 13.5 -32.001 13.5s-23.334 -4.5 -32.001 -13.5s-13 -19.833 -13 -32.5s4.33301 -23.334 13 -32.001s19.334 -13 32.001 -13s23.334 4.33301 32.001 13s13 19.334 13 32.001z" />
    <glyph glyph-name="uring" unicode="&#x16f;" horiz-adv-x="487" 
d="M330 580c0 -24.667 -8.33301 -45.167 -25 -61.5s-37.334 -24.5 -62.001 -24.5s-45.334 8.16699 -62.001 24.5s-25 36.833 -25 61.5s8.33301 45.167 25 61.5s37.334 24.5 62.001 24.5s45.334 -8.16699 62.001 -24.5s25 -36.833 25 -61.5zM288 580
c0 12.667 -4.33301 23.334 -13 32.001s-19.334 13 -32.001 13s-23.334 -4.33301 -32.001 -13s-13 -19.334 -13 -32.001s4.33301 -23.334 13 -32.001s19.334 -13 32.001 -13s23.334 4.33301 32.001 13s13 19.334 13 32.001zM421 444l0.000976562 -443.998h-76v56
c-13.333 -18.667 -31.333 -34.167 -54 -46.5s-47.667 -18.5 -75 -18.5c-49.333 0 -87.5 14.667 -114.5 44s-40.5 68.666 -40.5 117.999v291h76v-279c0 -32.667 8 -58.334 24 -77.001s40.333 -28 73 -28c25.333 0 48.166 7.66699 68.499 23s34.5 35.333 42.5 60v301h76z" />
    <glyph glyph-name="Uhungarumlaut" unicode="&#x170;" horiz-adv-x="607" 
d="M303 -9c-72 0 -130.002 21.666 -174.002 64.999s-66 106 -66 188v370h78v-361c0 -64 14.333 -112 43 -144s68.334 -48 119.001 -48s90.334 16 119.001 48s43 80 43 144v361h79v-371c0 -81.333 -22 -143.666 -66 -186.999s-102.333 -65 -175 -65zM278.998 667.999h-65
l67 117h66zM401.998 667.999h-65l66 117h67z" />
    <glyph glyph-name="uhungarumlaut" unicode="&#x171;" horiz-adv-x="487" 
d="M421 444l0.000976562 -443.998h-76v56c-13.333 -18.667 -31.333 -34.167 -54 -46.5s-47.667 -18.5 -75 -18.5c-49.333 0 -87.5 14.667 -114.5 44s-40.5 68.666 -40.5 117.999v291h76v-279c0 -32.667 8 -58.334 24 -77.001s40.333 -28 73 -28
c25.333 0 48.166 7.66699 68.499 23s34.5 35.333 42.5 60v301h76zM212.001 516.002h-63l66 134h65zM331.001 516.002h-63l67 134h64z" />
    <glyph glyph-name="Uogonek" unicode="&#x172;" horiz-adv-x="607" 
d="M303 -9c-72 0 -130.003 21.665 -174.003 64.998s-66 106 -66 188v370h78v-361c0 -64 14.333 -112 43 -144s68.334 -48 119.001 -48s90.334 16 119.001 48s43 80 43 144v361h79v-371c0 -53.333 -9 -97.166 -27 -131.499s-45.333 -64.5 -82 -90.5
c-61.333 -43.333 -92 -85.666 -92 -126.999c0 -17.333 7.66699 -26 23 -26c10 0 22.333 5 37 15v-50c-17.333 -12.667 -34.666 -19 -51.999 -19c-21.333 0 -37.833 6 -49.5 18s-17.5 28.333 -17.5 49c0 39.333 19 77 57 113c-8 -2 -20.667 -3 -38 -3z" />
    <glyph glyph-name="uogonek" unicode="&#x173;" horiz-adv-x="487" 
d="M421 444v-443.999c-21.333 -35.333 -34.833 -59 -40.5 -71s-8.5 -23.667 -8.5 -35c0 -17.333 7.33301 -26 22 -26c10.667 0 23 5 37 15v-50c-16 -12.667 -33.333 -19 -52 -19c-21.333 0 -37.666 5.83301 -48.999 17.5s-17 27.834 -17 48.501c0 12 2.5 24.833 7.5 38.5
s10.333 25.167 16 34.5l28.5 47h-20v56c-13.333 -18.667 -31.333 -34.167 -54 -46.5s-47.667 -18.5 -75 -18.5c-49.333 0 -87.5 14.667 -114.5 44s-40.5 68.666 -40.5 117.999v291h76v-279c0 -32.667 8 -58.334 24 -77.001s40.333 -28 73 -28
c25.333 0 48.166 7.66699 68.499 23s34.5 35.333 42.5 60v301h76z" />
    <glyph glyph-name="Wcircumflex" unicode="&#x174;" horiz-adv-x="767" 
d="M353 614h63l130 -488l126 488h76l-163 -614h-72l-129 479l-131 -479h-71l-163 614h78l126 -488zM418 791l92 -122h-68l-59 71l-59 -71h-68l92 122h70z" />
    <glyph glyph-name="wcircumflex" unicode="&#x175;" horiz-adv-x="629" 
d="M350 645l92 -136h-65l-62 88l-62 -88h-65l92 136h70zM349 444l91 -339l98 339h73l-131 -444h-73l-92 337l-93 -337h-73l-131 444h75l98 -339l91 339h67z" />
    <glyph glyph-name="Ycircumflex" unicode="&#x176;" horiz-adv-x="557" 
d="M280 324l177 290h84l-224 -361v-253h-78v253l-222 361h86zM314 791l92 -122h-68l-59 71l-59 -71h-68l92 122h70z" />
    <glyph glyph-name="ycircumflex" unicode="&#x177;" horiz-adv-x="455" 
d="M198 -170h-74l67 167l-173 447h81l131 -350l129 350h78zM263 645l92 -136h-65l-62 88l-62 -88h-65l92 136h70z" />
    <glyph glyph-name="Ydieresis" unicode="&#x178;" horiz-adv-x="557" 
d="M280 324l177 290h84l-224 -361v-253h-78v253l-222 361h86zM162 722c0 12.667 4.5 23.5 13.5 32.5s20.167 13.5 33.5 13.5c12.667 0 23.5 -4.5 32.5 -13.5s13.5 -19.833 13.5 -32.5s-4.5 -23.5 -13.5 -32.5s-19.833 -13.5 -32.5 -13.5c-13.333 0 -24.5 4.5 -33.5 13.5
s-13.5 19.833 -13.5 32.5zM303 722c0 12.667 4.33301 23.5 13 32.5s19.334 13.5 32.001 13.5c13.333 0 24.5 -4.5 33.5 -13.5s13.5 -19.833 13.5 -32.5s-4.5 -23.5 -13.5 -32.5s-20.167 -13.5 -33.5 -13.5c-12.667 0 -23.334 4.5 -32.001 13.5s-13 19.833 -13 32.5z" />
    <glyph glyph-name="Zacute" unicode="&#x179;" horiz-adv-x="534" 
d="M492 71v-71h-451v57l349 487h-344v70h442v-56l-348 -487h352zM319 668h-76l80 117h87z" />
    <glyph glyph-name="zacute" unicode="&#x17a;" horiz-adv-x="434" 
d="M253 516h-69l80 134h78zM390 64v-64h-349v49l249 331h-241v64h337v-49l-247 -331h251z" />
    <glyph glyph-name="Zdotaccent" unicode="&#x17b;" horiz-adv-x="534" 
d="M335 721c0 -12.667 -4.8291 -23.834 -14.4961 -33.501s-20.834 -14.5 -33.501 -14.5s-23.834 4.83301 -33.501 14.5s-14.5 20.834 -14.5 33.501c0 13.333 4.66699 24.833 14 34.5s20.666 14.5 33.999 14.5s24.666 -4.83301 33.999 -14.5s14 -21.167 14 -34.5zM492.004 71
v-71h-451v57l349 487h-344v70h442v-56l-348 -487h352z" />
    <glyph glyph-name="zdotaccent" unicode="&#x17c;" horiz-adv-x="434" 
d="M390 64v-64h-349v49l249 331h-241v64h337v-49l-247 -331h251zM272 578c0 -13.333 -4.66699 -24.666 -14 -33.999s-20.666 -14 -33.999 -14s-24.666 4.66699 -33.999 14s-14 20.666 -14 33.999s4.66699 24.666 14 33.999s20.666 14 33.999 14s24.666 -4.66699 33.999 -14
s14 -20.666 14 -33.999z" />
    <glyph glyph-name="Zcaron" unicode="&#x17d;" horiz-adv-x="534" 
d="M252 666l-92 121h68l59 -71l59 71h68l-92 -121h-70zM492 71v-71h-451v57l349 487h-344v70h442v-56l-348 -487h352z" />
    <glyph glyph-name="zcaron" unicode="&#x17e;" horiz-adv-x="434" 
d="M351 646l-92 -136h-70l-92 136h65l62 -87l62 87h65zM390 64v-64h-349v49l249 331h-241v64h337v-49l-247 -331h251z" />
    <glyph glyph-name="florin" unicode="&#x192;" horiz-adv-x="405" 
d="M68 281l-0.00292969 62.9971h82l25 138c8 44.667 25.5 79.334 52.5 104.001s61.167 37 102.5 37c24 0 44.333 -4 61 -12v-68c-17.333 9.33301 -37.333 14 -60 14c-21.333 0 -39.166 -7 -53.499 -21s-23.833 -34 -28.5 -60l-24 -132h97v-63h-108l-56 -320
c-8 -45.333 -23 -79.666 -45 -102.999s-53.667 -35 -95 -35c-22.667 0 -42.667 4 -60 12v68c17.333 -9.33301 37 -14 59 -14c20.667 0 35.834 6.33301 45.501 19s16.834 32.334 21.501 59.001l55 314h-71z" />
    <glyph glyph-name="Aringacute" unicode="&#x1fa;" horiz-adv-x="596" 
d="M261 614h74l240 -614h-80l-71 185h-253l-70 -185h-80zM297 516l-100 -262h200zM386 711c0 -20.667 -8.5 -38.167 -25.5 -52.5s-38.167 -21.5 -63.5 -21.5c-24.667 0 -45.5 7.16699 -62.5 21.5s-25.5 31.833 -25.5 52.5s8.5 38.167 25.5 52.5s37.833 21.5 62.5 21.5
s45.667 -7.16699 63 -21.5s26 -31.833 26 -52.5zM339 808h-74l55 86h86zM344 711c0 10.667 -4.5 19.334 -13.5 26.001s-20.167 10 -33.5 10c-12.667 0 -23.5 -3.33301 -32.5 -10s-13.5 -15.334 -13.5 -26.001s4.5 -19.334 13.5 -26.001s19.833 -10 32.5 -10
c13.333 0 24.5 3.33301 33.5 10s13.5 15.334 13.5 26.001z" />
    <glyph glyph-name="aringacute" unicode="&#x1fb;" horiz-adv-x="450" 
d="M316 550c0 -20.667 -8.66699 -38.167 -26 -52.5s-38.333 -21.5 -63 -21.5s-45.5 7.16699 -62.5 21.5s-25.5 31.833 -25.5 52.5s8.5 38.167 25.5 52.5s37.833 21.5 62.5 21.5c25.333 0 46.5 -7.16699 63.5 -21.5s25.5 -31.833 25.5 -52.5zM274 550
c0 10.667 -4.5 19.5 -13.5 26.5s-20.167 10.5 -33.5 10.5c-12.667 0 -23.5 -3.5 -32.5 -10.5s-13.5 -15.833 -13.5 -26.5s4.5 -19.334 13.5 -26.001s19.833 -10 32.5 -10c13.333 0 24.5 3.33301 33.5 10s13.5 15.334 13.5 26.001zM268 647h-74l56 86h86zM389 0h-71.998v33
c-9.33301 -10 -25 -19.333 -47 -28s-45.333 -13 -70 -13c-46.667 0 -85.834 13 -117.501 39s-47.5 60.333 -47.5 103c0 40.667 16.333 74 49 100s73 39 121 39c22 0 43.667 -3.66699 65 -11s37 -15.666 47 -24.999v56c0 28.667 -8.5 51.667 -25.5 69s-41.167 26 -72.5 26
c-46.667 0 -77 -20.333 -91 -61h-74c7.33301 37.333 26.166 67.666 56.499 90.999s66.833 35 109.5 35c52.667 0 94 -14 124 -42s45 -66.333 45 -115v-296zM317.002 110v46c-6.66699 16 -19.834 29.167 -39.501 39.5s-41.167 15.5 -64.5 15.5
c-29.333 0 -54.333 -6.66699 -75 -20s-31 -32.333 -31 -57c0 -25.333 10.333 -44.833 31 -58.5s45.667 -20.5 75 -20.5c23.333 0 44.833 5.16699 64.5 15.5s32.834 23.5 39.501 39.5z" />
    <glyph glyph-name="AEacute" unicode="&#x1fc;" horiz-adv-x="862" 
d="M390 614h421v-70h-297v-194h268v-70h-268v-209h297v-71h-374v185h-222l-112 -185h-82zM437 550l-180 -296h180v296zM620 668h-76l80 117h87z" />
    <glyph glyph-name="aeacute" unicode="&#x1fd;" horiz-adv-x="731" 
d="M415 516h-69l80 134h78zM199 55c28 0 52.166 7.33301 72.499 22s34.833 34.334 43.5 59.001v71h-105c-29.333 0 -54.166 -6.33301 -74.499 -19s-30.5 -31.334 -30.5 -56.001s9 -43.667 27 -57s40.333 -20 67 -20zM620.999 133l71.0039 -0.000976562
c-8 -43.333 -27.833 -77.833 -59.5 -103.5s-71.834 -38.5 -120.501 -38.5c-70.667 0 -124.334 28 -161.001 84c-40.667 -55.333 -93.334 -83 -158.001 -83c-45.333 0 -83.166 12.5 -113.499 37.5s-45.5 57.833 -45.5 98.5c0 42 16.167 75.5 48.5 100.5
s73.166 37.5 122.499 37.5h110v27c0 28.667 -8.33301 51.667 -25 69s-40.667 26 -72 26c-48 0 -79 -20.333 -93 -61h-72c7.33301 37.333 26.166 67.666 56.499 90.999s66.833 35 109.5 35c72 0 120 -27 144 -81c37.333 54 86.333 81 147 81c60 0 106.333 -19.833 139 -59.5
s49 -92.5 49 -158.5v-27h-315c0.666992 -47.333 13 -84.666 37 -111.999s54.667 -41 92 -41c28 0 51.667 6.83301 71 20.5s32 32.834 38 57.501zM511.003 388.999c-33.333 0 -61.333 -11 -84 -33s-36.667 -52.333 -42 -91h237c-1.33301 35.333 -11.333 64.833 -30 88.5
s-45.667 35.5 -81 35.5z" />
    <glyph glyph-name="Oslashacute" unicode="&#x1fe;" horiz-adv-x="639" 
d="M56 18l55.999 70.999c-46.667 58.667 -70 131.334 -70 218.001c0 92.667 26 168.5 78 227.5s118.333 88.5 199 88.5c64.667 0 121.334 -20 170.001 -60l47 60l46 -33l-54 -67c46 -57.333 69 -129.333 69 -216c0 -92.667 -26 -168.5 -78 -227.5s-118.667 -88.5 -200 -88.5
c-64.667 0 -120 19 -166 57l-50 -63zM120.999 306.999c0 -64.667 13.001 -117.333 39.001 -158l284 357c-34 30.667 -75.667 46 -125 46c-58.667 0 -106.334 -22.833 -143.001 -68.5s-55 -104.5 -55 -176.5zM518 307c0 62 -12.667 113.667 -38 155l-282 -357
c32 -28.667 72.333 -43 121 -43c59.333 0 107.333 22.833 144 68.5s55 104.5 55 176.5zM351 668h-76l80 117h87z" />
    <glyph glyph-name="oslashacute" unicode="&#x1ff;" horiz-adv-x="488" 
d="M40 1l49.001 62.999c-32.667 40.667 -49 93.334 -49 158.001c0 68 18.833 123.5 56.5 166.5s86.834 64.5 147.501 64.5c45.333 0 84.333 -12.333 117 -37l42 53l41 -29l-46 -60c33.333 -43.333 50 -96 50 -158c0 -68 -18.833 -123.5 -56.5 -166.5
s-86.834 -64.5 -147.501 -64.5c-46.667 0 -86.334 12.667 -119.001 38l-44 -57zM373.001 221.999c0 38 -7.33301 71.001 -22 99.001l-184 -238c20.667 -17.333 46.334 -26 77.001 -26c39.333 0 70.666 15.167 93.999 45.5s35 70.166 35 119.499zM115.001 222
c0 -38.667 6.66602 -71.334 19.999 -98.001l184 237c-20.667 17.333 -45.667 26 -75 26c-39.333 0 -70.666 -15.167 -93.999 -45.5s-35 -70.166 -35 -119.499zM272 516h-69l80 134h78z" />
    <glyph glyph-name="Scommaaccent" unicode="&#x218;" horiz-adv-x="509" 
d="M201 -201l39 64c-12 1.33301 -21.667 6 -29 14s-11 18 -11 30c0 14 4.83301 25.5 14.5 34.5s21.5 13.5 35.5 13.5s25.667 -4.66699 35 -14s14 -21.333 14 -36c0 -15.333 -7.33301 -34.333 -22 -57l-29 -49h-47zM23 160l80 -0.00195312c23.333 -68 75.333 -102 156 -102
c40.667 0 73.5 9.5 98.5 28.5s37.5 45.167 37.5 78.5c0 24.667 -7.66699 44.834 -23 60.501s-40.333 27.834 -75 36.501l-110 29c-98 25.333 -147 78 -147 158c0 51.333 19 93.166 57 125.499s86.333 48.5 145 48.5c62 0 112 -14.5 150 -43.5s63 -68.5 75 -118.5h-79
c-22 63.333 -70.667 95 -146 95c-37.333 0 -67.833 -9.16699 -91.5 -27.5s-35.5 -42.833 -35.5 -73.5c0 -25.333 8 -45.166 24 -59.499s40.667 -25.833 74 -34.5l105 -27c102 -26 153 -81 153 -165c0 -54.667 -19.833 -98 -59.5 -130s-90.5 -48 -152.5 -48
s-114 14.833 -156 44.5s-68.667 71.167 -80 124.5z" />
    <glyph glyph-name="scommaaccent" unicode="&#x219;" horiz-adv-x="414" 
d="M161 -201l39 64c-12 1.33301 -21.667 6 -29 14s-11 18 -11 30c0 14 4.83301 25.5 14.5 34.5s21.5 13.5 35.5 13.5s25.667 -4.66699 35 -14s14 -21.333 14 -36c0 -15.333 -7.33301 -34.333 -22 -57l-29 -49h-47zM30 122h78.001c14 -45.333 49 -68 105 -68
c27.333 0 49.333 5.5 66 16.5s25 27.5 25 49.5c0 30 -22 50.667 -66 62l-88 23c-71.333 18 -107 57 -107 117c0 38.667 15 70.167 45 94.5s68 36.5 114 36.5c48 0 86.667 -11 116 -33s48 -53 56 -93h-75c-13.333 42 -46 63 -98 63c-23.333 0 -43.333 -5.5 -60 -16.5
s-25 -26.833 -25 -47.5c0 -14.667 4.83301 -26.167 14.5 -34.5s25.5 -15.5 47.5 -21.5l86 -21c75.333 -20 113 -61.333 113 -124c0 -41.333 -15.333 -74 -46 -98s-70.334 -36 -119.001 -36s-89.5 11.667 -122.5 35s-52.833 55.333 -59.5 96z" />
    <glyph glyph-name="uni0237" unicode="&#x237;" horiz-adv-x="207" 
d="M142 444l-0.000976562 -495c0 -41.333 -11.167 -73 -33.5 -95s-54.166 -33 -95.499 -33c-14 0 -24.667 1.33301 -32 4v64c12 -2 20.667 -3 26 -3c40 0 60 22.667 60 68v490h75z" />
    <glyph glyph-name="circumflex" unicode="&#x2c6;" 
d="M285 645l92 -136h-65l-62 88l-62 -88h-65l92 136h70z" />
    <glyph glyph-name="caron" unicode="&#x2c7;" 
d="M377 646l-92 -136h-70l-92 136h65l62 -87l62 87h65z" />
    <glyph glyph-name="breve" unicode="&#x2d8;" 
d="M250 500c-34.667 0 -62.332 11.167 -82.999 33.5s-31 53.833 -31 94.5h57c0 -22.667 5 -40.5 15 -53.5s24 -19.5 42 -19.5s32 6.5 42 19.5s15 30.833 15 53.5h57c0 -40.667 -10.333 -72.167 -31 -94.5s-48.334 -33.5 -83.001 -33.5z" />
    <glyph glyph-name="dotaccent" unicode="&#x2d9;" 
d="M298 578c0 -13.333 -4.66699 -24.666 -14 -33.999s-20.666 -14 -33.999 -14s-24.666 4.66699 -33.999 14s-14 20.666 -14 33.999s4.66699 24.666 14 33.999s20.666 14 33.999 14s24.666 -4.66699 33.999 -14s14 -20.666 14 -33.999z" />
    <glyph glyph-name="ring" unicode="&#x2da;" 
d="M337 580c0 -24.667 -8.33301 -45.167 -25 -61.5s-37.334 -24.5 -62.001 -24.5s-45.334 8.16699 -62.001 24.5s-25 36.833 -25 61.5s8.33301 45.167 25 61.5s37.334 24.5 62.001 24.5s45.334 -8.16699 62.001 -24.5s25 -36.833 25 -61.5zM295 580
c0 12.667 -4.33301 23.334 -13 32.001s-19.334 13 -32.001 13s-23.334 -4.33301 -32.001 -13s-13 -19.334 -13 -32.001s4.33301 -23.334 13 -32.001s19.334 -13 32.001 -13s23.334 4.33301 32.001 13s13 19.334 13 32.001z" />
    <glyph glyph-name="ogonek" unicode="&#x2db;" 
d="M249 4l55.999 -0.00195312c-22 -36 -36.167 -60.5 -42.5 -73.5s-9.5 -25.167 -9.5 -36.5c0 -17.333 7.33301 -26 22 -26c10.667 0 23 5 37 15v-50c-16 -12.667 -33.333 -19 -52 -19c-21.333 0 -37.666 5.83301 -48.999 17.5s-17 27.834 -17 48.501
c0 12 2.83301 25.167 8.5 39.5s11 25.833 16 34.5s15.167 25.334 30.5 50.001z" />
    <glyph glyph-name="tilde" unicode="&#x2dc;" 
d="M333 633h48.001c0 -36 -6.5 -64.667 -19.5 -86s-31.833 -32 -56.5 -32c-16.667 0 -35.834 9.66699 -57.501 29s-37.167 29 -46.5 29c-22.667 0 -34 -18.333 -34 -55h-48c0 36 6.5 64.667 19.5 86s31.833 32 56.5 32c16.667 0 35.834 -9.66699 57.501 -29
s37.167 -29 46.5 -29c21.333 0 32.666 18.333 33.999 55z" />
    <glyph glyph-name="hungarumlaut" unicode="&#x2dd;" 
d="M188 516h-63l66 134h65zM307 516h-63l67 134h64z" />
    <glyph glyph-name="Wgrave" unicode="&#x1e80;" horiz-adv-x="767" 
d="M421 668h-75l-92 117h87zM353 614h63l130 -488l126 488h76l-163 -614h-72l-129 479l-131 -479h-71l-163 614h78l126 -488z" />
    <glyph glyph-name="wgrave" unicode="&#x1e81;" horiz-adv-x="629" 
d="M349 444l91 -339l98 339h73l-131 -444h-73l-92 337l-93 -337h-73l-131 444h75l98 -339l91 339h67zM353 516h-69l-89 134h78z" />
    <glyph glyph-name="Wacute" unicode="&#x1e82;" horiz-adv-x="767" 
d="M420 668h-76l80 117h87zM353 614h63l130 -488l126 488h76l-163 -614h-72l-129 479l-131 -479h-71l-163 614h78l126 -488z" />
    <glyph glyph-name="wacute" unicode="&#x1e83;" horiz-adv-x="629" 
d="M344 516h-69l80 134h78zM349 444l91 -339l98 339h73l-131 -444h-73l-92 337l-93 -337h-73l-131 444h75l98 -339l91 339h67z" />
    <glyph glyph-name="Wdieresis" unicode="&#x1e84;" horiz-adv-x="767" 
d="M267 722c0 12.667 4.5 23.5 13.5 32.5s20.167 13.5 33.5 13.5c12.667 0 23.5 -4.5 32.5 -13.5s13.5 -19.833 13.5 -32.5s-4.5 -23.5 -13.5 -32.5s-19.833 -13.5 -32.5 -13.5c-13.333 0 -24.5 4.5 -33.5 13.5s-13.5 19.833 -13.5 32.5zM408 722
c0 12.667 4.33301 23.5 13 32.5s19.334 13.5 32.001 13.5c13.333 0 24.5 -4.5 33.5 -13.5s13.5 -19.833 13.5 -32.5s-4.5 -23.5 -13.5 -32.5s-20.167 -13.5 -33.5 -13.5c-12.667 0 -23.334 4.5 -32.001 13.5s-13 19.833 -13 32.5zM353 614h63l130 -488l126 488h76l-163 -614
h-72l-129 479l-131 -479h-71l-163 614h78l126 -488z" />
    <glyph glyph-name="wdieresis" unicode="&#x1e85;" horiz-adv-x="629" 
d="M198 571c0 13.333 4.5 24.5 13.5 33.5s20.167 13.5 33.5 13.5c12.667 0 23.5 -4.5 32.5 -13.5s13.5 -20.167 13.5 -33.5c0 -12.667 -4.5 -23.5 -13.5 -32.5s-19.833 -13.5 -32.5 -13.5s-23.667 4.5 -33 13.5s-14 19.833 -14 32.5zM339 571c0 13.333 4.33301 24.5 13 33.5
s19.334 13.5 32.001 13.5c13.333 0 24.5 -4.5 33.5 -13.5s13.5 -20.167 13.5 -33.5c0 -12.667 -4.66699 -23.5 -14 -32.5s-20.333 -13.5 -33 -13.5s-23.334 4.5 -32.001 13.5s-13 19.833 -13 32.5zM349 444l91 -339l98 339h73l-131 -444h-73l-92 337l-93 -337h-73l-131 444
h75l98 -339l91 339h67z" />
    <glyph glyph-name="Ygrave" unicode="&#x1ef2;" horiz-adv-x="557" 
d="M280 324l177 290h84l-224 -361v-253h-78v253l-222 361h86zM319 668h-75l-92 117h87z" />
    <glyph glyph-name="ygrave" unicode="&#x1ef3;" horiz-adv-x="455" 
d="M198 -170h-74l67 167l-173 447h81l131 -350l129 350h78zM266 516h-69l-89 134h78z" />
    <glyph glyph-name="endash" unicode="&#x2013;" horiz-adv-x="475" 
d="M40 231v61h395v-61h-395z" />
    <glyph glyph-name="emdash" unicode="&#x2014;" horiz-adv-x="846" 
d="M40 231v61h766v-61h-766z" />
    <glyph glyph-name="quoteleft" unicode="&#x2018;" horiz-adv-x="168" 
d="M149 614l-61.001 -103c12.667 -2 23.167 -7.5 31.5 -16.5s12.5 -20.167 12.5 -33.5c0 -15.333 -5.16699 -28 -15.5 -38s-23.166 -15 -38.499 -15s-28 5.16699 -38 15.5s-15 24.5 -15 42.5c0 17.333 7.33301 38.333 22 63l51 85h51z" />
    <glyph glyph-name="quoteright" unicode="&#x2019;" horiz-adv-x="168" 
d="M19 417l61.001 103c-12.667 2 -23.167 7.5 -31.5 16.5s-12.5 20.167 -12.5 33.5c0 15.333 5.16699 28 15.5 38s23.166 15 38.499 15s28 -5.16699 38 -15.5s15 -24.5 15 -42.5c0 -17.333 -7.33301 -38.333 -22 -63l-51 -85h-51z" />
    <glyph glyph-name="quotesinglbase" unicode="&#x201a;" horiz-adv-x="161" 
d="M19 -103l61.001 103c-12.667 2 -23.167 7.5 -31.5 16.5s-12.5 20.167 -12.5 33.5c0 15.333 5.16699 28 15.5 38s23.166 15 38.499 15s28 -5.16699 38 -15.5s15 -24.5 15 -42.5c0 -17.333 -7.33301 -38.333 -22 -63l-51 -85h-51z" />
    <glyph glyph-name="quotedblleft" unicode="&#x201c;" horiz-adv-x="321" 
d="M149 614l-61.001 -103c12.667 -2 23.167 -7.5 31.5 -16.5s12.5 -20.167 12.5 -33.5c0 -15.333 -5.16699 -28 -15.5 -38s-23.166 -15 -38.499 -15s-28 5.16699 -38 15.5s-15 24.5 -15 42.5c0 17.333 7.33301 38.333 22 63l51 85h51zM301.999 614l-61.001 -103
c12.667 -2 23.167 -7.5 31.5 -16.5s12.5 -20.167 12.5 -33.5c0 -15.333 -5.16699 -28 -15.5 -38s-23.166 -15 -38.499 -15s-28 5.16699 -38 15.5s-15 24.5 -15 42.5c0 17.333 7.33301 38.333 22 63l51 85h51z" />
    <glyph glyph-name="quotedblright" unicode="&#x201d;" horiz-adv-x="321" 
d="M19 417l61.001 103c-12.667 2 -23.167 7.5 -31.5 16.5s-12.5 20.167 -12.5 33.5c0 15.333 5.16699 28 15.5 38s23.166 15 38.499 15s28 -5.16699 38 -15.5s15 -24.5 15 -42.5c0 -17.333 -7.33301 -38.333 -22 -63l-51 -85h-51zM172.001 417l61.001 103
c-12.667 2 -23.167 7.5 -31.5 16.5s-12.5 20.167 -12.5 33.5c0 15.333 5.16699 28 15.5 38s23.166 15 38.499 15s28 -5.16699 38 -15.5s15 -24.5 15 -42.5c0 -17.333 -7.33301 -38.333 -22 -63l-51 -85h-51z" />
    <glyph glyph-name="quotedblbase" unicode="&#x201e;" horiz-adv-x="321" 
d="M19 -103l61.001 103c-12.667 2 -23.167 7.5 -31.5 16.5s-12.5 20.167 -12.5 33.5c0 15.333 5.16699 28 15.5 38s23.166 15 38.499 15s28 -5.16699 38 -15.5s15 -24.5 15 -42.5c0 -17.333 -7.33301 -38.333 -22 -63l-51 -85h-51zM172.001 -103l61.001 103
c-12.667 2 -23.167 7.5 -31.5 16.5s-12.5 20.167 -12.5 33.5c0 15.333 5.16699 28 15.5 38s23.166 15 38.499 15s28 -5.16699 38 -15.5s15 -24.5 15 -42.5c0 -17.333 -7.33301 -38.333 -22 -63l-51 -85h-51z" />
    <glyph glyph-name="dagger" unicode="&#x2020;" horiz-adv-x="317" 
d="M30 502v56h99v92h58v-92h99v-56h-99v-207h-58v207h-99z" />
    <glyph glyph-name="daggerdbl" unicode="&#x2021;" horiz-adv-x="325" 
d="M34 512v53h99v85h58v-85h101v-53h-101v-80h101v-52h-101v-85h-58v85h-99v52h99v80h-99z" />
    <glyph glyph-name="bullet" unicode="&#x2022;" horiz-adv-x="343" 
d="M308 261c0 -39.333 -13.167 -71.833 -39.5 -97.5s-58.833 -38.5 -97.5 -38.5s-71 12.833 -97 38.5s-39 58.167 -39 97.5s13 71.833 39 97.5s58.333 38.5 97 38.5s71.167 -12.833 97.5 -38.5s39.5 -58.167 39.5 -97.5z" />
    <glyph glyph-name="ellipsis" unicode="&#x2026;" horiz-adv-x="554" 
d="M32 49c0 15.333 5.16699 28.333 15.5 39s23.166 16 38.499 16c14.667 0 27.167 -5.33301 37.5 -16s15.5 -23.667 15.5 -39s-5.16699 -28.166 -15.5 -38.499s-22.833 -15.5 -37.5 -15.5c-15.333 0 -28.166 5.16699 -38.499 15.5s-15.5 23.166 -15.5 38.499zM224 49
c0 15.333 5.16699 28.333 15.5 39s22.833 16 37.5 16c15.333 0 28.166 -5.33301 38.499 -16s15.5 -23.667 15.5 -39s-5.16699 -28.166 -15.5 -38.499s-23.166 -15.5 -38.499 -15.5c-14.667 0 -27.167 5.16699 -37.5 15.5s-15.5 23.166 -15.5 38.499zM415 49
c0 15.333 5.16699 28.333 15.5 39s23.166 16 38.499 16c14.667 0 27.167 -5.33301 37.5 -16s15.5 -23.667 15.5 -39s-5.16699 -28.166 -15.5 -38.499s-22.833 -15.5 -37.5 -15.5c-15.333 0 -28.166 5.16699 -38.499 15.5s-15.5 23.166 -15.5 38.499z" />
    <glyph glyph-name="perthousand" unicode="&#x2030;" horiz-adv-x="941" 
d="M99 0l383 614h62l-383 -614h-62zM33 490c0 37.333 12.833 68.833 38.5 94.5s57.167 38.5 94.5 38.5s68.833 -12.833 94.5 -38.5s38.5 -57.167 38.5 -94.5s-12.833 -68.833 -38.5 -94.5s-57.167 -38.5 -94.5 -38.5s-68.833 12.833 -94.5 38.5s-38.5 57.167 -38.5 94.5z
M609 124c0 -37.333 -12.833 -68.833 -38.5 -94.5s-57.167 -38.5 -94.5 -38.5s-68.833 12.833 -94.5 38.5s-38.5 57.167 -38.5 94.5s12.833 68.833 38.5 94.5s57.167 38.5 94.5 38.5s68.833 -12.833 94.5 -38.5s38.5 -57.167 38.5 -94.5zM550 124
c0 20.667 -7.16699 38.167 -21.5 52.5s-31.833 21.5 -52.5 21.5s-38.334 -7.16699 -53.001 -21.5s-22 -31.833 -22 -52.5s7.33301 -38.334 22 -53.001s32.334 -22 53.001 -22s38.167 7.33301 52.5 22s21.5 32.334 21.5 53.001zM908 124c0 -37.333 -13 -68.833 -39 -94.5
s-57.333 -38.5 -94 -38.5s-68 12.833 -94 38.5s-39 57.167 -39 94.5s13 68.833 39 94.5s57.333 38.5 94 38.5s68 -12.833 94 -38.5s39 -57.167 39 -94.5zM849 124c0 20.667 -7.16699 38.167 -21.5 52.5s-31.833 21.5 -52.5 21.5s-38.334 -7.16699 -53.001 -21.5
s-22 -31.833 -22 -52.5s7.33301 -38.334 22 -53.001s32.334 -22 53.001 -22s38.167 7.33301 52.5 22s21.5 32.334 21.5 53.001zM92 490c0 -20.667 7.16699 -38.167 21.5 -52.5s31.833 -21.5 52.5 -21.5s38.334 7.16699 53.001 21.5s22 31.833 22 52.5
s-7.33301 38.334 -22 53.001s-32.334 22 -53.001 22s-38.167 -7.33301 -52.5 -22s-21.5 -32.334 -21.5 -53.001z" />
    <glyph glyph-name="guilsinglleft" unicode="&#x2039;" horiz-adv-x="215" 
d="M190 74h-73l-92 148l92 148h73l-92 -148z" />
    <glyph glyph-name="guilsinglright" unicode="&#x203a;" horiz-adv-x="215" 
d="M98 74h-73l92 148l-92 148h73l92 -148z" />
    <glyph glyph-name="fraction" unicode="&#x2044;" horiz-adv-x="210" 
d="M330 614l-383 -614h-67l383 614h67z" />
    <glyph glyph-name="Euro" unicode="&#x20ac;" horiz-adv-x="543" 
d="M29 339l0.000976562 60.001h60c13.333 69.333 40.833 124 82.5 164s91.167 60 148.5 60c50.667 0 93.334 -14.667 128.001 -44s57.667 -70.666 69 -123.999h-72c-9.33301 31.333 -24.666 55.666 -45.999 72.999s-47.666 26 -78.999 26c-38 0 -70.5 -13.833 -97.5 -41.5
s-45.833 -65.5 -56.5 -113.5h205l-12 -60h-201c-0.666992 -7.33301 -1 -18 -1 -32c0 -16.667 0.333008 -29 1 -37h191l-12 -60h-170c11.333 -46.667 30.166 -83.334 56.499 -110.001s58.5 -40 96.5 -40c31.333 0 57.666 8.66699 78.999 26s36.666 41.666 45.999 72.999h72
c-11.333 -53.333 -34.333 -94.666 -69 -123.999s-77.334 -44 -128.001 -44c-56.667 0 -105.5 19.5 -146.5 58.5s-68.833 92.5 -83.5 160.5h-61v60h53c-0.666992 8 -1 20.333 -1 37c0 14 0.333008 24.667 1 32h-53z" />
    <glyph glyph-name="uni2117" unicode="&#x2117;" horiz-adv-x="706" 
d="M669 307c0 -90.667 -30.667 -166 -92 -226s-136 -90 -224 -90s-162.667 30 -224 90s-92 135.333 -92 226s30.667 166 92 226s136 90 224 90s162.667 -30 224 -90s92 -135.333 92 -226zM630 307c0 79.333 -26.833 145.333 -80.5 198s-119.167 79 -196.5 79
s-142.833 -26.333 -196.5 -79s-80.5 -118.667 -80.5 -198s26.833 -145.333 80.5 -198s119.167 -79 196.5 -79s142.833 26.333 196.5 79s80.5 118.667 80.5 198zM389 254h-83v-130h-69v369h152c39.333 0 70.5 -10.333 93.5 -31s34.5 -50 34.5 -88s-11.5 -67.5 -34.5 -88.5
s-54.167 -31.5 -93.5 -31.5zM449 374c0 18 -5.5 32.167 -16.5 42.5s-26.833 15.5 -47.5 15.5h-79v-116h79c42.667 0 64 19.333 64 58z" />
    <glyph glyph-name="trademark" unicode="&#x2122;" horiz-adv-x="586" 
d="M18 568v46h217v-46h-81v-208h-54v208h-82zM427 360h-36l-65 168v-168h-50v254h64l69 -180l69 180h64v-254h-50v168z" />
    <glyph glyph-name="uni2153" unicode="&#x2153;" horiz-adv-x="685" 
d="M569 614l-429 -614h-67l429 614h67zM492 145l0.00195312 47.999h23c15.333 0 27.833 4 37.5 12s14.5 19.333 14.5 34c0 13.333 -4.5 24.166 -13.5 32.499s-20.833 12.5 -35.5 12.5c-14 0 -25.833 -4.5 -35.5 -13.5s-15.5 -20.833 -17.5 -35.5h-62
c3.33301 30 15.166 54.667 35.499 74s46.166 29 77.499 29c34 0 60.833 -9 80.5 -27s29.5 -41.333 29.5 -70c0 -16 -4.33301 -30.667 -13 -44s-19.667 -22.666 -33 -27.999c34 -12 51 -36 51 -72c0 -30 -10.167 -54.5 -30.5 -73.5s-48.166 -28.5 -83.499 -28.5
c-34.667 0 -62.334 9.33301 -83.001 28s-32.667 44.334 -36 77.001h64c4.66699 -34 23.667 -51 57 -51c16 0 28.667 4.33301 38 13s14 20.667 14 36c0 14.667 -5 26.167 -15 34.5s-23 12.5 -39 12.5h-25zM191.002 614.999v-333h-62v259l-88 -44v64l108 54h42z" />
    <glyph glyph-name="uni2154" unicode="&#x2154;" horiz-adv-x="745" 
d="M629 614l-429 -614h-67l429 614h67zM210 522c0 12.667 -4.33203 23.168 -12.999 31.501s-19.667 12.5 -33 12.5c-14.667 0 -26.334 -5 -35.001 -15s-13.667 -22.667 -15 -38h-66c3.33301 32 15.5 58.167 36.5 78.5s47.5 30.5 79.5 30.5c33.333 0 59.666 -9 78.999 -27
s29 -42 29 -72c0 -13.333 -3.66699 -27 -11 -41s-14.166 -24.667 -20.499 -32l-32.5 -36l-74 -75h141v-55h-226v43l112 117c17.333 18 29.833 32.667 37.5 44s11.5 22.666 11.5 33.999zM552.001 145.001l0.00292969 47.999h23c15.333 0 27.833 4 37.5 12
s14.5 19.333 14.5 34c0 13.333 -4.5 24.166 -13.5 32.499s-20.833 12.5 -35.5 12.5c-14 0 -25.833 -4.5 -35.5 -13.5s-15.5 -20.833 -17.5 -35.5h-62c3.33301 30 15.166 54.667 35.499 74s46.166 29 77.499 29c34 0 60.833 -9 80.5 -27s29.5 -41.333 29.5 -70
c0 -16 -4.33301 -30.667 -13 -44s-19.334 -22.666 -32.001 -27.999c33.333 -12 50 -36 50 -72c0 -30 -10.167 -54.5 -30.5 -73.5s-48.166 -28.5 -83.499 -28.5c-34.667 0 -62.334 9.33301 -83.001 28s-32.667 44.334 -36 77.001h65c3.33301 -34 22 -51 56 -51
c16 0 28.667 4.33301 38 13s14 20.667 14 36c0 14.667 -5 26.167 -15 34.5s-23 12.5 -39 12.5h-25z" />
    <glyph glyph-name="uni215B" unicode="&#x215b;" horiz-adv-x="691" 
d="M569 614l-429 -614h-67l429 614h67zM519 46c17.333 0 31.333 4.83301 42 14.5s16 21.834 16 36.501s-5.5 26.667 -16.5 36s-24.833 14 -41.5 14s-30.5 -4.66699 -41.5 -14s-16.5 -21.333 -16.5 -36s5.33301 -26.834 16 -36.501s24.667 -14.5 42 -14.5zM519 199
c14 0 25.667 4.33105 35 12.998s14 19.334 14 32.001c0 13.333 -4.66699 24.166 -14 32.499s-21 12.5 -35 12.5c-14.667 0 -26.667 -4.16699 -36 -12.5s-14 -19.166 -14 -32.499s4.66699 -24.166 14 -32.499s21.333 -12.5 36 -12.5zM519 -4.00195
c-34 0 -62.5 8.83301 -85.5 26.5s-34.5 40.834 -34.5 69.501c0 20 5.5 37 16.5 51s25.167 23.667 42.5 29c-31.333 14 -47 38.333 -47 73c0 28.667 10.167 51.334 30.5 68.001s46.166 25 77.499 25c30.667 0 56.334 -8.33301 77.001 -25s31 -39.334 31 -68.001
c0 -34 -16 -58.333 -48 -73c17.333 -5.33301 31.5 -15 42.5 -29s16.5 -31 16.5 -51c0 -28.667 -11.333 -51.834 -34 -69.501s-51 -26.5 -85 -26.5zM191 614.998v-333h-62v259l-88 -44v64l108 54h42z" />
    <glyph glyph-name="uni215C" unicode="&#x215c;" horiz-adv-x="730" 
d="M558 46c16.667 0 30.5 4.83301 41.5 14.5s16.5 21.834 16.5 36.501s-5.5 26.667 -16.5 36s-24.833 14 -41.5 14s-30.5 -4.66699 -41.5 -14s-16.5 -21.333 -16.5 -36s5.33301 -26.834 16 -36.501s24.667 -14.5 42 -14.5zM558 199c14 0 25.667 4.33301 35 13
s14 19.334 14 32.001c0 13.333 -4.66699 24.166 -14 32.499s-21 12.5 -35 12.5c-14.667 0 -26.834 -4.16699 -36.501 -12.5s-14.5 -19.166 -14.5 -32.499c0 -12.667 4.83301 -23.334 14.5 -32.001s21.834 -13 36.501 -13zM558 -4c-34 0 -62.5 8.83301 -85.5 26.5
s-34.5 40.834 -34.5 69.501c0 20 5.5 37 16.5 51s25.167 23.667 42.5 29c-32 14.667 -48 39 -48 73c0 28.667 10.333 51.334 31 68.001s46.667 25 78 25c30 0 55.5 -8.33301 76.5 -25s31.5 -39.334 31.5 -68.001c0 -34 -16 -58.333 -48 -73
c17.333 -5.33301 31.5 -15 42.5 -29s16.5 -31 16.5 -51c0 -28.667 -11.333 -51.834 -34 -69.501s-51 -26.5 -85 -26.5zM608 614l-429 -614h-67l428 614h68zM140 427l-0.000976562 48.001h24c15.333 0 27.666 4 36.999 12s14 19.333 14 34c0 13.333 -4.5 24.166 -13.5 32.499
s-20.833 12.5 -35.5 12.5c-14 0 -25.833 -4.66699 -35.5 -14s-15.167 -21 -16.5 -35h-63c4 30 16 54.5 36 73.5s45.667 28.5 77 28.5c34 0 60.833 -8.83301 80.5 -26.5s29.5 -40.834 29.5 -69.501c0 -16.667 -4.16699 -31.5 -12.5 -44.5s-19.166 -22.167 -32.499 -27.5
c33.333 -12 50 -36.333 50 -73c0 -29.333 -10.167 -53.5 -30.5 -72.5s-47.833 -28.5 -82.5 -28.5c-35.333 0 -63.333 9.33301 -84 28s-32.667 44.334 -36 77.001h65c4.66699 -34 23.334 -51 56.001 -51c16 0 28.833 4.33301 38.5 13s14.5 20.667 14.5 36
c0 14.667 -5 26.167 -15 34.5s-23 12.5 -39 12.5h-26z" />
    <glyph glyph-name="uni215D" unicode="&#x215d;" horiz-adv-x="733" 
d="M562 46c16.667 0 30.5 4.83301 41.5 14.5s16.5 21.834 16.5 36.501s-5.5 26.667 -16.5 36s-24.833 14 -41.5 14s-30.5 -4.66699 -41.5 -14s-16.5 -21.333 -16.5 -36s5.33301 -26.834 16 -36.501s24.667 -14.5 42 -14.5zM562 199c14 0 25.667 4.33301 35 13
s14 19.334 14 32.001c0 13.333 -4.66699 24.166 -14 32.499s-21 12.5 -35 12.5c-14.667 0 -26.834 -4.16699 -36.501 -12.5s-14.5 -19.166 -14.5 -32.499c0 -12.667 4.83301 -23.334 14.5 -32.001s21.834 -13 36.501 -13zM562 -4c-34.667 0 -63.333 8.83301 -86 26.5
s-34 40.834 -34 69.501c0 20 5.5 37 16.5 51s25.167 23.667 42.5 29c-32 14.667 -48 39 -48 73c0 28.667 10.333 51.334 31 68.001s46.667 25 78 25c30 0 55.5 -8.33301 76.5 -25s31.5 -39.334 31.5 -68.001c0 -34 -16 -58.333 -48 -73c17.333 -5.33301 31.5 -15 42.5 -29
s16.5 -31 16.5 -51c0 -28.667 -11.333 -51.834 -34 -69.501s-51 -26.5 -85 -26.5zM612.001 614l-429 -614h-67l428 614h68zM171.001 447c-20 0 -36.001 -8.00098 -48.001 -24.001h-54v191h194v-55h-142v-77c15.333 11.333 34 17 56 17c32 0 58 -10.333 78 -31s30 -47 30 -79
c0 -33.333 -10.5 -60.333 -31.5 -81s-48.5 -31 -82.5 -31c-34.667 0 -62.667 9.5 -84 28.5s-33.666 44.5 -36.999 76.5h64c2.66699 -15.333 9 -27.666 19 -36.999s23 -14 39 -14c15.333 0 28 5.5 38 16.5s15 24.5 15 40.5c0 16.667 -5 30.667 -15 42s-23 17 -39 17z" />
    <glyph glyph-name="uni215E" unicode="&#x215e;" horiz-adv-x="673" 
d="M502 46c16.667 0 30.5 4.83301 41.5 14.5s16.5 21.834 16.5 36.501s-5.5 26.667 -16.5 36s-24.833 14 -41.5 14s-30.5 -4.66699 -41.5 -14s-16.5 -21.333 -16.5 -36s5.33301 -26.834 16 -36.501s24.667 -14.5 42 -14.5zM502 199c14 0 25.667 4.33301 35 13
s14 19.334 14 32.001c0 13.333 -4.66699 24.166 -14 32.499s-21 12.5 -35 12.5c-14.667 0 -26.834 -4.16699 -36.501 -12.5s-14.5 -19.166 -14.5 -32.499c0 -12.667 4.83301 -23.334 14.5 -32.001s21.834 -13 36.501 -13zM502 -4c-34.667 0 -63.333 8.83301 -86 26.5
s-34 40.834 -34 69.501c0 20 5.5 37 16.5 51s25.167 23.667 42.5 29c-32 14.667 -48 39 -48 73c0 28.667 10.333 51.334 31 68.001s46.667 25 78 25c30 0 55.5 -8.33301 76.5 -25s31.5 -39.334 31.5 -68.001c0 -34 -16 -58.333 -48 -73c17.333 -5.33301 31.5 -15 42.5 -29
s16.5 -31 16.5 -51c0 -28.667 -11.333 -51.834 -34 -69.501s-51 -26.5 -85 -26.5zM551.001 614l-428 -614h-67l428 614h67zM270.001 568l-109 -287h-65l107 277h-157v56h224v-46z" />
    <glyph glyph-name="minus" unicode="&#x2212;" horiz-adv-x="540" 
d="M73 266v62h394v-62h-394z" />
    <glyph glyph-name="approxequal" unicode="&#x2248;" horiz-adv-x="551" 
d="M79 308l-0.00195312 62c34 26.667 69.333 40 106 40c22.667 0 52.667 -6.83301 90 -20.5s67 -20.5 89 -20.5c34.667 0 71 14.333 109 43v-61c-37.333 -28 -73.666 -42 -108.999 -42c-22.667 0 -52.667 7 -90 21s-67 21 -89 21c-35.333 0 -70.666 -14.333 -105.999 -43z
M78.998 184v61c34 27.333 69.333 41 106 41c22.667 0 52.667 -7 90 -21s67 -21 89 -21c36 0 72.333 14.333 109 43v-61c-36.667 -27.333 -73 -41 -109 -41c-22.667 0 -52.667 6.83301 -90 20.5s-67 20.5 -89 20.5c-34.667 0 -70 -14 -106 -42z" />
    <glyph glyph-name="notequal" unicode="&#x2260;" horiz-adv-x="551" 
d="M79 338v57h238l68 93h59l-68 -93h97v-57h-139l-60 -82h199v-57h-240l-67 -92h-59l67 92h-95v57h136l60 82h-196z" />
    <glyph glyph-name="lessequal" unicode="&#x2264;" horiz-adv-x="427" 
d="M63 308v74l297 121v-68l-230 -90l230 -91v-67zM63 91v62h297v-62h-297z" />
    <glyph glyph-name="greaterequal" unicode="&#x2265;" horiz-adv-x="427" 
d="M364 382v-74l-297 -121v67l229 91l-229 90v68zM364 153v-62h-297v62h297z" />
    <glyph glyph-name="fi" unicode="&#xfb01;" horiz-adv-x="498" 
d="M431 444v-444h-75v444h75zM442 578c0 -13.333 -4.83105 -24.666 -14.498 -33.999s-21.167 -14 -34.5 -14c-12.667 0 -23.834 4.66699 -33.501 14s-14.5 20.666 -14.5 33.999s4.66699 24.666 14 33.999s20.666 14 33.999 14s24.833 -4.66699 34.5 -14
s14.5 -20.666 14.5 -33.999zM289.002 649l0.000976562 -67.999c-12.667 8 -28.334 12 -47.001 12c-22.667 0 -40.5 -7 -53.5 -21s-19.5 -34 -19.5 -60v-68h100v-64h-100v-380h-74v380h-75v64h75v74c0 43.333 12.667 77.666 38 102.999s58 38 98 38
c22.667 0 42 -3.33301 58 -10z" />
    <glyph glyph-name="fl" unicode="&#xfb02;" horiz-adv-x="498" 
d="M431 650v-650h-75v650h75zM289 649l0.000976562 -67.999c-12.667 8 -28.334 12 -47.001 12c-22.667 0 -40.5 -7 -53.5 -21s-19.5 -34 -19.5 -60v-68h100v-64h-100v-380h-74v380h-75v64h75v74c0 43.333 12.667 77.666 38 102.999s58 38 98 38c22.667 0 42 -3.33301 58 -10
z" />
    <glyph glyph-name=".null" horiz-adv-x="0" 
 />
    <glyph glyph-name="nonmarkingreturn" horiz-adv-x="333" 
 />
    <glyph glyph-name="i.dot" horiz-adv-x="209" 
d="M142 444v-444h-75v444h75zM152 578c0 -13.333 -4.66699 -24.666 -14 -33.999s-20.666 -14 -33.999 -14s-24.666 4.66699 -33.999 14s-14 20.666 -14 33.999s4.66699 24.666 14 33.999s20.666 14 33.999 14s24.666 -4.66699 33.999 -14s14 -20.666 14 -33.999z" />
    <glyph glyph-name="space_uni0326" 
d="M204 -201l39 64c-12 1.33301 -21.667 6 -29 14s-11 18 -11 30c0 14 4.83301 25.5 14.5 34.5s21.5 13.5 35.5 13.5s25.667 -4.66699 35 -14s14 -21.333 14 -36c0 -15.333 -7.33301 -34.333 -22 -57l-29 -49h-47z" />
    <glyph glyph-name="space_uni0326.alt" 
d="M297 680l-39.999 -65c12 -1.33301 21.833 -6.16602 29.5 -14.499s11.5 -18.833 11.5 -31.5c0 -14 -4.83301 -25.5 -14.5 -34.5s-21.834 -13.5 -36.501 -13.5c-14 0 -25.833 4.66699 -35.5 14s-14.5 21.666 -14.5 36.999c0 17.333 7.33301 37 22 59l29 49h49z" />
    <glyph glyph-name="space_dotbelowcomb" 
d="M298 -108c0 -13.333 -4.66699 -24.666 -14 -33.999s-20.666 -14 -33.999 -14s-24.666 4.66699 -33.999 14s-14 20.666 -14 33.999s4.66699 24.666 14 33.999s20.666 14 33.999 14s24.666 -4.66699 33.999 -14s14 -20.666 14 -33.999z" />
    <glyph glyph-name="caron.Slovak" 
d="M258 486h-60l33 164h60z" />
    <glyph glyph-name="cedilla.alt" 
d="M250 -183h-71l66 132h74z" />
    <glyph glyph-name="grave.cap" 
d="M333 668h-75l-92 117h87z" />
    <glyph glyph-name="acute.cap" 
d="M242 668h-76l80 117h87z" />
    <glyph glyph-name="circumflex.cap" 
d="M285 791l92 -122h-68l-59 71l-59 -71h-68l92 122h70z" />
    <glyph glyph-name="caron.cap" 
d="M215 666l-92 121h68l59 -71l59 71h68l-92 -121h-70z" />
    <glyph glyph-name="tilde.cap" 
d="M336 784h48.0029c0 -36.667 -6.5 -65.667 -19.5 -87s-31.833 -32 -56.5 -32c-17.333 0 -37.333 9.33301 -60 28s-39.334 28 -50.001 28c-22.667 0 -34 -17.667 -34 -53h-49c0 36.667 6.5 65.667 19.5 87s31.833 32 56.5 32c18 0 38.167 -9.33301 60.5 -28
s39.166 -28 50.499 -28c21.333 0 32.666 17.667 33.999 53z" />
    <glyph glyph-name="macron.cap" 
d="M143 671v61h213v-61h-213z" />
    <glyph glyph-name="breve.cap" 
d="M249 666c-34.667 0 -62.5 10.501 -83.5 31.501s-31.5 50.5 -31.5 88.5h57c0 -20.667 5.33301 -36.5 16 -47.5s24.667 -16.5 42 -16.5c18 0 32.333 5.5 43 16.5s16 26.833 16 47.5h57c0 -38.667 -10.5 -68.334 -31.5 -89.001s-49.167 -31 -84.5 -31z" />
    <glyph glyph-name="dotaccent.cap" 
d="M298 721c0 -12.667 -4.66699 -23.834 -14 -33.501s-20.666 -14.5 -33.999 -14.5s-24.666 4.83301 -33.999 14.5s-14 20.834 -14 33.501c0 13.333 4.66699 24.833 14 34.5s20.666 14.5 33.999 14.5s24.666 -4.83301 33.999 -14.5s14 -21.167 14 -34.5z" />
    <glyph glyph-name="dieresis.cap" 
d="M133 722c0 12.667 4.5 23.5 13.5 32.5s20.167 13.5 33.5 13.5c12.667 0 23.5 -4.5 32.5 -13.5s13.5 -19.833 13.5 -32.5s-4.5 -23.5 -13.5 -32.5s-19.833 -13.5 -32.5 -13.5c-13.333 0 -24.5 4.5 -33.5 13.5s-13.5 19.833 -13.5 32.5zM274 722
c0 12.667 4.33301 23.5 13 32.5s19.334 13.5 32.001 13.5c13.333 0 24.5 -4.5 33.5 -13.5s13.5 -19.833 13.5 -32.5s-4.5 -23.5 -13.5 -32.5s-20.167 -13.5 -33.5 -13.5c-12.667 0 -23.334 4.5 -32.001 13.5s-13 19.833 -13 32.5z" />
    <glyph glyph-name="ring.cap" 
d="M337 734c0 -24 -8.33301 -44.333 -25 -61s-37.334 -25 -62.001 -25s-45.334 8.33301 -62.001 25s-25 37 -25 61c0 24.667 8.33301 45.334 25 62.001s37.334 25 62.001 25s45.334 -8.33301 62.001 -25s25 -37.334 25 -62.001zM295 734c0 12.667 -4.33301 23.5 -13 32.5
s-19.334 13.5 -32.001 13.5s-23.334 -4.5 -32.001 -13.5s-13 -19.833 -13 -32.5s4.33301 -23.334 13 -32.001s19.334 -13 32.001 -13s23.334 4.33301 32.001 13s13 19.334 13 32.001z" />
    <glyph glyph-name="hungarumlaut.cap" 
d="M187 668h-65l67 117h66zM310 668h-65l66 117h67z" />
    <glyph glyph-name="exclamdown.cap" horiz-adv-x="203" 
d="M48 565c0 15.333 5.16699 28.166 15.5 38.499s22.833 15.5 37.5 15.5c15.333 0 28.166 -5.16699 38.499 -15.5s15.5 -23.166 15.5 -38.499s-5.16699 -28.333 -15.5 -39s-23.166 -16 -38.499 -16c-14.667 0 -27.167 5.33301 -37.5 16s-15.5 23.667 -15.5 39zM57 0l17 421
h54l18 -421h-89z" />
    <glyph glyph-name="questiondown.cap" horiz-adv-x="432" 
d="M262 564c0 -15.333 -5.16699 -28.333 -15.5 -39s-22.833 -16 -37.5 -16c-15.333 0 -28.166 5.33301 -38.499 16s-15.5 23.667 -15.5 39s5.16699 28.166 15.5 38.499s23.166 15.5 38.499 15.5c14.667 0 27.167 -5.16699 37.5 -15.5s15.5 -23.166 15.5 -38.499zM24 162
c0 8 0.49707 15.8359 1.49707 23.5029s3.16699 15.5 6.5 23.5s5.83301 14.667 7.5 20s5.66699 12.333 12 21s10.333 14.667 12 18s6.83398 9.83301 15.501 19.5s13.5 15.167 14.5 16.5s6.5 7.33301 16.5 18l16 16c27.333 29.333 41.666 56.666 42.999 81.999h74
c-1.33301 -24 -6.16602 -44.333 -14.499 -61s-22.833 -36.334 -43.5 -59.001c-3.33301 -4 -12.166 -13.5 -26.499 -28.5s-24.5 -26.333 -30.5 -34s-12.167 -18.5 -18.5 -32.5s-9.5 -28 -9.5 -42c0 -31.333 10 -56.333 30 -75s47 -28 81 -28c35.333 0 63.333 11.167 84 33.5
s32.667 52.166 36 89.499h81c-6 -58 -27.167 -104.667 -63.5 -140s-82.166 -53 -137.499 -53c-58 0 -103.667 15.5 -137 46.5s-50 72.833 -50 125.5z" />
    <glyph glyph-name="guilsinglleft.cap" horiz-adv-x="215" 
d="M190 158h-73l-92 147l92 148h73l-92 -148z" />
    <glyph glyph-name="guilsinglright.cap" horiz-adv-x="215" 
d="M98 158h-73l92 147l-92 148h73l92 -148z" />
    <glyph glyph-name="guillemotleft.cap" horiz-adv-x="357" 
d="M187 158h-70l-92 147l92 148h70l-92 -148zM332 158h-70l-92 147l92 148h70l-92 -148z" />
    <glyph glyph-name="guillemotright.cap" horiz-adv-x="357" 
d="M240 158h-70l92 147l-92 148h70l92 -148zM95 158h-70l92 147l-92 148h70l92 -148z" />
    <glyph glyph-name="slash.cap" horiz-adv-x="333" 
d="M5 -64l248 734h75l-248 -734h-75z" />
    <glyph glyph-name="backslash.cap" horiz-adv-x="333" 
d="M80 670l248 -734h-75l-248 734h75z" />
    <glyph glyph-name="bar.cap" horiz-adv-x="219" 
d="M73 -64v734h73v-734h-73z" />
    <glyph glyph-name="periodcentered.cap" horiz-adv-x="176" 
d="M34 302c0 15.333 5.16699 28.333 15.5 39s23.166 16 38.499 16c14.667 0 27.167 -5.33301 37.5 -16s15.5 -23.667 15.5 -39s-5.16699 -28.166 -15.5 -38.499s-22.833 -15.5 -37.5 -15.5c-15.333 0 -28.166 5.16699 -38.499 15.5s-15.5 23.166 -15.5 38.499z" />
    <glyph glyph-name="bullet.cap" horiz-adv-x="343" 
d="M308 301c0 -39.333 -13.167 -71.833 -39.5 -97.5s-58.833 -38.5 -97.5 -38.5s-71 12.833 -97 38.5s-39 58.167 -39 97.5s13 71.833 39 97.5s58.333 38.5 97 38.5s71.167 -12.833 97.5 -38.5s39.5 -58.167 39.5 -97.5z" />
    <glyph glyph-name="hyphen.cap" horiz-adv-x="321" 
d="M40 266v70h241v-70h-241z" />
    <glyph glyph-name="endash.cap" horiz-adv-x="475" 
d="M40 271v61h395v-61h-395z" />
    <glyph glyph-name="emdash.cap" horiz-adv-x="846" 
d="M40 271v61h766v-61h-766z" />
    <glyph glyph-name="parenleft.cap" horiz-adv-x="321" 
d="M30 301c0 91.333 24.167 170.001 72.5 236.001s113.5 109.667 195.5 131v-80c-55.333 -13.333 -101.333 -45.833 -138 -97.5s-55 -114.834 -55 -189.501c0 -74 18.333 -136.833 55 -188.5s82.667 -84.5 138 -98.5v-80c-82 21.333 -147.167 65 -195.5 131
s-72.5 144.667 -72.5 236z" />
    <glyph glyph-name="parenright.cap" horiz-adv-x="321" 
d="M291 301c0 -91.333 -24.167 -170.001 -72.5 -236.001s-113.5 -109.667 -195.5 -131v80c55.333 14 101.333 46.833 138 98.5s55 114.5 55 188.5c0 74.667 -18.333 137.834 -55 189.501s-82.667 84.167 -138 97.5v80c82 -21.333 147.167 -65 195.5 -131
s72.5 -144.667 72.5 -236z" />
    <glyph glyph-name="bracketleft.cap" horiz-adv-x="313" 
d="M145 600v-597h145v-69h-217v734h217v-68h-145z" />
    <glyph glyph-name="bracketright.cap" horiz-adv-x="313" 
d="M168 3v597h-145v68h217v-734h-217v69h145z" />
    <glyph glyph-name="braceleft.cap" horiz-adv-x="339" 
d="M175 225v-186.001c0 -24 12 -36 36 -36h105v-69h-104c-32.667 0 -59.334 10.5 -80.001 31.5s-31 48.167 -31 81.5v183c0 24 -11.667 36 -35 36h-46v70h46c23.333 0 35 12.333 35 37v183c0 33.333 10.333 60.333 31 81s47.334 31 80.001 31h104v-68h-105
c-24 0 -36 -12.333 -36 -37v-185c0 -34 -14.333 -59.667 -43 -77c28.667 -17.333 43 -42.666 43 -75.999z" />
    <glyph glyph-name="braceright.cap" horiz-adv-x="339" 
d="M164 39v186.001c0 33.333 14.333 58.666 43 75.999c-28.667 17.333 -43 43 -43 77v185c0 24.667 -12 37 -36 37h-105v68h104c32.667 0 59.334 -10.333 80.001 -31s31 -47.667 31 -81v-183c0 -24.667 11.667 -37 35 -37h46v-70h-46c-23.333 0 -35 -12 -35 -36v-183
c0 -33.333 -10.333 -60.5 -31 -81.5s-47.334 -31.5 -80.001 -31.5h-104v69h105c24 0 36 12 36 36z" />
    <glyph glyph-name="at.cap" horiz-adv-x="774" 
d="M560 473l-43.002 -242.998c-6 -36 7.33301 -54 40 -54c36.667 0 66.667 16.667 90 50s35 79 35 137c0 72 -25.333 129.833 -76 173.5s-115.667 65.5 -195 65.5c-93.333 0 -169.5 -30.333 -228.5 -91s-88.5 -137.667 -88.5 -231c0 -50.667 9.33301 -95.334 28 -134.001
s43.834 -68.5 75.501 -89.5s65.334 -36.667 101.001 -47s73.5 -15.5 113.5 -15.5c77.333 0 149.666 15.333 216.999 46v-57c-62.667 -30 -135 -45 -217 -45c-40 0 -78.167 4.16699 -114.5 12.5s-70.666 21.333 -102.999 39s-60.5 39.667 -84.5 66s-43 58.666 -57 96.999
s-21 80.833 -21 127.5c0 106.667 35.333 196.334 106 269.001s161.667 109 273 109c97.333 0 176.833 -28 238.5 -84s92.5 -126.333 92.5 -211c0 -76.667 -19.167 -136 -57.5 -178s-84.166 -63 -137.499 -63c-24 0 -45 5.16699 -63 15.5s-30.333 24.5 -37 42.5
c-10 -16.667 -24.5 -30.334 -43.5 -41.001s-38.5 -16 -58.5 -16c-40.667 0 -72.834 14 -96.501 42s-35.5 63.333 -35.5 106c0 56.667 17.167 106 51.5 148s77.833 63 130.5 63c42 0 72.333 -15.333 91 -46l7 37h67zM449.998 243.002l23.002 124c-6 15.333 -15.5 28 -28.5 38
s-28.167 15 -45.5 15c-34.667 0 -62.834 -14.833 -84.501 -44.5s-32.5 -63.5 -32.5 -101.5c0 -26.667 6.83301 -48.167 20.5 -64.5s32.5 -24.5 56.5 -24.5c35.333 0 65.666 19.333 90.999 58z" />
    <glyph glyph-name="Euro.lt" horiz-adv-x="520" 
d="M24 339l-0.000976562 60.0029h64c12.667 69.333 39 124 79 164s87.333 60 142 60c48.667 0 89.667 -14.833 123 -44.5s55.333 -70.834 66 -123.501h-74c-17.333 66 -56.333 99 -117 99c-35.333 0 -65.5 -13.833 -90.5 -41.5s-42.5 -65.5 -52.5 -113.5h192l-12 -60h-187
c-0.666992 -7.33301 -1 -18 -1 -32c0 -16.667 0.333008 -29 1 -37h177l-12 -60h-156c10 -46.667 27.333 -83.334 52 -110.001s54.334 -40 89.001 -40c60.667 0 99.667 33 117 99h74c-10.667 -52.667 -32.667 -93.834 -66 -123.501s-74.333 -44.5 -123 -44.5
c-54 0 -100.833 19.5 -140.5 58.5s-66.167 92.5 -79.5 160.5h-65v60h57c-0.666992 8 -1 20.333 -1 37c0 14 0.333008 24.667 1 32h-57z" />
    <glyph glyph-name="dollar.lt" horiz-adv-x="520" 
d="M235 -89l0.000976562 98.9971c-48 5.33301 -88.333 21.5 -121 48.5s-53.667 62.833 -63 107.5h77c20.667 -61.333 68 -92 142 -92c38 0 68.667 8.83301 92 26.5s35 41.834 35 72.501c0 22.667 -7 41.334 -21 56.001s-37 26.334 -69 35.001l-103 27
c-92 23.333 -138 74 -138 152c0 45.333 15.667 82.833 47 112.5s72 46.167 122 49.5v90h68v-93c86 -14.667 139.667 -64.334 161 -149.001h-74c-20.667 58.667 -66 88 -136 88c-34.667 0 -62.834 -8.5 -84.501 -25.5s-32.5 -39.833 -32.5 -68.5c0 -24 7.5 -42.667 22.5 -56
s38.167 -24.333 69.5 -33l97 -25c95.333 -24.667 143 -77 143 -157c0 -46.667 -15.167 -84.667 -45.5 -114s-70.5 -46.666 -120.5 -51.999v-99h-68z" />
    <glyph glyph-name="cent.lt" horiz-adv-x="520" 
d="M69 232c0 62.667 15.666 114.675 46.999 156.008s73 65.666 125 72.999v87h69v-88c38.667 -6.66699 69.834 -22.834 93.501 -48.501s38.5 -57.834 44.5 -96.501h-75c-4.66699 25.333 -16 45.333 -34 60s-40.667 22 -68 22c-38 0 -68.5 -15.333 -91.5 -46
s-34.5 -70.334 -34.5 -119.001s11.5 -88.334 34.5 -119.001s53.5 -46 91.5 -46c27.333 0 50 7.33301 68 22s29.333 34.667 34 60h75c-5.33301 -38.667 -20 -70.834 -44 -96.501s-55.333 -41.834 -94 -48.501v-91h-69v90c-52 7.33301 -93.667 31.666 -125 72.999
s-47 93.333 -47 156z" />
    <glyph glyph-name="sterling.lt" horiz-adv-x="520" 
d="M200 425l0.00292969 -91h155v-62h-155v-116c0 -41.333 -7.33301 -71.666 -22 -90.999h296v-65h-430v65h61c14.667 24 22 54.333 22 91v116h-83v62h83v91c0 58 16.667 105.5 50 142.5s76.666 55.5 129.999 55.5c47.333 0 85.666 -13.167 114.999 -39.5
s47.333 -61.5 54 -105.5h-74c-8.66699 52.667 -40.334 79 -95.001 79c-33.333 0 -59.5 -11.833 -78.5 -35.5s-28.5 -55.834 -28.5 -96.501z" />
    <glyph glyph-name="yen.lt" horiz-adv-x="520" 
d="M64 264v59h128l-168 291h84l153 -275l153 275h81l-168 -291h128v-59h-157v-70h157v-60h-157v-134h-77v134h-157v60h157v70h-157z" />
    <glyph glyph-name="florin.lt" horiz-adv-x="520" 
d="M153 281l-0.00195312 62.9971h82l25 138c8 44.667 25.5 79.334 52.5 104.001s61.167 37 102.5 37c23.333 0 43.666 -4 60.999 -12v-68c-17.333 9.33301 -37.333 14 -60 14c-21.333 0 -39.166 -7 -53.499 -21s-23.833 -34 -28.5 -60l-24 -132h97v-63h-108l-56 -320
c-8 -45.333 -23 -79.666 -45 -102.999s-53.667 -35 -95 -35c-23.333 0 -43.333 4 -60 12v68c17.333 -9.33301 37 -14 59 -14c20.667 0 35.834 6.33301 45.501 19s16.834 32.334 21.501 59.001l55 314h-71z" />
    <glyph glyph-name="zero.lt" horiz-adv-x="520" 
d="M260 -9c-68 0 -123 29.167 -165 87.5s-63 134.5 -63 228.5s21 170.167 63 228.5s97 87.5 165 87.5s123 -29.167 165 -87.5s63 -134.5 63 -228.5s-21 -170.167 -63 -228.5s-97 -87.5 -165 -87.5zM260 552c-48.667 0 -86.167 -22.333 -112.5 -67s-39.5 -104 -39.5 -178
s13.167 -133.333 39.5 -178s63.833 -67 112.5 -67c48 0 85.167 22.333 111.5 67s39.5 104 39.5 178s-13.167 133.333 -39.5 178s-63.5 67 -111.5 67z" />
    <glyph glyph-name="one.lt" horiz-adv-x="520" 
d="M77 0v70h175v450l-172 -88v80l202 103h47v-545h154v-70h-406z" />
    <glyph glyph-name="two.lt" horiz-adv-x="520" 
d="M367 449c0 31.333 -10.1689 56.5 -30.502 75.5s-47.5 28.5 -81.5 28.5c-36 0 -64.667 -11.167 -86 -33.5s-33.666 -52.166 -36.999 -89.499h-80c6 58 27.167 104.667 63.5 140s82.833 53 139.5 53c58.667 0 104.834 -15.667 138.501 -47s50.5 -73.333 50.5 -126
c0 -22.667 -5.83301 -46 -17.5 -70s-25.167 -45.333 -40.5 -64s-34.333 -40 -57 -64l-11 -11l-159 -171h297v-70h-405v52l201 218c4 4 10.833 11.5 20.5 22.5l20 22.5l17.5 20c8 9.33301 13.5 16.166 16.5 20.499l13 18c5.66699 7.66699 9.66699 14.167 12 19.5l8 18
c3 6.66699 5 13 6 19s1.5 12.333 1.5 19z" />
    <glyph glyph-name="three.lt" horiz-adv-x="520" 
d="M216 281v66.999h44c34.667 0 63 9.16699 85 27.5s33 43.5 33 75.5c0 30.667 -11 55.667 -33 75s-50.667 29 -86 29c-34 0 -61.833 -10 -83.5 -30s-35.167 -46.333 -40.5 -79h-77c7.33301 52.667 29.333 95.334 66 128.001s82.334 49 137.001 49
c59.333 0 106.166 -15.5 140.499 -46.5s51.5 -71.5 51.5 -121.5c0 -33.333 -9.16699 -62.833 -27.5 -88.5s-41.833 -42.834 -70.5 -51.501c33.333 -9.33301 60 -27.166 80 -53.499s30 -56.833 30 -91.5c0 -51.333 -18.167 -94 -54.5 -128s-85.5 -51 -147.5 -51
c-62.667 0 -113 16.333 -151 49s-60 77.667 -66 135h78c5.33301 -36 19.833 -64.333 43.5 -85s55.167 -31 94.5 -31c37.333 0 67.833 10.333 91.5 31s35.5 47.667 35.5 81c0 34 -12 60.833 -36 80.5s-54.667 29.5 -92 29.5h-45z" />
    <glyph glyph-name="four.lt" horiz-adv-x="520" 
d="M344 614l-229 -409h196v148h73v-148h108v-66h-108v-139h-73v139h-283v56l236 419h80z" />
    <glyph glyph-name="five.lt" horiz-adv-x="520" 
d="M263 330c-48.667 0 -88 -17.6689 -118 -53.002h-61v337h347v-70h-282v-186c30.667 26.667 70.334 40 119.001 40c58 0 105.667 -19.167 143 -57.5s56 -87.166 56 -146.499c0 -58.667 -19.167 -107.167 -57.5 -145.5s-87.5 -57.5 -147.5 -57.5
c-60.667 0 -110.334 16.333 -149.001 49s-61.667 77.667 -69 135h78c6.66699 -36.667 22.167 -65.167 46.5 -85.5s55.833 -30.5 94.5 -30.5c38 0 69.167 12.833 93.5 38.5s36.5 57.834 36.5 96.501s-12.167 71 -36.5 97s-55.5 39 -93.5 39z" />
    <glyph glyph-name="six.lt" horiz-adv-x="520" 
d="M138 196c0 -40 12.667 -73.001 38 -99.001s57.666 -39 96.999 -39s71.666 12.833 96.999 38.5s38 58.834 38 99.501s-12.667 74.167 -38 100.5s-57.666 39.5 -96.999 39.5s-71.666 -13 -96.999 -39s-38 -59.667 -38 -101zM472 470.999l-79 0.00195312
c-18.667 58 -57 87 -115 87c-45.333 0 -82.833 -22.5 -112.5 -67.5s-44.5 -100.833 -44.5 -167.5c0 -2 0.166992 -6.33301 0.5 -13s0.5 -11.334 0.5 -14.001c10.667 31.333 30.5 56.666 59.5 75.999s61.833 29 98.5 29c58.667 0 106.834 -19.833 144.501 -59.5
s56.5 -87.834 56.5 -144.501c0 -58 -19.333 -106.833 -58 -146.5s-88.667 -59.5 -150 -59.5c-84.667 0 -146.334 39 -185.001 117c-24.667 50 -37 112.667 -37 188c0 98.667 21 177.834 63 237.501s96.667 89.5 164 89.5c103.333 0 168 -50.667 194 -152z" />
    <glyph glyph-name="seven.lt" horiz-adv-x="520" 
d="M468 553l-225 -553h-79l224 544h-341v70h421v-61z" />
    <glyph glyph-name="eight.lt" horiz-adv-x="520" 
d="M261 55c40 0 73 11 99 33s39 50.333 39 85c0 34 -13 62 -39 84s-59 33 -99 33c-39.333 0 -72 -11 -98 -33s-39 -50 -39 -84c0 -34.667 13 -63 39 -85s58.667 -33 98 -33zM261 356c32.667 0 60.167 9.5 82.5 28.5s33.5 43.167 33.5 72.5c0 30 -11 54.5 -33 73.5
s-49.667 28.5 -83 28.5c-32.667 0 -60 -9.5 -82 -28.5s-33 -43.5 -33 -73.5c0 -29.333 11 -53.5 33 -72.5s49.333 -28.5 82 -28.5zM261 -9c-60.667 0 -111.17 16.333 -151.503 49s-60.5 75 -60.5 127c0 38.667 11.333 72 34 100s51.667 46.667 87 56
c-29.333 10 -53.166 27.333 -71.499 52s-27.5 53.334 -27.5 86.001c0 48.667 18.167 87.834 54.5 117.501s81.5 44.5 135.5 44.5c54.667 0 100.167 -14.833 136.5 -44.5s54.5 -68.834 54.5 -117.501c0 -32.667 -9.16699 -61.334 -27.5 -86.001s-42.166 -42 -71.499 -52
c35.333 -9.33301 64.333 -28 87 -56s34 -61.333 34 -100c0 -52 -20.167 -94.333 -60.5 -127s-91.166 -49 -152.499 -49z" />
    <glyph glyph-name="nine.lt" horiz-adv-x="520" 
d="M382 418c0 40 -12.667 73.001 -38 99.001s-57.666 39 -96.999 39s-71.666 -12.833 -96.999 -38.5s-38 -58.834 -38 -99.501s12.667 -74.167 38 -100.5s57.666 -39.5 96.999 -39.5s71.666 13 96.999 39s38 59.667 38 101zM48 143.001l79 -0.00195312
c18.667 -58 57 -87 115 -87c45.333 0 82.833 22.5 112.5 67.5s44.5 100.833 44.5 167.5c0 2 -0.166992 6.33301 -0.5 13s-0.5 11.334 -0.5 14.001c-10.667 -31.333 -30.5 -56.666 -59.5 -75.999s-61.833 -29 -98.5 -29c-58.667 0 -106.834 19.833 -144.501 59.5
s-56.5 87.834 -56.5 144.501c0 58 19.333 106.833 58 146.5s88.667 59.5 150 59.5c84.667 0 146.334 -39 185.001 -117c24.667 -50 37 -112.667 37 -188c0 -98.667 -21 -177.834 -63 -237.501s-96.667 -89.5 -164 -89.5c-103.333 0 -168 50.667 -194 152z" />
    <glyph glyph-name="period.tab" horiz-adv-x="260" 
d="M77 49c0 15.333 5.16699 28.333 15.5 39s22.833 16 37.5 16s27.167 -5.33301 37.5 -16s15.5 -23.667 15.5 -39s-5 -28.166 -15 -38.499s-22.667 -15.5 -38 -15.5s-28 5.16699 -38 15.5s-15 23.166 -15 38.499z" />
    <glyph glyph-name="comma.tab" horiz-adv-x="260" 
d="M57 -107l63 106c-12.667 2 -23 7.33301 -31 16s-12 20 -12 34c0 15.333 5 28 15 38s22.667 15 38 15s28 -5.16699 38 -15.5s15 -24.5 15 -42.5c0 -20.667 -7.33301 -41.667 -22 -63l-53 -88h-51z" />
    <glyph glyph-name="colon.tab" horiz-adv-x="260" 
d="M76 49c0 15.333 5.16699 28.333 15.5 39s23.166 16 38.499 16c14.667 0 27.167 -5.33301 37.5 -16s15.5 -23.667 15.5 -39s-5.16699 -28.166 -15.5 -38.499s-22.833 -15.5 -37.5 -15.5c-15.333 0 -28.166 5.16699 -38.499 15.5s-15.5 23.166 -15.5 38.499zM76 363
c0 15.333 5.16699 28.333 15.5 39s23.166 16 38.499 16c14.667 0 27.167 -5.33301 37.5 -16s15.5 -23.667 15.5 -39s-5.16699 -28.166 -15.5 -38.499s-22.833 -15.5 -37.5 -15.5c-15.333 0 -28.166 5.16699 -38.499 15.5s-15.5 23.166 -15.5 38.499z" />
    <glyph glyph-name="semicolon.tab" horiz-adv-x="260" 
d="M57 -107l63.001 105.999c-29.333 4.66699 -44 21.334 -44 50.001c0 15.333 5.16699 28 15.5 38s23.166 15 38.499 15s28 -5.16699 38 -15.5s15 -24.5 15 -42.5c0 -18.667 -7.33301 -39.667 -22 -63l-53 -88h-51zM76.001 362.999c0 15.333 5.16699 28.333 15.5 39
s23.166 16 38.499 16c14.667 0 27.167 -5.33301 37.5 -16s15.5 -23.667 15.5 -39s-5.16699 -28.166 -15.5 -38.499s-22.833 -15.5 -37.5 -15.5c-15.333 0 -28.166 5.16699 -38.499 15.5s-15.5 23.166 -15.5 38.499z" />
    <glyph glyph-name="space.tab" horiz-adv-x="260" 
 />
    <glyph glyph-name="percent.lt" horiz-adv-x="520" 
d="M19 501c0 34 11.833 62.833 35.5 86.5s52.5 35.5 86.5 35.5s62.833 -11.833 86.5 -35.5s35.5 -52.5 35.5 -86.5c0 -33.333 -11.833 -61.833 -35.5 -85.5s-52.5 -35.5 -86.5 -35.5s-62.833 11.833 -86.5 35.5s-35.5 52.167 -35.5 85.5zM72 501
c0 -19.333 6.66699 -35.666 20 -48.999s29.666 -20 48.999 -20s35.666 6.66699 48.999 20s20 29.666 20 48.999s-6.66699 35.833 -20 49.5s-29.666 20.5 -48.999 20.5s-35.666 -6.83301 -48.999 -20.5s-20 -30.167 -20 -49.5zM501 113c0 -34 -11.833 -62.833 -35.5 -86.5
s-52.167 -35.5 -85.5 -35.5c-34 0 -63 11.833 -87 35.5s-36 52.5 -36 86.5c0 33.333 12 61.833 36 85.5s53 35.5 87 35.5c33.333 0 61.833 -11.833 85.5 -35.5s35.5 -52.167 35.5 -85.5zM448 113c0 19.333 -6.66699 35.666 -20 48.999s-29.333 20 -48 20
c-19.333 0 -35.833 -6.66699 -49.5 -20s-20.5 -29.666 -20.5 -48.999s6.83301 -35.833 20.5 -49.5s30.167 -20.5 49.5 -20.5c18.667 0 34.667 6.83301 48 20.5s20 30.167 20 49.5zM38 0l383 614h62l-383 -614h-62z" />
    <glyph glyph-name="perthousand.lt" horiz-adv-x="800" 
d="M42 0l383 614h62l-383 -614h-62zM76 501c0 -19.333 6.66699 -35.666 20 -48.999s29.666 -20 48.999 -20s35.666 6.66699 48.999 20s20 29.666 20 48.999s-6.66699 35.833 -20 49.5s-29.666 20.5 -48.999 20.5s-35.666 -6.83301 -48.999 -20.5s-20 -30.167 -20 -49.5z
M505 113c0 -34 -11.833 -62.833 -35.5 -86.5s-52.167 -35.5 -85.5 -35.5c-34 0 -63 11.833 -87 35.5s-36 52.5 -36 86.5c0 33.333 12 61.833 36 85.5s53 35.5 87 35.5c33.333 0 61.833 -11.833 85.5 -35.5s35.5 -52.167 35.5 -85.5zM452 113
c0 19.333 -6.66699 35.666 -20 48.999s-29.333 20 -48 20c-19.333 0 -35.833 -6.66699 -49.5 -20s-20.5 -29.666 -20.5 -48.999s6.83301 -35.833 20.5 -49.5s30.167 -20.5 49.5 -20.5c18.667 0 34.667 6.83301 48 20.5s20 30.167 20 49.5zM23 501
c0 34 11.833 62.833 35.5 86.5s52.5 35.5 86.5 35.5s62.833 -11.833 86.5 -35.5s35.5 -52.5 35.5 -86.5c0 -33.333 -11.833 -61.833 -35.5 -85.5s-52.5 -35.5 -86.5 -35.5s-62.833 11.833 -86.5 35.5s-35.5 52.167 -35.5 85.5zM776 113c0 -34 -11.833 -62.833 -35.5 -86.5
s-52.167 -35.5 -85.5 -35.5c-34 0 -62.833 11.833 -86.5 35.5s-35.5 52.5 -35.5 86.5c0 33.333 11.833 61.833 35.5 85.5s52.5 35.5 86.5 35.5c33.333 0 61.833 -11.833 85.5 -35.5s35.5 -52.167 35.5 -85.5zM724 113c0 19.333 -6.66699 35.666 -20 48.999
s-29.666 20 -48.999 20s-35.666 -6.66699 -48.999 -20s-20 -29.666 -20 -48.999s6.66699 -35.833 20 -49.5s29.666 -20.5 48.999 -20.5s35.666 6.83301 48.999 20.5s20 30.167 20 49.5z" />
    <glyph glyph-name="plus.lt" horiz-adv-x="520" 
d="M229 494h62v-166h166v-62h-166v-166h-62v166h-167v62h167v166z" />
    <glyph glyph-name="minus.lt" horiz-adv-x="520" 
d="M62 266v62h395v-62h-395z" />
    <glyph glyph-name="multiply.lt" horiz-adv-x="520" 
d="M218 295l-122 121l43 42l120 -122l122 122l42 -42l-121 -121l121 -122l-42 -43l-122 122l-120 -122l-43 43z" />
    <glyph glyph-name="divide.lt" horiz-adv-x="520" 
d="M62 266v62h395v-62h-395zM210 458c0 14 4.83301 26 14.5 36s21.5 15 35.5 15c13.333 0 25 -5 35 -15s15 -22 15 -36s-5 -26 -15 -36s-21.667 -15 -35 -15c-14 0 -25.833 5 -35.5 15s-14.5 22 -14.5 36zM210 136c0 14 4.83301 26 14.5 36s21.5 15 35.5 15
c13.333 0 25 -5 35 -15s15 -22 15 -36s-5 -26 -15 -36s-21.667 -15 -35 -15c-14 0 -25.833 5 -35.5 15s-14.5 22 -14.5 36z" />
    <glyph glyph-name="equal.lt" horiz-adv-x="520" 
d="M62 199v58h395v-58h-395zM62 337v60h395v-60h-395z" />
    <glyph glyph-name="less.lt" horiz-adv-x="520" 
d="M112 256v78l296 151v-71l-238 -119l238 -119v-71z" />
    <glyph glyph-name="greater.lt" horiz-adv-x="520" 
d="M408 334v-78l-297 -151v71l238 119l-238 119v71z" />
    <glyph glyph-name="plusminus.lt" horiz-adv-x="520" 
d="M229 518h61v-129h164v-62h-164v-129h-61v129h-164v62h164v129zM65 88v62h389v-62h-389z" />
    <glyph glyph-name="lessequal.lt" horiz-adv-x="520" 
d="M111 308v74l297 121v-68l-230 -90l230 -91v-67zM111 91v62h297v-62h-297z" />
    <glyph glyph-name="greaterequal.lt" horiz-adv-x="520" 
d="M408 382v-74l-297 -121v67l229 91l-229 90v68zM408 153v-62h-297v62h297z" />
    <glyph glyph-name="notequal.lt" horiz-adv-x="520" 
d="M62 338v57h238l68 93h60l-68 -93h97v-57h-139l-60 -82h199v-57h-240l-67 -92h-59l67 92h-96v57h137l60 82h-197z" />
    <glyph glyph-name="approxequal.lt" horiz-adv-x="520" 
d="M62 308l-0.00195312 62c34.667 26.667 70.334 40 107.001 40c22.667 0 52.667 -6.83301 90 -20.5s67 -20.5 89 -20.5c34.667 0 71 14.333 109 43v-61c-37.333 -28 -73.666 -42 -108.999 -42c-22.667 0 -52.667 7 -90 21s-67 21 -89 21c-35.333 0 -71 -14.333 -107 -43z
M61.998 184v61c34.667 27.333 70.334 41 107.001 41c22.667 0 52.667 -7 90 -21s67 -21 89 -21c36 0 72.333 14.333 109 43v-61c-36.667 -27.333 -73 -41 -109 -41c-22.667 0 -52.667 6.83301 -90 20.5s-67 20.5 -89 20.5c-34.667 0 -70.334 -14 -107.001 -42z" />
    </font>
</defs>
</svg>
