<?xml version="1.0" standalone="no"?>
<!DOCTYPE svg PUBLIC "-//W3C//DTD SVG 1.1//EN" "http://www.w3.org/Graphics/SVG/1.1/DTD/svg11.dtd" >
<svg>
<metadata>
Created by FontForge 20090914 at Thu Jul  9 17:18:26 2015
 By www-data
&#194;&#169; 2011 Klim Type Foundry. All rights reserved.
</metadata>
<defs>
<font id="CalibreBold" horiz-adv-x="500" >
  <font-face 
    font-family="Calibre Bold"
    font-weight="700"
    font-stretch="normal"
    units-per-em="1000"
    panose-1="2 11 8 3 3 2 2 6 2 3"
    ascent="650"
    descent="-350"
    x-height="450"
    cap-height="614"
    bbox="-120 -236 977 923"
    underline-thickness="30"
    underline-position="-40"
    unicode-range="U+0020-U+FB02"
  />
<missing-glyph horiz-adv-x="608" 
 />
    <glyph glyph-name="f_f" unicode="ff" horiz-adv-x="639" 
d="M629 647v-128c-10.667 6 -23 9 -37 9c-37.333 0 -56 -18 -56 -54v-24h87v-122h-87v-328h-155v328h-146v-328h-155v328h-67v122h67v27c0 54 15.5 96.833 46.5 128.5s73.833 47.5 128.5 47.5c26.667 0 51 -4 73 -12v-128c-10.667 6 -23 9 -37 9
c-37.333 0 -56 -16.667 -56 -50v-22h146v33c0 54 15.5 96.833 46.5 128.5s73.833 47.5 128.5 47.5c26.667 0 51 -4 73 -12z" />
    <glyph glyph-name=".notdef" horiz-adv-x="608" 
 />
    <glyph glyph-name="space" unicode=" " horiz-adv-x="200" 
 />
    <glyph glyph-name="exclam" unicode="!" horiz-adv-x="239" 
d="M26 82c0 24.667 9.16699 45.5 27.5 62.5s40.5 25.5 66.5 25.5s48 -8.5 66 -25.5s27 -37.833 27 -62.5c0 -25.333 -9 -46.5 -27 -63.5s-40 -25.5 -66 -25.5s-48.167 8.5 -66.5 25.5s-27.5 38.167 -27.5 63.5zM59 206l-35 408h191l-35 -408h-121z" />
    <glyph glyph-name="quotedbl" unicode="&#x22;" horiz-adv-x="356" 
d="M36 355v259h121v-259h-121zM200 355v259h121v-259h-121z" />
    <glyph glyph-name="numbersign" unicode="#" horiz-adv-x="635" 
d="M570 255l-22 -99h-102l-37 -156h-113l37 156h-104l-37 -156h-112l37 156h-97l23 99h97l25 104h-100l22 99h102l37 156h113l-38 -156h104l38 156h112l-37 -156h97l-23 -99h-98l-25 -104h101zM278 359l-25 -104h104l25 104h-104z" />
    <glyph glyph-name="dollar" unicode="$" horiz-adv-x="517" 
d="M199 -86l-0.00195312 95c-49.333 9.33301 -89.5 29.166 -120.5 59.499s-50.5 68.833 -58.5 115.5h156c13.333 -38 43.666 -57 90.999 -57c21.333 0 38.5 4.83301 51.5 14.5s19.5 22.5 19.5 38.5c0 14.667 -4.66699 25.834 -14 33.501s-24.666 14.167 -45.999 19.5l-99 23
c-98.667 24 -148 79.667 -148 167c0 47.333 15.333 87.333 46 120s71.334 53.334 122.001 62.001v91h128v-94c89.333 -20.667 142 -76.334 158 -167.001h-148c-15.333 34.667 -43.666 52 -84.999 52c-20.667 0 -37.167 -4.5 -49.5 -13.5s-18.5 -21.167 -18.5 -36.5
c0 -24 16 -40 48 -48l109 -27c100.667 -24.667 151 -82 151 -172c0 -48 -15 -87.833 -45 -119.5s-70 -52.5 -120 -62.5v-94h-128z" />
    <glyph glyph-name="percent" unicode="%" horiz-adv-x="680" 
d="M98 0l394 614h90l-394 -614h-90zM117 476c0 -14.667 5.16699 -27 15.5 -37s22.5 -15 36.5 -15c15.333 0 28.333 5 39 15s16 22.333 16 37s-5.33301 27.5 -16 38.5s-23.667 16.5 -39 16.5c-14 0 -26.167 -5.5 -36.5 -16.5s-15.5 -23.833 -15.5 -38.5zM657 138
c0 -41.333 -14.167 -76.333 -42.5 -105s-62.833 -43 -103.5 -43s-75.5 14.333 -104.5 43s-43.5 63.667 -43.5 105c0 40.667 14.333 75 43 103s63.667 42 105 42c40.667 0 75.167 -14 103.5 -42s42.5 -62.333 42.5 -103zM317 476c0 -40.667 -14.333 -75 -43 -103
s-63.667 -42 -105 -42c-40.667 0 -75 14 -103 42s-42 62.333 -42 103c0 41.333 14 76.333 42 105s62.333 43 103 43s75.5 -14.333 104.5 -43s43.5 -63.667 43.5 -105zM563 138c0 14.667 -5 27 -15 37s-22.333 15 -37 15c-15.333 0 -28.333 -5 -39 -15s-16 -22.333 -16 -37
s5.33301 -27.5 16 -38.5s23.667 -16.5 39 -16.5c14.667 0 27 5.33301 37 16s15 23.667 15 39z" />
    <glyph glyph-name="ampersand" unicode="&#x26;" horiz-adv-x="609" 
d="M497 451l-150.999 0.000976562c-1.33301 14 -6.33301 25.833 -15 35.5s-20.667 14.5 -36 14.5c-16 0 -29 -4.83301 -39 -14.5s-15 -22.167 -15 -37.5c0 -9.33301 2.5 -19 7.5 -29s9.83301 -17.833 14.5 -23.5s12.334 -14.5 23.001 -26.5l117 -136
c9.33301 25.333 14.666 55.666 15.999 90.999h138c-0.666992 -73.333 -21.667 -139 -63 -197l111 -128h-176l-32 35c-47.333 -30 -98 -45 -152 -45c-66 0 -118.833 17.5 -158.5 52.5s-59.5 82.5 -59.5 142.5c0 32.667 8.66699 63.167 26 91.5s40.666 50.833 69.999 67.5
c-22 32.667 -33 67.667 -33 105c0 52.667 19 95 57 127s87.333 48 148 48c59.333 0 107 -16.167 143 -48.5s55.667 -73.833 59 -124.5zM247.001 111.001c22 0 44.333 5.33398 67 16.001l-111 123c-21.333 -14.667 -32 -36.334 -32 -65.001c0 -22 6.66699 -39.833 20 -53.5
s32 -20.5 56 -20.5z" />
    <glyph glyph-name="quotesingle" unicode="'" horiz-adv-x="200" 
d="M36 355v259h128v-259h-128z" />
    <glyph glyph-name="parenleft" unicode="(" horiz-adv-x="334" 
d="M30 283c0 94 25.333 173.833 76 239.5s120 108.167 208 127.5v-147c-94 -32 -141 -105.333 -141 -220s47 -188 141 -220v-147c-88 19.333 -157.333 61.833 -208 127.5s-76 145.5 -76 239.5z" />
    <glyph glyph-name="parenright" unicode=")" horiz-adv-x="334" 
d="M304 283c0 -94 -25.333 -173.833 -76 -239.5s-120 -108.167 -208 -127.5v147c94 32 141 105.333 141 220s-47 188 -141 220v147c88 -19.333 157.333 -61.833 208 -127.5s76 -145.5 76 -239.5z" />
    <glyph glyph-name="asterisk" unicode="*" horiz-adv-x="344" 
d="M98 500l-74 43l37 64l74 -43v86h75v-86l73 43l38 -64l-75 -43l75 -43l-38 -64l-73 43v-86h-75v86l-74 -43l-37 64z" />
    <glyph glyph-name="plus" unicode="+" horiz-adv-x="556" 
d="M220 526h116v-169h169v-116h-169v-168h-116v168h-169v116h169v169z" />
    <glyph glyph-name="comma" unicode="," horiz-adv-x="223" 
d="M12 -105l74.999 115.002c-19.333 4 -35.5 13.167 -48.5 27.5s-19.5 32.5 -19.5 54.5c0 25.333 8.83301 46.166 26.5 62.499s39.834 24.5 66.501 24.5c26 0 47.833 -8.66699 65.5 -26s26.5 -41 26.5 -71c0 -30.667 -12.667 -65.334 -38 -104.001l-55 -83h-99z" />
    <glyph glyph-name="hyphen" unicode="-" horiz-adv-x="312" 
d="M36 196v132h241v-132h-241z" />
    <glyph glyph-name="period" unicode="." horiz-adv-x="223" 
d="M19 87c0 26 8.83301 48.001 26.5 66.001s39.5 27 65.5 27s48 -8.83301 66 -26.5s27 -39.834 27 -66.501s-9 -49 -27 -67s-40 -27 -66 -27c-25.333 0 -47 9 -65 27s-27 40.333 -27 67z" />
    <glyph glyph-name="slash" unicode="/" horiz-adv-x="394" 
d="M5 -84l248 734h136l-248 -734h-136z" />
    <glyph glyph-name="zero" unicode="0" horiz-adv-x="559" 
d="M279 -10c-75.333 0 -136.5 29.333 -183.5 88s-70.5 135 -70.5 229s23.5 170.333 70.5 229s108.167 88 183.5 88s136.666 -29.5 183.999 -88.5s71 -135.167 71 -228.5s-23.667 -169.5 -71 -228.5s-108.666 -88.5 -183.999 -88.5zM279 483
c-33.333 0 -58.166 -16.5 -74.499 -49.5s-24.5 -75.167 -24.5 -126.5s8.16699 -93.5 24.5 -126.5s41.166 -49.5 74.499 -49.5s58.166 16.5 74.499 49.5s24.5 75.167 24.5 126.5s-8.16699 93.5 -24.5 126.5s-41.166 49.5 -74.499 49.5z" />
    <glyph glyph-name="one" unicode="1" horiz-adv-x="367" 
d="M312 614v-614h-156v440l-143 -69v152l191 91h108z" />
    <glyph glyph-name="two" unicode="2" horiz-adv-x="491" 
d="M299 423c0 16.667 -5.16699 30.332 -15.5 40.999s-24.5 16 -42.5 16s-32.167 -5.83301 -42.5 -17.5s-16.166 -26.167 -17.499 -43.5h-166c6 59.333 29.333 108.333 70 147s92.667 58 156 58c67.333 0 120.833 -17.5 160.5 -52.5s59.5 -81.167 59.5 -138.5
c0 -24.667 -6.16699 -49.334 -18.5 -74.001s-25.333 -44.667 -39 -60s-33.834 -35.666 -60.501 -60.999l-101 -100h221v-138h-445v103l211 210c24.667 25.333 42.5 45.833 53.5 61.5s16.5 31.834 16.5 48.501z" />
    <glyph glyph-name="three" unicode="3" horiz-adv-x="487" 
d="M193 253v115.001h33c23.333 0 42.166 5.16699 56.499 15.5s21.5 25.833 21.5 46.5c0 17.333 -5.5 31.666 -16.5 42.999s-26.167 17 -45.5 17c-20.667 0 -37.167 -6.5 -49.5 -19.5s-19.5 -29.167 -21.5 -48.5h-154c6.66699 58 30.334 106.167 71.001 144.5
s93.667 57.5 159 57.5c64 0 114.833 -17.333 152.5 -52s56.5 -80 56.5 -136c0 -26 -6.33301 -50.833 -19 -74.5s-28.667 -40.834 -48 -51.501c24 -11.333 42.5 -28.5 55.5 -51.5s19.5 -48.833 19.5 -77.5c0 -55.333 -19.833 -101 -59.5 -137s-92.5 -54 -158.5 -54
c-70 0 -126.167 18.833 -168.5 56.5s-65.5 87.834 -69.5 150.501h160c2 -22 9.5 -39.5 22.5 -52.5s30.5 -19.5 52.5 -19.5c20 0 36.333 5.83301 49 17.5s19 27.167 19 46.5c0 20.667 -7.33301 36.5 -22 47.5s-34 16.5 -58 16.5h-38z" />
    <glyph glyph-name="four" unicode="4" horiz-adv-x="524" 
d="M357 614l-169 -370h97v104h138v-104h84v-130h-84v-114h-138v114h-267v118l186 382h153z" />
    <glyph glyph-name="five" unicode="5" horiz-adv-x="497" 
d="M252 279c-26 0 -49.668 -10.666 -71.001 -31.999h-129v367h378v-137h-249v-92c25.333 14.667 56.333 22 93 22c61.333 0 110.166 -18.833 146.499 -56.5s54.5 -87.167 54.5 -148.5c0 -63.333 -20.167 -114.5 -60.5 -153.5s-93.833 -58.5 -160.5 -58.5
c-68.667 0 -123.667 18.667 -165 56s-64.333 87.666 -69 150.999h156c2.66699 -22 10.834 -39.5 24.501 -52.5s31.834 -19.5 54.501 -19.5c21.333 0 38.5 7.16699 51.5 21.5s19.5 32.833 19.5 55.5s-6.66699 41.167 -20 55.5s-31.333 21.5 -54 21.5z" />
    <glyph glyph-name="six" unicode="6" horiz-adv-x="518" 
d="M182 202c0 -24.667 7.66699 -44.667 23 -60s35.333 -23 60 -23c24 0 44 7.83301 60 23.5s24 35.5 24 59.5c0 24.667 -8 44.834 -24 60.501s-36 23.5 -60 23.5c-24.667 0 -44.667 -7.83301 -60 -23.5s-23 -35.834 -23 -60.501zM487 447l-151 -0.000976562
c-10 30.667 -31.667 46 -65 46c-28 0 -50.667 -13 -68 -39s-26.333 -56 -27 -90v-5c21.333 30.667 59 46 113 46c61.333 0 110.5 -19 147.5 -57s55.5 -85.333 55.5 -142c0 -62.667 -20.667 -114.334 -62 -155.001s-96.666 -61 -165.999 -61
c-39.333 0 -75.333 8.83301 -108 26.5s-59.334 42.834 -80.001 75.501c-34 51.333 -51 118.333 -51 201c0 98 21.833 177.667 65.5 239s103.5 92 179.5 92c60 0 108.667 -15.667 146 -47s61 -74.666 71 -129.999z" />
    <glyph glyph-name="seven" unicode="7" horiz-adv-x="466" 
d="M443 506l-186 -506h-162l179 476h-261v138h430v-108z" />
    <glyph glyph-name="eight" unicode="8" horiz-adv-x="508" 
d="M254 114c22.667 0 41.334 6.33301 56.001 19s22 29 22 49c0 20.667 -7.33301 37.167 -22 49.5s-33.334 18.5 -56.001 18.5s-41.167 -6.16699 -55.5 -18.5s-21.5 -28.833 -21.5 -49.5c0 -20 7.33301 -36.333 22 -49s33 -19 55 -19zM254 378c20 0 36.5 5.83301 49.5 17.5
s19.5 26.5 19.5 44.5c0 19.333 -6.5 34.833 -19.5 46.5s-29.5 17.5 -49.5 17.5c-19.333 0 -35.666 -5.83301 -48.999 -17.5s-20 -27.167 -20 -46.5c0 -18 6.66699 -32.833 20 -44.5s29.666 -17.5 48.999 -17.5zM254 -10c-66 0 -121 16.333 -165 49s-66 76.334 -66 131.001
c0 34.667 9.16699 64.5 27.5 89.5s42.166 42.5 71.499 52.5c-25.333 12 -45 29.667 -59 53s-21 50 -21 80c0 55.333 20.5 99 61.5 131s91.167 48 150.5 48s109.5 -16 150.5 -48s61.5 -75.667 61.5 -131c0 -30 -7 -56.667 -21 -80s-33.333 -41 -58 -53
c28.667 -10 52.334 -27.5 71.001 -52.5s28 -54.833 28 -89.5c0 -54.667 -22.167 -98.334 -66.5 -131.001s-99.5 -49 -165.5 -49z" />
    <glyph glyph-name="nine" unicode="9" horiz-adv-x="518" 
d="M336 412c0 24.667 -7.66699 44.667 -23 60s-35.333 23 -60 23c-24 0 -44 -7.83301 -60 -23.5s-24 -35.5 -24 -59.5c0 -24.667 8 -44.834 24 -60.501s36 -23.5 60 -23.5c24.667 0 44.667 7.83301 60 23.5s23 35.834 23 60.501zM31 167l151 0.000976562
c10 -30.667 31.667 -46 65 -46c28 0 50.667 13 68 39s26.333 56 27 90v5c-21.333 -30.667 -59 -46 -113 -46c-61.333 0 -110.5 19 -147.5 57s-55.5 85.333 -55.5 142c0 62.667 20.667 114.334 62 155.001s96.666 61 165.999 61c39.333 0 75.333 -8.83301 108 -26.5
s59.334 -42.834 80.001 -75.501c34 -50.667 51 -117.667 51 -201c0 -98 -21.833 -177.667 -65.5 -239s-103.5 -92 -179.5 -92c-60 0 -108.667 15.667 -146 47s-61 74.666 -71 129.999z" />
    <glyph glyph-name="colon" unicode=":" horiz-adv-x="223" 
d="M19 87c0 26 8.83301 48.001 26.5 66.001s39.5 27 65.5 27s48 -8.83301 66 -26.5s27 -39.834 27 -66.501s-9 -49 -27 -67s-40 -27 -66 -27c-25.333 0 -47 9 -65 27s-27 40.333 -27 67zM19 352.001c0 26.667 8.83301 48.834 26.5 66.501s39.5 26.5 65.5 26.5
s48 -8.83301 66 -26.5s27 -39.834 27 -66.501s-9 -49 -27 -67s-40 -27 -66 -27c-25.333 0 -47 9 -65 27s-27 40.333 -27 67z" />
    <glyph glyph-name="semicolon" unicode=";" horiz-adv-x="223" 
d="M12 -105l74.999 115.002c-19.333 4 -35.5 13.167 -48.5 27.5s-19.5 32.5 -19.5 54.5c0 25.333 8.83301 46.166 26.5 62.499s39.834 24.5 66.501 24.5c26 0 47.833 -8.66699 65.5 -26s26.5 -41 26.5 -71c0 -30.667 -12.667 -65.334 -38 -104.001l-55 -83h-99z
M18.999 352.002c0 26.667 8.83301 48.834 26.5 66.501s39.5 26.5 65.5 26.5s48 -8.83301 66 -26.5s27 -39.834 27 -66.501s-9 -49 -27 -67s-40 -27 -66 -27c-25.333 0 -47 9 -65 27s-27 40.333 -27 67z" />
    <glyph glyph-name="less" unicode="&#x3c;" horiz-adv-x="433" 
d="M42 225v144l345 153v-129l-236 -96l236 -95v-130z" />
    <glyph glyph-name="equal" unicode="=" horiz-adv-x="574" 
d="M61 158v103h452v-103h-452zM61 340v105h452v-105h-452z" />
    <glyph glyph-name="greater" unicode="&#x3e;" horiz-adv-x="433" 
d="M392 369v-144l-345 -153v130l236 95l-236 96v129z" />
    <glyph glyph-name="question" unicode="?" horiz-adv-x="475" 
d="M154 82c0 25.333 9 46.333 27 63s40 25 66 25c26.667 0 49.167 -8.33301 67.5 -25s27.5 -37.667 27.5 -63s-9.16699 -46.5 -27.5 -63.5s-40.833 -25.5 -67.5 -25.5c-26 0 -48 8.5 -66 25.5s-27 38.167 -27 63.5zM455 440c0 -17.333 -3.83691 -35.334 -11.5039 -54.001
s-14.167 -32 -19.5 -40s-17.333 -23.167 -36 -45.5s-29 -34.5 -31 -36.5c-18 -21.333 -27.667 -40.666 -29 -57.999h-155c0.666992 18 4.33398 34.333 11.001 49s19.334 33.667 38.001 57c4.66699 6 13 15.833 25 29.5s20.167 23.334 24.5 29.001s8.83301 13.667 13.5 24
s7 20.166 7 29.499c0 16.667 -5.16699 30.167 -15.5 40.5s-23.833 15.5 -40.5 15.5c-18 0 -32.167 -5.83301 -42.5 -17.5s-16.166 -26.167 -17.499 -43.5h-162c6 60 29 109.167 69 147.5s93 57.5 159 57.5c64.667 0 116.334 -16.5 155.001 -49.5s58 -77.833 58 -134.5z" />
    <glyph glyph-name="at" unicode="@" horiz-adv-x="759" 
d="M580 391l-42.001 -243c-4.66699 -27.333 4 -41 26 -41c29.333 0 52.833 14.667 70.5 44s26.5 70.333 26.5 123c0 68.667 -24.167 122.834 -72.5 162.501s-110.166 59.5 -185.499 59.5c-89.333 0 -161.666 -28.333 -216.999 -85s-83 -130.334 -83 -221.001
c0 -40.667 6.16699 -76.834 18.5 -108.501s28.5 -57.5 48.5 -77.5s43.333 -36.5 70 -49.5s53.5 -22 80.5 -27s54.833 -7.5 83.5 -7.5c77.333 0 152 16 224 48v-75c-62.667 -31.333 -137.334 -47 -224.001 -47c-50.667 0 -98.334 6.83301 -143.001 20.5
s-85.334 33.834 -122.001 60.501s-65.667 62.667 -87 108s-32 97 -32 155c0 107.333 35.667 197.666 107 270.999s163.333 110 276 110c98.667 0 179.334 -28.167 242.001 -84.5s94 -127.166 94 -212.499c0 -78.667 -19.833 -139.167 -59.5 -181.5s-89.5 -63.5 -149.5 -63.5
c-52 0 -90.667 16.667 -116 50c-20.667 -32 -53.667 -48 -99 -48c-42.667 0 -76.167 14.5 -100.5 43.5s-36.5 65.833 -36.5 110.5c0 58.667 17.333 109 52 151s79.334 63 134.001 63c18 0 35 -3.5 51 -10.5s27.333 -15.5 34 -25.5l6 28h125zM414.999 173l14.999 86
c-6 20.667 -22 31 -48 31c-20.667 0 -38.167 -9.16699 -52.5 -27.5s-21.5 -40.5 -21.5 -66.5c0 -17.333 4.33301 -31 13 -41s21.334 -15 38.001 -15c24 0 42.667 11 56 33z" />
    <glyph glyph-name="A" unicode="A" horiz-adv-x="646" 
d="M241 614h164l234 -614h-163l-44 119h-223l-43 -119h-159zM321 424l-63 -173h126z" />
    <glyph glyph-name="B" unicode="B" horiz-adv-x="557" 
d="M432 317c29.333 -9.33301 53.334 -27.333 72.001 -54s28 -57 28 -91c0 -55.333 -17.833 -97.833 -53.5 -127.5s-85.834 -44.5 -150.501 -44.5h-282v614h263c64.667 0 115 -14.333 151 -43s54 -70 54 -124c0 -32 -7.83301 -59.5 -23.5 -82.5s-35.167 -38.833 -58.5 -47.5z
M199.001 371h92c48 0 72 18.667 72 56c0 36.667 -24 55 -72 55h-92v-111zM199.001 251v-119.001h108c22 0 39.167 5.33301 51.5 16s18.5 25 18.5 43c0 18.667 -6.16699 33.334 -18.5 44.001s-29.5 16 -51.5 16h-108z" />
    <glyph glyph-name="C" unicode="C" horiz-adv-x="603" 
d="M22 307c0 92.667 27.667 168.666 83 227.999s126 89 212 89c74 0 133.833 -19.667 179.5 -59s74.167 -91.666 85.5 -156.999h-160c-18 50 -53 75 -105 75c-41.333 0 -73.833 -16.333 -97.5 -49s-35.5 -75 -35.5 -127c0 -51.333 11.833 -93.5 35.5 -126.5
s56.167 -49.5 97.5 -49.5c52.667 0 87.667 25.333 105 76h160c-11.333 -65.333 -39.833 -117.833 -85.5 -157.5s-105.5 -59.5 -179.5 -59.5c-86 0 -156.667 29.667 -212 89s-83 135.333 -83 228z" />
    <glyph glyph-name="D" unicode="D" horiz-adv-x="609" 
d="M204 139h66c50.667 0 89.834 15 117.501 45s41.5 71 41.5 123c0 52.667 -13.833 94 -41.5 124s-66.834 45 -117.501 45h-66v-337zM46 0v614h232c96 0 171.667 -27.667 227 -83s83 -130 83 -224s-27.667 -168.667 -83 -224s-131 -83 -227 -83h-232z" />
    <glyph glyph-name="E" unicode="E" horiz-adv-x="519" 
d="M46 614h439v-138h-281v-96h257v-135h-257v-106h281v-139h-439v614z" />
    <glyph glyph-name="F" unicode="F" horiz-adv-x="508" 
d="M205 0h-159v614h432v-139h-273v-122h251v-136h-251v-217z" />
    <glyph glyph-name="G" unicode="G" horiz-adv-x="623" 
d="M442 208l-95.001 -0.000976562v120h254v-61c0 -84 -25.333 -151.167 -76 -201.5s-117 -75.5 -199 -75.5c-89.333 0 -162.333 29.5 -219 88.5s-85 135.167 -85 228.5s28.333 169.5 85 228.5s129 88.5 217 88.5c76 0 137.333 -19.667 184 -59s76 -91.666 88 -156.999h-164
c-18 50 -54 75 -108 75c-43.333 0 -77.5 -16.333 -102.5 -49s-37.5 -75 -37.5 -127c0 -52.667 12.833 -95.167 38.5 -127.5s60.167 -48.5 103.5 -48.5c60.667 0 99.334 25.667 116.001 77z" />
    <glyph glyph-name="H" unicode="H" horiz-adv-x="650" 
d="M444 614h161v-614h-161v243h-237v-243h-161v614h161v-233h237v233z" />
    <glyph glyph-name="I" unicode="I" horiz-adv-x="253" 
d="M207 614v-614h-161v614h161z" />
    <glyph glyph-name="J" unicode="J" horiz-adv-x="541" 
d="M15 217h162.999c3.33301 -55.333 30 -83 80 -83c55.333 0 83 34.333 83 103v377h161v-378c0 -82 -22.167 -143.5 -66.5 -184.5s-103.166 -61.5 -176.499 -61.5s-131.5 20.667 -174.5 62s-66.167 96.333 -69.5 165z" />
    <glyph glyph-name="K" unicode="K" horiz-adv-x="608" 
d="M207 614v-252l198 252h188l-215 -270l224 -344h-189l-155 236l-51 -65v-171h-161v614h161z" />
    <glyph glyph-name="L" unicode="L" horiz-adv-x="510" 
d="M46 0v614h161v-475h275v-139h-436z" />
    <glyph glyph-name="M" unicode="M" horiz-adv-x="752" 
d="M428 0h-104l-128 365v-365h-150v614h196l135 -382l134 382h195v-614h-151v365z" />
    <glyph glyph-name="N" unicode="N" horiz-adv-x="634" 
d="M588 614v-614h-130l-257 359v-359h-155v614h150l237 -338v338h155z" />
    <glyph glyph-name="O" unicode="O" horiz-adv-x="643" 
d="M622 307c0 -92 -28 -167.833 -84 -227.5s-128.333 -89.5 -217 -89.5c-88 0 -159.833 29.833 -215.5 89.5s-83.5 135.5 -83.5 227.5c0 92.667 27.833 168.667 83.5 228s127.5 89 215.5 89c88.667 0 161 -29.667 217 -89s84 -135.333 84 -228zM460 307
c0 52.667 -12.833 95.167 -38.5 127.5s-59.167 48.5 -100.5 48.5s-74.5 -16 -99.5 -48s-37.5 -74.667 -37.5 -128s12.5 -96 37.5 -128s58.167 -48 99.5 -48s74.833 16.167 100.5 48.5s38.5 74.833 38.5 127.5z" />
    <glyph glyph-name="P" unicode="P" horiz-adv-x="561" 
d="M315 191h-110v-191h-159v614h269c68 0 122.167 -18.5 162.5 -55.5s60.5 -89.167 60.5 -156.5c0 -66.667 -20.167 -118.5 -60.5 -155.5s-94.5 -55.5 -162.5 -55.5zM382 402c0 51.333 -28 77 -84 77h-93v-154h93c28 0 49 6.83301 63 20.5s21 32.5 21 56.5z" />
    <glyph glyph-name="Q" unicode="Q" horiz-adv-x="643" 
d="M489 -45l-49 60c-37.333 -16.667 -77 -25 -119 -25c-88 0 -159.833 29.833 -215.5 89.5s-83.5 135.5 -83.5 227.5c0 92.667 27.833 168.667 83.5 228s127.5 89 215.5 89c88.667 0 161 -29.667 217 -89s84 -135.333 84 -228c0 -85.333 -27 -158.333 -81 -219l45 -55z
M460 307c0 52.667 -12.833 95.166 -38.5 127.499s-59.167 48.5 -100.5 48.5s-74.5 -16 -99.5 -48s-37.5 -74.667 -37.5 -128s12.5 -97.166 37.5 -131.499s58.167 -51.5 99.5 -51.5c10 0 19.667 1 29 3l-49 61l97 76l46 -57c10.667 28.667 16 62 16 100z" />
    <glyph glyph-name="R" unicode="R" horiz-adv-x="574" 
d="M261 203h-56v-203h-159v614h276c67.333 0 121.333 -18.333 162 -55s61 -88 61 -154c0 -45.333 -10.833 -84 -32.5 -116s-51.5 -55 -89.5 -69l144 -220h-178zM205 479v-148h100c55.333 0 83 24.667 83 74s-27.667 74 -83 74h-100z" />
    <glyph glyph-name="S" unicode="S" horiz-adv-x="544" 
d="M12 182l166.998 -0.00292969c12.667 -42 45.667 -63 99 -63c25.333 0 45.5 5.16699 60.5 15.5s22.5 24.833 22.5 43.5c0 14 -4.66699 24.833 -14 32.5s-24 13.834 -44 18.501l-118 25c-105.333 23.333 -158 80.333 -158 171c0 59.333 22.167 107.333 66.5 144
s100.833 55 169.5 55c72 0 129.833 -17.5 173.5 -52.5s69.834 -80.167 78.501 -135.5h-157c-15.333 40 -46.666 60 -93.999 60c-23.333 0 -42 -4.83301 -56 -14.5s-21 -22.834 -21 -39.501c0 -25.333 17 -41.666 51 -48.999l120 -28c108.667 -26 163 -85 163 -177
c0 -61.333 -22.667 -109.666 -68 -144.999s-102.666 -53 -171.999 -53c-73.333 0 -133.833 16.833 -181.5 50.5s-76.834 80.834 -87.501 141.501z" />
    <glyph glyph-name="T" unicode="T" horiz-adv-x="580" 
d="M20 476v138h540v-138h-190v-476h-161v476h-189z" />
    <glyph glyph-name="U" unicode="U" horiz-adv-x="613" 
d="M307 -10c-82.667 0 -148 22.668 -196 68.001s-72 109.666 -72 192.999v363h160v-349c0 -42.667 9.5 -75.334 28.5 -98.001s45.5 -34 79.5 -34c33.333 0 59.5 11.333 78.5 34s28.5 55.334 28.5 98.001v349h160v-364c0 -82.667 -24 -146.667 -72 -192s-113 -68 -195 -68z
" />
    <glyph glyph-name="V" unicode="V" horiz-adv-x="629" 
d="M393 0h-157l-229 614h172l139 -397l139 397h165z" />
    <glyph glyph-name="W" unicode="W" horiz-adv-x="820" 
d="M351 614h122l94 -361l85 361h162l-162 -614h-147l-95 360l-96 -360h-147l-161 614h164l86 -361z" />
    <glyph glyph-name="X" unicode="X" horiz-adv-x="604" 
d="M591 614l-197 -300l207 -314h-179l-122 189l-122 -189h-175l207 314l-197 300h179l111 -175l114 175h174z" />
    <glyph glyph-name="Y" unicode="Y" horiz-adv-x="612" 
d="M309 374l129 240h169l-222 -396v-218h-161v218l-218 396h174z" />
    <glyph glyph-name="Z" unicode="Z" horiz-adv-x="561" 
d="M527 139v-139h-493v119l285 357h-282v138h487v-118l-282 -357h285z" />
    <glyph glyph-name="bracketleft" unicode="[" horiz-adv-x="331" 
d="M192 520v-474h119v-130h-265v734h265v-130h-119z" />
    <glyph glyph-name="backslash" unicode="\" horiz-adv-x="394" 
d="M141 650l248 -734h-136l-248 734h136z" />
    <glyph glyph-name="bracketright" unicode="]" horiz-adv-x="331" 
d="M139 46v474h-119v130h265v-734h-265v130h119z" />
    <glyph glyph-name="asciicircum" unicode="^" horiz-adv-x="432" 
d="M152 614h128l142 -238h-134l-72 125l-71 -125h-135z" />
    <glyph glyph-name="underscore" unicode="_" horiz-adv-x="381" 
d="M20 -161v119h341v-119h-341z" />
    <glyph glyph-name="grave" unicode="`" 
d="M365 500h-144l-87 150h149z" />
    <glyph glyph-name="a" unicode="a" horiz-adv-x="478" 
d="M443 0h-150.999v23c-8 -8 -22.333 -15.167 -43 -21.5s-42.334 -9.5 -65.001 -9.5c-46.667 0 -85.667 12.833 -117 38.5s-47 61.167 -47 106.5c0 42.667 16.333 77.167 49 103.5s74 39.5 124 39.5c42.667 0 75.667 -8.33301 99 -25v29
c0 15.333 -4.66699 28.166 -14 38.499s-23 15.5 -41 15.5c-27.333 0 -45 -11 -53 -33h-148c6.66699 44.667 28.5 81.834 65.5 111.501s83.833 44.5 140.5 44.5c64 0 113.5 -16.167 148.5 -48.5s52.5 -77.833 52.5 -136.5v-276zM292.001 126v26
c-10.667 20.667 -32.667 31 -66 31c-17.333 0 -32 -3.66699 -44 -11s-18 -18 -18 -32c0 -14.667 6 -25.667 18 -33s26.667 -11 44 -11c32.667 0 54.667 10 66 30z" />
    <glyph glyph-name="b" unicode="b" horiz-adv-x="529" 
d="M199 36v-36h-157v650h157v-236c11.333 12.667 27.166 23.5 47.499 32.5s41.5 13.5 63.5 13.5c62.667 0 111.834 -22.167 147.501 -66.5s53.5 -100.5 53.5 -168.5s-17.833 -124.167 -53.5 -168.5s-84.834 -66.5 -147.501 -66.5c-22 0 -43.167 4.5 -63.5 13.5
s-36.166 19.833 -47.499 32.5zM199 285l0.000976562 -119c13.333 -28 36.333 -42 69 -42c26.667 0 47.667 9.5 63 28.5s23 43.167 23 72.5c0 30 -7.66699 54.5 -23 73.5s-36.333 28.5 -63 28.5c-14.667 0 -28.334 -4 -41.001 -12s-22 -18 -28 -30z" />
    <glyph glyph-name="c" unicode="c" horiz-adv-x="471" 
d="M18 225c0 69.333 20.999 125.832 62.999 169.499s96.667 65.5 164 65.5c59.333 0 107.333 -16 144 -48s58.334 -75 65.001 -129h-152c-2 14 -8.16699 25.333 -18.5 34s-23.166 13 -38.499 13c-22 0 -39.5 -9.5 -52.5 -28.5s-19.5 -44.5 -19.5 -76.5s6.5 -57.333 19.5 -76
s30.5 -28 52.5 -28c16 0 29 4.16699 39 12.5s16 19.5 18 33.5h152c-6.66699 -53.333 -28.334 -96.166 -65.001 -128.499s-84.667 -48.5 -144 -48.5c-67.333 0 -122 21.833 -164 65.5s-63 100.167 -63 169.5z" />
    <glyph glyph-name="d" unicode="d" horiz-adv-x="529" 
d="M330 0v36c-11.333 -12.667 -27.166 -23.5 -47.499 -32.5s-41.5 -13.5 -63.5 -13.5c-62.667 0 -111.834 22.167 -147.501 66.5s-53.5 100.5 -53.5 168.5s17.833 124.167 53.5 168.5s84.834 66.5 147.501 66.5c22 0 43.167 -4.5 63.5 -13.5s36.166 -19.833 47.499 -32.5
v236h157v-650h-157zM330 166l0.000976562 119c-6 12 -15.333 22 -28 30s-26.334 12 -41.001 12c-26.667 0 -47.667 -9.5 -63 -28.5s-23 -43.5 -23 -73.5c0 -29.333 7.66699 -53.5 23 -72.5s36.333 -28.5 63 -28.5c32.667 0 55.667 14 69 42z" />
    <glyph glyph-name="e" unicode="e" horiz-adv-x="478" 
d="M313 157h145c-8 -52 -30.667 -92.833 -68 -122.5s-85 -44.5 -143 -44.5c-68.667 0 -124 21.667 -166 65s-63 100 -63 170c0 69.333 21.333 125.833 64 169.5s96.667 65.5 162 65.5c68 0 121 -20.667 159 -62s57 -96 57 -164v-39h-291c5.33301 -55.333 31.333 -83 78 -83
c35.333 0 57.333 15 66 45zM244 338c-38 0 -62.001 -21.667 -72.001 -65h136c-1.33301 19.333 -7.66602 35 -18.999 47s-26.333 18 -45 18z" />
    <glyph glyph-name="f" unicode="f" horiz-adv-x="338" 
d="M328 647v-128c-10.667 6 -23 9 -37 9c-37.333 0 -56 -18 -56 -54v-24h87v-122h-87v-328h-155v328h-67v122h67v33c0 54 15.5 96.833 46.5 128.5s73.833 47.5 128.5 47.5c26.667 0 51 -4 73 -12z" />
    <glyph glyph-name="g" unicode="g" horiz-adv-x="521" 
d="M324 31l-0.000976562 32.001c-25.333 -29.333 -61 -44 -107 -44c-61.333 0 -109.833 20.833 -145.5 62.5s-53.5 94.5 -53.5 158.5c0 63.333 17.833 115.833 53.5 157.5s84.167 62.5 145.5 62.5c46.667 0 82.334 -14.667 107.001 -44v34h155v-385
c0 -76.667 -21.167 -134.834 -63.5 -174.501s-99.166 -59.5 -170.499 -59.5c-60.667 0 -110.834 14.333 -150.501 43s-63.5 68.667 -71.5 120h151c9.33301 -32 33 -48 71 -48c52.667 0 79 28.333 79 85zM323.999 182.001l-0.000976562 116.002c-15.333 25.333 -38 38 -68 38
c-25.333 0 -45.5 -8.83301 -60.5 -26.5s-22.5 -40.834 -22.5 -69.501s7.33301 -51.834 22 -69.501s35 -26.5 61 -26.5c30.667 0 53.334 12.667 68.001 38z" />
    <glyph glyph-name="h" unicode="h" horiz-adv-x="519" 
d="M42 0l0.00195312 650.001h157v-239c29.333 32.667 69.666 49 120.999 49c49.333 0 88.166 -14.833 116.499 -44.5s42.5 -69.834 42.5 -120.501v-295h-156v257c0 19.333 -5 34.833 -15 46.5s-24.667 17.5 -44 17.5c-16 0 -29.833 -4.33301 -41.5 -13
s-19.5 -20.667 -23.5 -36v-272h-157z" />
    <glyph glyph-name="i" unicode="i" horiz-adv-x="242" 
d="M199 450v-450h-157v450h157zM210 572c0 -24.667 -8.66699 -44.834 -26 -60.501s-38.333 -23.5 -63 -23.5s-45.667 7.83301 -63 23.5s-26 35.834 -26 60.501c0 25.333 8.66699 45.833 26 61.5s38.333 23.5 63 23.5s45.667 -7.83301 63 -23.5s26 -36.167 26 -61.5z" />
    <glyph glyph-name="j" unicode="j" horiz-adv-x="241" 
d="M199 450l-0.00195312 -440c0 -57.333 -14.667 -101.5 -44 -132.5s-71.666 -46.5 -126.999 -46.5c-24.667 0 -43.667 2.33301 -57 7v118c8 -1.33301 15.667 -2 23 -2c16.667 0 28.834 3.83301 36.501 11.5s11.5 20.5 11.5 38.5v446h157zM209.998 572
c0 -24.667 -8.66699 -44.834 -26 -60.501s-38.333 -23.5 -63 -23.5s-45.667 7.83301 -63 23.5s-26 35.834 -26 60.501c0 25.333 8.66699 45.833 26 61.5s38.333 23.5 63 23.5s45.667 -7.83301 63 -23.5s26 -36.167 26 -61.5z" />
    <glyph glyph-name="k" unicode="k" horiz-adv-x="523" 
d="M339 0l-110 167l-30 -35v-132h-157v650h157v-344l126 144h189l-171 -187l176 -263h-180z" />
    <glyph glyph-name="l" unicode="l" horiz-adv-x="242" 
d="M199 650v-650h-157v650h157z" />
    <glyph glyph-name="m" unicode="m" horiz-adv-x="769" 
d="M439 406c34.667 36 81 53.999 139 53.999c46.667 0 83.667 -14.833 111 -44.5s41 -69.834 41 -120.501v-295h-157v257c0 43.333 -17 65 -51 65c-14 0 -26.167 -4.16699 -36.5 -12.5s-17.5 -20.166 -21.5 -35.499v-274h-156v257c0 43.333 -17 65 -51 65
c-14 0 -26.333 -4.16699 -37 -12.5s-17.667 -20.166 -21 -35.499v-274h-157v450h157v-37c26 31.333 64.667 47 116 47c52 0 93.333 -18 124 -54z" />
    <glyph glyph-name="n" unicode="n" horiz-adv-x="519" 
d="M42 0l0.00195312 450.001h157v-39c29.333 32.667 69.666 49 120.999 49c49.333 0 88.166 -14.833 116.499 -44.5s42.5 -69.834 42.5 -120.501v-295h-156v257c0 19.333 -5 34.833 -15 46.5s-24.667 17.5 -44 17.5c-16 0 -29.833 -4.33301 -41.5 -13
s-19.5 -20.667 -23.5 -36v-272h-157z" />
    <glyph glyph-name="o" unicode="o" horiz-adv-x="497" 
d="M478 225c0 -69.333 -21.167 -125.833 -63.5 -169.5s-97.833 -65.5 -166.5 -65.5c-68 0 -123.333 21.833 -166 65.5s-64 100.167 -64 169.5s21.333 125.833 64 169.5s98 65.5 166 65.5c68.667 0 124.167 -21.833 166.5 -65.5s63.5 -100.167 63.5 -169.5zM324 225
c0 32 -6.66699 57.666 -20 76.999s-32 29 -56 29c-23.333 0 -41.666 -9.66699 -54.999 -29s-20 -45 -20 -77c0 -31.333 6.66699 -56.666 20 -75.999s31.666 -29 54.999 -29c24 0 42.667 9.5 56 28.5s20 44.5 20 76.5z" />
    <glyph glyph-name="p" unicode="p" horiz-adv-x="529" 
d="M199 36v-195h-157v609h157v-36c11.333 12.667 27.166 23.5 47.499 32.5s41.5 13.5 63.5 13.5c62.667 0 111.834 -22.333 147.501 -67s53.5 -100.667 53.5 -168c0 -66.667 -17.833 -122.5 -53.5 -167.5s-84.834 -67.5 -147.501 -67.5c-22 0 -43.167 4.5 -63.5 13.5
s-36.166 19.833 -47.499 32.5zM199 285v-119c13.333 -28 36.333 -42 69 -42c26.667 0 47.667 9.5 63 28.5s23 43.167 23 72.5c0 30 -7.66699 54.5 -23 73.5s-36.333 28.5 -63 28.5c-32 0 -55 -14 -69 -42z" />
    <glyph glyph-name="q" unicode="q" horiz-adv-x="529" 
d="M330 -159v195c-11.333 -12.667 -27.166 -23.5 -47.499 -32.5s-41.5 -13.5 -63.5 -13.5c-62.667 0 -111.834 22.5 -147.501 67.5s-53.5 100.833 -53.5 167.5c0 67.333 17.833 123.333 53.5 168s84.834 67 147.501 67c22 0 43.167 -4.5 63.5 -13.5
s36.166 -19.833 47.499 -32.5v36h157v-609h-157zM330 166v119c-14 28 -37 42 -69 42c-26.667 0 -47.667 -9.5 -63 -28.5s-23 -43.5 -23 -73.5c0 -29.333 7.66699 -53.5 23 -72.5s36.333 -28.5 63 -28.5c32.667 0 55.667 14 69 42z" />
    <glyph glyph-name="r" unicode="r" horiz-adv-x="365" 
d="M344 452l0.00195312 -151c-18 9.33301 -39.667 14 -65 14c-44.667 0 -71.334 -17 -80.001 -51v-264h-157v450h157v-40c24.667 33.333 58.667 50 102 50c19.333 0 33.666 -2.66699 42.999 -8z" />
    <glyph glyph-name="s" unicode="s" horiz-adv-x="448" 
d="M16 139l153 0.000976562c7.33301 -26 26.333 -39 57 -39s46 10.333 46 31c0 13.333 -11.667 22.666 -35 27.999l-88 18c-82.667 17.333 -124 61 -124 131c0 46.667 18.333 83.667 55 111s82.334 41 137.001 41c60 0 107.167 -12.833 141.5 -38.5
s55.166 -61.5 62.499 -107.5h-145c-6 24 -24.333 36 -55 36c-28 0 -42 -10 -42 -30c0 -12.667 10.333 -21 31 -25l89 -21c84 -19.333 126 -64.333 126 -135c0 -46.667 -18.5 -83.167 -55.5 -109.5s-84.167 -39.5 -141.5 -39.5c-58.667 0 -107 13 -145 39
s-60.333 62.667 -67 110z" />
    <glyph glyph-name="t" unicode="t" horiz-adv-x="358" 
d="M75 155v173h-66v122h66v124h155v-124h94v-122h-94v-150c0 -33.333 16 -50 48 -50c18 0 34.667 3.33301 50 10v-133c-20.667 -9.33301 -49.667 -14 -87 -14c-110.667 0 -166 54.667 -166 164z" />
    <glyph glyph-name="u" unicode="u" horiz-adv-x="517" 
d="M475 450v-450.001h-157v39c-28 -32.667 -68 -49 -120 -49c-49.333 0 -88 14.833 -116 44.5s-42 69.834 -42 120.501v295h156v-258c0 -43.333 19.333 -65 58 -65c14.667 0 28 4.5 40 13.5s20 21.167 24 36.5v273h157z" />
    <glyph glyph-name="v" unicode="v" horiz-adv-x="497" 
d="M319 0h-141l-171 450h160l86 -258l84 258h154z" />
    <glyph glyph-name="w" unicode="w" horiz-adv-x="698" 
d="M402 450l67 -244l72 244h150l-145 -450h-133l-64 228l-64 -228h-133l-145 450h156l71 -244l68 244h100z" />
    <glyph glyph-name="x" unicode="x" horiz-adv-x="494" 
d="M483 450l-151 -220l158 -230h-170l-77 117l-77 -117h-162l157 229l-150 221h169l70 -108l71 108h162z" />
    <glyph glyph-name="y" unicode="y" horiz-adv-x="502" 
d="M264 -159h-155l66 170l-168 439h163l86 -256l84 256h156z" />
    <glyph glyph-name="z" unicode="z" horiz-adv-x="456" 
d="M424 123v-123h-393v103l198 225h-192v122h384v-102l-190 -225h193z" />
    <glyph glyph-name="braceleft" unicode="{" horiz-adv-x="366" 
d="M235 200v-125c0 -19.333 9.66699 -29 29 -29h82v-130h-124c-38 0 -69 12 -93 36s-36 55.333 -36 94v143c0 19.333 -9.66699 29 -29 29h-44v130h44c19.333 0 29 9.66699 29 29v143c0 38.667 12 70 36 94s55 36 93 36h124v-130h-82c-19.333 0 -29 -9.66699 -29 -29v-125
c0 -36 -15.667 -63.667 -47 -83c31.333 -19.333 47 -47 47 -83z" />
    <glyph glyph-name="bar" unicode="|" horiz-adv-x="223" 
d="M46 -84v734h131v-734h-131z" />
    <glyph glyph-name="braceright" unicode="}" horiz-adv-x="366" 
d="M131 75v125c0 36 15.667 63.667 47 83c-31.333 19.333 -47 47 -47 83v125c0 19.333 -9.66699 29 -29 29h-82v130h124c38 0 69 -12 93 -36s36 -55.333 36 -94v-143c0 -19.333 9.66699 -29 29 -29h44v-130h-44c-19.333 0 -29 -9.66699 -29 -29v-143
c0 -38.667 -12 -70 -36 -94s-55 -36 -93 -36h-124v130h82c19.333 0 29 9.66699 29 29z" />
    <glyph glyph-name="asciitilde" unicode="~" horiz-adv-x="426" 
d="M298 355h98c0 -51.333 -9.66699 -91.333 -29 -120s-46.333 -43 -81 -43c-22.667 0 -46.167 9.33301 -70.5 28s-41.5 28 -51.5 28c-23.333 0 -35 -17 -35 -51h-98c0 51.333 9.5 91.333 28.5 120s46.167 43 81.5 43c22.667 0 46.167 -9.33301 70.5 -28s41.5 -28 51.5 -28
c23.333 0 35 17 35 51z" />
    <glyph glyph-name="uni00A0" unicode="&#xa0;" horiz-adv-x="200" 
 />
    <glyph glyph-name="exclamdown" unicode="&#xa1;" horiz-adv-x="243" 
d="M26 436c0 25.333 9.16699 46.5 27.5 63.5s40.5 25.5 66.5 25.5s48 -8.5 66 -25.5s27 -38.167 27 -63.5c0 -24.667 -9 -45.5 -27 -62.5s-40 -25.5 -66 -25.5s-48.167 8.5 -66.5 25.5s-27.5 37.833 -27.5 62.5zM24 -96l35 408h121l35 -408h-191z" />
    <glyph glyph-name="cent" unicode="&#xa2;" horiz-adv-x="471" 
d="M18 235c0 58 14.833 107.167 44.5 147.5s69.5 66.833 119.5 79.5v96h127v-96c41.333 -10.667 74.5 -31.167 99.5 -61.5s39.833 -67.166 44.5 -110.499h-151c-1.33301 14.667 -7.16602 26.667 -17.499 36s-23.833 14 -40.5 14c-21.333 0 -38.5 -9.5 -51.5 -28.5
s-19.5 -44.5 -19.5 -76.5s6.5 -57.333 19.5 -76s30.167 -28 51.5 -28c16.667 0 30.167 4.5 40.5 13.5s16.166 20.833 17.499 35.5h151c-4.66699 -43.333 -19.5 -80.333 -44.5 -111s-58.167 -51.334 -99.5 -62.001v-92h-127v92c-50 13.333 -89.833 40.333 -119.5 81
s-44.5 89.667 -44.5 147z" />
    <glyph glyph-name="sterling" unicode="&#xa3;" horiz-adv-x="503" 
d="M237 422l0.00195312 -58.999h113v-119h-113v-23c0 -42 -7 -72.333 -21 -91h263v-130h-455v130h44c13.333 23.333 20 53.666 20 90.999v23h-64v119h64v54c0 60.667 17.833 110.334 53.5 149.001s84.167 58 145.5 58c57.333 0 103.166 -16.333 137.499 -49
s53.166 -76.334 56.499 -131.001h-140c-2 33.333 -18.333 50 -49 50c-36.667 0 -55 -24 -55 -72z" />
    <glyph glyph-name="yen" unicode="&#xa5;" horiz-adv-x="573" 
d="M63 244v92h96l-145 278h174l102 -214l102 214h167l-147 -278h97v-92h-145v-48h145v-92h-145v-104h-157v104h-144v92h144v48h-144z" />
    <glyph glyph-name="section" unicode="&#xa7;" horiz-adv-x="478" 
d="M388 122c20.667 -24 30.9971 -49.999 30.9971 -77.999c0 -44 -17 -79 -51 -105s-77.667 -39 -131 -39c-59.333 0 -105.666 13.5 -138.999 40.5s-53 63.833 -59 110.5h136c4.66699 -29.333 22.667 -44 54 -44c12 0 22.167 3.16699 30.5 9.5s12.5 15.166 12.5 26.499
c0 14 -11 27.667 -33 41l-114 63c-70 38 -105 85.333 -105 142c0 50 23 87.667 69 113c-20 22 -30 48 -30 78c0 44 17 79 51 105s77.667 39 131 39c60 0 106.5 -13.333 139.5 -40s52.5 -63.667 58.5 -111h-136c-1.33301 13.333 -6.66602 24 -15.999 32s-22 12 -38 12
c-12 0 -22.167 -3.16699 -30.5 -9.5s-12.5 -15.166 -12.5 -26.499c0 -6 1.83301 -11.667 5.5 -17s7.33398 -9.5 11.001 -12.5s9.5 -6.83301 17.5 -11.5l113 -63c70 -38 105 -85.333 105 -142c0 -50.667 -23.333 -88.334 -70 -113.001zM195.997 252.001l97 -61.001
c17.333 4.66699 26 16 26 34c0 15.333 -12.333 31 -37 47l-97 61c-16.667 -5.33301 -25 -16.666 -25 -33.999c0 -16 12 -31.667 36 -47z" />
    <glyph glyph-name="dieresis" unicode="&#xa8;" 
d="M84 567c0 21.333 7.5 39.5 22.5 54.5s33.167 22.5 54.5 22.5s39.5 -7.5 54.5 -22.5s22.5 -33.167 22.5 -54.5c0 -20.667 -7.5 -38.5 -22.5 -53.5s-33.167 -22.5 -54.5 -22.5s-39.5 7.5 -54.5 22.5s-22.5 32.833 -22.5 53.5zM261 567c0 21.333 7.33301 39.5 22 54.5
s32.667 22.5 54 22.5s39.666 -7.5 54.999 -22.5s23 -33.167 23 -54.5c0 -20.667 -7.66699 -38.5 -23 -53.5s-33.666 -22.5 -54.999 -22.5c-20.667 0 -38.5 7.5 -53.5 22.5s-22.5 32.833 -22.5 53.5z" />
    <glyph glyph-name="copyright" unicode="&#xa9;" horiz-adv-x="704" 
d="M669 307c0 -90.667 -30.833 -166.167 -92.5 -226.5s-136.5 -90.5 -224.5 -90.5s-162.833 30.167 -224.5 90.5s-92.5 135.833 -92.5 226.5s30.833 166.167 92.5 226.5s136.5 90.5 224.5 90.5s162.833 -30.167 224.5 -90.5s92.5 -135.833 92.5 -226.5zM622 307
c0 77.333 -26.333 141.833 -79 193.5s-116.334 77.5 -191.001 77.5s-138.334 -25.833 -191.001 -77.5s-79 -116.167 -79 -193.5s26.333 -141.833 79 -193.5s116.334 -77.5 191.001 -77.5s138.334 25.833 191.001 77.5s79 116.167 79 193.5zM165 308
c0 58.667 17.668 106.666 53.001 143.999s81 56 137 56c48.667 0 87.667 -12.833 117 -38.5s47.333 -59.167 54 -100.5h-114c-8 26 -27 39 -57 39c-24.667 0 -43.667 -9.16699 -57 -27.5s-20 -42.5 -20 -72.5c0 -29.333 6.83301 -53.166 20.5 -71.499s32.5 -27.5 56.5 -27.5
c30 0 49 13.333 57 40h114c-6.66699 -41.333 -24.834 -75 -54.501 -101s-68.5 -39 -116.5 -39c-56 0 -101.667 18.5 -137 55.5s-53 84.833 -53 143.5z" />
    <glyph glyph-name="ordfeminine" unicode="&#xaa;" horiz-adv-x="320" 
d="M303 311l-110.001 0.00195312v15c-14 -14 -38.667 -21 -74 -21c-31.333 0 -57.666 8.66699 -78.999 26s-32 41.666 -32 72.999c0 29.333 11.167 52.833 33.5 70.5s50.5 26.5 84.5 26.5c29.333 0 51.666 -5.66699 66.999 -17v19c0 9.33301 -2.83301 17.166 -8.5 23.499
s-14.167 9.5 -25.5 9.5c-18 0 -29 -7.33301 -33 -22h-104c4.66699 32.667 19.334 59.167 44.001 79.5s57 30.5 97 30.5c44.667 0 79.167 -11 103.5 -33s36.5 -53.333 36.5 -94v-186zM192.999 399.002l0.000976562 15c-8.66699 12 -22 18 -40 18
c-10 0 -18.5 -2.33301 -25.5 -7s-10.5 -11 -10.5 -19c0 -17.333 12 -26 36 -26c19.333 0 32.666 6.33301 39.999 19z" />
    <glyph glyph-name="guillemotleft" unicode="&#xab;" horiz-adv-x="451" 
d="M245 58h-128l-92 164l92 164h128l-92 -164zM426 58h-128l-92 164l92 164h128l-92 -164z" />
    <glyph glyph-name="registered" unicode="&#xae;" horiz-adv-x="407" 
d="M384 441c0 -52 -17.667 -95.5 -53 -130.5s-78 -52.5 -128 -52.5s-92.667 17.5 -128 52.5s-53 78.5 -53 130.5s17.667 95.5 53 130.5s78 52.5 128 52.5s92.667 -17.5 128 -52.5s53 -78.5 53 -130.5zM351 441c0 44 -14.333 80.333 -43 109s-63.667 43 -105 43
s-76.333 -14.333 -105 -43s-43 -65 -43 -109s14.333 -80.333 43 -109s63.667 -43 105 -43s76.333 14.333 105 43s43 65 43 109zM197 404h-12v-58h-59v192h93c22 0 39.5 -6 52.5 -18s19.5 -29 19.5 -51c0 -28 -12 -47.333 -36 -58l42 -65h-65zM233 469
c0 13.333 -7.66699 20 -23 20h-25v-38h25c15.333 0 23 6 23 18z" />
    <glyph glyph-name="macron" unicode="&#xaf;" 
d="M123 504v108h253v-108h-253z" />
    <glyph glyph-name="degree" unicode="&#xb0;" horiz-adv-x="362" 
d="M124 483c0 -16.667 5.66699 -30.667 17 -42s24.666 -17 39.999 -17s28.5 5.66699 39.5 17s16.5 25.333 16.5 42c0 16 -5.5 29.667 -16.5 41s-24.167 17 -39.5 17s-28.666 -5.66699 -39.999 -17s-17 -25 -17 -41zM320 483c0 -39.333 -13.667 -72.666 -41 -99.999
s-60 -41 -98 -41s-70.667 13.667 -98 41s-41 60.666 -41 99.999c0 38.667 13.667 71.834 41 99.501s60 41.5 98 41.5s70.667 -13.833 98 -41.5s41 -60.834 41 -99.501z" />
    <glyph glyph-name="plusminus" unicode="&#xb1;" horiz-adv-x="567" 
d="M231 561h105v-128h166v-104h-166v-128h-105v128h-165v104h165v128zM66 48v105h436v-105h-436z" />
    <glyph glyph-name="twosuperior" unicode="&#xb2;" horiz-adv-x="311" 
d="M184 501c0 17.333 -8.33105 26 -24.998 26c-8 0 -14.667 -2.83301 -20 -8.5s-8 -12.167 -8 -19.5h-110c3.33301 34.667 17.166 63.334 41.499 86.001s55.5 34 93.5 34c40 0 72.167 -10.333 96.5 -31s36.5 -47.667 36.5 -81c0 -14.667 -3.33301 -28.834 -10 -42.501
s-13.834 -24.334 -21.501 -32.001l-33.5 -32.5l-51 -47h114v-89h-264v68l129 119l18 19.5c3.33301 3.66699 6.5 8.33398 9.5 14.001s4.5 11.167 4.5 16.5z" />
    <glyph glyph-name="threesuperior" unicode="&#xb3;" horiz-adv-x="301" 
d="M121 404l0.00292969 71.999h23c24.667 0 37 10 37 30c0 8 -2.5 14.833 -7.5 20.5s-12.167 8.5 -21.5 8.5c-10 0 -18 -3.5 -24 -10.5s-9.66699 -15.167 -11 -24.5h-101c4 34 17.667 62.333 41 85s54 34 92 34c40.667 0 72.5 -10.167 95.5 -30.5s34.5 -47.5 34.5 -81.5
c0 -13.333 -3.33301 -26.5 -10 -39.5s-15 -22.5 -25 -28.5c25.333 -12.667 38 -34.667 38 -66c0 -34.667 -11.833 -62.5 -35.5 -83.5s-55.834 -31.5 -96.501 -31.5s-73 11 -97 33s-37.333 51.667 -40 89h107c1.33301 -23.333 12.666 -35 33.999 -35
c9.33301 0 16.666 2.83301 21.999 8.5s8 12.834 8 21.501c0 19.333 -12 29 -36 29h-27z" />
    <glyph glyph-name="acute" unicode="&#xb4;" 
d="M278 500h-144l82 150h149z" />
    <glyph glyph-name="paragraph" unicode="&#xb6;" horiz-adv-x="551" 
d="M400 -90v704h105v-704h-105zM242 -90v337c-61.333 0 -114.666 15.667 -159.999 47s-68 77 -68 137s22.667 105.5 68 136.5s98.666 46.5 159.999 46.5h104v-704h-104z" />
    <glyph glyph-name="periodcentered" unicode="&#xb7;" horiz-adv-x="233" 
d="M24 262c0 26.667 9 48.834 27 66.501s39.667 26.5 65 26.5c26 0 48 -8.83301 66 -26.5s27 -39.834 27 -66.501s-9 -49 -27 -67s-40 -27 -66 -27c-25.333 0 -47 9 -65 27s-27 40.333 -27 67z" />
    <glyph glyph-name="cedilla" unicode="&#xb8;" 
d="M274 -181h-133l69 141h134z" />
    <glyph glyph-name="onesuperior" unicode="&#xb9;" horiz-adv-x="242" 
d="M205 614v-350h-104v233l-87 -42v105l115 54h76z" />
    <glyph glyph-name="ordmasculine" unicode="&#xba;" horiz-adv-x="335" 
d="M328 464c0 -47.333 -14.833 -85.833 -44.5 -115.5s-68.167 -44.5 -115.5 -44.5s-85.833 14.833 -115.5 44.5s-44.5 68.167 -44.5 115.5s14.833 85.833 44.5 115.5s68.167 44.5 115.5 44.5s85.833 -14.833 115.5 -44.5s44.5 -68.167 44.5 -115.5zM212 464
c0 18.667 -3.83301 34 -11.5 46s-18.5 18 -32.5 18s-24.833 -6 -32.5 -18s-11.5 -27.333 -11.5 -46s3.83301 -33.834 11.5 -45.501s18.5 -17.5 32.5 -17.5s24.833 5.83301 32.5 17.5s11.5 26.834 11.5 45.501z" />
    <glyph glyph-name="guillemotright" unicode="&#xbb;" horiz-adv-x="451" 
d="M334 58h-128l92 164l-92 164h128l92 -164zM153 58h-128l92 164l-92 164h128l92 -164z" />
    <glyph glyph-name="onequarter" unicode="&#xbc;" horiz-adv-x="719" 
d="M602 614l-420 -614h-92l420 614h92zM215 614v-350h-104v233l-86 -42v105l115 54h75zM602 350l-95 -206h46v51h90v-51h47v-87h-47v-57h-90v57h-158v81l105 212h102z" />
    <glyph glyph-name="onehalf" unicode="&#xbd;" horiz-adv-x="725" 
d="M602 614l-420 -614h-92l420 614h92zM215 614v-350h-104v233l-86 -42v105l115 54h75zM583 238c0 7.33301 -2.33203 13.3311 -6.99902 17.998s-11 7 -19 7s-14.667 -2.83301 -20 -8.5s-8 -12.167 -8 -19.5h-110c3.33301 34.667 17.166 63.334 41.499 86.001
s55.5 34 93.5 34c40 0 72.167 -10.333 96.5 -31s36.5 -47.667 36.5 -81c0 -14.667 -3.33301 -28.667 -10 -42s-13.667 -24.166 -21 -32.499s-18.333 -19.166 -33 -32.499l-51 -47h114v-89h-264v68l128 120c19.333 19.333 30 33.666 32 42.999c0.666992 2 1 4.33301 1 7z" />
    <glyph glyph-name="threequarters" unicode="&#xbe;" horiz-adv-x="749" 
d="M632 614l-420 -614h-93l420 614h93zM135 404v71.999h24c24 0 36 10 36 30c0 19.333 -9.66699 29 -29 29c-10 0 -17.833 -3.5 -23.5 -10.5s-9.16699 -15.167 -10.5 -24.5h-101c4 34 17.5 62.333 40.5 85s53.5 34 91.5 34c40.667 0 72.5 -10.167 95.5 -30.5
s34.5 -47.5 34.5 -81.5c0 -13.333 -3.33301 -26.5 -10 -39.5s-15 -22.5 -25 -28.5c26 -12.667 39 -34.667 39 -66c0 -34.667 -11.833 -62.5 -35.5 -83.5s-56.167 -31.5 -97.5 -31.5c-40 0 -72.167 11.167 -96.5 33.5s-37.5 51.833 -39.5 88.5h106
c2.66699 -23.333 14 -35 34 -35c9.33301 0 16.833 2.83301 22.5 8.5s8.5 12.834 8.5 21.501c0 19.333 -12 29 -36 29h-28zM631 349.999l-95 -206h46v51h91v-51h47v-87h-47v-57h-91v57h-158v81l106 212h101z" />
    <glyph glyph-name="questiondown" unicode="&#xbf;" horiz-adv-x="475" 
d="M321 436c0 -25.333 -9 -46.333 -27 -63s-40 -25 -66 -25c-26.667 0 -49.167 8.33301 -67.5 25s-27.5 37.667 -27.5 63s9.16699 46.5 27.5 63.5s40.833 25.5 67.5 25.5c26 0 48 -8.5 66 -25.5s27 -38.167 27 -63.5zM20 78c0 17.333 3.83691 35.334 11.5039 54.001
s14.167 32 19.5 40s17.333 23.167 36 45.5s29 34.5 31 36.5c18 21.333 27.667 40.666 29 57.999h155c-0.666992 -18 -4.33398 -34.333 -11.001 -49s-19.334 -33.667 -38.001 -57c-4.66699 -6 -13 -15.833 -25 -29.5s-20.167 -23.334 -24.5 -29.001
s-8.83301 -13.667 -13.5 -24s-7 -20.166 -7 -29.499c0 -16.667 5.16699 -30.167 15.5 -40.5s23.833 -15.5 40.5 -15.5c18 0 32.167 5.83301 42.5 17.5s16.166 26.167 17.499 43.5h162c-6 -60 -29 -109.167 -69 -147.5s-93 -57.5 -159 -57.5
c-64.667 0 -116.334 16.5 -155.001 49.5s-58 77.833 -58 134.5z" />
    <glyph glyph-name="Agrave" unicode="&#xc0;" horiz-adv-x="646" 
d="M241 614h164l234 -614h-163l-44 119h-223l-43 -119h-159zM406 666h-154l-89 130h161zM321 424l-63 -173h126z" />
    <glyph glyph-name="Aacute" unicode="&#xc1;" horiz-adv-x="646" 
d="M241 614h164l234 -614h-163l-44 119h-223l-43 -119h-159zM396 666h-154l82 130h161zM321 424l-63 -173h126z" />
    <glyph glyph-name="Acircumflex" unicode="&#xc2;" horiz-adv-x="646" 
d="M241 614h164l234 -614h-163l-44 119h-223l-43 -119h-159zM383 798l108 -132h-126l-42 45l-42 -45h-126l108 132h120zM321 424l-63 -173h126z" />
    <glyph glyph-name="Atilde" unicode="&#xc3;" horiz-adv-x="646" 
d="M241 614h164l234 -614h-163l-44 119h-223l-43 -119h-159zM395 809h85c0 -100 -29.333 -150 -88 -150c-17.333 0 -38.333 5.83301 -63 17.5s-42 17.5 -52 17.5c-16 0 -24.667 -10.333 -26 -31h-85c0 100 29.333 150 88 150c17.333 0 38.333 -5.83301 63 -17.5
s42 -17.5 52 -17.5c16 0 24.667 10.333 26 31zM321 424l-63 -173h126z" />
    <glyph glyph-name="Adieresis" unicode="&#xc4;" horiz-adv-x="646" 
d="M241 614h164l234 -614h-163l-44 119h-223l-43 -119h-159zM154 734c0 22 7.5 40.667 22.5 56s33.5 23 55.5 23c21.333 0 39.833 -7.66699 55.5 -23s23.5 -34 23.5 -56s-7.83301 -40.667 -23.5 -56s-34.167 -23 -55.5 -23c-22 0 -40.5 7.66699 -55.5 23s-22.5 34 -22.5 56z
M335 734c0 22 7.66699 40.667 23 56s33.666 23 54.999 23s39.833 -7.66699 55.5 -23s23.5 -34 23.5 -56s-7.83301 -40.667 -23.5 -56s-34.167 -23 -55.5 -23s-39.666 7.66699 -54.999 23s-23 34 -23 56zM321 424l-63 -173h126z" />
    <glyph glyph-name="Aring" unicode="&#xc5;" horiz-adv-x="646" 
d="M241 614h164l234 -614h-163l-44 119h-223l-43 -119h-159zM431 747c0 -29.333 -10.333 -54.166 -31 -74.499s-46.334 -30.5 -77.001 -30.5s-56.334 10.167 -77.001 30.5s-31 45.166 -31 74.499s10.333 54.166 31 74.499s46.334 30.5 77.001 30.5
s56.334 -10.167 77.001 -30.5s31 -45.166 31 -74.499zM321 424l-63 -173h126zM359 747c0 10 -3.33301 18.5 -10 25.5s-15.334 10.5 -26.001 10.5c-10 0 -18.5 -3.5 -25.5 -10.5s-10.5 -15.5 -10.5 -25.5s3.5 -18.5 10.5 -25.5s15.5 -10.5 25.5 -10.5
c10.667 0 19.334 3.5 26.001 10.5s10 15.5 10 25.5z" />
    <glyph glyph-name="AE" unicode="&#xc6;" horiz-adv-x="898" 
d="M352 614h512v-138h-261v-96h236v-135h-236v-106h261v-139h-419v119h-202l-66 -119h-170zM445 484l-129 -233h129v233z" />
    <glyph glyph-name="Ccedilla" unicode="&#xc7;" horiz-adv-x="603" 
d="M22 307c0 92.667 27.667 168.666 83 227.999s126 89 212 89c74 0 133.833 -19.667 179.5 -59s74.167 -91.666 85.5 -156.999h-160c-18 50 -53 75 -105 75c-41.333 0 -73.833 -16.333 -97.5 -49s-35.5 -75 -35.5 -127c0 -51.333 11.833 -93.5 35.5 -126.5
s56.167 -49.5 97.5 -49.5c52.667 0 87.667 25.333 105 76h160c-11.333 -65.333 -39.833 -117.833 -85.5 -157.5s-105.5 -59.5 -179.5 -59.5c-86 0 -156.667 29.667 -212 89s-83 135.333 -83 228zM318 -181.001h-133l69 141h134z" />
    <glyph glyph-name="Egrave" unicode="&#xc8;" horiz-adv-x="519" 
d="M354 666h-154l-89 130h161zM46 614h439v-138h-281v-96h257v-135h-257v-106h281v-139h-439v614z" />
    <glyph glyph-name="Eacute" unicode="&#xc9;" horiz-adv-x="519" 
d="M344 666h-154l82 130h161zM46 614h439v-138h-281v-96h257v-135h-257v-106h281v-139h-439v614z" />
    <glyph glyph-name="Ecircumflex" unicode="&#xca;" horiz-adv-x="519" 
d="M46 614h439v-138h-281v-96h257v-135h-257v-106h281v-139h-439v614zM331 798l108 -132h-126l-42 45l-42 -45h-126l108 132h120z" />
    <glyph glyph-name="Edieresis" unicode="&#xcb;" horiz-adv-x="519" 
d="M102 734c0 22 7.5 40.667 22.5 56s33.5 23 55.5 23c21.333 0 39.833 -7.66699 55.5 -23s23.5 -34 23.5 -56s-7.83301 -40.667 -23.5 -56s-34.167 -23 -55.5 -23c-22 0 -40.5 7.66699 -55.5 23s-22.5 34 -22.5 56zM283 734c0 22 7.66699 40.667 23 56s33.666 23 54.999 23
s39.833 -7.66699 55.5 -23s23.5 -34 23.5 -56s-7.83301 -40.667 -23.5 -56s-34.167 -23 -55.5 -23s-39.666 7.66699 -54.999 23s-23 34 -23 56zM46 614h439v-138h-281v-96h257v-135h-257v-106h281v-139h-439v614z" />
    <glyph glyph-name="Igrave" unicode="&#xcc;" horiz-adv-x="253" 
d="M207 614v-614h-161v614h161zM209 666h-154l-89 130h161z" />
    <glyph glyph-name="Iacute" unicode="&#xcd;" horiz-adv-x="253" 
d="M207 614v-614h-161v614h161zM199 666h-154l82 130h161z" />
    <glyph glyph-name="Icircumflex" unicode="&#xce;" horiz-adv-x="253" 
d="M207 614v-614h-161v614h161zM186 798l108 -132h-126l-42 45l-42 -45h-126l108 132h120z" />
    <glyph glyph-name="Idieresis" unicode="&#xcf;" horiz-adv-x="253" 
d="M207 614v-614h-161v614h161zM-42 734c0 22 7.5 40.667 22.5 56s33.5 23 55.5 23c21.333 0 39.833 -7.66699 55.5 -23s23.5 -34 23.5 -56s-7.83301 -40.667 -23.5 -56s-34.167 -23 -55.5 -23c-22 0 -40.5 7.66699 -55.5 23s-22.5 34 -22.5 56zM139 734
c0 22 7.66699 40.667 23 56s33.666 23 54.999 23s39.833 -7.66699 55.5 -23s23.5 -34 23.5 -56s-7.83301 -40.667 -23.5 -56s-34.167 -23 -55.5 -23s-39.666 7.66699 -54.999 23s-23 34 -23 56z" />
    <glyph glyph-name="Eth" unicode="&#xd0;" horiz-adv-x="626" 
d="M17 252v124h46v238h232c96 0 171.667 -27.667 227 -83s83 -130 83 -224s-27.667 -168.667 -83 -224s-131 -83 -227 -83h-232v252h-46zM221 139h66c50.667 0 89.834 15 117.501 45s41.5 71 41.5 123c0 52.667 -13.833 94 -41.5 124s-66.834 45 -117.501 45h-66v-100h87
v-124h-87v-113z" />
    <glyph glyph-name="Ntilde" unicode="&#xd1;" horiz-adv-x="634" 
d="M389 809h85c0 -100 -29.333 -150 -88 -150c-17.333 0 -38.333 5.83301 -63 17.5s-42 17.5 -52 17.5c-16 0 -24.667 -10.333 -26 -31h-85c0 100 29.333 150 88 150c17.333 0 38.333 -5.83301 63 -17.5s42 -17.5 52 -17.5c16 0 24.667 10.333 26 31zM588 614v-614h-130
l-257 359v-359h-155v614h150l237 -338v338h155z" />
    <glyph glyph-name="Ograve" unicode="&#xd2;" horiz-adv-x="643" 
d="M404 666h-154l-89 130h161zM622 307c0 -92 -28 -167.833 -84 -227.5s-128.333 -89.5 -217 -89.5c-88 0 -159.833 29.833 -215.5 89.5s-83.5 135.5 -83.5 227.5c0 92.667 27.833 168.667 83.5 228s127.5 89 215.5 89c88.667 0 161 -29.667 217 -89s84 -135.333 84 -228z
M460 307c0 52.667 -12.833 95.167 -38.5 127.5s-59.167 48.5 -100.5 48.5s-74.5 -16 -99.5 -48s-37.5 -74.667 -37.5 -128s12.5 -96 37.5 -128s58.167 -48 99.5 -48s74.833 16.167 100.5 48.5s38.5 74.833 38.5 127.5z" />
    <glyph glyph-name="Oacute" unicode="&#xd3;" horiz-adv-x="643" 
d="M394 666h-154l82 130h161zM622 307c0 -92 -28 -167.833 -84 -227.5s-128.333 -89.5 -217 -89.5c-88 0 -159.833 29.833 -215.5 89.5s-83.5 135.5 -83.5 227.5c0 92.667 27.833 168.667 83.5 228s127.5 89 215.5 89c88.667 0 161 -29.667 217 -89s84 -135.333 84 -228z
M460 307c0 52.667 -12.833 95.167 -38.5 127.5s-59.167 48.5 -100.5 48.5s-74.5 -16 -99.5 -48s-37.5 -74.667 -37.5 -128s12.5 -96 37.5 -128s58.167 -48 99.5 -48s74.833 16.167 100.5 48.5s38.5 74.833 38.5 127.5z" />
    <glyph glyph-name="Ocircumflex" unicode="&#xd4;" horiz-adv-x="643" 
d="M622 307c0 -92 -28 -167.833 -84 -227.5s-128.333 -89.5 -217 -89.5c-88 0 -159.833 29.833 -215.5 89.5s-83.5 135.5 -83.5 227.5c0 92.667 27.833 168.667 83.5 228s127.5 89 215.5 89c88.667 0 161 -29.667 217 -89s84 -135.333 84 -228zM460 307
c0 52.667 -12.833 95.167 -38.5 127.5s-59.167 48.5 -100.5 48.5s-74.5 -16 -99.5 -48s-37.5 -74.667 -37.5 -128s12.5 -96 37.5 -128s58.167 -48 99.5 -48s74.833 16.167 100.5 48.5s38.5 74.833 38.5 127.5zM381 798l108 -132h-126l-42 45l-42 -45h-126l108 132h120z" />
    <glyph glyph-name="Otilde" unicode="&#xd5;" horiz-adv-x="643" 
d="M393 809h85c0 -100 -29.333 -150 -88 -150c-17.333 0 -38.333 5.83301 -63 17.5s-42 17.5 -52 17.5c-16 0 -24.667 -10.333 -26 -31h-85c0 100 29.333 150 88 150c17.333 0 38.333 -5.83301 63 -17.5s42 -17.5 52 -17.5c16 0 24.667 10.333 26 31zM622 307
c0 -92 -28 -167.833 -84 -227.5s-128.333 -89.5 -217 -89.5c-88 0 -159.833 29.833 -215.5 89.5s-83.5 135.5 -83.5 227.5c0 92.667 27.833 168.667 83.5 228s127.5 89 215.5 89c88.667 0 161 -29.667 217 -89s84 -135.333 84 -228zM460 307
c0 52.667 -12.833 95.167 -38.5 127.5s-59.167 48.5 -100.5 48.5s-74.5 -16 -99.5 -48s-37.5 -74.667 -37.5 -128s12.5 -96 37.5 -128s58.167 -48 99.5 -48s74.833 16.167 100.5 48.5s38.5 74.833 38.5 127.5z" />
    <glyph glyph-name="Odieresis" unicode="&#xd6;" horiz-adv-x="643" 
d="M153 734c0 22 7.5 40.667 22.5 56s33.5 23 55.5 23c21.333 0 39.833 -7.66699 55.5 -23s23.5 -34 23.5 -56s-7.83301 -40.667 -23.5 -56s-34.167 -23 -55.5 -23c-22 0 -40.5 7.66699 -55.5 23s-22.5 34 -22.5 56zM334 734c0 22 7.66699 40.667 23 56s33.666 23 54.999 23
s39.833 -7.66699 55.5 -23s23.5 -34 23.5 -56s-7.83301 -40.667 -23.5 -56s-34.167 -23 -55.5 -23s-39.666 7.66699 -54.999 23s-23 34 -23 56zM622 307c0 -92 -28 -167.833 -84 -227.5s-128.333 -89.5 -217 -89.5c-88 0 -159.833 29.833 -215.5 89.5
s-83.5 135.5 -83.5 227.5c0 92.667 27.833 168.667 83.5 228s127.5 89 215.5 89c88.667 0 161 -29.667 217 -89s84 -135.333 84 -228zM460 307c0 52.667 -12.833 95.167 -38.5 127.5s-59.167 48.5 -100.5 48.5s-74.5 -16 -99.5 -48s-37.5 -74.667 -37.5 -128
s12.5 -96 37.5 -128s58.167 -48 99.5 -48s74.833 16.167 100.5 48.5s38.5 74.833 38.5 127.5z" />
    <glyph glyph-name="multiply" unicode="&#xd7;" horiz-adv-x="494" 
d="M166 298l-121 120l82 81l120 -120l120 120l82 -81l-121 -120l121 -120l-82 -81l-120 120l-120 -120l-82 81z" />
    <glyph glyph-name="Oslash" unicode="&#xd8;" horiz-adv-x="652" 
d="M34 36l57.999 64.001c-44 57.333 -66 126.333 -66 207c0 92.667 27.833 168.667 83.5 228s127.834 89 216.501 89c69.333 0 130.333 -20 183 -60l54 61l56 -47l-59 -65c44 -56.667 66 -125.334 66 -206.001c0 -92 -28 -167.833 -84 -227.5s-128 -89.5 -216 -89.5
c-71.333 0 -132.333 19.667 -183 59l-53 -60zM187.999 307.001c0 -29.333 4.33301 -57.667 13 -85l208 232c-22.667 19.333 -50.334 29 -83.001 29c-41.333 0 -74.666 -16.167 -99.999 -48.5s-38 -74.833 -38 -127.5zM463.999 307c0 30 -4.33301 58 -13 84l-208 -232
c22.667 -18.667 50.334 -28 83.001 -28c41.333 0 74.666 16.167 99.999 48.5s38 74.833 38 127.5z" />
    <glyph glyph-name="Ugrave" unicode="&#xd9;" horiz-adv-x="613" 
d="M390 666h-154l-89 130h161zM307 -10c-82.667 0 -148 22.668 -196 68.001s-72 109.666 -72 192.999v363h160v-349c0 -42.667 9.5 -75.334 28.5 -98.001s45.5 -34 79.5 -34c33.333 0 59.5 11.333 78.5 34s28.5 55.334 28.5 98.001v349h160v-364
c0 -82.667 -24 -146.667 -72 -192s-113 -68 -195 -68z" />
    <glyph glyph-name="Uacute" unicode="&#xda;" horiz-adv-x="613" 
d="M380 666h-154l82 130h161zM307 -10c-82.667 0 -148 22.668 -196 68.001s-72 109.666 -72 192.999v363h160v-349c0 -42.667 9.5 -75.334 28.5 -98.001s45.5 -34 79.5 -34c33.333 0 59.5 11.333 78.5 34s28.5 55.334 28.5 98.001v349h160v-364
c0 -82.667 -24 -146.667 -72 -192s-113 -68 -195 -68z" />
    <glyph glyph-name="Ucircumflex" unicode="&#xdb;" horiz-adv-x="613" 
d="M307 -10c-82.667 0 -148 22.668 -196 68.001s-72 109.666 -72 192.999v363h160v-349c0 -42.667 9.5 -75.334 28.5 -98.001s45.5 -34 79.5 -34c33.333 0 59.5 11.333 78.5 34s28.5 55.334 28.5 98.001v349h160v-364c0 -82.667 -24 -146.667 -72 -192s-113 -68 -195 -68z
M367 798.001l108 -132h-126l-42 45l-42 -45h-126l108 132h120z" />
    <glyph glyph-name="Udieresis" unicode="&#xdc;" horiz-adv-x="613" 
d="M138 734c0 22 7.5 40.667 22.5 56s33.5 23 55.5 23c21.333 0 39.833 -7.66699 55.5 -23s23.5 -34 23.5 -56s-7.83301 -40.667 -23.5 -56s-34.167 -23 -55.5 -23c-22 0 -40.5 7.66699 -55.5 23s-22.5 34 -22.5 56zM319 734c0 22 7.66699 40.667 23 56s33.666 23 54.999 23
s39.833 -7.66699 55.5 -23s23.5 -34 23.5 -56s-7.83301 -40.667 -23.5 -56s-34.167 -23 -55.5 -23s-39.666 7.66699 -54.999 23s-23 34 -23 56zM307 -10c-82.667 0 -148 22.668 -196 68.001s-72 109.666 -72 192.999v363h160v-349c0 -42.667 9.5 -75.334 28.5 -98.001
s45.5 -34 79.5 -34c33.333 0 59.5 11.333 78.5 34s28.5 55.334 28.5 98.001v349h160v-364c0 -82.667 -24 -146.667 -72 -192s-113 -68 -195 -68z" />
    <glyph glyph-name="Yacute" unicode="&#xdd;" horiz-adv-x="612" 
d="M309 374l129 240h169l-222 -396v-218h-161v218l-218 396h174zM379 666h-154l82 130h161z" />
    <glyph glyph-name="Thorn" unicode="&#xde;" horiz-adv-x="561" 
d="M315 102h-110v-102h-159v614h159v-89h110c68 0 122.167 -18.5 162.5 -55.5s60.5 -89.167 60.5 -156.5c0 -66.667 -20.167 -118.5 -60.5 -155.5s-94.5 -55.5 -162.5 -55.5zM382 313c0 51.333 -28 77 -84 77h-93v-154h93c28 0 49 6.83301 63 20.5s21 32.5 21 56.5z" />
    <glyph glyph-name="germandbls" unicode="&#xdf;" horiz-adv-x="543" 
d="M414 355c32 -11.333 58.334 -31.6689 79.001 -61.002s31 -64.666 31 -105.999c0 -60 -18.333 -107.167 -55 -141.5s-84.334 -51.5 -143.001 -51.5c-31.333 0 -57.666 3.66699 -78.999 11v124c12.667 -4.66699 29 -7 49 -7c24.667 0 44 6.83301 58 20.5s21 33.167 21 58.5
s-8.5 44.666 -25.5 57.999s-40.167 20 -69.5 20h-29v122h17c20 0 35.667 5.33301 47 16s17 26.334 17 47.001c0 18.667 -5.66699 33.5 -17 44.5s-27.333 16.5 -48 16.5c-22 0 -39 -7.66699 -51 -23s-18 -35.666 -18 -60.999v-442h-156v432c0 70 20.167 125.333 60.5 166
s95.166 61 164.499 61c67.333 0 119.5 -16.167 156.5 -48.5s55.5 -74.5 55.5 -126.5c0 -30 -6.16699 -56.5 -18.5 -79.5s-27.833 -39.5 -46.5 -49.5z" />
    <glyph glyph-name="agrave" unicode="&#xe0;" horiz-adv-x="478" 
d="M443 0h-150.999v23c-8 -8 -22.333 -15.167 -43 -21.5s-42.334 -9.5 -65.001 -9.5c-46.667 0 -85.667 12.833 -117 38.5s-47 61.167 -47 106.5c0 42.667 16.333 77.167 49 103.5s74 39.5 124 39.5c42.667 0 75.667 -8.33301 99 -25v29
c0 15.333 -4.66699 28.166 -14 38.499s-23 15.5 -41 15.5c-27.333 0 -45 -11 -53 -33h-148c6.66699 44.667 28.5 81.834 65.5 111.501s83.833 44.5 140.5 44.5c64 0 113.5 -16.167 148.5 -48.5s52.5 -77.833 52.5 -136.5v-276zM292.001 126v26
c-10.667 20.667 -32.667 31 -66 31c-17.333 0 -32 -3.66699 -44 -11s-18 -18 -18 -32c0 -14.667 6 -25.667 18 -33s26.667 -11 44 -11c32.667 0 54.667 10 66 30zM326.001 500h-144l-87 150h149z" />
    <glyph glyph-name="aacute" unicode="&#xe1;" horiz-adv-x="478" 
d="M443 0h-150.999v23c-8 -8 -22.333 -15.167 -43 -21.5s-42.334 -9.5 -65.001 -9.5c-46.667 0 -85.667 12.833 -117 38.5s-47 61.167 -47 106.5c0 42.667 16.333 77.167 49 103.5s74 39.5 124 39.5c42.667 0 75.667 -8.33301 99 -25v29
c0 15.333 -4.66699 28.166 -14 38.499s-23 15.5 -41 15.5c-27.333 0 -45 -11 -53 -33h-148c6.66699 44.667 28.5 81.834 65.5 111.501s83.833 44.5 140.5 44.5c64 0 113.5 -16.167 148.5 -48.5s52.5 -77.833 52.5 -136.5v-276zM292.001 126v26
c-10.667 20.667 -32.667 31 -66 31c-17.333 0 -32 -3.66699 -44 -11s-18 -18 -18 -32c0 -14.667 6 -25.667 18 -33s26.667 -11 44 -11c32.667 0 54.667 10 66 30zM317.001 500h-144l82 150h149z" />
    <glyph glyph-name="acircumflex" unicode="&#xe2;" horiz-adv-x="478" 
d="M307 649l96 -151h-116l-40 55l-40 -55h-116l96 151h120zM443 0h-150.999v23c-8 -8 -22.333 -15.167 -43 -21.5s-42.334 -9.5 -65.001 -9.5c-46.667 0 -85.667 12.833 -117 38.5s-47 61.167 -47 106.5c0 42.667 16.333 77.167 49 103.5s74 39.5 124 39.5
c42.667 0 75.667 -8.33301 99 -25v29c0 15.333 -4.66699 28.166 -14 38.499s-23 15.5 -41 15.5c-27.333 0 -45 -11 -53 -33h-148c6.66699 44.667 28.5 81.834 65.5 111.501s83.833 44.5 140.5 44.5c64 0 113.5 -16.167 148.5 -48.5s52.5 -77.833 52.5 -136.5v-276z
M292.001 126v26c-10.667 20.667 -32.667 31 -66 31c-17.333 0 -32 -3.66699 -44 -11s-18 -18 -18 -32c0 -14.667 6 -25.667 18 -33s26.667 -11 44 -11c32.667 0 54.667 10 66 30z" />
    <glyph glyph-name="atilde" unicode="&#xe3;" horiz-adv-x="478" 
d="M443 0h-150.999v23c-8 -8 -22.333 -15.167 -43 -21.5s-42.334 -9.5 -65.001 -9.5c-46.667 0 -85.667 12.833 -117 38.5s-47 61.167 -47 106.5c0 42.667 16.333 77.167 49 103.5s74 39.5 124 39.5c42.667 0 75.667 -8.33301 99 -25v29
c0 15.333 -4.66699 28.166 -14 38.499s-23 15.5 -41 15.5c-27.333 0 -45 -11 -53 -33h-148c6.66699 44.667 28.5 81.834 65.5 111.501s83.833 44.5 140.5 44.5c64 0 113.5 -16.167 148.5 -48.5s52.5 -77.833 52.5 -136.5v-276zM292.001 126v26
c-10.667 20.667 -32.667 31 -66 31c-17.333 0 -32 -3.66699 -44 -11s-18 -18 -18 -32c0 -14.667 6 -25.667 18 -33s26.667 -11 44 -11c32.667 0 54.667 10 66 30zM313.001 647h86c0 -100 -29.333 -150 -88 -150c-16.667 0 -35 6 -55 18s-34.667 18 -44 18
c-16.667 0 -25 -11 -25 -33h-86c0 100 29.333 150 88 150c16.667 0 35 -6 55 -18s34.667 -18 44 -18c16.667 0 25 11 25 33z" />
    <glyph glyph-name="adieresis" unicode="&#xe4;" horiz-adv-x="478" 
d="M84 567c0 21.333 7.5 39.5 22.5 54.5s33.167 22.5 54.5 22.5s39.5 -7.5 54.5 -22.5s22.5 -33.167 22.5 -54.5c0 -20.667 -7.5 -38.5 -22.5 -53.5s-33.167 -22.5 -54.5 -22.5s-39.5 7.5 -54.5 22.5s-22.5 32.833 -22.5 53.5zM261 567c0 21.333 7.33301 39.5 22 54.5
s32.667 22.5 54 22.5s39.666 -7.5 54.999 -22.5s23 -33.167 23 -54.5c0 -20.667 -7.66699 -38.5 -23 -53.5s-33.666 -22.5 -54.999 -22.5c-20.667 0 -38.5 7.5 -53.5 22.5s-22.5 32.833 -22.5 53.5zM443 0h-150.999v23c-8 -8 -22.333 -15.167 -43 -21.5
s-42.334 -9.5 -65.001 -9.5c-46.667 0 -85.667 12.833 -117 38.5s-47 61.167 -47 106.5c0 42.667 16.333 77.167 49 103.5s74 39.5 124 39.5c42.667 0 75.667 -8.33301 99 -25v29c0 15.333 -4.66699 28.166 -14 38.499s-23 15.5 -41 15.5c-27.333 0 -45 -11 -53 -33h-148
c6.66699 44.667 28.5 81.834 65.5 111.501s83.833 44.5 140.5 44.5c64 0 113.5 -16.167 148.5 -48.5s52.5 -77.833 52.5 -136.5v-276zM292.001 126v26c-10.667 20.667 -32.667 31 -66 31c-17.333 0 -32 -3.66699 -44 -11s-18 -18 -18 -32c0 -14.667 6 -25.667 18 -33
s26.667 -11 44 -11c32.667 0 54.667 10 66 30z" />
    <glyph glyph-name="aring" unicode="&#xe5;" horiz-adv-x="478" 
d="M443 0h-150.999v23c-8 -8 -22.333 -15.167 -43 -21.5s-42.334 -9.5 -65.001 -9.5c-46.667 0 -85.667 12.833 -117 38.5s-47 61.167 -47 106.5c0 42.667 16.333 77.167 49 103.5s74 39.5 124 39.5c42.667 0 75.667 -8.33301 99 -25v29
c0 15.333 -4.66699 28.166 -14 38.499s-23 15.5 -41 15.5c-27.333 0 -45 -11 -53 -33h-148c6.66699 44.667 28.5 81.834 65.5 111.501s83.833 44.5 140.5 44.5c64 0 113.5 -16.167 148.5 -48.5s52.5 -77.833 52.5 -136.5v-276zM292.001 126v26
c-10.667 20.667 -32.667 31 -66 31c-17.333 0 -32 -3.66699 -44 -11s-18 -18 -18 -32c0 -14.667 6 -25.667 18 -33s26.667 -11 44 -11c32.667 0 54.667 10 66 30zM356.001 589c0 -29.333 -10.333 -54 -31 -74s-46.334 -30 -77.001 -30s-56.334 10 -77.001 30
s-31 44.667 -31 74s10.333 54.333 31 75s46.334 31 77.001 31s56.334 -10.333 77.001 -31s31 -45.667 31 -75zM284.001 589c0 10.667 -3.33301 19.5 -10 26.5s-15.334 10.5 -26.001 10.5c-10 0 -18.5 -3.5 -25.5 -10.5s-10.5 -15.833 -10.5 -26.5
c0 -9.33301 3.5 -17.5 10.5 -24.5s15.5 -10.5 25.5 -10.5c10.667 0 19.334 3.33301 26.001 10s10 15 10 25z" />
    <glyph glyph-name="ae" unicode="&#xe6;" horiz-adv-x="732" 
d="M221 101c32 0 54.333 12.333 67 37v51h-64c-17.333 0 -31.833 -3.83301 -43.5 -11.5s-17.5 -18.5 -17.5 -32.5c0 -14.667 5.5 -25.667 16.5 -33s24.833 -11 41.5 -11zM565 153h147c-9.33301 -50.667 -32.833 -90.5 -70.5 -119.5s-85.5 -43.5 -143.5 -43.5
s-108.667 18.667 -152 56c-44 -36.667 -97.667 -55 -161 -55c-46 0 -85.167 12.5 -117.5 37.5s-48.5 58.833 -48.5 101.5c0 45.333 18 80.5 54 105.5s81.333 37.5 136 37.5h79v13c0 16 -4.83301 29.167 -14.5 39.5s-24.167 15.5 -43.5 15.5c-30 0 -48.667 -12 -56 -36h-138
c6 45.333 26.667 82.5 62 111.5s80.333 43.5 135 43.5c55.333 0 100 -16.333 134 -49c38 32.667 82.333 49 133 49c66 0 118.167 -20.667 156.5 -62s57.5 -96 57.5 -164v-44h-291c4.66699 -52 30.667 -78 78 -78c34 0 55.333 13.667 64 41zM498 338
c-38 0 -62.001 -21.667 -72.001 -65h136c-1.33301 19.333 -7.66602 35 -18.999 47s-26.333 18 -45 18z" />
    <glyph glyph-name="ccedilla" unicode="&#xe7;" horiz-adv-x="471" 
d="M18 225c0 69.333 20.999 125.832 62.999 169.499s96.667 65.5 164 65.5c59.333 0 107.333 -16 144 -48s58.334 -75 65.001 -129h-152c-2 14 -8.16699 25.333 -18.5 34s-23.166 13 -38.499 13c-22 0 -39.5 -9.5 -52.5 -28.5s-19.5 -44.5 -19.5 -76.5s6.5 -57.333 19.5 -76
s30.5 -28 52.5 -28c16 0 29 4.16699 39 12.5s16 19.5 18 33.5h152c-6.66699 -53.333 -28.334 -96.166 -65.001 -128.499s-84.667 -48.5 -144 -48.5c-67.333 0 -122 21.833 -164 65.5s-63 100.167 -63 169.5zM242.999 -181.001h-133l69 141h134z" />
    <glyph glyph-name="egrave" unicode="&#xe8;" horiz-adv-x="478" 
d="M313 157h145c-8 -52 -30.667 -92.833 -68 -122.5s-85 -44.5 -143 -44.5c-68.667 0 -124 21.667 -166 65s-63 100 -63 170c0 69.333 21.333 125.833 64 169.5s96.667 65.5 162 65.5c68 0 121 -20.667 159 -62s57 -96 57 -164v-39h-291c5.33301 -55.333 31.333 -83 78 -83
c35.333 0 57.333 15 66 45zM244 338c-38 0 -62.001 -21.667 -72.001 -65h136c-1.33301 19.333 -7.66602 35 -18.999 47s-26.333 18 -45 18zM324.999 500h-144l-87 150h149z" />
    <glyph glyph-name="eacute" unicode="&#xe9;" horiz-adv-x="478" 
d="M316 500h-144l82 150h149zM313 157h145c-8 -52 -30.667 -92.833 -68 -122.5s-85 -44.5 -143 -44.5c-68.667 0 -124 21.667 -166 65s-63 100 -63 170c0 69.333 21.333 125.833 64 169.5s96.667 65.5 162 65.5c68 0 121 -20.667 159 -62s57 -96 57 -164v-39h-291
c5.33301 -55.333 31.333 -83 78 -83c35.333 0 57.333 15 66 45zM244 338c-38 0 -62.001 -21.667 -72.001 -65h136c-1.33301 19.333 -7.66602 35 -18.999 47s-26.333 18 -45 18z" />
    <glyph glyph-name="ecircumflex" unicode="&#xea;" horiz-adv-x="478" 
d="M309 649l96 -151h-116l-40 55l-40 -55h-116l96 151h120zM313 157h145c-8 -52 -30.667 -92.833 -68 -122.5s-85 -44.5 -143 -44.5c-68.667 0 -124 21.667 -166 65s-63 100 -63 170c0 69.333 21.333 125.833 64 169.5s96.667 65.5 162 65.5c68 0 121 -20.667 159 -62
s57 -96 57 -164v-39h-291c5.33301 -55.333 31.333 -83 78 -83c35.333 0 57.333 15 66 45zM244 338c-38 0 -62.001 -21.667 -72.001 -65h136c-1.33301 19.333 -7.66602 35 -18.999 47s-26.333 18 -45 18z" />
    <glyph glyph-name="edieresis" unicode="&#xeb;" horiz-adv-x="478" 
d="M84 567c0 21.333 7.5 39.5 22.5 54.5s33.167 22.5 54.5 22.5s39.5 -7.5 54.5 -22.5s22.5 -33.167 22.5 -54.5c0 -20.667 -7.5 -38.5 -22.5 -53.5s-33.167 -22.5 -54.5 -22.5s-39.5 7.5 -54.5 22.5s-22.5 32.833 -22.5 53.5zM261 567c0 21.333 7.33301 39.5 22 54.5
s32.667 22.5 54 22.5s39.666 -7.5 54.999 -22.5s23 -33.167 23 -54.5c0 -20.667 -7.66699 -38.5 -23 -53.5s-33.666 -22.5 -54.999 -22.5c-20.667 0 -38.5 7.5 -53.5 22.5s-22.5 32.833 -22.5 53.5zM313 157h145c-8 -52 -30.667 -92.833 -68 -122.5s-85 -44.5 -143 -44.5
c-68.667 0 -124 21.667 -166 65s-63 100 -63 170c0 69.333 21.333 125.833 64 169.5s96.667 65.5 162 65.5c68 0 121 -20.667 159 -62s57 -96 57 -164v-39h-291c5.33301 -55.333 31.333 -83 78 -83c35.333 0 57.333 15 66 45zM244 338c-38 0 -62.001 -21.667 -72.001 -65
h136c-1.33301 19.333 -7.66602 35 -18.999 47s-26.333 18 -45 18z" />
    <glyph glyph-name="igrave" unicode="&#xec;" horiz-adv-x="242" 
d="M199 450v-450h-157v450h157zM196 500h-144l-87 150h149z" />
    <glyph glyph-name="iacute" unicode="&#xed;" horiz-adv-x="242" 
d="M188 500h-144l82 150h149zM199 450v-450h-157v450h157z" />
    <glyph glyph-name="icircumflex" unicode="&#xee;" horiz-adv-x="242" 
d="M181 649l79 -151h-112l-27 60l-28 -60h-111l79 151h120zM199 450v-450h-157v450h157z" />
    <glyph glyph-name="idieresis" unicode="&#xef;" horiz-adv-x="242" 
d="M-41 567c0 21.333 7.33301 39.5 22 54.5s32.667 22.5 54 22.5s39.5 -7.5 54.5 -22.5s22.5 -33.167 22.5 -54.5s-7.5 -39.333 -22.5 -54s-33.167 -22 -54.5 -22c-20.667 0 -38.5 7.5 -53.5 22.5s-22.5 32.833 -22.5 53.5zM130 567c0 21.333 7.5 39.5 22.5 54.5
s33.167 22.5 54.5 22.5s39.5 -7.5 54.5 -22.5s22.5 -33.167 22.5 -54.5c0 -20.667 -7.5 -38.5 -22.5 -53.5s-33.167 -22.5 -54.5 -22.5s-39.5 7.5 -54.5 22.5s-22.5 32.833 -22.5 53.5zM199 450v-450h-157v450h157z" />
    <glyph glyph-name="eth" unicode="&#xf0;" horiz-adv-x="497" 
d="M133 476l-25 66l61 19l-110 85v4h192c18 -13.333 36.667 -28.666 56 -45.999l79 25l25 -66l-49 -16c77.333 -90.667 116 -192.334 116 -305.001c0 -77.333 -21 -138.666 -63 -183.999s-97.667 -68 -167 -68c-68 0 -123.333 21.667 -166 65s-64 99.666 -64 168.999
c0 68.667 20.833 124.167 62.5 166.5s94.5 63.5 158.5 63.5c18 0 33.333 -4.66699 46 -14h3c-14 20.667 -33 42.667 -57 66zM324 223c0 31.333 -6.66699 56.5 -20 75.5s-32 28.5 -56 28.5c-23.333 0 -41.666 -9.5 -54.999 -28.5s-20 -44.167 -20 -75.5
s6.66699 -56.333 20 -75s31.666 -28 54.999 -28c24 0 42.667 9.33301 56 28s20 43.667 20 75z" />
    <glyph glyph-name="ntilde" unicode="&#xf1;" horiz-adv-x="519" 
d="M42 0l0.00195312 450.001h157v-39c29.333 32.667 69.666 49 120.999 49c49.333 0 88.166 -14.833 116.499 -44.5s42.5 -69.834 42.5 -120.501v-295h-156v257c0 19.333 -5 34.833 -15 46.5s-24.667 17.5 -44 17.5c-16 0 -29.833 -4.33301 -41.5 -13
s-19.5 -20.667 -23.5 -36v-272h-157zM329.002 647.001h86c0 -100 -29.333 -150 -88 -150c-16.667 0 -35 6 -55 18s-34.667 18 -44 18c-16.667 0 -25 -11 -25 -33h-86c0 100 29.333 150 88 150c16.667 0 35 -6 55 -18s34.667 -18 44 -18c16.667 0 25 11 25 33z" />
    <glyph glyph-name="ograve" unicode="&#xf2;" horiz-adv-x="497" 
d="M478 225c0 -69.333 -21.167 -125.833 -63.5 -169.5s-97.833 -65.5 -166.5 -65.5c-68 0 -123.333 21.833 -166 65.5s-64 100.167 -64 169.5s21.333 125.833 64 169.5s98 65.5 166 65.5c68.667 0 124.167 -21.833 166.5 -65.5s63.5 -100.167 63.5 -169.5zM324 225
c0 32 -6.66699 57.666 -20 76.999s-32 29 -56 29c-23.333 0 -41.666 -9.66699 -54.999 -29s-20 -45 -20 -77c0 -31.333 6.66699 -56.666 20 -75.999s31.666 -29 54.999 -29c24 0 42.667 9.5 56 28.5s20 44.5 20 76.5zM324 499.999h-144l-87 150h149z" />
    <glyph glyph-name="oacute" unicode="&#xf3;" horiz-adv-x="497" 
d="M316 500h-144l82 150h149zM478 225c0 -69.333 -21.167 -125.833 -63.5 -169.5s-97.833 -65.5 -166.5 -65.5c-68 0 -123.333 21.833 -166 65.5s-64 100.167 -64 169.5s21.333 125.833 64 169.5s98 65.5 166 65.5c68.667 0 124.167 -21.833 166.5 -65.5
s63.5 -100.167 63.5 -169.5zM324 225c0 32 -6.66699 57.666 -20 76.999s-32 29 -56 29c-23.333 0 -41.666 -9.66699 -54.999 -29s-20 -45 -20 -77c0 -31.333 6.66699 -56.666 20 -75.999s31.666 -29 54.999 -29c24 0 42.667 9.5 56 28.5s20 44.5 20 76.5z" />
    <glyph glyph-name="ocircumflex" unicode="&#xf4;" horiz-adv-x="497" 
d="M308 649l96 -151h-116l-40 55l-40 -55h-116l96 151h120zM478 225c0 -69.333 -21.167 -125.833 -63.5 -169.5s-97.833 -65.5 -166.5 -65.5c-68 0 -123.333 21.833 -166 65.5s-64 100.167 -64 169.5s21.333 125.833 64 169.5s98 65.5 166 65.5
c68.667 0 124.167 -21.833 166.5 -65.5s63.5 -100.167 63.5 -169.5zM324 225c0 32 -6.66699 57.666 -20 76.999s-32 29 -56 29c-23.333 0 -41.666 -9.66699 -54.999 -29s-20 -45 -20 -77c0 -31.333 6.66699 -56.666 20 -75.999s31.666 -29 54.999 -29
c24 0 42.667 9.5 56 28.5s20 44.5 20 76.5z" />
    <glyph glyph-name="otilde" unicode="&#xf5;" horiz-adv-x="497" 
d="M478 225c0 -69.333 -21.167 -125.833 -63.5 -169.5s-97.833 -65.5 -166.5 -65.5c-68 0 -123.333 21.833 -166 65.5s-64 100.167 -64 169.5s21.333 125.833 64 169.5s98 65.5 166 65.5c68.667 0 124.167 -21.833 166.5 -65.5s63.5 -100.167 63.5 -169.5zM324 225
c0 32 -6.66699 57.666 -20 76.999s-32 29 -56 29c-23.333 0 -41.666 -9.66699 -54.999 -29s-20 -45 -20 -77c0 -31.333 6.66699 -56.666 20 -75.999s31.666 -29 54.999 -29c24 0 42.667 9.5 56 28.5s20 44.5 20 76.5zM311 646.999h86c0 -100 -29.333 -150 -88 -150
c-16.667 0 -35 6 -55 18s-34.667 18 -44 18c-16.667 0 -25 -11 -25 -33h-86c0 100 29.333 150 88 150c16.667 0 35 -6 55 -18s34.667 -18 44 -18c16.667 0 25 11 25 33z" />
    <glyph glyph-name="odieresis" unicode="&#xf6;" horiz-adv-x="497" 
d="M83 567c0 21.333 7.5 39.5 22.5 54.5s33.167 22.5 54.5 22.5s39.5 -7.5 54.5 -22.5s22.5 -33.167 22.5 -54.5c0 -20.667 -7.5 -38.5 -22.5 -53.5s-33.167 -22.5 -54.5 -22.5s-39.5 7.5 -54.5 22.5s-22.5 32.833 -22.5 53.5zM260 567c0 21.333 7.33301 39.5 22 54.5
s32.667 22.5 54 22.5s39.666 -7.5 54.999 -22.5s23 -33.167 23 -54.5c0 -20.667 -7.66699 -38.5 -23 -53.5s-33.666 -22.5 -54.999 -22.5s-39.333 7.5 -54 22.5s-22 32.833 -22 53.5zM478 225c0 -69.333 -21.167 -125.833 -63.5 -169.5s-97.833 -65.5 -166.5 -65.5
c-68 0 -123.333 21.833 -166 65.5s-64 100.167 -64 169.5s21.333 125.833 64 169.5s98 65.5 166 65.5c68.667 0 124.167 -21.833 166.5 -65.5s63.5 -100.167 63.5 -169.5zM324 225c0 32 -6.66699 57.666 -20 76.999s-32 29 -56 29c-23.333 0 -41.666 -9.66699 -54.999 -29
s-20 -45 -20 -77c0 -31.333 6.66699 -56.666 20 -75.999s31.666 -29 54.999 -29c24 0 42.667 9.5 56 28.5s20 44.5 20 76.5z" />
    <glyph glyph-name="divide" unicode="&#xf7;" horiz-adv-x="556" 
d="M51 241v116h454v-116h-454zM198 479c0 22 7.83301 40.667 23.5 56s34.5 23 56.5 23c22.667 0 41.834 -7.66699 57.501 -23s23.5 -34 23.5 -56s-7.83301 -40.667 -23.5 -56s-34.834 -23 -57.501 -23c-22 0 -40.833 7.66699 -56.5 23s-23.5 34 -23.5 56zM198 119
c0 22 7.83301 40.667 23.5 56s34.5 23 56.5 23c22.667 0 41.834 -7.66699 57.501 -23s23.5 -34 23.5 -56s-7.83301 -40.667 -23.5 -56s-34.834 -23 -57.501 -23c-22 0 -40.833 7.66699 -56.5 23s-23.5 34 -23.5 56z" />
    <glyph glyph-name="oslash" unicode="&#xf8;" horiz-adv-x="507" 
d="M30 18l45 50.001c-34.667 43.333 -52 95.666 -52 156.999c0 69.333 21.333 125.833 64 169.5s98 65.5 166 65.5c51.333 0 96.333 -13 135 -39l42 47l45 -37l-44 -50c34.667 -42 52 -94 52 -156c0 -69.333 -21.167 -125.833 -63.5 -169.5s-97.833 -65.5 -166.5 -65.5
c-51.333 0 -96.333 13 -135 39l-43 -48zM332 225.001c0 12.667 -1.66797 25.667 -5.00098 39l-118 -132c12.667 -10.667 27.334 -16 44.001 -16c24 0 43.167 10.167 57.5 30.5s21.5 46.5 21.5 78.5zM174.999 225.001c0 -15.333 1.33301 -28.333 4 -39l118 132
c-12.667 10.667 -27.334 16 -44.001 16c-23.333 0 -42.166 -10.333 -56.499 -31s-21.5 -46.667 -21.5 -78z" />
    <glyph glyph-name="ugrave" unicode="&#xf9;" horiz-adv-x="517" 
d="M475 450v-450.001h-157v39c-28 -32.667 -68 -49 -120 -49c-49.333 0 -88 14.833 -116 44.5s-42 69.834 -42 120.501v295h156v-258c0 -43.333 19.333 -65 58 -65c14.667 0 28 4.5 40 13.5s20 21.167 24 36.5v273h157zM334 499.999h-144l-87 150h149z" />
    <glyph glyph-name="uacute" unicode="&#xfa;" horiz-adv-x="517" 
d="M326 500h-144l82 150h149zM475 450v-450.001h-157v39c-28 -32.667 -68 -49 -120 -49c-49.333 0 -88 14.833 -116 44.5s-42 69.834 -42 120.501v295h156v-258c0 -43.333 19.333 -65 58 -65c14.667 0 28 4.5 40 13.5s20 21.167 24 36.5v273h157z" />
    <glyph glyph-name="ucircumflex" unicode="&#xfb;" horiz-adv-x="517" 
d="M318 649l96 -151h-116l-40 55l-40 -55h-116l96 151h120zM475 450v-450.001h-157v39c-28 -32.667 -68 -49 -120 -49c-49.333 0 -88 14.833 -116 44.5s-42 69.834 -42 120.501v295h156v-258c0 -43.333 19.333 -65 58 -65c14.667 0 28 4.5 40 13.5s20 21.167 24 36.5v273
h157z" />
    <glyph glyph-name="udieresis" unicode="&#xfc;" horiz-adv-x="517" 
d="M93 567c0 21.333 7.5 39.5 22.5 54.5s33.167 22.5 54.5 22.5s39.5 -7.5 54.5 -22.5s22.5 -33.167 22.5 -54.5c0 -20.667 -7.5 -38.5 -22.5 -53.5s-33.167 -22.5 -54.5 -22.5s-39.5 7.5 -54.5 22.5s-22.5 32.833 -22.5 53.5zM270 567c0 21.333 7.33301 39.5 22 54.5
s32.667 22.5 54 22.5s39.666 -7.5 54.999 -22.5s23 -33.167 23 -54.5c0 -20.667 -7.66699 -38.5 -23 -53.5s-33.666 -22.5 -54.999 -22.5s-39.333 7.5 -54 22.5s-22 32.833 -22 53.5zM475 450v-450.001h-157v39c-28 -32.667 -68 -49 -120 -49
c-49.333 0 -88 14.833 -116 44.5s-42 69.834 -42 120.501v295h156v-258c0 -43.333 19.333 -65 58 -65c14.667 0 28 4.5 40 13.5s20 21.167 24 36.5v273h157z" />
    <glyph glyph-name="yacute" unicode="&#xfd;" horiz-adv-x="502" 
d="M264 -159h-155l66 170l-168 439h163l86 -256l84 256h156zM324 500h-144l82 150h149z" />
    <glyph glyph-name="thorn" unicode="&#xfe;" horiz-adv-x="529" 
d="M199 36v-195h-157v809h157v-236c11.333 12.667 27.166 23.5 47.499 32.5s41.5 13.5 63.5 13.5c62.667 0 111.834 -22.333 147.501 -67s53.5 -100.667 53.5 -168c0 -66.667 -17.833 -122.5 -53.5 -167.5s-84.834 -67.5 -147.501 -67.5c-22 0 -43.167 4.5 -63.5 13.5
s-36.166 19.833 -47.499 32.5zM199 285v-119c13.333 -28 36.333 -42 69 -42c26.667 0 47.667 9.5 63 28.5s23 43.167 23 72.5c0 30 -7.66699 54.5 -23 73.5s-36.333 28.5 -63 28.5c-32 0 -55 -14 -69 -42z" />
    <glyph glyph-name="ydieresis" unicode="&#xff;" horiz-adv-x="502" 
d="M264 -159h-155l66 170l-168 439h163l86 -256l84 256h156zM91 567c0 21.333 7.5 39.5 22.5 54.5s33.167 22.5 54.5 22.5s39.5 -7.5 54.5 -22.5s22.5 -33.167 22.5 -54.5c0 -20.667 -7.5 -38.5 -22.5 -53.5s-33.167 -22.5 -54.5 -22.5s-39.5 7.5 -54.5 22.5
s-22.5 32.833 -22.5 53.5zM268 567c0 21.333 7.33301 39.5 22 54.5s32.667 22.5 54 22.5s39.666 -7.5 54.999 -22.5s23 -33.167 23 -54.5c0 -20.667 -7.66699 -38.5 -23 -53.5s-33.666 -22.5 -54.999 -22.5s-39.333 7.5 -54 22.5s-22 32.833 -22 53.5z" />
    <glyph glyph-name="Amacron" unicode="&#x100;" horiz-adv-x="646" 
d="M241 614h164l234 -614h-163l-44 119h-223l-43 -119h-159zM191 666v108h265v-108h-265zM321 424l-63 -173h126z" />
    <glyph glyph-name="amacron" unicode="&#x101;" horiz-adv-x="478" 
d="M443 0h-150.999v23c-8 -8 -22.333 -15.167 -43 -21.5s-42.334 -9.5 -65.001 -9.5c-46.667 0 -85.667 12.833 -117 38.5s-47 61.167 -47 106.5c0 42.667 16.333 77.167 49 103.5s74 39.5 124 39.5c42.667 0 75.667 -8.33301 99 -25v29
c0 15.333 -4.66699 28.166 -14 38.499s-23 15.5 -41 15.5c-27.333 0 -45 -11 -53 -33h-148c6.66699 44.667 28.5 81.834 65.5 111.501s83.833 44.5 140.5 44.5c64 0 113.5 -16.167 148.5 -48.5s52.5 -77.833 52.5 -136.5v-276zM292.001 126v26
c-10.667 20.667 -32.667 31 -66 31c-17.333 0 -32 -3.66699 -44 -11s-18 -18 -18 -32c0 -14.667 6 -25.667 18 -33s26.667 -11 44 -11c32.667 0 54.667 10 66 30zM123.001 504v108h253v-108h-253z" />
    <glyph glyph-name="Abreve" unicode="&#x102;" horiz-adv-x="646" 
d="M241 614h164l234 -614h-163l-44 119h-223l-43 -119h-159zM323 658c-43.333 0 -78.168 12.667 -104.501 38s-39.5 61.333 -39.5 108h108c0 -28 12 -42 36 -42s36 14 36 42h108c0 -46.667 -13.167 -82.667 -39.5 -108s-61.166 -38 -104.499 -38zM320.998 424l-63 -173h126z
" />
    <glyph glyph-name="abreve" unicode="&#x103;" horiz-adv-x="478" 
d="M443 0h-150.999v23c-8 -8 -22.333 -15.167 -43 -21.5s-42.334 -9.5 -65.001 -9.5c-46.667 0 -85.667 12.833 -117 38.5s-47 61.167 -47 106.5c0 42.667 16.333 77.167 49 103.5s74 39.5 124 39.5c42.667 0 75.667 -8.33301 99 -25v29
c0 15.333 -4.66699 28.166 -14 38.499s-23 15.5 -41 15.5c-27.333 0 -45 -11 -53 -33h-148c6.66699 44.667 28.5 81.834 65.5 111.501s83.833 44.5 140.5 44.5c64 0 113.5 -16.167 148.5 -48.5s52.5 -77.833 52.5 -136.5v-276zM292.001 126v26
c-10.667 20.667 -32.667 31 -66 31c-17.333 0 -32 -3.66699 -44 -11s-18 -18 -18 -32c0 -14.667 6 -25.667 18 -33s26.667 -11 44 -11c32.667 0 54.667 10 66 30zM248.001 488c-42.667 0 -77.167 13 -103.5 39s-39.5 63 -39.5 111h108c0 -31.333 11.667 -47 35 -47
c24 0 36 15.667 36 47h107c0 -48 -13.167 -85 -39.5 -111s-60.833 -39 -103.5 -39z" />
    <glyph glyph-name="Aogonek" unicode="&#x104;" horiz-adv-x="646" 
d="M241 614h164l234 -614l-15.5 -18.5c-5.66699 -7 -9.83398 -12 -12.501 -15l-9.5 -11c-3.66699 -4.33301 -6.16699 -7.5 -7.5 -9.5s-2.66602 -4.33301 -3.99902 -7s-2.16602 -5 -2.49902 -7s-0.5 -4.33301 -0.5 -7c0 -12.667 6.66699 -19 20 -19c7.33301 0 19 5 35 15v-87
c-20.667 -12.667 -42.334 -19 -65.001 -19c-27.333 0 -49.5 6.83301 -66.5 20.5s-25.5 33.167 -25.5 58.5c0 28 18.333 63.333 55 106h-64l-44 119h-223l-43 -119h-159zM321 424l-63 -173h126z" />
    <glyph glyph-name="aogonek" unicode="&#x105;" horiz-adv-x="478" 
d="M292 126v26c-10.667 20.667 -32.667 31 -66 31c-17.333 0 -32 -3.66699 -44 -11s-18 -18 -18 -32c0 -14.667 6 -25.667 18 -33s26.667 -11 44 -11c32.667 0 54.667 10 66 30zM344 0h-51.998v23c-8 -8 -22.333 -15.167 -43 -21.5s-42.334 -9.5 -65.001 -9.5
c-46.667 0 -85.667 12.833 -117 38.5s-47 61.167 -47 106.5c0 42.667 16.333 77.167 49 103.5s74 39.5 124 39.5c42.667 0 75.667 -8.33301 99 -25v29c0 15.333 -4.66699 28.166 -14 38.499s-23 15.5 -41 15.5c-28 0 -46 -11 -54 -33h-147
c6.66699 44.667 28.5 81.834 65.5 111.501s83.833 44.5 140.5 44.5c64 0 113.5 -16.167 148.5 -48.5s52.5 -77.833 52.5 -136.5v-276l-12.5 -14.5c-5 -5.66699 -8.66699 -10 -11 -13l-8 -10c-3 -3.66699 -5.16699 -6.5 -6.5 -8.5s-3 -4.33301 -5 -7s-3.33301 -4.66699 -4 -6
s-1.33398 -3 -2.00098 -5s-1.16699 -3.83301 -1.5 -5.5s-0.5 -3.5 -0.5 -5.5c0 -12.667 6.33301 -19 19 -19c7.33301 0 19 5 35 15v-87c-19.333 -12.667 -41 -19 -65 -19c-27.333 0 -49.5 6.83301 -66.5 20.5s-25.5 33.167 -25.5 58.5c0 12 2.83301 24.5 8.5 37.5
s11.667 23.833 18 32.5s15.833 20.667 28.5 36z" />
    <glyph glyph-name="Cacute" unicode="&#x106;" horiz-adv-x="603" 
d="M22 307c0 92.667 27.667 168.666 83 227.999s126 89 212 89c74 0 133.833 -19.667 179.5 -59s74.167 -91.666 85.5 -156.999h-160c-18 50 -53 75 -105 75c-41.333 0 -73.833 -16.333 -97.5 -49s-35.5 -75 -35.5 -127c0 -51.333 11.833 -93.5 35.5 -126.5
s56.167 -49.5 97.5 -49.5c52.667 0 87.667 25.333 105 76h160c-11.333 -65.333 -39.833 -117.833 -85.5 -157.5s-105.5 -59.5 -179.5 -59.5c-86 0 -156.667 29.667 -212 89s-83 135.333 -83 228zM398 665.999h-154l82 130h161z" />
    <glyph glyph-name="cacute" unicode="&#x107;" horiz-adv-x="471" 
d="M314 500h-144l82 150h149zM18 225c0 69.333 20.999 125.832 62.999 169.499s96.667 65.5 164 65.5c59.333 0 107.333 -16 144 -48s58.334 -75 65.001 -129h-152c-2 14 -8.16699 25.333 -18.5 34s-23.166 13 -38.499 13c-22 0 -39.5 -9.5 -52.5 -28.5
s-19.5 -44.5 -19.5 -76.5s6.5 -57.333 19.5 -76s30.5 -28 52.5 -28c16 0 29 4.16699 39 12.5s16 19.5 18 33.5h152c-6.66699 -53.333 -28.334 -96.166 -65.001 -128.499s-84.667 -48.5 -144 -48.5c-67.333 0 -122 21.833 -164 65.5s-63 100.167 -63 169.5z" />
    <glyph glyph-name="Ccircumflex" unicode="&#x108;" horiz-adv-x="603" 
d="M22 307c0 92.667 27.667 168.666 83 227.999s126 89 212 89c74 0 133.833 -19.667 179.5 -59s74.167 -91.666 85.5 -156.999h-160c-18 50 -53 75 -105 75c-41.333 0 -73.833 -16.333 -97.5 -49s-35.5 -75 -35.5 -127c0 -51.333 11.833 -93.5 35.5 -126.5
s56.167 -49.5 97.5 -49.5c52.667 0 87.667 25.333 105 76h160c-11.333 -65.333 -39.833 -117.833 -85.5 -157.5s-105.5 -59.5 -179.5 -59.5c-86 0 -156.667 29.667 -212 89s-83 135.333 -83 228zM383 797.999l108 -132h-126l-42 45l-42 -45h-126l108 132h120z" />
    <glyph glyph-name="ccircumflex" unicode="&#x109;" horiz-adv-x="471" 
d="M307 649l96 -151h-116l-40 55l-40 -55h-116l96 151h120zM18 225c0 69.333 20.999 125.832 62.999 169.499s96.667 65.5 164 65.5c59.333 0 107.333 -16 144 -48s58.334 -75 65.001 -129h-152c-2 14 -8.16699 25.333 -18.5 34s-23.166 13 -38.499 13
c-22 0 -39.5 -9.5 -52.5 -28.5s-19.5 -44.5 -19.5 -76.5s6.5 -57.333 19.5 -76s30.5 -28 52.5 -28c16 0 29 4.16699 39 12.5s16 19.5 18 33.5h152c-6.66699 -53.333 -28.334 -96.166 -65.001 -128.499s-84.667 -48.5 -144 -48.5c-67.333 0 -122 21.833 -164 65.5
s-63 100.167 -63 169.5z" />
    <glyph glyph-name="Cdotaccent" unicode="&#x10a;" horiz-adv-x="603" 
d="M410 743c0 -25.333 -8.66699 -45.833 -26 -61.5s-38.333 -23.5 -63 -23.5s-45.667 7.83301 -63 23.5s-26 36.167 -26 61.5c0 24.667 8.66699 44.834 26 60.501s38.333 23.5 63 23.5s45.667 -7.83301 63 -23.5s26 -35.834 26 -60.501zM22 307
c0 92.667 27.667 168.666 83 227.999s126 89 212 89c74 0 133.833 -19.667 179.5 -59s74.167 -91.666 85.5 -156.999h-160c-18 50 -53 75 -105 75c-41.333 0 -73.833 -16.333 -97.5 -49s-35.5 -75 -35.5 -127c0 -51.333 11.833 -93.5 35.5 -126.5s56.167 -49.5 97.5 -49.5
c52.667 0 87.667 25.333 105 76h160c-11.333 -65.333 -39.833 -117.833 -85.5 -157.5s-105.5 -59.5 -179.5 -59.5c-86 0 -156.667 29.667 -212 89s-83 135.333 -83 228z" />
    <glyph glyph-name="cdotaccent" unicode="&#x10b;" horiz-adv-x="471" 
d="M18 225c0 69.333 20.999 125.832 62.999 169.499s96.667 65.5 164 65.5c59.333 0 107.333 -16 144 -48s58.334 -75 65.001 -129h-152c-2 14 -8.16699 25.333 -18.5 34s-23.166 13 -38.499 13c-22 0 -39.5 -9.5 -52.5 -28.5s-19.5 -44.5 -19.5 -76.5s6.5 -57.333 19.5 -76
s30.5 -28 52.5 -28c16 0 29 4.16699 39 12.5s16 19.5 18 33.5h152c-6.66699 -53.333 -28.334 -96.166 -65.001 -128.499s-84.667 -48.5 -144 -48.5c-67.333 0 -122 21.833 -164 65.5s-63 100.167 -63 169.5zM335.999 578.999c0 -24.667 -8.66699 -44.834 -26 -60.501
s-38.333 -23.5 -63 -23.5s-45.667 7.83301 -63 23.5s-26 35.834 -26 60.501c0 25.333 8.66699 45.833 26 61.5s38.333 23.5 63 23.5s45.667 -7.83301 63 -23.5s26 -36.167 26 -61.5z" />
    <glyph glyph-name="Ccaron" unicode="&#x10c;" horiz-adv-x="603" 
d="M262 663l-108 133h126l42 -46l42 46h126l-108 -133h-120zM22 307c0 92.667 27.667 168.666 83 227.999s126 89 212 89c74 0 133.833 -19.667 179.5 -59s74.167 -91.666 85.5 -156.999h-160c-18 50 -53 75 -105 75c-41.333 0 -73.833 -16.333 -97.5 -49
s-35.5 -75 -35.5 -127c0 -51.333 11.833 -93.5 35.5 -126.5s56.167 -49.5 97.5 -49.5c52.667 0 87.667 25.333 105 76h160c-11.333 -65.333 -39.833 -117.833 -85.5 -157.5s-105.5 -59.5 -179.5 -59.5c-86 0 -156.667 29.667 -212 89s-83 135.333 -83 228z" />
    <glyph glyph-name="ccaron" unicode="&#x10d;" horiz-adv-x="471" 
d="M403 649l-96 -151h-120l-96 151h116l40 -56l40 56h116zM18 225c0 69.333 20.999 125.832 62.999 169.499s96.667 65.5 164 65.5c59.333 0 107.333 -16 144 -48s58.334 -75 65.001 -129h-152c-2 14 -8.16699 25.333 -18.5 34s-23.166 13 -38.499 13
c-22 0 -39.5 -9.5 -52.5 -28.5s-19.5 -44.5 -19.5 -76.5s6.5 -57.333 19.5 -76s30.5 -28 52.5 -28c16 0 29 4.16699 39 12.5s16 19.5 18 33.5h152c-6.66699 -53.333 -28.334 -96.166 -65.001 -128.499s-84.667 -48.5 -144 -48.5c-67.333 0 -122 21.833 -164 65.5
s-63 100.167 -63 169.5z" />
    <glyph glyph-name="Dcaron" unicode="&#x10e;" horiz-adv-x="609" 
d="M212 663l-108 133h126l42 -46l42 46h126l-108 -133h-120zM204 139h66c50.667 0 89.834 15 117.501 45s41.5 71 41.5 123c0 52.667 -13.833 94 -41.5 124s-66.834 45 -117.501 45h-66v-337zM46 0v614h232c96 0 171.667 -27.667 227 -83s83 -130 83 -224
s-27.667 -168.667 -83 -224s-131 -83 -227 -83h-232z" />
    <glyph glyph-name="dcaron" unicode="&#x10f;" horiz-adv-x="529" 
d="M638 483h-121l43 167h122zM330 0v36c-11.333 -12.667 -27.166 -23.5 -47.499 -32.5s-41.5 -13.5 -63.5 -13.5c-62.667 0 -111.834 22.167 -147.501 66.5s-53.5 100.5 -53.5 168.5s17.833 124.167 53.5 168.5s84.834 66.5 147.501 66.5c22 0 43.167 -4.5 63.5 -13.5
s36.166 -19.833 47.499 -32.5v236h157v-650h-157zM330 166l0.000976562 119c-6 12 -15.333 22 -28 30s-26.334 12 -41.001 12c-26.667 0 -47.667 -9.5 -63 -28.5s-23 -43.5 -23 -73.5c0 -29.333 7.66699 -53.5 23 -72.5s36.333 -28.5 63 -28.5c32.667 0 55.667 14 69 42z
" />
    <glyph glyph-name="Dcroat" unicode="&#x110;" horiz-adv-x="626" 
d="M17 251v124h46v239h232c96 0 171.667 -27.667 227 -83s83 -130 83 -224s-27.667 -168.667 -83 -224s-131 -83 -227 -83h-232v251h-46zM221 139h66c50.667 0 89.834 15 117.501 45s41.5 71 41.5 123c0 52.667 -13.833 94 -41.5 124s-66.834 45 -117.501 45h-66v-101h87
v-124h-87v-112z" />
    <glyph glyph-name="dcroat" unicode="&#x111;" horiz-adv-x="529" 
d="M248 490v102h82v58h157v-58h47v-102h-47v-490h-157v36c-11.333 -12.667 -27.166 -23.5 -47.499 -32.5s-41.5 -13.5 -63.5 -13.5c-62.667 0 -111.834 22.167 -147.501 66.5s-53.5 100.5 -53.5 168.5s17.833 124.167 53.5 168.5s84.834 66.5 147.501 66.5
c22 0 43.167 -4.5 63.5 -13.5s36.166 -19.833 47.499 -32.5v76h-82zM330 166l0.000976562 119c-6 12 -15.333 22 -28 30s-26.334 12 -41.001 12c-26.667 0 -47.667 -9.5 -63 -28.5s-23 -43.5 -23 -73.5c0 -29.333 7.66699 -53.5 23 -72.5s36.333 -28.5 63 -28.5
c32.667 0 55.667 14 69 42z" />
    <glyph glyph-name="Emacron" unicode="&#x112;" horiz-adv-x="519" 
d="M139 666v108h265v-108h-265zM46 614h439v-138h-281v-96h257v-135h-257v-106h281v-139h-439v614z" />
    <glyph glyph-name="emacron" unicode="&#x113;" horiz-adv-x="478" 
d="M123 504v108h253v-108h-253zM313 157h145c-8 -52 -30.667 -92.833 -68 -122.5s-85 -44.5 -143 -44.5c-68.667 0 -124 21.667 -166 65s-63 100 -63 170c0 69.333 21.333 125.833 64 169.5s96.667 65.5 162 65.5c68 0 121 -20.667 159 -62s57 -96 57 -164v-39h-291
c5.33301 -55.333 31.333 -83 78 -83c35.333 0 57.333 15 66 45zM244 338c-38 0 -62.001 -21.667 -72.001 -65h136c-1.33301 19.333 -7.66602 35 -18.999 47s-26.333 18 -45 18z" />
    <glyph glyph-name="Ebreve" unicode="&#x114;" horiz-adv-x="519" 
d="M271 658c-43.333 0 -78.168 12.667 -104.501 38s-39.5 61.333 -39.5 108h108c0 -28 12 -42 36 -42s36 14 36 42h108c0 -46.667 -13.167 -82.667 -39.5 -108s-61.166 -38 -104.499 -38zM45.998 614h439v-138h-281v-96h257v-135h-257v-106h281v-139h-439v614z" />
    <glyph glyph-name="ebreve" unicode="&#x115;" horiz-adv-x="478" 
d="M313 157h145c-8 -52 -30.667 -92.833 -68 -122.5s-85 -44.5 -143 -44.5c-68.667 0 -124 21.667 -166 65s-63 100 -63 170c0 69.333 21.333 125.833 64 169.5s96.667 65.5 162 65.5c68 0 121 -20.667 159 -62s57 -96 57 -164v-39h-291c5.33301 -55.333 31.333 -83 78 -83
c35.333 0 57.333 15 66 45zM244 338c-38 0 -62.001 -21.667 -72.001 -65h136c-1.33301 19.333 -7.66602 35 -18.999 47s-26.333 18 -45 18zM248.999 488c-42.667 0 -77.167 13 -103.5 39s-39.5 63 -39.5 111h108c0 -31.333 11.667 -47 35 -47c24 0 36 15.667 36 47h107
c0 -48 -13.167 -85 -39.5 -111s-60.833 -39 -103.5 -39z" />
    <glyph glyph-name="Edotaccent" unicode="&#x116;" horiz-adv-x="519" 
d="M360 743c0 -25.333 -8.66699 -45.833 -26 -61.5s-38.333 -23.5 -63 -23.5s-45.667 7.83301 -63 23.5s-26 36.167 -26 61.5c0 24.667 8.66699 44.834 26 60.501s38.333 23.5 63 23.5s45.667 -7.83301 63 -23.5s26 -35.834 26 -60.501zM46 614h439v-138h-281v-96h257v-135
h-257v-106h281v-139h-439v614z" />
    <glyph glyph-name="edotaccent" unicode="&#x117;" horiz-adv-x="478" 
d="M313 157h145c-8 -52 -30.667 -92.833 -68 -122.5s-85 -44.5 -143 -44.5c-68.667 0 -124 21.667 -166 65s-63 100 -63 170c0 69.333 21.333 125.833 64 169.5s96.667 65.5 162 65.5c68 0 121 -20.667 159 -62s57 -96 57 -164v-39h-291c5.33301 -55.333 31.333 -83 78 -83
c35.333 0 57.333 15 66 45zM244 338c-38 0 -62.001 -21.667 -72.001 -65h136c-1.33301 19.333 -7.66602 35 -18.999 47s-26.333 18 -45 18zM337.999 579c0 -24.667 -8.66699 -44.834 -26 -60.501s-38.333 -23.5 -63 -23.5s-45.667 7.83301 -63 23.5s-26 35.834 -26 60.501
c0 25.333 8.66699 45.833 26 61.5s38.333 23.5 63 23.5s45.667 -7.83301 63 -23.5s26 -36.167 26 -61.5z" />
    <glyph glyph-name="Eogonek" unicode="&#x118;" horiz-adv-x="519" 
d="M46 614h439.001v-138h-281v-96h257v-135h-257v-106h281v-139h-35c-30 -36.667 -46.333 -58.667 -49 -66c-0.666992 -2.66699 -1 -5.66699 -1 -9c0 -12.667 6.33301 -19 19 -19c7.33301 0 19 5 35 15v-87c-20.667 -12.667 -42.334 -19 -65.001 -19
c-27.333 0 -49.5 6.83301 -66.5 20.5s-25.5 33.167 -25.5 58.5c0 28.667 18.667 64 56 106h-307v614z" />
    <glyph glyph-name="eogonek" unicode="&#x119;" horiz-adv-x="478" 
d="M244 338c-38 0 -62.001 -21.667 -72.001 -65h136c-1.33301 19.333 -7.66602 35 -18.999 47s-26.333 18 -45 18zM262.999 -9c-2.66699 -0.666992 -8 -1 -16 -1c-68.667 0 -124 21.667 -166 65s-63 100 -63 170c0 69.333 21.333 125.833 64 169.5s96.667 65.5 162 65.5
c68 0 121 -20.667 159 -62s57 -96 57 -164v-39h-291c5.33301 -55.333 31.333 -83 78 -83c35.333 0 57.333 15 66 45h145c-5.33301 -47.333 -27.333 -88.666 -66 -123.999c-49.333 -44.667 -74 -80.334 -74 -107.001c0 -13.333 6.66699 -20 20 -20c7.33301 0 19 5 35 15v-87
c-20.667 -12.667 -42.334 -19 -65.001 -19c-27.333 0 -49.666 7 -66.999 21s-26 33.667 -26 59c0 28.667 16 60.667 48 96z" />
    <glyph glyph-name="Ecaron" unicode="&#x11a;" horiz-adv-x="519" 
d="M213 663l-108 133h126l42 -46l42 46h126l-108 -133h-120zM46 614h439v-138h-281v-96h257v-135h-257v-106h281v-139h-439v614z" />
    <glyph glyph-name="ecaron" unicode="&#x11b;" horiz-adv-x="478" 
d="M405 649l-96 -151h-120l-96 151h116l40 -56l40 56h116zM313 157h145c-8 -52 -30.667 -92.833 -68 -122.5s-85 -44.5 -143 -44.5c-68.667 0 -124 21.667 -166 65s-63 100 -63 170c0 69.333 21.333 125.833 64 169.5s96.667 65.5 162 65.5c68 0 121 -20.667 159 -62
s57 -96 57 -164v-39h-291c5.33301 -55.333 31.333 -83 78 -83c35.333 0 57.333 15 66 45zM244 338c-38 0 -62.001 -21.667 -72.001 -65h136c-1.33301 19.333 -7.66602 35 -18.999 47s-26.333 18 -45 18z" />
    <glyph glyph-name="Gcircumflex" unicode="&#x11c;" horiz-adv-x="623" 
d="M386 798l108 -132h-126l-42 45l-42 -45h-126l108 132h120zM442 208l-95.001 -0.000976562v120h254v-61c0 -84 -25.333 -151.167 -76 -201.5s-117 -75.5 -199 -75.5c-89.333 0 -162.333 29.5 -219 88.5s-85 135.167 -85 228.5s28.333 169.5 85 228.5s129 88.5 217 88.5
c76 0 137.333 -19.667 184 -59s76 -91.666 88 -156.999h-164c-18 50 -54 75 -108 75c-43.333 0 -77.5 -16.333 -102.5 -49s-37.5 -75 -37.5 -127c0 -52.667 12.833 -95.167 38.5 -127.5s60.167 -48.5 103.5 -48.5c60.667 0 99.334 25.667 116.001 77z" />
    <glyph glyph-name="gcircumflex" unicode="&#x11d;" horiz-adv-x="521" 
d="M339 649l96 -151h-116l-40 55l-40 -55h-116l96 151h120zM324 31l-0.000976562 32.001c-25.333 -29.333 -61 -44 -107 -44c-61.333 0 -109.833 20.833 -145.5 62.5s-53.5 94.5 -53.5 158.5c0 63.333 17.833 115.833 53.5 157.5s84.167 62.5 145.5 62.5
c46.667 0 82.334 -14.667 107.001 -44v34h155v-385c0 -76.667 -21.167 -134.834 -63.5 -174.501s-99.166 -59.5 -170.499 -59.5c-60.667 0 -110.834 14.333 -150.501 43s-63.5 68.667 -71.5 120h151c9.33301 -32 33 -48 71 -48c52.667 0 79 28.333 79 85zM323.999 182.001
l-0.000976562 116.002c-15.333 25.333 -38 38 -68 38c-25.333 0 -45.5 -8.83301 -60.5 -26.5s-22.5 -40.834 -22.5 -69.501s7.33301 -51.834 22 -69.501s35 -26.5 61 -26.5c30.667 0 53.334 12.667 68.001 38z" />
    <glyph glyph-name="Gbreve" unicode="&#x11e;" horiz-adv-x="623" 
d="M327 658c-43.333 0 -78.168 12.667 -104.501 38s-39.5 61.333 -39.5 108h108c0 -28 12 -42 36 -42s36 14 36 42h108c0 -46.667 -13.167 -82.667 -39.5 -108s-61.166 -38 -104.499 -38zM441.998 208l-95.001 -0.000976562v120h254v-61c0 -84 -25.333 -151.167 -76 -201.5
s-117 -75.5 -199 -75.5c-89.333 0 -162.333 29.5 -219 88.5s-85 135.167 -85 228.5s28.333 169.5 85 228.5s129 88.5 217 88.5c76 0 137.333 -19.667 184 -59s76 -91.666 88 -156.999h-164c-18 50 -54 75 -108 75c-43.333 0 -77.5 -16.333 -102.5 -49s-37.5 -75 -37.5 -127
c0 -52.667 12.833 -95.167 38.5 -127.5s60.167 -48.5 103.5 -48.5c60.667 0 99.334 25.667 116.001 77z" />
    <glyph glyph-name="gbreve" unicode="&#x11f;" horiz-adv-x="521" 
d="M324 31l-0.000976562 32.001c-25.333 -29.333 -61 -44 -107 -44c-61.333 0 -109.833 20.833 -145.5 62.5s-53.5 94.5 -53.5 158.5c0 63.333 17.833 115.833 53.5 157.5s84.167 62.5 145.5 62.5c46.667 0 82.334 -14.667 107.001 -44v34h155v-385
c0 -76.667 -21.167 -134.834 -63.5 -174.501s-99.166 -59.5 -170.499 -59.5c-60.667 0 -110.834 14.333 -150.501 43s-63.5 68.667 -71.5 120h151c9.33301 -32 33 -48 71 -48c52.667 0 79 28.333 79 85zM323.999 182.001l-0.000976562 116.002c-15.333 25.333 -38 38 -68 38
c-25.333 0 -45.5 -8.83301 -60.5 -26.5s-22.5 -40.834 -22.5 -69.501s7.33301 -51.834 22 -69.501s35 -26.5 61 -26.5c30.667 0 53.334 12.667 68.001 38zM278.998 488.003c-42.667 0 -77.167 13 -103.5 39s-39.5 63 -39.5 111h108c0 -31.333 11.667 -47 35 -47
c24 0 36 15.667 36 47h107c0 -48 -13.167 -85 -39.5 -111s-60.833 -39 -103.5 -39z" />
    <glyph glyph-name="Gdotaccent" unicode="&#x120;" horiz-adv-x="623" 
d="M416 743c0 -25.333 -8.66699 -45.833 -26 -61.5s-38.333 -23.5 -63 -23.5s-45.667 7.83301 -63 23.5s-26 36.167 -26 61.5c0 24.667 8.66699 44.834 26 60.501s38.333 23.5 63 23.5s45.667 -7.83301 63 -23.5s26 -35.834 26 -60.501zM442 208l-95.001 -0.000976562v120
h254v-61c0 -84 -25.333 -151.167 -76 -201.5s-117 -75.5 -199 -75.5c-89.333 0 -162.333 29.5 -219 88.5s-85 135.167 -85 228.5s28.333 169.5 85 228.5s129 88.5 217 88.5c76 0 137.333 -19.667 184 -59s76 -91.666 88 -156.999h-164c-18 50 -54 75 -108 75
c-43.333 0 -77.5 -16.333 -102.5 -49s-37.5 -75 -37.5 -127c0 -52.667 12.833 -95.167 38.5 -127.5s60.167 -48.5 103.5 -48.5c60.667 0 99.334 25.667 116.001 77z" />
    <glyph glyph-name="gdotaccent" unicode="&#x121;" horiz-adv-x="521" 
d="M368 579c0 -24.667 -8.66699 -44.834 -26 -60.501s-38.333 -23.5 -63 -23.5s-45.667 7.83301 -63 23.5s-26 35.834 -26 60.501c0 25.333 8.66699 45.833 26 61.5s38.333 23.5 63 23.5s45.667 -7.83301 63 -23.5s26 -36.167 26 -61.5zM324 31l-0.000976562 32.001
c-25.333 -29.333 -61 -44 -107 -44c-61.333 0 -109.833 20.833 -145.5 62.5s-53.5 94.5 -53.5 158.5c0 63.333 17.833 115.833 53.5 157.5s84.167 62.5 145.5 62.5c46.667 0 82.334 -14.667 107.001 -44v34h155v-385c0 -76.667 -21.167 -134.834 -63.5 -174.501
s-99.166 -59.5 -170.499 -59.5c-60.667 0 -110.834 14.333 -150.501 43s-63.5 68.667 -71.5 120h151c9.33301 -32 33 -48 71 -48c52.667 0 79 28.333 79 85zM323.999 182.001l-0.000976562 116.002c-15.333 25.333 -38 38 -68 38c-25.333 0 -45.5 -8.83301 -60.5 -26.5
s-22.5 -40.834 -22.5 -69.501s7.33301 -51.834 22 -69.501s35 -26.5 61 -26.5c30.667 0 53.334 12.667 68.001 38z" />
    <glyph glyph-name="Gcommaaccent" unicode="&#x122;" horiz-adv-x="623" 
d="M242 -236l49 63.998c-14 4 -25.5 12 -34.5 24s-13.5 26.333 -13.5 43c0 20.667 7.66699 37.834 23 51.501s34.666 20.5 57.999 20.5c22.667 0 41.834 -7.16699 57.501 -21.5s23.5 -33.166 23.5 -56.499c0 -26 -13 -55 -39 -87l-29 -38h-95zM442 207.998
l-95.001 -0.000976562v120h254v-61c0 -84 -25.333 -151.167 -76 -201.5s-117 -75.5 -199 -75.5c-89.333 0 -162.333 29.5 -219 88.5s-85 135.167 -85 228.5s28.333 169.5 85 228.5s129 88.5 217 88.5c76 0 137.333 -19.667 184 -59s76 -91.666 88 -156.999h-164
c-18 50 -54 75 -108 75c-43.333 0 -77.5 -16.333 -102.5 -49s-37.5 -75 -37.5 -127c0 -52.667 12.833 -95.167 38.5 -127.5s60.167 -48.5 103.5 -48.5c60.667 0 99.334 25.667 116.001 77z" />
    <glyph glyph-name="gcommaaccent" unicode="&#x123;" horiz-adv-x="521" 
d="M360 696l-51.999 -67c32.667 -10 49 -32.667 49 -68c0 -20.667 -7.83301 -38 -23.5 -52s-35.167 -21 -58.5 -21c-22.667 0 -41.834 7.16699 -57.501 21.5s-23.5 33.5 -23.5 57.5c0 26 13 55.667 39 89l31 40h96zM324.001 31l-0.000976562 32.001
c-25.333 -29.333 -61 -44 -107 -44c-61.333 0 -109.833 20.833 -145.5 62.5s-53.5 94.5 -53.5 158.5c0 63.333 17.833 115.833 53.5 157.5s84.167 62.5 145.5 62.5c46.667 0 82.334 -14.667 107.001 -44v34h155v-385c0 -76.667 -21.167 -134.834 -63.5 -174.501
s-99.166 -59.5 -170.499 -59.5c-60.667 0 -110.834 14.333 -150.501 43s-63.5 68.667 -71.5 120h151c9.33301 -32 33 -48 71 -48c52.667 0 79 28.333 79 85zM324 182.001l-0.000976562 116.002c-15.333 25.333 -38 38 -68 38c-25.333 0 -45.5 -8.83301 -60.5 -26.5
s-22.5 -40.834 -22.5 -69.501s7.33301 -51.834 22 -69.501s35 -26.5 61 -26.5c30.667 0 53.334 12.667 68.001 38z" />
    <glyph glyph-name="Hcircumflex" unicode="&#x124;" horiz-adv-x="650" 
d="M444 614h161v-614h-161v243h-237v-243h-161v614h161v-233h237v233zM385 798l108 -132h-126l-42 45l-42 -45h-126l108 132h120z" />
    <glyph glyph-name="hcircumflex" unicode="&#x125;" horiz-adv-x="519" 
d="M42 0l0.00195312 650.001h157v-239c29.333 32.667 69.666 49 120.999 49c49.333 0 88.166 -14.833 116.499 -44.5s42.5 -69.834 42.5 -120.501v-295h-156v257c0 19.333 -5 34.833 -15 46.5s-24.667 17.5 -44 17.5c-16 0 -29.833 -4.33301 -41.5 -13
s-19.5 -20.667 -23.5 -36v-272h-157zM317.002 812.001l108 -132h-126l-42 45l-42 -45h-126l108 132h120z" />
    <glyph glyph-name="Hbar" unicode="&#x126;" horiz-adv-x="683" 
d="M17 411v123h45v80h161v-80h237v80h161v-80h45v-123h-45v-411h-161v198h-237v-198h-161v411h-45zM223 321h237v90h-237v-90z" />
    <glyph glyph-name="hbar" unicode="&#x127;" horiz-adv-x="519" 
d="M-5 490l0.00195312 102.001h47v58h157v-58h82v-102h-82v-79c29.333 32.667 69.666 49 120.999 49c49.333 0 88.166 -14.833 116.499 -44.5s42.5 -69.834 42.5 -120.501v-295h-156v257c0 19.333 -5 34.833 -15 46.5s-24.667 17.5 -44 17.5
c-16 0 -29.833 -4.33301 -41.5 -13s-19.5 -20.667 -23.5 -36v-272h-157v490h-47z" />
    <glyph glyph-name="Itilde" unicode="&#x128;" horiz-adv-x="253" 
d="M207 614v-614h-161v614h161zM198 809h85c0 -100 -29.333 -150 -88 -150c-17.333 0 -38.333 5.83301 -63 17.5s-42 17.5 -52 17.5c-16 0 -24.667 -10.333 -26 -31h-85c0 100 29.333 150 88 150c17.333 0 38.333 -5.83301 63 -17.5s42 -17.5 52 -17.5
c16 0 24.667 10.333 26 31z" />
    <glyph glyph-name="itilde" unicode="&#x129;" horiz-adv-x="242" 
d="M170 647h80.001c0 -100 -25.667 -150 -77 -150c-14.667 0 -29.834 5.83301 -45.501 17.5s-27.167 17.5 -34.5 17.5c-13.333 0 -20.666 -10.667 -21.999 -32h-80c0 100 25.667 150 77 150c14.667 0 29.667 -5.83301 45 -17.5s27 -17.5 35 -17.5
c13.333 0 20.666 10.667 21.999 32zM199.001 450v-450h-157v450h157z" />
    <glyph glyph-name="Imacron" unicode="&#x12a;" horiz-adv-x="253" 
d="M207 614v-614h-161v614h161zM-6 666v108h265v-108h-265z" />
    <glyph glyph-name="imacron" unicode="&#x12b;" horiz-adv-x="242" 
d="M199 450v-450h-157v450h157zM9 504v108h222v-108h-222z" />
    <glyph glyph-name="Ibreve" unicode="&#x12c;" horiz-adv-x="253" 
d="M207 614v-614h-161v614h161zM127 658c-43.333 0 -78.168 12.667 -104.501 38s-39.5 61.333 -39.5 108h108c0 -28 12 -42 36 -42s36 14 36 42h108c0 -46.667 -13.167 -82.667 -39.5 -108s-61.166 -38 -104.499 -38z" />
    <glyph glyph-name="ibreve" unicode="&#x12d;" horiz-adv-x="242" 
d="M120 488c-38 0 -68.666 13 -91.999 39s-35 63 -35 111h98c0 -31.333 10 -47 30 -47c19.333 0 29 15.667 29 47h99c0 -48 -11.833 -85 -35.5 -111s-54.834 -39 -93.501 -39zM199.001 450v-450h-157v450h157z" />
    <glyph glyph-name="Iogonek" unicode="&#x12e;" horiz-adv-x="253" 
d="M207 614v-614l-15.5 -18.5c-5.66699 -7 -9.83398 -12 -12.501 -15l-9.5 -11c-3.66699 -4.33301 -6.16699 -7.5 -7.5 -9.5s-2.66602 -4.33301 -3.99902 -7s-2.16602 -5 -2.49902 -7s-0.5 -4.33301 -0.5 -7c0 -12.667 6.66699 -19 20 -19c7.33301 0 19 5 35 15v-87
c-20.667 -12.667 -42.334 -19 -65.001 -19c-27.333 0 -49.5 6.83301 -66.5 20.5s-25.5 33.167 -25.5 58.5c0 28 18.333 63.333 55 106h-62v614h161z" />
    <glyph glyph-name="iogonek" unicode="&#x12f;" horiz-adv-x="242" 
d="M199 450l0.000976562 -450l-12.5 -14.5c-5 -5.66699 -8.66699 -10 -11 -13l-8 -10c-3 -3.66699 -5.16699 -6.5 -6.5 -8.5s-3 -4.33301 -5 -7s-3.33301 -4.66699 -4 -6s-1.33398 -3 -2.00098 -5s-1.16699 -3.83301 -1.5 -5.5s-0.5 -3.5 -0.5 -5.5
c0 -12.667 6.33301 -19 19 -19c8 0 20 5 36 15v-87c-20.667 -12.667 -42.667 -19 -66 -19c-27.333 0 -49.5 6.83301 -66.5 20.5s-25.5 33.167 -25.5 58.5c0 12 2.83301 24.5 8.5 37.5s11.667 23.833 18 32.5s15.833 20.667 28.5 36h-58v450h157zM210.001 572
c0 -24.667 -8.66699 -44.834 -26 -60.501s-38.333 -23.5 -63 -23.5s-45.667 7.83301 -63 23.5s-26 35.834 -26 60.501c0 25.333 8.66699 45.833 26 61.5s38.333 23.5 63 23.5s45.667 -7.83301 63 -23.5s26 -36.167 26 -61.5z" />
    <glyph glyph-name="Idotaccent" unicode="&#x130;" horiz-adv-x="253" 
d="M207 614v-614h-161v614h161zM215 743c0 -25.333 -8.66699 -45.833 -26 -61.5s-38.333 -23.5 -63 -23.5s-45.667 7.83301 -63 23.5s-26 36.167 -26 61.5c0 24.667 8.66699 44.834 26 60.501s38.333 23.5 63 23.5s45.667 -7.83301 63 -23.5s26 -35.834 26 -60.501z" />
    <glyph glyph-name="dotlessi" unicode="&#x131;" horiz-adv-x="242" 
d="M199 450v-450h-157v450h157z" />
    <glyph glyph-name="IJ" unicode="&#x132;" horiz-adv-x="759" 
d="M234 217h162.999c3.33301 -55.333 30 -83 80 -83c55.333 0 83 34.333 83 103v377h161v-378c0 -82 -22.167 -143.5 -66.5 -184.5s-103.166 -61.5 -176.499 -61.5s-131.5 20.667 -174.5 62s-66.167 96.333 -69.5 165zM206.999 614v-614h-161v614h161z" />
    <glyph glyph-name="ij" unicode="&#x133;" horiz-adv-x="483" 
d="M199 450v-450h-157v450h157zM210 572c0 -24.667 -8.66699 -44.834 -26 -60.501s-38.333 -23.5 -63 -23.5s-45.667 7.83301 -63 23.5s-26 35.834 -26 60.501c0 25.333 8.66699 45.833 26 61.5s38.333 23.5 63 23.5s45.667 -7.83301 63 -23.5s26 -36.167 26 -61.5zM441 450
l-0.00195312 -440c0 -57.333 -14.667 -101.5 -44 -132.5s-71.666 -46.5 -126.999 -46.5c-24.667 0 -43.667 2.33301 -57 7v118c8 -1.33301 15.667 -2 23 -2c16.667 0 28.834 3.83301 36.501 11.5s11.5 20.5 11.5 38.5v446h157zM451.998 572
c0 -24.667 -8.66699 -44.834 -26 -60.501s-38.333 -23.5 -63 -23.5s-45.667 7.83301 -63 23.5s-26 35.834 -26 60.501c0 25.333 8.66699 45.833 26 61.5s38.333 23.5 63 23.5s45.667 -7.83301 63 -23.5s26 -36.167 26 -61.5z" />
    <glyph glyph-name="Jcircumflex" unicode="&#x134;" horiz-adv-x="541" 
d="M15 217h162.999c3.33301 -55.333 30 -83 80 -83c55.333 0 83 34.333 83 103v377h161v-378c0 -82 -22.167 -143.5 -66.5 -184.5s-103.166 -61.5 -176.499 -61.5s-131.5 20.667 -174.5 62s-66.167 96.333 -69.5 165zM481.999 798l108 -132h-126l-42 45l-42 -45h-126
l108 132h120z" />
    <glyph glyph-name="jcircumflex" unicode="&#x135;" horiz-adv-x="241" 
d="M181 649l79 -151h-112l-27 60l-28 -60h-111l79 151h120zM199 450l-0.00195312 -440c0 -57.333 -14.667 -101.5 -44 -132.5s-71.666 -46.5 -126.999 -46.5c-24.667 0 -43.667 2.33301 -57 7v118c8 -1.33301 15.667 -2 23 -2c16.667 0 28.834 3.83301 36.501 11.5
s11.5 20.5 11.5 38.5v446h157z" />
    <glyph glyph-name="Kcommaaccent" unicode="&#x136;" horiz-adv-x="608" 
d="M213 -236l49 63.998c-14 4 -25.5 12 -34.5 24s-13.5 26.333 -13.5 43c0 20.667 7.66699 37.834 23 51.501s34.666 20.5 57.999 20.5c22.667 0 41.834 -7.16699 57.501 -21.5s23.5 -33.166 23.5 -56.499c0 -26 -13 -55 -39 -87l-29 -38h-95zM207 613.998v-252l198 252h188
l-215 -270l224 -344h-189l-155 236l-51 -65v-171h-161v614h161z" />
    <glyph glyph-name="kcommaaccent" unicode="&#x137;" horiz-adv-x="523" 
d="M171 -236l49 63.998c-14 4 -25.5 12 -34.5 24s-13.5 26.333 -13.5 43c0 20.667 7.66699 37.834 23 51.501s34.666 20.5 57.999 20.5c22.667 0 41.834 -7.16699 57.501 -21.5s23.5 -33.166 23.5 -56.499c0 -26 -13 -55 -39 -87l-29 -38h-95zM339 -0.00195312l-110 167
l-30 -35v-132h-157v650h157v-344l126 144h189l-171 -187l176 -263h-180z" />
    <glyph glyph-name="kgreenlandic" unicode="&#x138;" horiz-adv-x="523" 
d="M339 0l-110 167l-30 -35v-132h-157v450h157v-144l126 144h189l-171 -187l176 -263h-180z" />
    <glyph glyph-name="Lacute" unicode="&#x139;" horiz-adv-x="510" 
d="M210 666h-154l82 130h161zM46 0v614h161v-475h275v-139h-436z" />
    <glyph glyph-name="lacute" unicode="&#x13a;" horiz-adv-x="242" 
d="M196 685h-154l82 130h161zM199 650v-650h-157v650h157z" />
    <glyph glyph-name="Lcommaaccent" unicode="&#x13b;" horiz-adv-x="510" 
d="M185 -236l49 63.998c-14 4 -25.5 12 -34.5 24s-13.5 26.333 -13.5 43c0 20.667 7.66699 37.834 23 51.501s34.666 20.5 57.999 20.5c22.667 0 41.834 -7.16699 57.501 -21.5s23.5 -33.166 23.5 -56.499c0 -26 -13 -55 -39 -87l-29 -38h-95zM46 -0.00195312v614h161v-475
h275v-139h-436z" />
    <glyph glyph-name="lcommaaccent" unicode="&#x13c;" horiz-adv-x="242" 
d="M38 -236l49 63.998c-14 4 -25.5 12 -34.5 24s-13.5 26.333 -13.5 43c0 20.667 7.66699 37.834 23 51.501s34.666 20.5 57.999 20.5c22.667 0 41.834 -7.16699 57.501 -21.5s23.5 -33.166 23.5 -56.499c0 -26 -13 -55 -39 -87l-29 -38h-95zM199 649.998v-650h-157v650h157
z" />
    <glyph glyph-name="Lcaron" unicode="&#x13d;" horiz-adv-x="510" 
d="M387 447h-121l43 167h122zM46 0v614h161v-475h275v-139h-436z" />
    <glyph glyph-name="lcaron" unicode="&#x13e;" horiz-adv-x="242" 
d="M351 483h-121l43 167h122zM199 650v-650h-157v650h157z" />
    <glyph glyph-name="Ldot" unicode="&#x13f;" horiz-adv-x="510" 
d="M46 0v614h161v-475h275v-139h-436zM463 346c0 -24.667 -8.66699 -44.834 -26 -60.501s-38.333 -23.5 -63 -23.5s-45.667 7.83301 -63 23.5s-26 35.834 -26 60.501c0 25.333 8.66699 45.833 26 61.5s38.333 23.5 63 23.5s45.667 -7.83301 63 -23.5s26 -36.167 26 -61.5z
" />
    <glyph glyph-name="ldot" unicode="&#x140;" horiz-adv-x="426" 
d="M199 650v-650h-157v650h157zM422 332c0 -24.667 -8.66699 -44.834 -26 -60.501s-38.333 -23.5 -63 -23.5s-45.667 7.83301 -63 23.5s-26 35.834 -26 60.501c0 25.333 8.66699 45.833 26 61.5s38.333 23.5 63 23.5s45.667 -7.83301 63 -23.5s26 -36.167 26 -61.5z" />
    <glyph glyph-name="Lslash" unicode="&#x141;" horiz-adv-x="524" 
d="M11 194v124l49 20v276h161v-217l121 49v-125l-121 -48v-134h275v-139h-436v213z" />
    <glyph glyph-name="lslash" unicode="&#x142;" horiz-adv-x="292" 
d="M224 650v-222l52 31v-115l-52 -31v-313h-157v235l-50 -29v115l50 29v300h157z" />
    <glyph glyph-name="Nacute" unicode="&#x143;" horiz-adv-x="634" 
d="M390 666h-154l82 130h161zM588 614v-614h-130l-257 359v-359h-155v614h150l237 -338v338h155z" />
    <glyph glyph-name="nacute" unicode="&#x144;" horiz-adv-x="519" 
d="M335 500h-144l82 150h149zM42 0l0.00195312 450.001h157v-39c29.333 32.667 69.666 49 120.999 49c49.333 0 88.166 -14.833 116.499 -44.5s42.5 -69.834 42.5 -120.501v-295h-156v257c0 19.333 -5 34.833 -15 46.5s-24.667 17.5 -44 17.5
c-16 0 -29.833 -4.33301 -41.5 -13s-19.5 -20.667 -23.5 -36v-272h-157z" />
    <glyph glyph-name="Ncommaaccent" unicode="&#x145;" horiz-adv-x="634" 
d="M234 -236l49 63.998c-14 4 -25.5 12 -34.5 24s-13.5 26.333 -13.5 43c0 20.667 7.66699 37.834 23 51.501s34.666 20.5 57.999 20.5c22.667 0 41.834 -7.16699 57.501 -21.5s23.5 -33.166 23.5 -56.499c0 -26 -13 -55 -39 -87l-29 -38h-95zM588 613.998v-614h-130
l-257 359v-359h-155v614h150l237 -338v338h155z" />
    <glyph glyph-name="ncommaaccent" unicode="&#x146;" horiz-adv-x="519" 
d="M181 -236l49 63.998c-14 4 -25.5 12 -34.5 24s-13.5 26.333 -13.5 43c0 20.667 7.66699 37.834 23 51.501s34.666 20.5 57.999 20.5c22.667 0 41.834 -7.16699 57.501 -21.5s23.5 -33.166 23.5 -56.499c0 -26 -13 -55 -39 -87l-29 -38h-95zM42 -0.00195312
l0.00195312 450.001h157v-39c29.333 32.667 69.666 49 120.999 49c49.333 0 88.166 -14.833 116.499 -44.5s42.5 -69.834 42.5 -120.501v-295h-156v257c0 19.333 -5 34.833 -15 46.5s-24.667 17.5 -44 17.5c-16 0 -29.833 -4.33301 -41.5 -13s-19.5 -20.667 -23.5 -36v-272
h-157z" />
    <glyph glyph-name="Ncaron" unicode="&#x147;" horiz-adv-x="634" 
d="M257 663l-108 133h126l42 -46l42 46h126l-108 -133h-120zM588 614v-614h-130l-257 359v-359h-155v614h150l237 -338v338h155z" />
    <glyph glyph-name="ncaron" unicode="&#x148;" horiz-adv-x="519" 
d="M424 649l-96 -151h-120l-96 151h116l40 -56l40 56h116zM42 0l0.00195312 450.001h157v-39c29.333 32.667 69.666 49 120.999 49c49.333 0 88.166 -14.833 116.499 -44.5s42.5 -69.834 42.5 -120.501v-295h-156v257c0 19.333 -5 34.833 -15 46.5s-24.667 17.5 -44 17.5
c-16 0 -29.833 -4.33301 -41.5 -13s-19.5 -20.667 -23.5 -36v-272h-157z" />
    <glyph glyph-name="Eng" unicode="&#x14a;" horiz-adv-x="634" 
d="M280 -158v140.001c22.667 -10.667 45.334 -16 68.001 -16c25.333 0 44 6.16699 56 18.5s19.333 32.166 22 59.499l-225 315v-359h-155v614h150l237 -338v338h155v-561c0 -76.667 -18.833 -133.5 -56.5 -170.5s-90.834 -55.5 -159.501 -55.5c-27.333 0 -58 5 -92 15z" />
    <glyph glyph-name="eng" unicode="&#x14b;" horiz-adv-x="519" 
d="M323 4l0.000976562 253.001c0 19.333 -5 34.833 -15 46.5s-24.667 17.5 -44 17.5c-16 0 -29.833 -4.33301 -41.5 -13s-19.5 -20.667 -23.5 -36v-272h-157v450h157v-39c29.333 32.667 69.666 49 120.999 49c49.333 0 88.166 -14.833 116.499 -44.5
s42.5 -69.834 42.5 -120.501v-285c0 -57.333 -14.667 -101.5 -44 -132.5s-71.666 -46.5 -126.999 -46.5c-24.667 0 -43.667 2.33301 -57 7v118c8 -1.33301 15.667 -2 23 -2c32.667 0 49 16.667 49 50z" />
    <glyph glyph-name="Omacron" unicode="&#x14c;" horiz-adv-x="643" 
d="M189 666v108h265v-108h-265zM622 307c0 -92 -28 -167.833 -84 -227.5s-128.333 -89.5 -217 -89.5c-88 0 -159.833 29.833 -215.5 89.5s-83.5 135.5 -83.5 227.5c0 92.667 27.833 168.667 83.5 228s127.5 89 215.5 89c88.667 0 161 -29.667 217 -89s84 -135.333 84 -228z
M460 307c0 52.667 -12.833 95.167 -38.5 127.5s-59.167 48.5 -100.5 48.5s-74.5 -16 -99.5 -48s-37.5 -74.667 -37.5 -128s12.5 -96 37.5 -128s58.167 -48 99.5 -48s74.833 16.167 100.5 48.5s38.5 74.833 38.5 127.5z" />
    <glyph glyph-name="omacron" unicode="&#x14d;" horiz-adv-x="497" 
d="M122 504v108h253v-108h-253zM478 225c0 -69.333 -21.167 -125.833 -63.5 -169.5s-97.833 -65.5 -166.5 -65.5c-68 0 -123.333 21.833 -166 65.5s-64 100.167 -64 169.5s21.333 125.833 64 169.5s98 65.5 166 65.5c68.667 0 124.167 -21.833 166.5 -65.5
s63.5 -100.167 63.5 -169.5zM324 225c0 32 -6.66699 57.666 -20 76.999s-32 29 -56 29c-23.333 0 -41.666 -9.66699 -54.999 -29s-20 -45 -20 -77c0 -31.333 6.66699 -56.666 20 -75.999s31.666 -29 54.999 -29c24 0 42.667 9.5 56 28.5s20 44.5 20 76.5z" />
    <glyph glyph-name="Obreve" unicode="&#x14e;" horiz-adv-x="643" 
d="M322 658c-43.333 0 -78.168 12.667 -104.501 38s-39.5 61.333 -39.5 108h108c0 -28 12 -42 36 -42s36 14 36 42h108c0 -46.667 -13.167 -82.667 -39.5 -108s-61.166 -38 -104.499 -38zM621.998 307c0 -92 -28 -167.833 -84 -227.5s-128.333 -89.5 -217 -89.5
c-88 0 -159.833 29.833 -215.5 89.5s-83.5 135.5 -83.5 227.5c0 92.667 27.833 168.667 83.5 228s127.5 89 215.5 89c88.667 0 161 -29.667 217 -89s84 -135.333 84 -228zM459.998 307c0 52.667 -12.833 95.167 -38.5 127.5s-59.167 48.5 -100.5 48.5s-74.5 -16 -99.5 -48
s-37.5 -74.667 -37.5 -128s12.5 -96 37.5 -128s58.167 -48 99.5 -48s74.833 16.167 100.5 48.5s38.5 74.833 38.5 127.5z" />
    <glyph glyph-name="obreve" unicode="&#x14f;" horiz-adv-x="497" 
d="M478 225c0 -69.333 -21.167 -125.833 -63.5 -169.5s-97.833 -65.5 -166.5 -65.5c-68 0 -123.333 21.833 -166 65.5s-64 100.167 -64 169.5s21.333 125.833 64 169.5s98 65.5 166 65.5c68.667 0 124.167 -21.833 166.5 -65.5s63.5 -100.167 63.5 -169.5zM324 225
c0 32 -6.66699 57.666 -20 76.999s-32 29 -56 29c-23.333 0 -41.666 -9.66699 -54.999 -29s-20 -45 -20 -77c0 -31.333 6.66699 -56.666 20 -75.999s31.666 -29 54.999 -29c24 0 42.667 9.5 56 28.5s20 44.5 20 76.5zM248 487.999c-42.667 0 -77.167 13 -103.5 39
s-39.5 63 -39.5 111h108c0 -31.333 11.667 -47 35 -47c24 0 36 15.667 36 47h107c0 -48 -13.167 -85 -39.5 -111s-60.833 -39 -103.5 -39z" />
    <glyph glyph-name="Ohungarumlaut" unicode="&#x150;" horiz-adv-x="643" 
d="M622 307c0 -92 -28 -167.833 -84 -227.5s-128.333 -89.5 -217 -89.5c-88 0 -159.833 29.833 -215.5 89.5s-83.5 135.5 -83.5 227.5c0 92.667 27.833 168.667 83.5 228s127.5 89 215.5 89c88.667 0 161 -29.667 217 -89s84 -135.333 84 -228zM460 307
c0 52.667 -12.833 95.167 -38.5 127.5s-59.167 48.5 -100.5 48.5s-74.5 -16 -99.5 -48s-37.5 -74.667 -37.5 -128s12.5 -96 37.5 -128s58.167 -48 99.5 -48s74.833 16.167 100.5 48.5s38.5 74.833 38.5 127.5zM304 666h-129l75 130h130zM470 666h-129l76 130h130z" />
    <glyph glyph-name="ohungarumlaut" unicode="&#x151;" horiz-adv-x="497" 
d="M227 500h-122l76 150h123zM385 500h-121l76 150h122zM478 225c0 -69.333 -21.167 -125.833 -63.5 -169.5s-97.833 -65.5 -166.5 -65.5c-68 0 -123.333 21.833 -166 65.5s-64 100.167 -64 169.5s21.333 125.833 64 169.5s98 65.5 166 65.5
c68.667 0 124.167 -21.833 166.5 -65.5s63.5 -100.167 63.5 -169.5zM324 225c0 32 -6.66699 57.666 -20 76.999s-32 29 -56 29c-23.333 0 -41.666 -9.66699 -54.999 -29s-20 -45 -20 -77c0 -31.333 6.66699 -56.666 20 -75.999s31.666 -29 54.999 -29
c24 0 42.667 9.5 56 28.5s20 44.5 20 76.5z" />
    <glyph glyph-name="OE" unicode="&#x152;" horiz-adv-x="846" 
d="M813 614v-138h-262v-96h237v-135h-237v-106h262v-139h-482c-95.333 0 -170.666 27.667 -225.999 83s-83 130 -83 224s27.667 168.667 83 224s130.666 83 225.999 83h482zM339 139h54v337h-54c-50.667 0 -89.667 -15 -117 -45s-41 -71.333 -41 -124
c0 -52 13.667 -93 41 -123s66.333 -45 117 -45z" />
    <glyph glyph-name="oe" unicode="&#x153;" horiz-adv-x="774" 
d="M543 -10c-58.667 0 -108 18.333 -148 55c-40.667 -36.667 -89.667 -55 -147 -55c-68 0 -123.333 21.833 -166 65.5s-64 100.167 -64 169.5s21.333 125.833 64 169.5s98 65.5 166 65.5c58.667 0 108 -18.333 148 -55c38.667 36.667 86.667 55 144 55
c68 0 121 -20.667 159 -62s57 -96 57 -164v-39h-291c5.33301 -55.333 31.333 -83 78 -83c35.333 0 57.333 15 66 45h145c-8 -52 -30.667 -92.833 -68 -122.5s-85 -44.5 -143 -44.5zM324 225c0 32 -6.66699 57.666 -20 76.999s-32 29 -56 29
c-23.333 0 -41.666 -9.66699 -54.999 -29s-20 -45 -20 -77c0 -31.333 6.66699 -56.666 20 -75.999s31.666 -29 54.999 -29c24 0 42.667 9.5 56 28.5s20 44.5 20 76.5zM540 337.999c-38 0 -62.001 -21.667 -72.001 -65h136c-1.33301 19.333 -7.66602 35 -18.999 47
s-26.333 18 -45 18z" />
    <glyph glyph-name="Racute" unicode="&#x154;" horiz-adv-x="574" 
d="M261 203h-56v-203h-159v614h276c67.333 0 121.333 -18.333 162 -55s61 -88 61 -154c0 -45.333 -10.833 -84 -32.5 -116s-51.5 -55 -89.5 -69l144 -220h-178zM205 479v-148h100c55.333 0 83 24.667 83 74s-27.667 74 -83 74h-100zM356 666h-154l82 130h161z" />
    <glyph glyph-name="racute" unicode="&#x155;" horiz-adv-x="365" 
d="M264 500h-144l82 150h149zM344 452l0.00195312 -151c-18 9.33301 -39.667 14 -65 14c-44.667 0 -71.334 -17 -80.001 -51v-264h-157v450h157v-40c24.667 33.333 58.667 50 102 50c19.333 0 33.666 -2.66699 42.999 -8z" />
    <glyph glyph-name="Rcommaaccent" unicode="&#x156;" horiz-adv-x="574" 
d="M261 203h-56v-203h-159v614h276c67.333 0 121.333 -18.333 162 -55s61 -88 61 -154c0 -45.333 -10.833 -84 -32.5 -116s-51.5 -55 -89.5 -69l144 -220h-178zM205 479v-148h100c55.333 0 83 24.667 83 74s-27.667 74 -83 74h-100zM200 -236l49 63.998
c-14 4 -25.5 12 -34.5 24s-13.5 26.333 -13.5 43c0 20.667 7.66699 37.834 23 51.501s34.666 20.5 57.999 20.5c22.667 0 41.834 -7.16699 57.501 -21.5s23.5 -33.166 23.5 -56.499c0 -26 -13 -55 -39 -87l-29 -38h-95z" />
    <glyph glyph-name="rcommaaccent" unicode="&#x157;" horiz-adv-x="365" 
d="M36 -236l49 63.998c-14 4 -25.5 12 -34.5 24s-13.5 26.333 -13.5 43c0 20.667 7.66699 37.834 23 51.501s34.666 20.5 57.999 20.5c22.667 0 41.834 -7.16699 57.501 -21.5s23.5 -33.166 23.5 -56.499c0 -26 -13 -55 -39 -87l-29 -38h-95zM344 451.998l0.00195312 -151
c-18 9.33301 -39.667 14 -65 14c-44.667 0 -71.334 -17 -80.001 -51v-264h-157v450h157v-40c24.667 33.333 58.667 50 102 50c19.333 0 33.666 -2.66699 42.999 -8z" />
    <glyph glyph-name="Rcaron" unicode="&#x158;" horiz-adv-x="574" 
d="M261 203h-56v-203h-159v614h276c67.333 0 121.333 -18.333 162 -55s61 -88 61 -154c0 -45.333 -10.833 -84 -32.5 -116s-51.5 -55 -89.5 -69l144 -220h-178zM223 663l-108 133h126l42 -46l42 46h126l-108 -133h-120zM205 479v-148h100c55.333 0 83 24.667 83 74
s-27.667 74 -83 74h-100z" />
    <glyph glyph-name="rcaron" unicode="&#x159;" horiz-adv-x="365" 
d="M353 649l-96 -151h-120l-96 151h116l40 -56l40 56h116zM344 452l0.00195312 -151c-18 9.33301 -39.667 14 -65 14c-44.667 0 -71.334 -17 -80.001 -51v-264h-157v450h157v-40c24.667 33.333 58.667 50 102 50c19.333 0 33.666 -2.66699 42.999 -8z" />
    <glyph glyph-name="Sacute" unicode="&#x15a;" horiz-adv-x="544" 
d="M12 182l166.998 -0.00292969c12.667 -42 45.667 -63 99 -63c25.333 0 45.5 5.16699 60.5 15.5s22.5 24.833 22.5 43.5c0 14 -4.66699 24.833 -14 32.5s-24 13.834 -44 18.501l-118 25c-105.333 23.333 -158 80.333 -158 171c0 59.333 22.167 107.333 66.5 144
s100.833 55 169.5 55c72 0 129.833 -17.5 173.5 -52.5s69.834 -80.167 78.501 -135.5h-157c-15.333 40 -46.666 60 -93.999 60c-23.333 0 -42 -4.83301 -56 -14.5s-21 -22.834 -21 -39.501c0 -25.333 17 -41.666 51 -48.999l120 -28c108.667 -26 163 -85 163 -177
c0 -61.333 -22.667 -109.666 -68 -144.999s-102.666 -53 -171.999 -53c-73.333 0 -133.833 16.833 -181.5 50.5s-76.834 80.834 -87.501 141.501zM342.998 665.997h-154l82 130h161z" />
    <glyph glyph-name="sacute" unicode="&#x15b;" horiz-adv-x="448" 
d="M291 500h-144l82 150h149zM16 139l153 0.000976562c7.33301 -26 26.333 -39 57 -39s46 10.333 46 31c0 13.333 -11.667 22.666 -35 27.999l-88 18c-82.667 17.333 -124 61 -124 131c0 46.667 18.333 83.667 55 111s82.334 41 137.001 41
c60 0 107.167 -12.833 141.5 -38.5s55.166 -61.5 62.499 -107.5h-145c-6 24 -24.333 36 -55 36c-28 0 -42 -10 -42 -30c0 -12.667 10.333 -21 31 -25l89 -21c84 -19.333 126 -64.333 126 -135c0 -46.667 -18.5 -83.167 -55.5 -109.5s-84.167 -39.5 -141.5 -39.5
c-58.667 0 -107 13 -145 39s-60.333 62.667 -67 110z" />
    <glyph glyph-name="Scircumflex" unicode="&#x15c;" horiz-adv-x="544" 
d="M12 182l166.998 -0.00292969c12.667 -42 45.667 -63 99 -63c25.333 0 45.5 5.16699 60.5 15.5s22.5 24.833 22.5 43.5c0 14 -4.66699 24.833 -14 32.5s-24 13.834 -44 18.501l-118 25c-105.333 23.333 -158 80.333 -158 171c0 59.333 22.167 107.333 66.5 144
s100.833 55 169.5 55c72 0 129.833 -17.5 173.5 -52.5s69.834 -80.167 78.501 -135.5h-157c-15.333 40 -46.666 60 -93.999 60c-23.333 0 -42 -4.83301 -56 -14.5s-21 -22.834 -21 -39.501c0 -25.333 17 -41.666 51 -48.999l120 -28c108.667 -26 163 -85 163 -177
c0 -61.333 -22.667 -109.666 -68 -144.999s-102.666 -53 -171.999 -53c-73.333 0 -133.833 16.833 -181.5 50.5s-76.834 80.834 -87.501 141.501zM333.998 797.997l108 -132h-126l-42 45l-42 -45h-126l108 132h120z" />
    <glyph glyph-name="scircumflex" unicode="&#x15d;" horiz-adv-x="448" 
d="M284 649l96 -151h-116l-40 55l-40 -55h-116l96 151h120zM16 139l153 0.000976562c7.33301 -26 26.333 -39 57 -39s46 10.333 46 31c0 13.333 -11.667 22.666 -35 27.999l-88 18c-82.667 17.333 -124 61 -124 131c0 46.667 18.333 83.667 55 111s82.334 41 137.001 41
c60 0 107.167 -12.833 141.5 -38.5s55.166 -61.5 62.499 -107.5h-145c-6 24 -24.333 36 -55 36c-28 0 -42 -10 -42 -30c0 -12.667 10.333 -21 31 -25l89 -21c84 -19.333 126 -64.333 126 -135c0 -46.667 -18.5 -83.167 -55.5 -109.5s-84.167 -39.5 -141.5 -39.5
c-58.667 0 -107 13 -145 39s-60.333 62.667 -67 110z" />
    <glyph glyph-name="Scedilla" unicode="&#x15e;" horiz-adv-x="544" 
d="M12 182l166.998 -0.00292969c12.667 -42 45.667 -63 99 -63c25.333 0 45.5 5.16699 60.5 15.5s22.5 24.833 22.5 43.5c0 14 -4.66699 24.833 -14 32.5s-24 13.834 -44 18.501l-118 25c-105.333 23.333 -158 80.333 -158 171c0 59.333 22.167 107.333 66.5 144
s100.833 55 169.5 55c72 0 129.833 -17.5 173.5 -52.5s69.834 -80.167 78.501 -135.5h-157c-15.333 40 -46.666 60 -93.999 60c-23.333 0 -42 -4.83301 -56 -14.5s-21 -22.834 -21 -39.501c0 -25.333 17 -41.666 51 -48.999l120 -28c108.667 -26 163 -85 163 -177
c0 -61.333 -22.667 -109.666 -68 -144.999s-102.666 -53 -171.999 -53c-73.333 0 -133.833 16.833 -181.5 50.5s-76.834 80.834 -87.501 141.501zM269.998 -181.003h-133l69 141h134z" />
    <glyph glyph-name="scedilla" unicode="&#x15f;" horiz-adv-x="448" 
d="M16 139l153 0.000976562c7.33301 -26 26.333 -39 57 -39s46 10.333 46 31c0 13.333 -11.667 22.666 -35 27.999l-88 18c-82.667 17.333 -124 61 -124 131c0 46.667 18.333 83.667 55 111s82.334 41 137.001 41c60 0 107.167 -12.833 141.5 -38.5
s55.166 -61.5 62.499 -107.5h-145c-6 24 -24.333 36 -55 36c-28 0 -42 -10 -42 -30c0 -12.667 10.333 -21 31 -25l89 -21c84 -19.333 126 -64.333 126 -135c0 -46.667 -18.5 -83.167 -55.5 -109.5s-84.167 -39.5 -141.5 -39.5c-58.667 0 -107 13 -145 39
s-60.333 62.667 -67 110zM220 -180.999h-133l69 141h134z" />
    <glyph glyph-name="Scaron" unicode="&#x160;" horiz-adv-x="544" 
d="M212 663l-108 133h126l42 -46l42 46h126l-108 -133h-120zM12 182l166.998 -0.00292969c12.667 -42 45.667 -63 99 -63c25.333 0 45.5 5.16699 60.5 15.5s22.5 24.833 22.5 43.5c0 14 -4.66699 24.833 -14 32.5s-24 13.834 -44 18.501l-118 25
c-105.333 23.333 -158 80.333 -158 171c0 59.333 22.167 107.333 66.5 144s100.833 55 169.5 55c72 0 129.833 -17.5 173.5 -52.5s69.834 -80.167 78.501 -135.5h-157c-15.333 40 -46.666 60 -93.999 60c-23.333 0 -42 -4.83301 -56 -14.5s-21 -22.834 -21 -39.501
c0 -25.333 17 -41.666 51 -48.999l120 -28c108.667 -26 163 -85 163 -177c0 -61.333 -22.667 -109.666 -68 -144.999s-102.666 -53 -171.999 -53c-73.333 0 -133.833 16.833 -181.5 50.5s-76.834 80.834 -87.501 141.501z" />
    <glyph glyph-name="scaron" unicode="&#x161;" horiz-adv-x="448" 
d="M380 649l-96 -151h-120l-96 151h116l40 -56l40 56h116zM16 139l153 0.000976562c7.33301 -26 26.333 -39 57 -39s46 10.333 46 31c0 13.333 -11.667 22.666 -35 27.999l-88 18c-82.667 17.333 -124 61 -124 131c0 46.667 18.333 83.667 55 111s82.334 41 137.001 41
c60 0 107.167 -12.833 141.5 -38.5s55.166 -61.5 62.499 -107.5h-145c-6 24 -24.333 36 -55 36c-28 0 -42 -10 -42 -30c0 -12.667 10.333 -21 31 -25l89 -21c84 -19.333 126 -64.333 126 -135c0 -46.667 -18.5 -83.167 -55.5 -109.5s-84.167 -39.5 -141.5 -39.5
c-58.667 0 -107 13 -145 39s-60.333 62.667 -67 110z" />
    <glyph glyph-name="Tcedilla" unicode="&#x162;" horiz-adv-x="580" 
d="M207 -236l49 63.998c-14 4 -25.5 12 -34.5 24s-13.5 26.333 -13.5 43c0 20.667 7.66699 37.834 23 51.501s34.666 20.5 57.999 20.5c22.667 0 41.834 -7.16699 57.501 -21.5s23.5 -33.166 23.5 -56.499c0 -26 -13 -55 -39 -87l-29 -38h-95zM20 475.998v138h540v-138h-190
v-476h-161v476h-189z" />
    <glyph glyph-name="tcedilla" unicode="&#x163;" horiz-adv-x="358" 
d="M74 155v173h-65v122h65v124h156v-124h94v-122h-94v-147c0 -33.333 16 -50 48 -50c18 0 34.667 3.33301 50 10v-136c-20.667 -9.33301 -49.667 -14 -87 -14c-111.333 0 -167 54.667 -167 164zM123 -236l49 63.998c-14 4 -25.5 12 -34.5 24s-13.5 26.333 -13.5 43
c0 20.667 7.66699 37.834 23 51.501s34.666 20.5 57.999 20.5c22.667 0 41.834 -7.16699 57.501 -21.5s23.5 -33.166 23.5 -56.499c0 -26 -13 -55 -39 -87l-29 -38h-95z" />
    <glyph glyph-name="Tcaron" unicode="&#x164;" horiz-adv-x="580" 
d="M230 663l-108 133h126l42 -46l42 46h126l-108 -133h-120zM20 476v138h540v-138h-190v-476h-161v476h-189z" />
    <glyph glyph-name="tcaron" unicode="&#x165;" horiz-adv-x="358" 
d="M74 155v173h-65v122h65v124h156v-124h94v-122h-94v-147c0 -33.333 16 -50 48 -50c18 0 34.667 3.33301 50 10v-136c-20.667 -9.33301 -49.667 -14 -87 -14c-111.333 0 -167 54.667 -167 164zM383 487h-121l43 167h122z" />
    <glyph glyph-name="Tbar" unicode="&#x166;" horiz-adv-x="580" 
d="M20 476v138h540v-138h-190v-113h91v-130h-91v-233h-161v233h-91v130h91v113h-189z" />
    <glyph glyph-name="tbar" unicode="&#x167;" horiz-adv-x="360" 
d="M27 198v96h49v52h-64v104h64v124h156v-124h94v-104h-94v-52h66v-96h-66v-17c0 -33.333 16 -50 48 -50c18 0 34.667 3.33301 50 10v-136c-21.333 -9.33301 -50 -14 -86 -14c-112 0 -168 54.667 -168 164v43h-49z" />
    <glyph glyph-name="Utilde" unicode="&#x168;" horiz-adv-x="613" 
d="M379 809h85c0 -100 -29.333 -150 -88 -150c-17.333 0 -38.333 5.83301 -63 17.5s-42 17.5 -52 17.5c-16 0 -24.667 -10.333 -26 -31h-85c0 100 29.333 150 88 150c17.333 0 38.333 -5.83301 63 -17.5s42 -17.5 52 -17.5c16 0 24.667 10.333 26 31zM307 -10
c-82.667 0 -148 22.668 -196 68.001s-72 109.666 -72 192.999v363h160v-349c0 -42.667 9.5 -75.334 28.5 -98.001s45.5 -34 79.5 -34c33.333 0 59.5 11.333 78.5 34s28.5 55.334 28.5 98.001v349h160v-364c0 -82.667 -24 -146.667 -72 -192s-113 -68 -195 -68z" />
    <glyph glyph-name="utilde" unicode="&#x169;" horiz-adv-x="517" 
d="M475 450v-450.001h-157v39c-28 -32.667 -68 -49 -120 -49c-49.333 0 -88 14.833 -116 44.5s-42 69.834 -42 120.501v295h156v-258c0 -43.333 19.333 -65 58 -65c14.667 0 28 4.5 40 13.5s20 21.167 24 36.5v273h157zM321 646.999h86c0 -100 -29.333 -150 -88 -150
c-16.667 0 -35 6 -55 18s-34.667 18 -44 18c-16.667 0 -25 -11 -25 -33h-86c0 100 29.333 150 88 150c16.667 0 35 -6 55 -18s34.667 -18 44 -18c16.667 0 25 11 25 33z" />
    <glyph glyph-name="Umacron" unicode="&#x16a;" horiz-adv-x="613" 
d="M175 666v108h265v-108h-265zM307 -10c-82.667 0 -148 22.668 -196 68.001s-72 109.666 -72 192.999v363h160v-349c0 -42.667 9.5 -75.334 28.5 -98.001s45.5 -34 79.5 -34c33.333 0 59.5 11.333 78.5 34s28.5 55.334 28.5 98.001v349h160v-364
c0 -82.667 -24 -146.667 -72 -192s-113 -68 -195 -68z" />
    <glyph glyph-name="umacron" unicode="&#x16b;" horiz-adv-x="517" 
d="M475 450v-450.001h-157v39c-28 -32.667 -68 -49 -120 -49c-49.333 0 -88 14.833 -116 44.5s-42 69.834 -42 120.501v295h156v-258c0 -43.333 19.333 -65 58 -65c14.667 0 28 4.5 40 13.5s20 21.167 24 36.5v273h157zM132 503.999v108h253v-108h-253z" />
    <glyph glyph-name="Ubreve" unicode="&#x16c;" horiz-adv-x="613" 
d="M307 658c-43.333 0 -78.168 12.667 -104.501 38s-39.5 61.333 -39.5 108h108c0 -28 12 -42 36 -42s36 14 36 42h108c0 -46.667 -13.167 -82.667 -39.5 -108s-61.166 -38 -104.499 -38zM306.998 -10c-82.667 0 -148 22.668 -196 68.001s-72 109.666 -72 192.999v363h160
v-349c0 -42.667 9.5 -75.334 28.5 -98.001s45.5 -34 79.5 -34c33.333 0 59.5 11.333 78.5 34s28.5 55.334 28.5 98.001v349h160v-364c0 -82.667 -24 -146.667 -72 -192s-113 -68 -195 -68z" />
    <glyph glyph-name="ubreve" unicode="&#x16d;" horiz-adv-x="517" 
d="M475 450v-450.001h-157v39c-28 -32.667 -68 -49 -120 -49c-49.333 0 -88 14.833 -116 44.5s-42 69.834 -42 120.501v295h156v-258c0 -43.333 19.333 -65 58 -65c14.667 0 28 4.5 40 13.5s20 21.167 24 36.5v273h157zM258 487.999c-42.667 0 -77.167 13 -103.5 39
s-39.5 63 -39.5 111h108c0 -31.333 11.667 -47 35 -47c24 0 36 15.667 36 47h107c0 -48 -13.167 -85 -39.5 -111s-60.833 -39 -103.5 -39z" />
    <glyph glyph-name="Uring" unicode="&#x16e;" horiz-adv-x="613" 
d="M307 -10c-82.667 0 -148 22.668 -196 68.001s-72 109.666 -72 192.999v363h160v-349c0 -42.667 9.5 -75.334 28.5 -98.001s45.5 -34 79.5 -34c33.333 0 59.5 11.333 78.5 34s28.5 55.334 28.5 98.001v349h160v-364c0 -82.667 -24 -146.667 -72 -192s-113 -68 -195 -68z
M415 747.001c0 -29.333 -10.333 -54.166 -31 -74.499s-46.334 -30.5 -77.001 -30.5s-56.334 10.167 -77.001 30.5s-31 45.166 -31 74.499s10.333 54.166 31 74.499s46.334 30.5 77.001 30.5s56.334 -10.167 77.001 -30.5s31 -45.166 31 -74.499zM343 747.001
c0 10 -3.33301 18.5 -10 25.5s-15.334 10.5 -26.001 10.5c-10 0 -18.5 -3.5 -25.5 -10.5s-10.5 -15.5 -10.5 -25.5s3.5 -18.5 10.5 -25.5s15.5 -10.5 25.5 -10.5c10.667 0 19.334 3.5 26.001 10.5s10 15.5 10 25.5z" />
    <glyph glyph-name="uring" unicode="&#x16f;" horiz-adv-x="517" 
d="M366 589c0 -29.333 -10.333 -54 -31 -74s-46.334 -30 -77.001 -30s-56.334 10 -77.001 30s-31 44.667 -31 74s10.333 54.333 31 75s46.334 31 77.001 31s56.334 -10.333 77.001 -31s31 -45.667 31 -75zM294 589c0 10.667 -3.33301 19.5 -10 26.5
s-15.334 10.5 -26.001 10.5c-10 0 -18.5 -3.5 -25.5 -10.5s-10.5 -15.833 -10.5 -26.5c0 -9.33301 3.5 -17.5 10.5 -24.5s15.5 -10.5 25.5 -10.5c10.667 0 19.334 3.33301 26.001 10s10 15 10 25zM475 450v-450.001h-157v39c-28 -32.667 -68 -49 -120 -49
c-49.333 0 -88 14.833 -116 44.5s-42 69.834 -42 120.501v295h156v-258c0 -43.333 19.333 -65 58 -65c14.667 0 28 4.5 40 13.5s20 21.167 24 36.5v273h157z" />
    <glyph glyph-name="Uhungarumlaut" unicode="&#x170;" horiz-adv-x="613" 
d="M307 -10c-82.667 0 -148 22.668 -196 68.001s-72 109.666 -72 192.999v363h160v-349c0 -42.667 9.5 -75.334 28.5 -98.001s45.5 -34 79.5 -34c33.333 0 59.5 11.333 78.5 34s28.5 55.334 28.5 98.001v349h160v-364c0 -82.667 -24 -146.667 -72 -192s-113 -68 -195 -68z
M289 666.001h-129l75 130h130zM455 666.001h-129l76 130h130z" />
    <glyph glyph-name="uhungarumlaut" unicode="&#x171;" horiz-adv-x="517" 
d="M475 450v-450.001h-157v39c-28 -32.667 -68 -49 -120 -49c-49.333 0 -88 14.833 -116 44.5s-42 69.834 -42 120.501v295h156v-258c0 -43.333 19.333 -65 58 -65c14.667 0 28 4.5 40 13.5s20 21.167 24 36.5v273h157zM237 499.999h-122l76 150h123zM395 499.999h-121
l76 150h122z" />
    <glyph glyph-name="Uogonek" unicode="&#x172;" horiz-adv-x="613" 
d="M307 -10c-82.667 0 -147.999 22.668 -195.999 68.001s-72 109.666 -72 192.999v363h160v-349c0 -42.667 9.5 -75.334 28.5 -98.001s45.5 -34 79.5 -34c33.333 0 59.5 11.333 78.5 34s28.5 55.334 28.5 98.001v349h160v-364c0 -98.667 -38.333 -173.667 -115 -225
c-59.333 -38.667 -89 -72 -89 -100c0 -12.667 6.66699 -19 20 -19c7.33301 0 19 5 35 15v-87c-20.667 -12.667 -42.334 -19 -65.001 -19c-27.333 0 -49.5 6.83301 -66.5 20.5s-25.5 33.167 -25.5 58.5c0 30.667 16 62.667 48 96h-9z" />
    <glyph glyph-name="uogonek" unicode="&#x173;" horiz-adv-x="517" 
d="M475 450v-449.999l-11.5 -13.5l-10 -11.5l-8 -9.5l-7 -8.5l-5.5 -6.5c-2 -2.33301 -3.33301 -4.33301 -4 -6s-1.5 -3.33398 -2.5 -5.00098s-1.66699 -3.33398 -2 -5.00098s-0.666016 -3.16699 -0.999023 -4.5s-0.5 -3 -0.5 -5c0 -12.667 6.66699 -19 20 -19
c7.33301 0 19 5 35 15v-87c-20.667 -12.667 -42.334 -19 -65.001 -19c-27.333 0 -49.5 6.83301 -66.5 20.5s-25.5 33.167 -25.5 58.5c0 28 18.333 63.333 55 106h-58v39c-28 -32.667 -68 -49 -120 -49c-49.333 0 -88 14.833 -116 44.5s-42 69.834 -42 120.501v295h156v-258
c0 -43.333 19.333 -65 58 -65c14.667 0 28 4.5 40 13.5s20 21.167 24 36.5v273h157z" />
    <glyph glyph-name="Wcircumflex" unicode="&#x174;" horiz-adv-x="820" 
d="M351 614h122l94 -361l85 361h162l-162 -614h-147l-95 360l-96 -360h-147l-161 614h164l86 -361zM470 798l108 -132h-126l-42 45l-42 -45h-126l108 132h120z" />
    <glyph glyph-name="wcircumflex" unicode="&#x175;" horiz-adv-x="698" 
d="M409 649l96 -151h-116l-40 55l-40 -55h-116l96 151h120zM402 450l67 -244l72 244h150l-145 -450h-133l-64 228l-64 -228h-133l-145 450h156l71 -244l68 244h100z" />
    <glyph glyph-name="Ycircumflex" unicode="&#x176;" horiz-adv-x="612" 
d="M309 374l129 240h169l-222 -396v-218h-161v218l-218 396h174zM366 798l108 -132h-126l-42 45l-42 -45h-126l108 132h120z" />
    <glyph glyph-name="ycircumflex" unicode="&#x177;" horiz-adv-x="502" 
d="M264 -159h-155l66 170l-168 439h163l86 -256l84 256h156zM316 649l96 -151h-116l-40 55l-40 -55h-116l96 151h120z" />
    <glyph glyph-name="Ydieresis" unicode="&#x178;" horiz-adv-x="612" 
d="M309 374l129 240h169l-222 -396v-218h-161v218l-218 396h174zM137 734c0 22 7.5 40.667 22.5 56s33.5 23 55.5 23c21.333 0 39.833 -7.66699 55.5 -23s23.5 -34 23.5 -56s-7.83301 -40.667 -23.5 -56s-34.167 -23 -55.5 -23c-22 0 -40.5 7.66699 -55.5 23
s-22.5 34 -22.5 56zM318 734c0 22 7.66699 40.667 23 56s33.666 23 54.999 23s39.833 -7.66699 55.5 -23s23.5 -34 23.5 -56s-7.83301 -40.667 -23.5 -56s-34.167 -23 -55.5 -23s-39.666 7.66699 -54.999 23s-23 34 -23 56z" />
    <glyph glyph-name="Zacute" unicode="&#x179;" horiz-adv-x="561" 
d="M527 139v-139h-493v119l285 357h-282v138h487v-118l-282 -357h285zM366 666h-154l82 130h161z" />
    <glyph glyph-name="zacute" unicode="&#x17a;" horiz-adv-x="456" 
d="M306 500h-144l82 150h149zM424 123v-123h-393v103l198 225h-192v122h384v-102l-190 -225h193z" />
    <glyph glyph-name="Zdotaccent" unicode="&#x17b;" horiz-adv-x="561" 
d="M382 743c0 -25.333 -8.66699 -45.833 -26 -61.5s-38.333 -23.5 -63 -23.5s-45.667 7.83301 -63 23.5s-26 36.167 -26 61.5c0 24.667 8.66699 44.834 26 60.501s38.333 23.5 63 23.5s45.667 -7.83301 63 -23.5s26 -35.834 26 -60.501zM527 139v-139h-493v119l285 357h-282
v138h487v-118l-282 -357h285z" />
    <glyph glyph-name="zdotaccent" unicode="&#x17c;" horiz-adv-x="456" 
d="M424 123v-123h-393v103l198 225h-192v122h384v-102l-190 -225h193zM328 579c0 -24.667 -8.66699 -44.834 -26 -60.501s-38.333 -23.5 -63 -23.5s-45.667 7.83301 -63 23.5s-26 35.834 -26 60.501c0 25.333 8.66699 45.833 26 61.5s38.333 23.5 63 23.5
s45.667 -7.83301 63 -23.5s26 -36.167 26 -61.5z" />
    <glyph glyph-name="Zcaron" unicode="&#x17d;" horiz-adv-x="561" 
d="M233 663l-108 133h126l42 -46l42 46h126l-108 -133h-120zM527 139v-139h-493v119l285 357h-282v138h487v-118l-282 -357h285z" />
    <glyph glyph-name="zcaron" unicode="&#x17e;" horiz-adv-x="456" 
d="M395 649l-96 -151h-120l-96 151h116l40 -56l40 56h116zM424 123v-123h-393v103l198 225h-192v122h384v-102l-190 -225h193z" />
    <glyph glyph-name="florin" unicode="&#x192;" horiz-adv-x="420" 
d="M47 234v122h80l16 93c20 116.667 82.667 175 188 175c26.667 0 51 -4 73 -12v-128c-12 6 -26.333 9 -43 9c-32.667 0 -52.667 -17.667 -60 -53l-15 -84h79v-122h-100l-39 -222c-10 -58 -28.5 -101.667 -55.5 -131s-67.833 -44 -122.5 -44c-28.667 0 -54 4 -76 12v114
c12 -6 26 -9 42 -9s27.833 4.33301 35.5 13s13.167 22 16.5 40l39 227h-58z" />
    <glyph glyph-name="Aringacute" unicode="&#x1fa;" horiz-adv-x="646" 
d="M241 614h164l234 -614h-163l-44 119h-223l-43 -119h-159zM427 717c0 -24 -10.167 -44.333 -30.5 -61s-45.5 -25 -75.5 -25s-55.167 8.33301 -75.5 25s-30.5 37 -30.5 61s10.167 44.333 30.5 61s45.5 25 75.5 25s55.167 -8.33301 75.5 -25s30.5 -37 30.5 -61zM401 821
h-153l63 102h160zM321 424l-63 -173h126zM357 717c0 8.66699 -3.33301 15.667 -10 21s-15.334 8 -26.001 8s-19.5 -2.66699 -26.5 -8s-10.5 -12.333 -10.5 -21c0 -8 3.5 -14.833 10.5 -20.5s15.833 -8.5 26.5 -8.5s19.334 2.83301 26.001 8.5s10 12.5 10 20.5z" />
    <glyph glyph-name="aringacute" unicode="&#x1fb;" horiz-adv-x="478" 
d="M351 563c0 -24 -10.167 -44.333 -30.5 -61s-45.5 -25 -75.5 -25s-55.333 8.5 -76 25.5s-31 37.167 -31 60.5c0 24 10.333 44.5 31 61.5s46 25.5 76 25.5s55.167 -8.5 75.5 -25.5s30.5 -37.5 30.5 -61.5zM281 563c0 8.66699 -3.33301 15.834 -10 21.501
s-15.334 8.5 -26.001 8.5s-19.5 -2.83301 -26.5 -8.5s-10.5 -12.834 -10.5 -21.501c0 -8 3.5 -14.833 10.5 -20.5s15.833 -8.5 26.5 -8.5s19.334 2.83301 26.001 8.5s10 12.5 10 20.5zM325 667h-153l63 102h160zM443 0h-150.999v23c-8 -8 -22.333 -15.167 -43 -21.5
s-42.334 -9.5 -65.001 -9.5c-46.667 0 -85.667 12.833 -117 38.5s-47 61.167 -47 106.5c0 42.667 16.333 77.167 49 103.5s74 39.5 124 39.5c42.667 0 75.667 -8.33301 99 -25v29c0 15.333 -4.66699 28.166 -14 38.499s-23 15.5 -41 15.5c-27.333 0 -45 -11 -53 -33h-148
c6.66699 44.667 28.5 81.834 65.5 111.501s83.833 44.5 140.5 44.5c64 0 113.5 -16.167 148.5 -48.5s52.5 -77.833 52.5 -136.5v-276zM292.001 126v26c-10.667 20.667 -32.667 31 -66 31c-17.333 0 -32 -3.66699 -44 -11s-18 -18 -18 -32c0 -14.667 6 -25.667 18 -33
s26.667 -11 44 -11c32.667 0 54.667 10 66 30z" />
    <glyph glyph-name="AEacute" unicode="&#x1fc;" horiz-adv-x="898" 
d="M352 614h512v-138h-261v-96h236v-135h-236v-106h261v-139h-419v119h-202l-66 -119h-170zM671 666h-154l82 130h161zM445 484l-129 -233h129v233z" />
    <glyph glyph-name="aeacute" unicode="&#x1fd;" horiz-adv-x="732" 
d="M445 500h-144l82 150h149zM221 101c32 0 54.333 12.333 67 37v51h-64c-17.333 0 -31.833 -3.83301 -43.5 -11.5s-17.5 -18.5 -17.5 -32.5c0 -14.667 5.5 -25.667 16.5 -33s24.833 -11 41.5 -11zM565 153h147c-9.33301 -50.667 -32.833 -90.5 -70.5 -119.5
s-85.5 -43.5 -143.5 -43.5s-108.667 18.667 -152 56c-44 -36.667 -97.667 -55 -161 -55c-46 0 -85.167 12.5 -117.5 37.5s-48.5 58.833 -48.5 101.5c0 45.333 18 80.5 54 105.5s81.333 37.5 136 37.5h79v13c0 16 -4.83301 29.167 -14.5 39.5s-24.167 15.5 -43.5 15.5
c-30 0 -48.667 -12 -56 -36h-138c6 45.333 26.667 82.5 62 111.5s80.333 43.5 135 43.5c55.333 0 100 -16.333 134 -49c38 32.667 82.333 49 133 49c66 0 118.167 -20.667 156.5 -62s57.5 -96 57.5 -164v-44h-291c4.66699 -52 30.667 -78 78 -78c34 0 55.333 13.667 64 41z
M498 338c-38 0 -62.001 -21.667 -72.001 -65h136c-1.33301 19.333 -7.66602 35 -18.999 47s-26.333 18 -45 18z" />
    <glyph glyph-name="Oslashacute" unicode="&#x1fe;" horiz-adv-x="652" 
d="M34 36l57.999 64.001c-44 57.333 -66 126.333 -66 207c0 92.667 27.833 168.667 83.5 228s127.834 89 216.501 89c69.333 0 130.333 -20 183 -60l54 61l56 -47l-59 -65c44 -56.667 66 -125.334 66 -206.001c0 -92 -28 -167.833 -84 -227.5s-128 -89.5 -216 -89.5
c-71.333 0 -132.333 19.667 -183 59l-53 -60zM187.999 307.001c0 -29.333 4.33301 -57.667 13 -85l208 232c-22.667 19.333 -50.334 29 -83.001 29c-41.333 0 -74.666 -16.167 -99.999 -48.5s-38 -74.833 -38 -127.5zM463.999 307c0 30 -4.33301 58 -13 84l-208 -232
c22.667 -18.667 50.334 -28 83.001 -28c41.333 0 74.666 16.167 99.999 48.5s38 74.833 38 127.5zM398.999 666h-154l82 130h161z" />
    <glyph glyph-name="oslashacute" unicode="&#x1ff;" horiz-adv-x="507" 
d="M30 18l45 50.001c-34.667 43.333 -52 95.666 -52 156.999c0 69.333 21.333 125.833 64 169.5s98 65.5 166 65.5c51.333 0 96.333 -13 135 -39l42 47l45 -37l-44 -50c34.667 -42 52 -94 52 -156c0 -69.333 -21.167 -125.833 -63.5 -169.5s-97.833 -65.5 -166.5 -65.5
c-51.333 0 -96.333 13 -135 39l-43 -48zM320 500.001h-144l82 150h149zM332 225.001c0 12.667 -1.66797 25.667 -5.00098 39l-118 -132c12.667 -10.667 27.334 -16 44.001 -16c24 0 43.167 10.167 57.5 30.5s21.5 46.5 21.5 78.5zM174.999 225.001
c0 -15.333 1.33301 -28.333 4 -39l118 132c-12.667 10.667 -27.334 16 -44.001 16c-23.333 0 -42.166 -10.333 -56.499 -31s-21.5 -46.667 -21.5 -78z" />
    <glyph glyph-name="Scommaaccent" unicode="&#x218;" horiz-adv-x="544" 
d="M187 -236l49 63.998c-14 4 -25.5 12 -34.5 24s-13.5 26.333 -13.5 43c0 20.667 7.66699 37.834 23 51.501s34.666 20.5 57.999 20.5c22.667 0 41.834 -7.16699 57.501 -21.5s23.5 -33.166 23.5 -56.499c0 -26 -13 -55 -39 -87l-29 -38h-95zM12 181.998
l166.998 -0.00292969c12.667 -42 45.667 -63 99 -63c25.333 0 45.5 5.16699 60.5 15.5s22.5 24.833 22.5 43.5c0 14 -4.66699 24.833 -14 32.5s-24 13.834 -44 18.501l-118 25c-105.333 23.333 -158 80.333 -158 171c0 59.333 22.167 107.333 66.5 144s100.833 55 169.5 55
c72 0 129.833 -17.5 173.5 -52.5s69.834 -80.167 78.501 -135.5h-157c-15.333 40 -46.666 60 -93.999 60c-23.333 0 -42 -4.83301 -56 -14.5s-21 -22.834 -21 -39.501c0 -25.333 17 -41.666 51 -48.999l120 -28c108.667 -26 163 -85 163 -177
c0 -61.333 -22.667 -109.666 -68 -144.999s-102.666 -53 -171.999 -53c-73.333 0 -133.833 16.833 -181.5 50.5s-76.834 80.834 -87.501 141.501z" />
    <glyph glyph-name="scommaaccent" unicode="&#x219;" horiz-adv-x="448" 
d="M140 -236l49 63.998c-14 4 -25.5 12 -34.5 24s-13.5 26.333 -13.5 43c0 20.667 7.66699 37.834 23 51.501s34.666 20.5 57.999 20.5c22.667 0 41.834 -7.16699 57.501 -21.5s23.5 -33.166 23.5 -56.499c0 -26 -13 -55 -39 -87l-29 -38h-95zM16 138.998l153 0.000976562
c7.33301 -26 26.333 -39 57 -39s46 10.333 46 31c0 13.333 -11.667 22.666 -35 27.999l-88 18c-82.667 17.333 -124 61 -124 131c0 46.667 18.333 83.667 55 111s82.334 41 137.001 41c60 0 107.167 -12.833 141.5 -38.5s55.166 -61.5 62.499 -107.5h-145
c-6 24 -24.333 36 -55 36c-28 0 -42 -10 -42 -30c0 -12.667 10.333 -21 31 -25l89 -21c84 -19.333 126 -64.333 126 -135c0 -46.667 -18.5 -83.167 -55.5 -109.5s-84.167 -39.5 -141.5 -39.5c-58.667 0 -107 13 -145 39s-60.333 62.667 -67 110z" />
    <glyph glyph-name="uni0237" unicode="&#x237;" horiz-adv-x="241" 
d="M199 450l-0.00195312 -440c0 -57.333 -14.667 -101.5 -44 -132.5s-71.666 -46.5 -126.999 -46.5c-24.667 0 -43.667 2.33301 -57 7v118c8 -1.33301 15.667 -2 23 -2c16.667 0 28.834 3.83301 36.501 11.5s11.5 20.5 11.5 38.5v446h157z" />
    <glyph glyph-name="circumflex" unicode="&#x2c6;" 
d="M310 649l96 -151h-116l-40 55l-40 -55h-116l96 151h120z" />
    <glyph glyph-name="caron" unicode="&#x2c7;" 
d="M406 649l-96 -151h-120l-96 151h116l40 -56l40 56h116z" />
    <glyph glyph-name="breve" unicode="&#x2d8;" 
d="M250 488c-42.667 0 -77.167 13 -103.5 39s-39.5 63 -39.5 111h108c0 -31.333 11.667 -47 35 -47c24 0 36 15.667 36 47h107c0 -48 -13.167 -85 -39.5 -111s-60.833 -39 -103.5 -39z" />
    <glyph glyph-name="dotaccent" unicode="&#x2d9;" 
d="M339 579c0 -24.667 -8.66699 -44.834 -26 -60.501s-38.333 -23.5 -63 -23.5s-45.667 7.83301 -63 23.5s-26 35.834 -26 60.501c0 25.333 8.66699 45.833 26 61.5s38.333 23.5 63 23.5s45.667 -7.83301 63 -23.5s26 -36.167 26 -61.5z" />
    <glyph glyph-name="ring" unicode="&#x2da;" 
d="M358 589c0 -29.333 -10.333 -54 -31 -74s-46.334 -30 -77.001 -30s-56.334 10 -77.001 30s-31 44.667 -31 74s10.333 54.333 31 75s46.334 31 77.001 31s56.334 -10.333 77.001 -31s31 -45.667 31 -75zM286 589c0 10.667 -3.33301 19.5 -10 26.5
s-15.334 10.5 -26.001 10.5c-10 0 -18.5 -3.5 -25.5 -10.5s-10.5 -15.833 -10.5 -26.5c0 -9.33301 3.5 -17.5 10.5 -24.5s15.5 -10.5 25.5 -10.5c10.667 0 19.334 3.33301 26.001 10s10 15 10 25z" />
    <glyph glyph-name="ogonek" unicode="&#x2db;" 
d="M229 8h97.001c-34 -40.667 -52.333 -64.667 -55 -72c-1.33301 -3.33301 -2 -7 -2 -11c0 -12.667 6.33301 -19 19 -19c7.33301 0 19 5 35 15v-87c-20.667 -12.667 -42.334 -19 -65.001 -19c-27.333 0 -49.5 6.83301 -66.5 20.5s-25.5 33.167 -25.5 58.5
c0 13.333 3.33301 27 10 41s13.5 25.333 20.5 34z" />
    <glyph glyph-name="tilde" unicode="&#x2dc;" 
d="M313 647h86c0 -100 -29.333 -150 -88 -150c-16.667 0 -35 6 -55 18s-34.667 18 -44 18c-16.667 0 -25 -11 -25 -33h-86c0 100 29.333 150 88 150c16.667 0 35 -6 55 -18s34.667 -18 44 -18c16.667 0 25 11 25 33z" />
    <glyph glyph-name="hungarumlaut" unicode="&#x2dd;" 
d="M193 500h-122l76 150h123zM351 500h-121l76 150h122z" />
    <glyph glyph-name="Wgrave" unicode="&#x1e80;" horiz-adv-x="820" 
d="M491 666h-154l-89 130h161zM351 614h122l94 -361l85 361h162l-162 -614h-147l-95 360l-96 -360h-147l-161 614h164l86 -361z" />
    <glyph glyph-name="wgrave" unicode="&#x1e81;" horiz-adv-x="698" 
d="M402 450l67 -244l72 244h150l-145 -450h-133l-64 228l-64 -228h-133l-145 450h156l71 -244l68 244h100zM424 500h-144l-87 150h149z" />
    <glyph glyph-name="Wacute" unicode="&#x1e82;" horiz-adv-x="820" 
d="M485 666h-154l82 130h161zM351 614h122l94 -361l85 361h162l-162 -614h-147l-95 360l-96 -360h-147l-161 614h164l86 -361z" />
    <glyph glyph-name="wacute" unicode="&#x1e83;" horiz-adv-x="698" 
d="M416 500h-144l82 150h149zM402 450l67 -244l72 244h150l-145 -450h-133l-64 228l-64 -228h-133l-145 450h156l71 -244l68 244h100z" />
    <glyph glyph-name="Wdieresis" unicode="&#x1e84;" horiz-adv-x="820" 
d="M241 734c0 22 7.5 40.667 22.5 56s33.5 23 55.5 23c21.333 0 39.833 -7.66699 55.5 -23s23.5 -34 23.5 -56s-7.83301 -40.667 -23.5 -56s-34.167 -23 -55.5 -23c-22 0 -40.5 7.66699 -55.5 23s-22.5 34 -22.5 56zM422 734c0 22 7.66699 40.667 23 56s33.666 23 54.999 23
s39.833 -7.66699 55.5 -23s23.5 -34 23.5 -56s-7.83301 -40.667 -23.5 -56s-34.167 -23 -55.5 -23s-39.666 7.66699 -54.999 23s-23 34 -23 56zM351 614h122l94 -361l85 361h162l-162 -614h-147l-95 360l-96 -360h-147l-161 614h164l86 -361z" />
    <glyph glyph-name="wdieresis" unicode="&#x1e85;" horiz-adv-x="698" 
d="M184 567c0 21.333 7.5 39.5 22.5 54.5s33.167 22.5 54.5 22.5s39.5 -7.5 54.5 -22.5s22.5 -33.167 22.5 -54.5c0 -20.667 -7.5 -38.5 -22.5 -53.5s-33.167 -22.5 -54.5 -22.5s-39.5 7.5 -54.5 22.5s-22.5 32.833 -22.5 53.5zM361 567c0 21.333 7.33301 39.5 22 54.5
s32.667 22.5 54 22.5s39.666 -7.5 54.999 -22.5s23 -33.167 23 -54.5c0 -20.667 -7.66699 -38.5 -23 -53.5s-33.666 -22.5 -54.999 -22.5c-20.667 0 -38.5 7.5 -53.5 22.5s-22.5 32.833 -22.5 53.5zM402 450l67 -244l72 244h150l-145 -450h-133l-64 228l-64 -228h-133
l-145 450h156l71 -244l68 244h100z" />
    <glyph glyph-name="Ygrave" unicode="&#x1ef2;" horiz-adv-x="612" 
d="M309 374l129 240h169l-222 -396v-218h-161v218l-218 396h174zM389 666h-154l-89 130h161z" />
    <glyph glyph-name="ygrave" unicode="&#x1ef3;" horiz-adv-x="502" 
d="M264 -159h-155l66 170l-168 439h163l86 -256l84 256h156zM332 500h-144l-87 150h149z" />
    <glyph glyph-name="endash" unicode="&#x2013;" horiz-adv-x="466" 
d="M36 208v107h395v-107h-395z" />
    <glyph glyph-name="emdash" unicode="&#x2014;" horiz-adv-x="837" 
d="M36 208v107h766v-107h-766z" />
    <glyph glyph-name="quoteleft" unicode="&#x2018;" horiz-adv-x="222" 
d="M207 614l-73 -114c19.333 -4 35.333 -13 48 -27s19 -32 19 -54c0 -25.333 -8.83301 -46.333 -26.5 -63s-39.5 -25 -65.5 -25s-47.833 8.66699 -65.5 26s-26.5 41.333 -26.5 72c0 30 12.667 64.333 38 103l53 82h99z" />
    <glyph glyph-name="quoteright" unicode="&#x2019;" horiz-adv-x="222" 
d="M15 341l73 114c-19.333 4 -35.333 13 -48 27s-19 32 -19 54c0 25.333 8.83301 46.333 26.5 63s39.5 25 65.5 25s47.833 -8.66699 65.5 -26s26.5 -41.333 26.5 -72c0 -30 -12.667 -64.333 -38 -103l-53 -82h-99z" />
    <glyph glyph-name="quotesinglbase" unicode="&#x201a;" horiz-adv-x="222" 
d="M15 -113l73 114c-19.333 4 -35.333 13 -48 27s-19 32 -19 54c0 25.333 8.83301 46.333 26.5 63s39.5 25 65.5 25s47.833 -8.66699 65.5 -26s26.5 -41.333 26.5 -72c0 -30 -12.667 -64.333 -38 -103l-53 -82h-99z" />
    <glyph glyph-name="quotedblleft" unicode="&#x201c;" horiz-adv-x="435" 
d="M207 614l-73 -114c19.333 -4 35.333 -13 48 -27s19 -32 19 -54c0 -25.333 -8.83301 -46.333 -26.5 -63s-39.5 -25 -65.5 -25s-47.833 8.66699 -65.5 26s-26.5 41.333 -26.5 72c0 30 12.667 64.333 38 103l53 82h99zM420 614l-73 -114c19.333 -4 35.333 -13 48 -27
s19 -32 19 -54c0 -25.333 -8.83301 -46.333 -26.5 -63s-39.5 -25 -65.5 -25s-47.833 8.66699 -65.5 26s-26.5 41.333 -26.5 72c0 30 12.667 64.333 38 103l53 82h99z" />
    <glyph glyph-name="quotedblright" unicode="&#x201d;" horiz-adv-x="435" 
d="M15 341l73 114c-19.333 4 -35.333 13 -48 27s-19 32 -19 54c0 25.333 8.83301 46.333 26.5 63s39.5 25 65.5 25s47.833 -8.66699 65.5 -26s26.5 -41.333 26.5 -72c0 -30 -12.667 -64.333 -38 -103l-53 -82h-99zM228 341l73 114c-19.333 4 -35.333 13 -48 27
s-19 32 -19 54c0 25.333 8.83301 46.333 26.5 63s39.5 25 65.5 25s47.833 -8.66699 65.5 -26s26.5 -41.333 26.5 -72c0 -30 -12.667 -64.333 -38 -103l-53 -82h-99z" />
    <glyph glyph-name="quotedblbase" unicode="&#x201e;" horiz-adv-x="435" 
d="M15 -113l73 114c-19.333 4 -35.333 13 -48 27s-19 32 -19 54c0 25.333 8.83301 46.333 26.5 63s39.5 25 65.5 25s47.833 -8.66699 65.5 -26s26.5 -41.333 26.5 -72c0 -30 -12.667 -64.333 -38 -103l-53 -82h-99zM228 -113l73 114c-19.333 4 -35.333 13 -48 27
s-19 32 -19 54c0 25.333 8.83301 46.333 26.5 63s39.5 25 65.5 25s47.833 -8.66699 65.5 -26s26.5 -41.333 26.5 -72c0 -30 -12.667 -64.333 -38 -103l-53 -82h-99z" />
    <glyph glyph-name="dagger" unicode="&#x2020;" horiz-adv-x="345" 
d="M24 461v97h99v92h99v-92h99v-97h-99v-185h-99v185h-99z" />
    <glyph glyph-name="daggerdbl" unicode="&#x2021;" horiz-adv-x="349" 
d="M26 496v87h101v67h95v-67h102v-87h-102v-67h102v-86h-102v-67h-95v67h-101v86h101v67h-101z" />
    <glyph glyph-name="bullet" unicode="&#x2022;" horiz-adv-x="381" 
d="M357 261c0 -47.333 -16.167 -86.5 -48.5 -117.5s-71.5 -46.5 -117.5 -46.5c-46.667 0 -86.167 15.5 -118.5 46.5s-48.5 70.167 -48.5 117.5c0 48.667 16.167 88.667 48.5 120s71.833 47 118.5 47s86 -15.667 118 -47s48 -71.333 48 -120z" />
    <glyph glyph-name="ellipsis" unicode="&#x2026;" horiz-adv-x="710" 
d="M19 87c0 26 8.83301 48.001 26.5 66.001s39.5 27 65.5 27s48 -8.83301 66 -26.5s27 -39.834 27 -66.501s-9 -49 -27 -67s-40 -27 -66 -27c-25.333 0 -47 9 -65 27s-27 40.333 -27 67zM263 87.001c0 26.667 8.83301 48.834 26.5 66.501s39.5 26.5 65.5 26.5
s47.833 -8.83301 65.5 -26.5s26.5 -39.834 26.5 -66.501s-8.83301 -49 -26.5 -67s-39.5 -27 -65.5 -27s-47.833 9 -65.5 27s-26.5 40.333 -26.5 67zM506 87.001c0 26 9 48.001 27 66.001s39.667 27 65 27c26 0 48 -8.83301 66 -26.5s27 -39.834 27 -66.501s-9 -49 -27 -67
s-40 -27 -66 -27c-25.333 0 -47 9 -65 27s-27 40.333 -27 67z" />
    <glyph glyph-name="perthousand" unicode="&#x2030;" horiz-adv-x="1001" 
d="M98 0l394 614h90l-394 -614h-90zM24 476c0 41.333 14 76.333 42 105s62.333 43 103 43s75.5 -14.333 104.5 -43s43.5 -63.667 43.5 -105c0 -40.667 -14.333 -75 -43 -103s-63.667 -42 -105 -42c-40.667 0 -75 14 -103 42s-42 62.333 -42 103zM657 138
c0 -41.333 -14.167 -76.333 -42.5 -105s-62.833 -43 -103.5 -43s-75.5 14.333 -104.5 43s-43.5 63.667 -43.5 105c0 40.667 14.333 75 43 103s63.667 42 105 42c40.667 0 75.167 -14 103.5 -42s42.5 -62.333 42.5 -103zM563 138c0 14.667 -5 27 -15 37s-22.333 15 -37 15
c-15.333 0 -28.333 -5 -39 -15s-16 -22.333 -16 -37s5.33301 -27.5 16 -38.5s23.667 -16.5 39 -16.5c14.667 0 27 5.33301 37 16s15 23.667 15 39zM977 138c0 -41.333 -14 -76.333 -42 -105s-62.333 -43 -103 -43c-41.333 0 -76.333 14.333 -105 43s-43 63.667 -43 105
c0 40.667 14.333 75 43 103s63.667 42 105 42c40.667 0 75 -14 103 -42s42 -62.333 42 -103zM884 138c0 14.667 -5.16699 27 -15.5 37s-22.5 15 -36.5 15c-15.333 0 -28.333 -5 -39 -15s-16 -22.333 -16 -37s5.5 -27.5 16.5 -38.5s23.833 -16.5 38.5 -16.5
c14 0 26.167 5.5 36.5 16.5s15.5 23.833 15.5 38.5zM117 476c0 -14.667 5.16699 -27 15.5 -37s22.5 -15 36.5 -15c15.333 0 28.333 5 39 15s16 22.333 16 37s-5.33301 27.5 -16 38.5s-23.667 16.5 -39 16.5c-14 0 -26.167 -5.5 -36.5 -16.5s-15.5 -23.833 -15.5 -38.5z" />
    <glyph glyph-name="guilsinglleft" unicode="&#x2039;" horiz-adv-x="278" 
d="M253 58h-136l-92 164l92 164h136l-92 -164z" />
    <glyph glyph-name="guilsinglright" unicode="&#x203a;" horiz-adv-x="278" 
d="M161 58h-136l92 164l-92 164h136l92 -164z" />
    <glyph glyph-name="fraction" unicode="&#x2044;" horiz-adv-x="216" 
d="M336 614l-369 -614h-87l369 614h87z" />
    <glyph glyph-name="Euro" unicode="&#x20ac;" horiz-adv-x="568" 
d="M23 330v76.999h55c15.333 66.667 45 119.5 89 158.5s96.667 58.5 158 58.5c62 0 112 -18.333 150 -55s62.333 -86 73 -148h-141c-12 42.667 -39.333 64 -82 64c-44.667 0 -75.667 -26 -93 -78h134l-15 -77h-132v-23v-21h124l-15 -77h-96c16 -53.333 47 -80 93 -80
c42.667 0 70 21.333 82 64h141c-10.667 -62 -35 -111.333 -73 -148s-88 -55 -150 -55c-61.333 0 -114 19.833 -158 59.5s-73.667 92.834 -89 159.501h-55v77h44v21v23h-44z" />
    <glyph glyph-name="uni2117" unicode="&#x2117;" horiz-adv-x="704" 
d="M669 307c0 -90.667 -30.833 -166.167 -92.5 -226.5s-136.5 -90.5 -224.5 -90.5s-162.833 30.167 -224.5 90.5s-92.5 135.833 -92.5 226.5s30.833 166.167 92.5 226.5s136.5 90.5 224.5 90.5s162.833 -30.167 224.5 -90.5s92.5 -135.833 92.5 -226.5zM622 307
c0 77.333 -26.333 141.833 -79 193.5s-116.334 77.5 -191.001 77.5s-138.334 -25.833 -191.001 -77.5s-79 -116.167 -79 -193.5s26.333 -141.833 79 -193.5s116.334 -77.5 191.001 -77.5s138.334 25.833 191.001 77.5s79 116.167 79 193.5zM391 230h-64v-106h-106v369h170
c41.333 0 74.5 -11.5 99.5 -34.5s37.5 -55.167 37.5 -96.5c0 -42 -12.5 -74.5 -37.5 -97.5s-58.167 -34.5 -99.5 -34.5zM424 362c0 27.333 -15 41 -45 41h-52v-83h52c30 0 45 14 45 42z" />
    <glyph glyph-name="trademark" unicode="&#x2122;" horiz-adv-x="610" 
d="M20 541v73h235v-73h-77v-181h-82v181h-76zM456 360h-49l-47 141v-141h-72v254h96l48 -144l48 144h96v-254h-73v141z" />
    <glyph glyph-name="uni2153" unicode="&#x2153;" horiz-adv-x="731" 
d="M602 614l-420 -614h-92l420 614h92zM536 139l0.000976562 74h23c24 0 36 9.66699 36 29c0 17.333 -9.33301 26 -28 26c-8.66699 0 -16 -3.16699 -22 -9.5s-9.66699 -13.833 -11 -22.5h-102c4 34 17.5 62.333 40.5 85s53.5 34 91.5 34c40.667 0 72.5 -10.167 95.5 -30.5
s34.5 -47.5 34.5 -81.5c0 -12.667 -3.5 -25.667 -10.5 -39s-15.167 -23 -24.5 -29c25.333 -12.667 38 -34.667 38 -66c0 -34.667 -11.833 -62.5 -35.5 -83.5s-55.834 -31.5 -96.501 -31.5c-40 0 -72.167 11.167 -96.5 33.5s-37.5 51.833 -39.5 88.5h108
c2 -20.667 12.333 -31 31 -31c19.333 0 29 8.66699 29 26c0 18.667 -11.333 28 -34 28h-27zM215.001 614v-350h-104v233l-86 -42v105l115 54h75z" />
    <glyph glyph-name="uni2154" unicode="&#x2154;" horiz-adv-x="800" 
d="M671 614l-420 -614h-93l420 614h93zM199 503c0 7.33301 -2.33398 13.5 -7.00098 18.5s-11 7.5 -19 7.5c-7.33301 0 -13.666 -2.83301 -18.999 -8.5s-8.33301 -12.167 -9 -19.5h-110c3.33301 34.667 17.333 63.334 42 86.001s56 34 94 34c40 0 72 -10.333 96 -31
s36 -47.667 36 -81c0 -14.667 -3.33301 -28.834 -10 -42.501s-13.667 -24.5 -21 -32.5s-18.333 -19 -33 -33l-51 -46h114v-89h-264v68l129 119c21.333 21.333 32 38 32 50zM603.999 140v71.999h24c24.667 0 37 10 37 30c0 19.333 -10 29 -30 29
c-9.33301 0 -17 -3.5 -23 -10.5s-9.66699 -15.167 -11 -24.5h-101c4 34 17.5 62.333 40.5 85s53.5 34 91.5 34c40.667 0 72.5 -10.167 95.5 -30.5s34.5 -47.5 34.5 -81.5c0 -12.667 -3.5 -25.667 -10.5 -39s-15.167 -23 -24.5 -29c26 -12.667 39 -34.667 39 -66
c0 -34.667 -12 -62.5 -36 -83.5s-56.333 -31.5 -97 -31.5c-40 0 -72.167 11.167 -96.5 33.5s-37.5 51.833 -39.5 88.5h106c2 -23.333 13.333 -35 34 -35c9.33301 0 16.833 2.83301 22.5 8.5s8.5 12.834 8.5 21.501c0 19.333 -12 29 -36 29h-28z" />
    <glyph glyph-name="uni215B" unicode="&#x215b;" horiz-adv-x="740" 
d="M602 614l-420 -614h-92l420 614h92zM562 75c10.667 0 19.334 2.83301 26.001 8.5s10 13.167 10 22.5s-3.33301 17 -10 23s-15.334 9 -26.001 9s-19.5 -3 -26.5 -9s-10.5 -13.667 -10.5 -23c0 -8.66699 3.5 -16 10.5 -22s15.833 -9 26.5 -9zM562 218
c10 0 18.167 2.83301 24.5 8.5s9.5 12.834 9.5 21.501s-3.16699 15.834 -9.5 21.501s-14.5 8.5 -24.5 8.5s-18.167 -2.83301 -24.5 -8.5s-9.5 -12.834 -9.5 -21.501s3.16699 -15.834 9.5 -21.501s14.5 -8.5 24.5 -8.5zM562 -5c-39.333 0 -72.167 9.16699 -98.5 27.5
s-39.5 43.166 -39.5 74.499c0 38.667 17.333 65 52 79c-26.667 14.667 -40 39.334 -40 74.001c0 33.333 12.167 59.333 36.5 78s54.166 28 89.499 28c34.667 0 64.334 -9.5 89.001 -28.5s37 -44.833 37 -77.5c0 -34.667 -13.667 -59.334 -41 -74.001
c34.667 -14 52 -40.333 52 -79c0 -31.333 -13 -56.166 -39 -74.499s-58.667 -27.5 -98 -27.5zM214.999 614v-350h-104v233l-86 -42v105l115 54h75z" />
    <glyph glyph-name="uni215C" unicode="&#x215c;" horiz-adv-x="770" 
d="M592 75c10.667 0 19.334 2.83301 26.001 8.5s10 13.167 10 22.5s-3.33301 17 -10 23s-15.334 9 -26.001 9c-11.333 0 -20.5 -3 -27.5 -9s-10.5 -13.667 -10.5 -23c0 -8.66699 3.5 -16 10.5 -22s16.167 -9 27.5 -9zM592 218c9.33301 0 17.166 2.83301 23.499 8.5
s9.5 12.834 9.5 21.501s-3.16699 15.834 -9.5 21.501s-14.166 8.5 -23.499 8.5c-10 0 -18.333 -2.83301 -25 -8.5s-10 -12.834 -10 -21.501s3.33301 -15.834 10 -21.501s15 -8.5 25 -8.5zM592 -5c-39.333 0 -72.334 9.16797 -99.001 27.501s-40 43.166 -40 74.499
c0 38.667 17.667 65 53 79c-27.333 15.333 -41 40 -41 74c0 33.333 12.167 59.333 36.5 78s54.5 28 90.5 28c34.667 0 64.334 -9.5 89.001 -28.5s37 -44.833 37 -77.5c0 -34.667 -14 -59.334 -42 -74.001c35.333 -14 53 -40.333 53 -79c0 -31.333 -13 -56.166 -39 -74.499
s-58.667 -27.5 -98 -27.5zM631.999 614.001l-420 -614h-93l420 614h93zM134.999 404.001v71.999h24c24 0 36 10 36 30c0 19.333 -9.66699 29 -29 29c-10 0 -17.833 -3.5 -23.5 -10.5s-9.16699 -15.167 -10.5 -24.5h-101c4 34 17.5 62.333 40.5 85s53.5 34 91.5 34
c40.667 0 72.5 -10.167 95.5 -30.5s34.5 -47.5 34.5 -81.5c0 -13.333 -3.33301 -26.5 -10 -39.5s-15 -22.5 -25 -28.5c26 -12.667 39 -34.667 39 -66c0 -34.667 -11.833 -62.5 -35.5 -83.5s-56.167 -31.5 -97.5 -31.5c-40 0 -72.167 11.167 -96.5 33.5
s-37.5 51.833 -39.5 88.5h106c2.66699 -23.333 14 -35 34 -35c9.33301 0 16.833 2.83301 22.5 8.5s8.5 12.834 8.5 21.501c0 19.333 -12 29 -36 29h-28z" />
    <glyph glyph-name="uni215D" unicode="&#x215d;" horiz-adv-x="778" 
d="M600 75c10 0 18.5 3 25.5 9s10.5 13.333 10.5 22c0 9.33301 -3.5 17 -10.5 23s-15.5 9 -25.5 9c-11.333 0 -20.5 -3 -27.5 -9s-10.5 -13.667 -10.5 -23c0 -8.66699 3.5 -16 10.5 -22s16.167 -9 27.5 -9zM600 218c9.33301 0 17.166 2.83105 23.499 8.49805
s9.5 12.834 9.5 21.501s-3.16699 15.834 -9.5 21.501s-14.166 8.5 -23.499 8.5c-10.667 0 -19.167 -2.66699 -25.5 -8s-9.5 -12.666 -9.5 -21.999c0 -8.66699 3.16699 -15.834 9.5 -21.501s14.833 -8.5 25.5 -8.5zM600 -5.00195c-39.333 0 -72.333 9.16797 -99 27.501
s-40 43.166 -40 74.499c0 38.667 17.667 65 53 79c-27.333 15.333 -41 40 -41 74c0 33.333 12.167 59.333 36.5 78s54.5 28 90.5 28c34.667 0 64.167 -9.33301 88.5 -28s36.5 -44.667 36.5 -78c0 -34.667 -13.667 -59.334 -41 -74.001c35.333 -14 53 -40.333 53 -79
c0 -31.333 -13.167 -56.166 -39.5 -74.499s-58.833 -27.5 -97.5 -27.5zM640 613.999l-420 -614h-93l420 614h93zM168 414.999c-10.667 0 -21.665 -4.33301 -32.998 -13h-88v212h228v-85h-143v-45c10.667 7.33301 27.334 11 50.001 11c36.667 0 65.834 -10.5 87.501 -31.5
s32.5 -48.833 32.5 -83.5c0 -36.667 -12 -66.167 -36 -88.5s-55.667 -33.5 -95 -33.5c-42 0 -75.333 10.167 -100 30.5s-38.334 48.833 -41.001 85.5h105c1.33301 -8 5.16602 -14.833 11.499 -20.5s14.166 -8.5 23.499 -8.5s17.166 3.16699 23.499 9.5s9.5 14.833 9.5 25.5
c0 10 -3.16699 18.333 -9.5 25s-14.833 10 -25.5 10z" />
    <glyph glyph-name="uni215E" unicode="&#x215e;" horiz-adv-x="716" 
d="M537 75c10.667 0 19.5 3 26.5 9s10.5 13.333 10.5 22c0 9.33301 -3.5 17 -10.5 23s-15.833 9 -26.5 9s-19.5 -3 -26.5 -9s-10.5 -13.667 -10.5 -23c0 -8.66699 3.5 -16 10.5 -22s15.833 -9 26.5 -9zM537 218c10 0 18.167 2.83301 24.5 8.5s9.5 12.834 9.5 21.501
s-3.16699 15.834 -9.5 21.501s-14.5 8.5 -24.5 8.5s-18.167 -2.83301 -24.5 -8.5s-9.5 -12.834 -9.5 -21.501s3.16699 -15.834 9.5 -21.501s14.5 -8.5 24.5 -8.5zM537 -5c-39.333 0 -72.166 9.16797 -98.499 27.501s-39.5 43.166 -39.5 74.499c0 38.667 17.667 65 53 79
c-27.333 15.333 -41 40 -41 74c0 33.333 12.167 59.333 36.5 78s54.166 28 89.499 28s65.166 -9.33301 89.499 -28s36.5 -44.667 36.5 -78c0 -34.667 -13.667 -59.334 -41 -74.001c35.333 -14 53 -40.333 53 -79c0 -31.333 -13.167 -56.166 -39.5 -74.499
s-59.166 -27.5 -98.499 -27.5zM577 614.001l-420 -614h-92l420 614h92zM282 544.001l-111 -280h-109l105 260h-138v90h253v-70z" />
    <glyph glyph-name="minus" unicode="&#x2212;" horiz-adv-x="556" 
d="M51 241v116h454v-116h-454z" />
    <glyph glyph-name="approxequal" unicode="&#x2248;" horiz-adv-x="574" 
d="M61 311v109c40.667 26.667 81 40 121 40c25.333 0 59.666 -6.5 102.999 -19.5s77.666 -19.5 102.999 -19.5c42.667 0 84.334 13.667 125.001 41v-109c-42.667 -27.333 -84.334 -41 -125.001 -41c-25.333 0 -59.666 6.66699 -102.999 20s-77.666 20 -102.999 20
c-40 0 -80.333 -13.667 -121 -41zM61 139v107c40 28 80.333 42 121 42c25.333 0 59.666 -6.83301 102.999 -20.5s77.666 -20.5 102.999 -20.5c41.333 0 83 14 125 42v-109c-41.333 -26.667 -83 -40 -125 -40c-25.333 0 -59.666 6.5 -102.999 19.5
s-77.666 19.5 -102.999 19.5c-40 0 -80.333 -13.333 -121 -40z" />
    <glyph glyph-name="notequal" unicode="&#x2260;" horiz-adv-x="574" 
d="M61 340v104h269l60 93h96l-60 -93h87v-104h-153l-51 -79h204v-103h-270l-59 -93h-96l59 93h-86v103h152l51 79h-203z" />
    <glyph glyph-name="lessequal" unicode="&#x2264;" horiz-adv-x="442" 
d="M48 298v139l346 122v-123l-233 -68l233 -69v-122zM48 42v112h346v-112h-346z" />
    <glyph glyph-name="greaterequal" unicode="&#x2265;" horiz-adv-x="442" 
d="M394 437v-139l-346 -121v122l233 69l-233 68v123zM394 154v-112h-346v112h346z" />
    <glyph glyph-name="fi" unicode="&#xfb01;" horiz-adv-x="580" 
d="M537 450v-450h-157v450h157zM548 572c0 -24.667 -8.66699 -44.834 -26 -60.501s-38.333 -23.5 -63 -23.5s-45.667 7.83301 -63 23.5s-26 35.834 -26 60.501c0 25.333 8.66699 45.833 26 61.5s38.333 23.5 63 23.5s45.667 -7.83301 63 -23.5s26 -36.167 26 -61.5zM328 647
v-128c-10.667 6 -23 9 -37 9c-37.333 0 -56 -18 -56 -54v-24h87v-122h-87v-328h-155v328h-67v122h67v33c0 54 15.5 96.833 46.5 128.5s73.833 47.5 128.5 47.5c26.667 0 51 -4 73 -12z" />
    <glyph glyph-name="fl" unicode="&#xfb02;" horiz-adv-x="580" 
d="M537 650v-650h-157v650h157zM328 647v-128c-10.667 6 -23 9 -37 9c-37.333 0 -56 -18 -56 -54v-24h87v-122h-87v-328h-155v328h-67v122h67v33c0 54 15.5 96.833 46.5 128.5s73.833 47.5 128.5 47.5c26.667 0 51 -4 73 -12z" />
    <glyph glyph-name=".null" horiz-adv-x="0" 
 />
    <glyph glyph-name="nonmarkingreturn" horiz-adv-x="333" 
 />
    <glyph glyph-name="i.dot" horiz-adv-x="242" 
d="M199 450v-450h-157v450h157zM210 579c0 -24.667 -8.66699 -44.834 -26 -60.501s-38.333 -23.5 -63 -23.5s-45.667 7.83301 -63 23.5s-26 35.834 -26 60.501c0 25.333 8.66699 45.833 26 61.5s38.333 23.5 63 23.5s45.667 -7.83301 63 -23.5s26 -36.167 26 -61.5z" />
    <glyph glyph-name="space_uni0326" 
d="M170 -236l49 63.998c-14 4 -25.5 12 -34.5 24s-13.5 26.333 -13.5 43c0 20.667 7.66699 37.834 23 51.501s34.666 20.5 57.999 20.5c22.667 0 41.834 -7.16699 57.501 -21.5s23.5 -33.166 23.5 -56.499c0 -26 -13 -55 -39 -87l-29 -38h-95z" />
    <glyph glyph-name="space_uni0326.alt" 
d="M331 696l-51.999 -67c32.667 -10 49 -32.667 49 -68c0 -20.667 -7.83301 -38 -23.5 -52s-35.167 -21 -58.5 -21c-22.667 0 -41.834 7.16699 -57.501 21.5s-23.5 33.5 -23.5 57.5c0 26 13 55.667 39 89l31 40h96z" />
    <glyph glyph-name="space_dotbelowcomb" 
d="M337 -114c0 -24.667 -8.5 -44.667 -25.5 -60s-37.5 -23 -61.5 -23s-44.5 7.66699 -61.5 23s-25.5 35.333 -25.5 60c0 24 8.5 43.5 25.5 58.5s37.5 22.5 61.5 22.5s44.5 -7.5 61.5 -22.5s25.5 -34.5 25.5 -58.5z" />
    <glyph glyph-name="caron.Slovak" 
d="M282 483h-121l43 167h122z" />
    <glyph glyph-name="cedilla.alt" 
d="M274 -181h-133l69 141h134z" />
    <glyph glyph-name="grave.cap" 
d="M371 666h-154l-89 130h161z" />
    <glyph glyph-name="acute.cap" 
d="M282 666h-154l82 130h161z" />
    <glyph glyph-name="circumflex.cap" 
d="M310 798l108 -132h-126l-42 45l-42 -45h-126l108 132h120z" />
    <glyph glyph-name="caron.cap" 
d="M190 663l-108 133h126l42 -46l42 46h126l-108 -133h-120z" />
    <glyph glyph-name="tilde.cap" 
d="M322 809h85c0 -100 -29.333 -150 -88 -150c-17.333 0 -38.333 5.83301 -63 17.5s-42 17.5 -52 17.5c-16 0 -24.667 -10.333 -26 -31h-85c0 100 29.333 150 88 150c17.333 0 38.333 -5.83301 63 -17.5s42 -17.5 52 -17.5c16 0 24.667 10.333 26 31z" />
    <glyph glyph-name="macron.cap" 
d="M117 666v108h265v-108h-265z" />
    <glyph glyph-name="breve.cap" 
d="M250 658c-43.333 0 -78.168 12.667 -104.501 38s-39.5 61.333 -39.5 108h108c0 -28 12 -42 36 -42s36 14 36 42h108c0 -46.667 -13.167 -82.667 -39.5 -108s-61.166 -38 -104.499 -38z" />
    <glyph glyph-name="dotaccent.cap" 
d="M339 743c0 -25.333 -8.66699 -45.833 -26 -61.5s-38.333 -23.5 -63 -23.5s-45.667 7.83301 -63 23.5s-26 36.167 -26 61.5c0 24.667 8.66699 44.834 26 60.501s38.333 23.5 63 23.5s45.667 -7.83301 63 -23.5s26 -35.834 26 -60.501z" />
    <glyph glyph-name="dieresis.cap" 
d="M81 734c0 22 7.5 40.667 22.5 56s33.5 23 55.5 23c21.333 0 39.833 -7.66699 55.5 -23s23.5 -34 23.5 -56s-7.83301 -40.667 -23.5 -56s-34.167 -23 -55.5 -23c-22 0 -40.5 7.66699 -55.5 23s-22.5 34 -22.5 56zM262 734c0 22 7.66699 40.667 23 56s33.666 23 54.999 23
s39.833 -7.66699 55.5 -23s23.5 -34 23.5 -56s-7.83301 -40.667 -23.5 -56s-34.167 -23 -55.5 -23s-39.666 7.66699 -54.999 23s-23 34 -23 56z" />
    <glyph glyph-name="ring.cap" 
d="M358 747c0 -29.333 -10.333 -54.166 -31 -74.499s-46.334 -30.5 -77.001 -30.5s-56.334 10.167 -77.001 30.5s-31 45.166 -31 74.499s10.333 54.166 31 74.499s46.334 30.5 77.001 30.5s56.334 -10.167 77.001 -30.5s31 -45.166 31 -74.499zM286 747
c0 10 -3.33301 18.5 -10 25.5s-15.334 10.5 -26.001 10.5c-10 0 -18.5 -3.5 -25.5 -10.5s-10.5 -15.5 -10.5 -25.5s3.5 -18.5 10.5 -25.5s15.5 -10.5 25.5 -10.5c10.667 0 19.334 3.5 26.001 10.5s10 15.5 10 25.5z" />
    <glyph glyph-name="hungarumlaut.cap" 
d="M193 666h-129l75 130h130zM359 666h-129l76 130h130z" />
    <glyph glyph-name="exclamdown.cap" horiz-adv-x="239" 
d="M26 532c0 25.333 9.16699 46.5 27.5 63.5s40.5 25.5 66.5 25.5s48 -8.5 66 -25.5s27 -38.167 27 -63.5c0 -24.667 -9 -45.5 -27 -62.5s-40 -25.5 -66 -25.5s-48.167 8.5 -66.5 25.5s-27.5 37.833 -27.5 62.5zM24 0l35 408h121l35 -408h-191z" />
    <glyph glyph-name="questiondown.cap" horiz-adv-x="475" 
d="M321 532c0 -25.333 -9 -46.333 -27 -63s-40 -25 -66 -25c-26.667 0 -49.167 8.33301 -67.5 25s-27.5 37.667 -27.5 63s9.16699 46.5 27.5 63.5s40.833 25.5 67.5 25.5c26 0 48 -8.5 66 -25.5s27 -38.167 27 -63.5zM20 174c0 17.333 3.83691 35.334 11.5039 54.001
s14.167 32 19.5 40s17.333 23.167 36 45.5s29 34.5 31 36.5c18 21.333 27.667 40.666 29 57.999h155c-0.666992 -18 -4.33398 -34.333 -11.001 -49s-19.334 -33.667 -38.001 -57c-4.66699 -6 -13 -15.833 -25 -29.5s-20.167 -23.334 -24.5 -29.001
s-8.83301 -13.667 -13.5 -24s-7 -20.166 -7 -29.499c0 -16.667 5.16699 -30.167 15.5 -40.5s23.833 -15.5 40.5 -15.5c18 0 32.167 5.83301 42.5 17.5s16.166 26.167 17.499 43.5h162c-6 -60 -29 -109.167 -69 -147.5s-93 -57.5 -159 -57.5
c-64.667 0 -116.334 16.5 -155.001 49.5s-58 77.833 -58 134.5z" />
    <glyph glyph-name="guilsinglleft.cap" horiz-adv-x="278" 
d="M253 138h-136l-92 164l92 164h136l-92 -164z" />
    <glyph glyph-name="guilsinglright.cap" horiz-adv-x="278" 
d="M161 138h-136l92 164l-92 164h136l92 -164z" />
    <glyph glyph-name="guillemotleft.cap" horiz-adv-x="451" 
d="M245 138h-128l-92 164l92 164h128l-92 -164zM426 138h-128l-92 164l92 164h128l-92 -164z" />
    <glyph glyph-name="guillemotright.cap" horiz-adv-x="451" 
d="M334 138h-128l92 164l-92 164h128l92 -164zM153 138h-128l92 164l-92 164h128l92 -164z" />
    <glyph glyph-name="slash.cap" horiz-adv-x="394" 
d="M5 -64l248 734h136l-248 -734h-136z" />
    <glyph glyph-name="backslash.cap" horiz-adv-x="394" 
d="M141 670l248 -734h-136l-248 734h136z" />
    <glyph glyph-name="bar.cap" horiz-adv-x="223" 
d="M46 -64v734h131v-734h-131z" />
    <glyph glyph-name="periodcentered.cap" horiz-adv-x="233" 
d="M24 295c0 26 9 48.001 27 66.001s39.667 27 65 27c26 0 48 -8.83301 66 -26.5s27 -39.834 27 -66.501s-9 -49 -27 -67s-40 -27 -66 -27c-25.333 0 -47 9 -65 27s-27 40.333 -27 67z" />
    <glyph glyph-name="bullet.cap" horiz-adv-x="381" 
d="M357 295c0 -48 -16 -87.333 -48 -118s-71.333 -46 -118 -46s-86.167 15.333 -118.5 46s-48.5 70 -48.5 118c0 48.667 16.167 88.667 48.5 120s71.833 47 118.5 47s86 -15.667 118 -47s48 -71.333 48 -120z" />
    <glyph glyph-name="hyphen.cap" horiz-adv-x="312" 
d="M36 230v131h241v-131h-241z" />
    <glyph glyph-name="endash.cap" horiz-adv-x="466" 
d="M36 242v106h395v-106h-395z" />
    <glyph glyph-name="emdash.cap" horiz-adv-x="837" 
d="M36 242v106h766v-106h-766z" />
    <glyph glyph-name="parenleft.cap" horiz-adv-x="334" 
d="M30 303c0 94 25.333 173.833 76 239.5s120 108.167 208 127.5v-147c-94 -32 -141 -105.333 -141 -220s47 -188 141 -220v-147c-88 19.333 -157.333 61.833 -208 127.5s-76 145.5 -76 239.5z" />
    <glyph glyph-name="parenright.cap" horiz-adv-x="334" 
d="M304 303c0 -94 -25.333 -173.833 -76 -239.5s-120 -108.167 -208 -127.5v147c94 32 141 105.333 141 220s-47 188 -141 220v147c88 -19.333 157.333 -61.833 208 -127.5s76 -145.5 76 -239.5z" />
    <glyph glyph-name="bracketleft.cap" horiz-adv-x="331" 
d="M192 540v-474h119v-130h-265v734h265v-130h-119z" />
    <glyph glyph-name="bracketright.cap" horiz-adv-x="331" 
d="M139 66v474h-119v130h265v-734h-265v130h119z" />
    <glyph glyph-name="braceleft.cap" horiz-adv-x="366" 
d="M235 220v-125c0 -19.333 9.66699 -29 29 -29h82v-130h-124c-38 0 -69 12 -93 36s-36 55.333 -36 94v143c0 19.333 -9.66699 29 -29 29h-44v130h44c19.333 0 29 9.66699 29 29v143c0 38.667 12 70 36 94s55 36 93 36h124v-130h-82c-19.333 0 -29 -9.66699 -29 -29v-125
c0 -36 -15.667 -63.667 -47 -83c31.333 -19.333 47 -47 47 -83z" />
    <glyph glyph-name="braceright.cap" horiz-adv-x="366" 
d="M131 95v125c0 36 15.667 63.667 47 83c-31.333 19.333 -47 47 -47 83v125c0 19.333 -9.66699 29 -29 29h-82v130h124c38 0 69 -12 93 -36s36 -55.333 36 -94v-143c0 -19.333 9.66699 -29 29 -29h44v-130h-44c-19.333 0 -29 -9.66699 -29 -29v-143
c0 -38.667 -12 -70 -36 -94s-55 -36 -93 -36h-124v130h82c19.333 0 29 9.66699 29 29z" />
    <glyph glyph-name="at.cap" horiz-adv-x="759" 
d="M580 483l-42.001 -243c-4.66699 -27.333 4 -41 26 -41c29.333 0 52.833 14.667 70.5 44s26.5 70.333 26.5 123c0 68.667 -24.167 122.834 -72.5 162.501s-110.166 59.5 -185.499 59.5c-89.333 0 -161.666 -28.333 -216.999 -85s-83 -130.334 -83 -221.001
c0 -40.667 6.16699 -76.834 18.5 -108.501s28.5 -57.5 48.5 -77.5s43.333 -36.5 70 -49.5s53.5 -22 80.5 -27s54.833 -7.5 83.5 -7.5c77.333 0 152 16 224 48v-75c-62.667 -31.333 -137.334 -47 -224.001 -47c-50.667 0 -98.334 6.83301 -143.001 20.5
s-85.334 33.834 -122.001 60.501s-65.667 62.667 -87 108s-32 97 -32 155c0 107.333 35.667 197.666 107 270.999s163.333 110 276 110c98.667 0 179.334 -28.167 242.001 -84.5s94 -127.166 94 -212.499c0 -78.667 -19.833 -139.167 -59.5 -181.5s-89.5 -63.5 -149.5 -63.5
c-52 0 -90.667 16.667 -116 50c-20.667 -32 -53.667 -48 -99 -48c-42.667 0 -76.167 14.5 -100.5 43.5s-36.5 65.833 -36.5 110.5c0 58.667 17.333 109 52 151s79.334 63 134.001 63c18 0 35 -3.5 51 -10.5s27.333 -15.5 34 -25.5l6 28h125zM414.999 265l14.999 86
c-6 20.667 -22 31 -48 31c-20.667 0 -38.167 -9.16699 -52.5 -27.5s-21.5 -40.5 -21.5 -66.5c0 -17.333 4.33301 -31 13 -41s21.334 -15 38.001 -15c24 0 42.667 11 56 33z" />
    <glyph glyph-name="Euro.lt" horiz-adv-x="520" 
d="M24 330l-0.00292969 76.999h45c14.667 66.667 42.334 119.5 83.001 158.5s89.334 58.5 146.001 58.5c57.333 0 103.833 -18.333 139.5 -55s58.5 -86 68.5 -148h-135c-9.33301 42.667 -33 64 -71 64c-37.333 0 -63.666 -26 -78.999 -78h117l-14 -77h-114v-24v-20h106
l-14 -77h-81c14 -54 40.333 -81 79 -81c38 0 61.667 21.333 71 64l135 1c-10 -62 -32.833 -111.333 -68.5 -148s-82.167 -55 -139.5 -55c-56.667 0 -105.5 19.833 -146.5 59.5s-68.5 92.834 -82.5 159.501h-45v77h35v21v23h-35z" />
    <glyph glyph-name="dollar.lt" horiz-adv-x="520" 
d="M203 -86l-0.000976562 95.0029c-49.333 9.33301 -89.5 29.166 -120.5 59.499s-50.5 68.833 -58.5 115.5h156c12.667 -38 43 -57 91 -57c21.333 0 38.5 4.83301 51.5 14.5s19.5 22.5 19.5 38.5c0 15.333 -4.66699 26.833 -14 34.5s-24.666 13.834 -45.999 18.501l-99 23
c-98.667 24 -148 79.667 -148 167c0 47.333 15.333 87.166 46 119.499s71.334 53.166 122.001 62.499v91h128v-94c89.333 -20.667 142 -76.334 158 -167.001h-148c-14 34.667 -42 52 -84 52c-20.667 0 -37.334 -4.5 -50.001 -13.5s-19 -21.167 -19 -36.5
c0 -24 16 -40 48 -48l109 -27c100.667 -24.667 151 -82 151 -172c0 -48 -15 -87.833 -45 -119.5s-70 -52.5 -120 -62.5v-94h-128z" />
    <glyph glyph-name="cent.lt" horiz-adv-x="520" 
d="M43 235c0 58 14.667 107.166 44 147.499s69 66.833 119 79.5v96h128v-96c41.333 -10.667 74.333 -31.167 99 -61.5s39.334 -67.166 44.001 -110.499h-151c-1.33301 14.667 -7.16602 26.667 -17.499 36s-23.833 14 -40.5 14c-21.333 0 -38.5 -9.5 -51.5 -28.5
s-19.5 -44.5 -19.5 -76.5s6.5 -57.333 19.5 -76s30.167 -28 51.5 -28c16.667 0 30.167 4.5 40.5 13.5s16.166 20.833 17.499 35.5h151c-4.66699 -43.333 -19.334 -80.166 -44.001 -110.499s-57.667 -50.833 -99 -61.5v-93h-128v92c-50 13.333 -89.667 40.166 -119 80.499
s-44 89.5 -44 147.5z" />
    <glyph glyph-name="sterling.lt" horiz-adv-x="520" 
d="M244 422l0.000976562 -59h113v-119h-113v-23c0 -42 -7 -72.333 -21 -91h264v-130h-456v130h44c13.333 23.333 20 53.666 20 90.999v23h-64v119h64v54c0 60.667 18 110.334 54 149.001s84.667 58 146 58c57.333 0 103.166 -16.5 137.499 -49.5s52.833 -76.5 55.5 -130.5
h-140c-2 33.333 -18.333 50 -49 50c-36.667 0 -55 -24 -55 -72z" />
    <glyph glyph-name="yen.lt" horiz-adv-x="520" 
d="M42 244v92h95l-127 278h168l85 -203l85 203h162l-130 -278h96v-92h-139v-48h139v-92h-139v-104h-157v104h-138v92h138v48h-138z" />
    <glyph glyph-name="florin.lt" horiz-adv-x="520" 
d="M118 234v122h80l17 93c20 116.667 82.667 175 188 175c27.333 0 51.333 -4 72 -12v-128c-12 6 -26 9 -42 9c-34 0 -54 -17.667 -60 -53l-15 -84h78v-122h-99l-39 -222c-10 -58 -28.667 -101.667 -56 -131s-68 -44 -122 -44c-30 0 -55.333 4 -76 12v114c12 -6 26 -9 42 -9
c15.333 0 26.833 4.33301 34.5 13s13.167 22 16.5 40l40 227h-59z" />
    <glyph glyph-name="zero.lt" horiz-adv-x="520" 
d="M260 -10c-74.667 0 -133.334 29 -176.001 87s-64 134.667 -64 230s21.333 172 64 230s101.334 87 176.001 87s133.334 -29 176.001 -87s64 -134.667 64 -230s-21.333 -172 -64 -230s-101.334 -87 -176.001 -87zM260 483c-56 0 -84 -58.667 -84 -176s28 -176 84 -176
s84 58.667 84 176s-28 176 -84 176z" />
    <glyph glyph-name="one.lt" horiz-adv-x="520" 
d="M60 0v138h149v302l-144 -71v153l192 92h108v-476h125v-138h-430z" />
    <glyph glyph-name="two.lt" horiz-adv-x="520" 
d="M315 423c0 16.667 -5.33301 30.333 -16 41s-24.667 16 -42 16c-18 0 -32.333 -5.83301 -43 -17.5s-16.667 -26.167 -18 -43.5h-165c6 59.333 29.333 108.333 70 147s92.667 58 156 58c67.333 0 120.833 -17.5 160.5 -52.5s59.5 -81.167 59.5 -138.5
c0 -35.333 -10 -67.5 -30 -96.5s-49.333 -61.833 -88 -98.5l-101 -100h221v-138h-445v103l211 210l38 41.5c7.33301 8.33301 14.5 19 21.5 32s10.5 25.167 10.5 36.5z" />
    <glyph glyph-name="three.lt" horiz-adv-x="520" 
d="M213 253l0.00292969 115.002h35c23.333 0 42.166 5.16699 56.499 15.5s21.5 25.833 21.5 46.5c0 17.333 -5.83301 31.666 -17.5 42.999s-27.5 17 -47.5 17s-36.333 -6.5 -49 -19.5s-20 -29.167 -22 -48.5h-153c6.66699 58 30.5 106.167 71.5 144.5
s94.167 57.5 159.5 57.5c64 0 115 -17.333 153 -52s57 -80 57 -136c0 -26 -6.33301 -50.833 -19 -74.5s-28.667 -40.834 -48 -51.501c24 -11.333 42.5 -28.666 55.5 -51.999s19.5 -49 19.5 -77c0 -56 -20 -101.833 -60 -137.5s-93.333 -53.5 -160 -53.5
c-70.667 0 -126.834 18.667 -168.501 56s-64.834 87.666 -69.501 150.999h161c1.33301 -22 8.33301 -39.5 21 -52.5s30.667 -19.5 54 -19.5c20 0 36.5 6 49.5 18s19.5 27.333 19.5 46c0 20.667 -7.33301 36.5 -22 47.5s-34 16.5 -58 16.5h-40z" />
    <glyph glyph-name="four.lt" horiz-adv-x="520" 
d="M352 614l-169 -370h97v104h141v-104h80v-130h-80v-114h-138v114h-267v118l186 382h150z" />
    <glyph glyph-name="five.lt" horiz-adv-x="520" 
d="M266 278c-29.333 0 -53.666 -10.332 -72.999 -30.999h-134v367h384v-137h-253v-92c28 14.667 58.333 22 91 22c64 0 114.667 -18.833 152 -56.5s56 -87.167 56 -148.5c0 -64 -20.333 -115.333 -61 -154s-95 -58 -163 -58c-69.333 0 -125 18.667 -167 56
s-65 87.666 -69 150.999h159c2 -20.667 10.167 -37.667 24.5 -51s32.833 -20 55.5 -20c21.333 0 38.666 7 51.999 21s20 32.333 20 55c0 22 -6.66699 40.167 -20 54.5s-31.333 21.5 -54 21.5z" />
    <glyph glyph-name="six.lt" horiz-adv-x="520" 
d="M491 447l-151.998 0.000976562c-10 30.667 -31.333 46 -64 46c-28.667 0 -51.5 -12.833 -68.5 -38.5s-26.167 -55.834 -27.5 -90.501v-5c22.667 30.667 60.667 46 114 46c60.667 0 109.667 -19 147 -57s56 -85.333 56 -142c0 -62.667 -20.833 -114.334 -62.5 -155.001
s-96.834 -61 -165.501 -61c-82.667 0 -145.334 34 -188.001 102c-34 51.333 -51 118.333 -51 201c0 98 21.833 177.667 65.5 239s103.5 92 179.5 92c59.333 0 107.833 -15.667 145.5 -47s61.5 -74.666 71.5 -129.999zM185.002 202.001c0 -24.667 7.83301 -44.667 23.5 -60
s35.834 -23 60.501 -23c24 0 43.833 7.66699 59.5 23s23.5 35.333 23.5 60s-7.83301 44.834 -23.5 60.501s-35.5 23.5 -59.5 23.5c-24.667 0 -44.834 -7.83301 -60.501 -23.5s-23.5 -35.834 -23.5 -60.501z" />
    <glyph glyph-name="seven.lt" horiz-adv-x="520" 
d="M485 506l-191 -506h-161l182 476h-281v138h451v-108z" />
    <glyph glyph-name="eight.lt" horiz-adv-x="520" 
d="M261 114c22.667 0 41.5 6.33301 56.5 19s22.5 29 22.5 49c0 20.667 -7.5 37.167 -22.5 49.5s-33.833 18.5 -56.5 18.5s-41.5 -6.16699 -56.5 -18.5s-22.5 -28.833 -22.5 -49.5c0 -20 7.5 -36.333 22.5 -49s33.833 -19 56.5 -19zM261 378c20 0 36.667 5.83301 50 17.5
s20 26.5 20 44.5c0 19.333 -6.66699 34.833 -20 46.5s-30 17.5 -50 17.5s-36.667 -5.83301 -50 -17.5s-20 -27.167 -20 -46.5c0 -18 6.66699 -32.833 20 -44.5s30 -17.5 50 -17.5zM261 -10c-66.667 0 -122.166 16.3311 -166.499 48.998s-66.5 76.334 -66.5 131.001
c0 34.667 9.33301 64.5 28 89.5s42.667 42.5 72 52.5c-25.333 12 -45 29.667 -59 53s-21 50 -21 80c0 55.333 20.667 99 62 131s91.666 48 150.999 48s109.666 -16 150.999 -48s62 -75.667 62 -131c0 -30 -7.16699 -56.667 -21.5 -80s-33.833 -41 -58.5 -53
c28.667 -10 52.334 -27.5 71.001 -52.5s28 -54.833 28 -89.5c0 -55.333 -22 -99.166 -66 -131.499s-99.333 -48.5 -166 -48.5z" />
    <glyph glyph-name="nine.lt" horiz-adv-x="520" 
d="M29 167l151.998 -0.000976562c10 -30.667 31.333 -46 64 -46c28.667 0 51.5 12.833 68.5 38.5s26.167 55.834 27.5 90.501v5c-22.667 -30.667 -60.667 -46 -114 -46c-60.667 0 -109.667 19 -147 57s-56 85.333 -56 142c0 62.667 20.833 114.334 62.5 155.001
s96.834 61 165.501 61c82.667 0 145.334 -34 188.001 -102c34 -50.667 51 -117.667 51 -201c0 -98 -21.833 -177.667 -65.5 -239s-103.5 -92 -179.5 -92c-59.333 0 -107.833 15.667 -145.5 47s-61.5 74.666 -71.5 129.999zM334.998 411.999
c0 24.667 -7.83301 44.667 -23.5 60s-35.834 23 -60.501 23c-24 0 -43.833 -7.66699 -59.5 -23s-23.5 -35.333 -23.5 -60s7.83301 -44.834 23.5 -60.501s35.5 -23.5 59.5 -23.5c24.667 0 44.834 7.83301 60.501 23.5s23.5 35.834 23.5 60.501z" />
    <glyph glyph-name="period.tab" horiz-adv-x="260" 
d="M37 87c0 26 8.83301 48.001 26.5 66.001s39.5 27 65.5 27s48 -8.83301 66 -26.5s27 -39.834 27 -66.501s-9 -49 -27 -67s-40 -27 -66 -27c-25.333 0 -47 9 -65 27s-27 40.333 -27 67z" />
    <glyph glyph-name="comma.tab" horiz-adv-x="260" 
d="M30 -105l74.999 115.002c-19.333 4 -35.5 13.167 -48.5 27.5s-19.5 32.5 -19.5 54.5c0 25.333 8.83301 46.166 26.5 62.499s39.834 24.5 66.501 24.5c26 0 47.833 -8.66699 65.5 -26s26.5 -41 26.5 -71c0 -30.667 -12.667 -65.334 -38 -104.001l-55 -83h-99z" />
    <glyph glyph-name="colon.tab" horiz-adv-x="260" 
d="M37 87c0 26 8.83301 48.001 26.5 66.001s39.5 27 65.5 27s48 -8.83301 66 -26.5s27 -39.834 27 -66.501s-9 -49 -27 -67s-40 -27 -66 -27c-25.333 0 -47 9 -65 27s-27 40.333 -27 67zM37 352.001c0 26.667 8.83301 48.834 26.5 66.501s39.5 26.5 65.5 26.5
s48 -8.83301 66 -26.5s27 -39.834 27 -66.501s-9 -49 -27 -67s-40 -27 -66 -27c-25.333 0 -47 9 -65 27s-27 40.333 -27 67z" />
    <glyph glyph-name="semicolon.tab" horiz-adv-x="260" 
d="M30 -105l74.999 115.002c-19.333 4 -35.5 13.167 -48.5 27.5s-19.5 32.5 -19.5 54.5c0 25.333 8.83301 46.166 26.5 62.499s39.834 24.5 66.501 24.5c26 0 47.833 -8.66699 65.5 -26s26.5 -41 26.5 -71c0 -30.667 -12.667 -65.334 -38 -104.001l-55 -83h-99z
M36.999 352.002c0 26.667 8.83301 48.834 26.5 66.501s39.5 26.5 65.5 26.5s48 -8.83301 66 -26.5s27 -39.834 27 -66.501s-9 -49 -27 -67s-40 -27 -66 -27c-25.333 0 -47 9 -65 27s-27 40.333 -27 67z" />
    <glyph glyph-name="space.tab" horiz-adv-x="260" 
 />
    <glyph glyph-name="percent.lt" horiz-adv-x="520" 
d="M19 500c0 34.667 12 64 36 88s53 36 87 36s63.167 -12 87.5 -36s36.5 -53.333 36.5 -88c0 -34 -12.167 -62.833 -36.5 -86.5s-53.5 -35.5 -87.5 -35.5s-63 11.833 -87 35.5s-36 52.5 -36 86.5zM97 500c0 -12.667 4.33301 -23.167 13 -31.5s19.334 -12.5 32.001 -12.5
s23.5 4.16699 32.5 12.5s13.5 18.833 13.5 31.5s-4.5 23.5 -13.5 32.5s-19.833 13.5 -32.5 13.5s-23.334 -4.5 -32.001 -13.5s-13 -19.833 -13 -32.5zM501 114c0 -34.667 -12 -64 -36 -88s-53 -36 -87 -36s-63.167 12 -87.5 36s-36.5 53.333 -36.5 88
c0 34 12.167 62.833 36.5 86.5s53.5 35.5 87.5 35.5s63 -11.833 87 -35.5s36 -52.5 36 -86.5zM423 114c0 12.667 -4.33301 23.167 -13 31.5s-19.334 12.5 -32.001 12.5s-23.5 -4.16699 -32.5 -12.5s-13.5 -18.833 -13.5 -31.5s4.5 -23.5 13.5 -32.5s19.833 -13.5 32.5 -13.5
s23.334 4.5 32.001 13.5s13 19.833 13 32.5zM25 0l382 614h88l-382 -614h-88z" />
    <glyph glyph-name="perthousand.lt" horiz-adv-x="800" 
d="M26 0l407 614h88l-407 -614h-88zM111 500c0 -12.667 4.33301 -23.167 13 -31.5s19 -12.5 31 -12.5c13.333 0 24.333 4.16699 33 12.5s13 18.833 13 31.5s-4.5 23.5 -13.5 32.5s-19.833 13.5 -32.5 13.5c-12 0 -22.333 -4.5 -31 -13.5s-13 -19.833 -13 -32.5zM514 114
c0 -34.667 -11.833 -64 -35.5 -88s-52.5 -36 -86.5 -36c-34.667 0 -64 12 -88 36s-36 53.333 -36 88c0 34 12 62.833 36 86.5s53.333 35.5 88 35.5c34 0 62.833 -11.833 86.5 -35.5s35.5 -52.5 35.5 -86.5zM436 114c0 12.667 -4.16699 23.167 -12.5 31.5
s-18.833 12.5 -31.5 12.5s-23.5 -4.16699 -32.5 -12.5s-13.5 -18.833 -13.5 -31.5s4.5 -23.5 13.5 -32.5s19.833 -13.5 32.5 -13.5s23.167 4.5 31.5 13.5s12.5 19.833 12.5 32.5zM33 500c0 34.667 12 64 36 88s52.667 36 86 36c34.667 0 64 -12 88 -36s36 -53.333 36 -88
c0 -34 -12 -62.833 -36 -86.5s-53.333 -35.5 -88 -35.5c-33.333 0 -62 11.833 -86 35.5s-36 52.5 -36 86.5zM779 114c0 -34.667 -11.833 -64 -35.5 -88s-52.5 -36 -86.5 -36c-34.667 0 -64 12 -88 36s-36 53.333 -36 88c0 34 12 62.833 36 86.5s53.333 35.5 88 35.5
c34 0 62.833 -11.833 86.5 -35.5s35.5 -52.5 35.5 -86.5zM701 114c0 12.667 -4.33301 23.167 -13 31.5s-19 12.5 -31 12.5c-12.667 0 -23.5 -4.16699 -32.5 -12.5s-13.5 -18.833 -13.5 -31.5s4.5 -23.5 13.5 -32.5s19.833 -13.5 32.5 -13.5c12 0 22.333 4.5 31 13.5
s13 19.833 13 32.5z" />
    <glyph glyph-name="plus.lt" horiz-adv-x="520" 
d="M202 526h116v-169h168v-116h-168v-168h-116v168h-169v116h169v169z" />
    <glyph glyph-name="minus.lt" horiz-adv-x="520" 
d="M33 241v116h453v-116h-453z" />
    <glyph glyph-name="multiply.lt" horiz-adv-x="520" 
d="M179 298l-121 120l81 81l121 -120l120 120l81 -81l-120 -120l120 -120l-81 -81l-120 120l-121 -120l-81 81z" />
    <glyph glyph-name="divide.lt" horiz-adv-x="520" 
d="M33 241v116h453v-116h-453zM179 479c0 22 8 40.667 24 56s35 23 57 23s41 -7.66699 57 -23s24 -34 24 -56s-8 -40.667 -24 -56s-35 -23 -57 -23s-41 7.66699 -57 23s-24 34 -24 56zM179 119c0 22 8 40.667 24 56s35 23 57 23s41 -7.66699 57 -23s24 -34 24 -56
s-8 -40.667 -24 -56s-35 -23 -57 -23s-41 7.66699 -57 23s-24 34 -24 56z" />
    <glyph glyph-name="equal.lt" horiz-adv-x="520" 
d="M33 158v103h453v-103h-453zM33 340v105h453v-105h-453z" />
    <glyph glyph-name="less.lt" horiz-adv-x="520" 
d="M87 225v144l346 153v-129l-237 -96l237 -95v-130z" />
    <glyph glyph-name="greater.lt" horiz-adv-x="520" 
d="M433 369v-144l-346 -153v130l236 95l-236 96v129z" />
    <glyph glyph-name="plusminus.lt" horiz-adv-x="520" 
d="M207 561h105v-128h166v-104h-166v-128h-105v128h-165v104h165v128zM42 48v105h436v-105h-436z" />
    <glyph glyph-name="lessequal.lt" horiz-adv-x="520" 
d="M87 298v139l346 122v-123l-234 -68l234 -69v-122zM87 42v112h346v-112h-346z" />
    <glyph glyph-name="greaterequal.lt" horiz-adv-x="520" 
d="M433 437v-139l-346 -121v122l233 69l-233 68v123zM433 154v-112h-346v112h346z" />
    <glyph glyph-name="notequal.lt" horiz-adv-x="520" 
d="M33 340v104h269l60 93h96l-60 -93h88v-104h-154l-51 -79h205v-103h-271l-59 -93h-96l59 93h-86v103h152l51 79h-203z" />
    <glyph glyph-name="approxequal.lt" horiz-adv-x="520" 
d="M33 311v109c42 26.667 82.667 40 122 40c25.333 0 59.5 -6.5 102.5 -19.5s77.5 -19.5 103.5 -19.5c41.333 0 83 13.667 125 41v-109c-43.333 -27.333 -85 -41 -125 -41c-26 0 -60.5 6.66699 -103.5 20s-77.167 20 -102.5 20c-40 0 -80.667 -13.667 -122 -41zM33 139
l-0.000976562 107c41.333 28 82 42 122 42c25.333 0 59.5 -6.83301 102.5 -20.5s77.5 -20.5 103.5 -20.5c40.667 0 82.334 14 125.001 42v-109c-42 -26.667 -83.667 -40 -125 -40c-26 0 -60.5 6.5 -103.5 19.5s-77.167 19.5 -102.5 19.5c-39.333 0 -80 -13.333 -122 -40z
" />
    </font>
</defs>
</svg>
