<svg width="48" height="40" viewBox="0 0 48 40" fill="none" xmlns="http://www.w3.org/2000/svg">
<path d="M43.0312 10.25C43.0938 10.5 43.125 10.9062 43.125 11.4688C43.125 15.9688 42.0312 20.3125 39.8438 24.5C37.5938 28.9375 34.4375 32.4688 30.375 35.0938C25.9375 38.0312 20.8438 39.5 15.0938 39.5C9.59375 39.5 4.5625 38.0312 0 35.0938C0.6875 35.1562 1.46875 35.1875 2.34375 35.1875C6.90625 35.1875 11 33.7812 14.625 30.9688C12.4375 30.9688 10.5 30.3438 8.8125 29.0938C7.1875 27.7812 6.0625 26.1562 5.4375 24.2188C6.0625 24.2812 6.65625 24.3125 7.21875 24.3125C8.09375 24.3125 8.96875 24.2188 9.84375 24.0312C7.59375 23.5312 5.71875 22.375 4.21875 20.5625C2.71875 18.75 1.96875 16.6875 1.96875 14.375V14.1875C3.34375 15 4.8125 15.4375 6.375 15.5C5.0625 14.5625 4 13.375 3.1875 11.9375C2.375 10.5 1.96875 8.9375 1.96875 7.25C1.96875 5.5 2.4375 3.84375 3.375 2.28125C5.8125 5.34375 8.78125 7.78125 12.2812 9.59375C15.8438 11.4062 19.625 12.4062 23.625 12.5938C23.5 11.8438 23.4375 11.0938 23.4375 10.3438C23.4375 8.59375 23.875 6.96875 24.75 5.46875C25.625 3.90625 26.8125 2.6875 28.3125 1.8125C29.8125 0.9375 31.4375 0.5 33.1875 0.5C34.625 0.5 35.9375 0.78125 37.125 1.34375C38.375 1.90625 39.4688 2.65625 40.4062 3.59375C42.6562 3.15625 44.75 2.375 46.6875 1.25C45.9375 3.5625 44.5 5.375 42.375 6.6875C44.25 6.4375 46.125 5.90625 48 5.09375C46.625 7.09375 44.9688 8.8125 43.0312 10.25Z" fill="white"/>
</svg>
